<svg width="32" height="28" viewBox="0 0 32 28" fill="none" xmlns="http://www.w3.org/2000/svg">
<path d="M20.0544 23.6894C20.1684 24.877 20.2673 25.9045 20.3754 27.0319C20.9578 27.0418 21.5034 27.0542 22.049 27.0608C22.5794 27.0666 23.1099 27.0633 23.6404 27.069C23.9371 27.0723 24.1131 27.2201 24.1332 27.5155C24.1541 27.8275 23.9672 27.9637 23.6773 27.9851C23.4829 27.9992 23.2868 28 23.0915 28C18.401 27.9983 13.7096 27.9959 9.0191 27.9926C8.79619 27.9926 8.57159 27.9909 8.35035 27.9703C8.05871 27.9431 7.88859 27.773 7.89278 27.4825C7.89697 27.173 8.09642 27.0624 8.39141 27.0633C9.1733 27.0666 9.9552 27.0633 10.7371 27.0633C11.0128 27.0633 11.2885 27.0633 11.6531 27.0633C11.7721 25.945 11.8852 24.8753 12.0076 23.729C11.6966 23.7141 11.4545 23.6927 11.2131 23.6927C8.6445 23.6877 6.0759 23.6877 3.50647 23.6819C3.19975 23.6819 2.89219 23.6662 2.5863 23.6431C1.06442 23.5276 0.0110018 22.4481 0.0084877 20.9377C-0.00240683 14.8923 -0.00408291 8.846 0.0110018 2.79971C0.015192 1.00299 1.05688 0.00600545 2.8947 0.00435481C11.7461 -0.00224774 20.5975 -0.000597103 29.4489 0.00435481C31.0277 0.00518013 31.9722 0.96255 31.973 2.53396C31.9764 8.69001 31.9412 14.8461 31.9999 21.0013C32.0141 22.5158 30.9255 23.724 29.2209 23.7026C26.5409 23.6679 23.86 23.6902 21.1799 23.6885C20.8514 23.6885 20.5237 23.6885 20.0553 23.6885L20.0544 23.6894ZM7.16368 18.9619C7.23408 18.8489 7.26173 18.8258 7.26173 18.8026C7.2743 16.3845 7.29106 13.9663 7.28268 11.5481C7.28268 11.3657 7.14105 11.1379 6.9944 11.0116C6.64326 10.7104 6.5385 10.3506 6.54437 9.91231C6.55862 8.84022 6.54186 7.76813 6.55024 6.69604C6.55862 5.73289 6.69605 5.60002 7.6707 5.59837C10.184 5.59506 12.6981 5.59837 15.2114 5.59837C18.3398 5.59837 21.4674 5.59424 24.5958 5.60002C25.4288 5.60167 25.5645 5.74445 25.5704 6.56481C25.5771 7.52714 25.5344 8.49111 25.5847 9.45096C25.6266 10.2598 25.5059 10.9407 24.6846 11.2386C24.5338 13.4703 24.5991 18.3471 24.7868 18.9595H31.0411C31.0411 18.5856 31.0411 18.2637 31.0411 17.941C31.0411 12.9932 31.0411 8.04461 31.0411 3.09682C31.0411 2.90453 31.0478 2.7114 31.0378 2.51993C30.985 1.52789 30.457 1.01289 29.4447 1.01289C20.5908 1.00959 11.7369 1.00959 2.88381 1.01537C1.6192 1.0162 1.09291 1.53615 1.09207 2.76092C1.08956 7.92907 1.09375 13.0972 1.09962 18.2654C1.09962 18.4998 1.13649 18.7341 1.15996 19.0114C3.05309 19.0114 4.86661 19.0131 6.67929 19.009C6.84355 19.009 7.00781 18.9784 7.16368 18.9619ZM23.5935 11.2642C21.935 11.0735 8.97385 11.1561 8.35286 11.3673C8.38052 13.8846 8.30761 16.4216 8.3956 18.9429C10.0306 19.1229 23.0236 19.0478 23.5935 18.8695V11.2642ZM1.09459 20.138C1.09459 20.4855 1.09207 20.7306 1.09459 20.9765C1.108 21.9471 1.68708 22.5818 2.65754 22.6734C2.90643 22.6973 3.15952 22.6841 3.41093 22.6841C11.9522 22.6841 20.4936 22.6825 29.0349 22.68C29.2578 22.68 29.4849 22.6924 29.7028 22.6561C30.2618 22.5628 30.6791 22.2772 30.8911 21.7358C31.0981 21.2084 31.0914 20.6844 30.9464 20.138H1.09459ZM24.517 6.74143C23.6329 6.55986 8.15927 6.5838 7.55421 6.75464V10.1871H24.517V6.74143ZM19.0991 23.7496H13.0601C12.7358 24.8679 12.7735 25.9408 12.8079 27.0104H19.3664C19.2759 25.902 19.1896 24.8539 19.0991 23.7496Z" fill="black"/>
</svg>
