<svg width="32" height="28" viewBox="0 0 32 28" fill="none" xmlns="http://www.w3.org/2000/svg">
<path d="M20.2695 23.5378C20.3398 24.7784 20.247 25.8632 20.591 27.018C21.236 27.018 21.8529 27.0134 22.4698 27.0199C22.7182 27.0227 22.992 26.9929 23.2057 27.087C23.3595 27.155 23.5029 27.3992 23.517 27.5754C23.5264 27.6956 23.3276 27.8951 23.1814 27.9491C22.9864 28.0209 22.752 27.9957 22.5335 27.9957C18.6289 27.9976 14.7232 27.9967 10.8185 27.9957C10.662 27.9957 10.5063 27.9929 10.3498 27.9911C10.016 27.9864 9.80229 27.8056 9.78354 27.4915C9.76197 27.1327 10.0292 27.0264 10.3442 27.0236C10.8748 27.019 11.4063 27.0218 11.937 27.0143C12.1517 27.0115 12.3673 26.9901 12.6795 26.9714C12.7807 25.8577 12.8801 24.7709 12.987 23.5993C12.5829 23.5723 12.3129 23.5397 12.0429 23.5397C9.91854 23.5369 7.79416 23.5397 5.66978 23.5425C5.51322 23.5425 5.35666 23.535 5.20103 23.5444C3.21822 23.6692 1.97416 22.2637 2.00041 20.3111C2.07728 14.5698 2.02666 8.82667 2.02853 3.08444C2.02947 1.14768 3.14322 0.00874291 5.08572 0.00594682C12.7085 -0.00244145 20.3314 -0.00150942 27.9542 0.00594682C29.8039 0.00781088 30.866 1.00135 30.9504 2.84957C31.0123 4.21313 30.9982 5.58042 30.9992 6.94584C31.002 11.3226 30.9973 15.6995 30.9907 20.0763C30.9907 20.4155 30.9973 20.7669 30.9195 21.0931C30.6204 22.3402 29.7935 23.5397 27.941 23.5369C25.7539 23.5332 23.5676 23.5369 21.3804 23.5378C21.0439 23.5378 20.7073 23.5378 20.2695 23.5378ZM29.7514 18.86C29.7701 18.5515 29.7954 18.338 29.7954 18.1246C29.7973 13.0972 29.7992 8.06893 29.7935 3.04157C29.7917 1.67894 29.246 1.1626 27.8501 1.1626C20.3539 1.16166 12.8567 1.16166 5.36041 1.16073C5.17291 1.16073 4.98541 1.15607 4.79791 1.16446C4.00103 1.19988 3.43385 1.60717 3.21728 2.37051C3.11697 2.72188 3.09353 3.10401 3.0926 3.47216C3.08322 8.31406 3.08322 13.155 3.08416 17.9969C3.08416 18.2672 3.1151 18.5384 3.13572 18.8609H29.7514V18.86ZM3.16478 20.1471C2.9951 21.7083 3.62978 22.4362 5.11947 22.452C5.30697 22.4539 5.49353 22.452 5.68103 22.452C12.732 22.452 19.7829 22.452 26.8339 22.4529C27.177 22.4529 27.5201 22.4604 27.8632 22.452C29.2273 22.4166 29.9342 21.5414 29.6735 20.1471H3.16478ZM19.3029 26.9509C19.2804 25.7626 19.346 24.6637 19.0704 23.6059H14.0304C13.9517 24.7411 13.8776 25.8101 13.7988 26.9509H19.3029Z" fill="black"/>
<path d="M17.1954 13.1504C18.4114 11.9872 19.511 10.934 20.636 9.8575C20.3276 9.20881 19.8551 8.57969 20.1607 7.84618C20.3454 7.40253 20.6032 6.91042 20.9754 6.63827C21.9073 5.95602 22.6132 5.98119 23.4692 6.56184C24.327 7.14436 24.6617 8.27584 24.2914 9.20228C23.9248 10.1213 23.0632 10.5332 21.9598 10.4465C20.7157 11.5659 19.5851 12.5837 18.4179 13.635C19.1492 14.8373 19.1229 15.897 18.071 16.7862C17.471 17.2942 16.5373 17.3417 15.7835 16.9083C14.726 16.3016 14.6548 15.3033 14.7617 14.1448C13.917 13.5111 13.0301 12.8447 12.1301 12.1689C11.2732 12.8307 10.4013 13.0339 9.35322 12.6079C8.67166 13.3097 7.98166 14.0199 7.29072 14.7301C7.11728 14.9082 6.95697 15.1058 6.7601 15.2539C6.46103 15.4804 6.11791 15.5485 5.8451 15.2269C5.59197 14.9287 5.74385 14.6537 5.98291 14.4077C6.65416 13.7142 7.3226 13.0189 7.98822 12.3209C8.13728 12.1643 8.27228 11.9946 8.44291 11.7961C8.38478 11.5995 8.32853 11.3981 8.26385 11.1987C7.85041 9.92181 8.9051 8.66823 9.70666 8.54613C11.1926 8.31965 12.2342 8.69712 12.522 10.2415C12.6663 11.0132 13.0067 11.4513 13.572 11.8492C13.9292 12.1 14.291 12.3432 14.637 12.6088C15.2088 13.0488 15.7573 13.4933 16.5673 13.1354C16.7689 13.046 17.0539 13.1438 17.1945 13.1513L17.1954 13.1504ZM10.3807 9.50612C9.86885 9.48841 9.26697 10.1054 9.24916 10.6637C9.23229 11.2006 9.82291 11.8185 10.3657 11.8325C10.8888 11.8464 11.5563 11.2416 11.5751 10.7364C11.5957 10.1968 10.9432 9.52476 10.3807 9.50519V9.50612ZM23.3567 8.35507C23.3726 7.80983 22.872 7.2562 22.3395 7.22917C21.7835 7.20028 21.1704 7.78839 21.1835 8.33736C21.1948 8.81083 21.8098 9.42224 22.2851 9.43063C22.8148 9.43995 23.3417 8.91242 23.3567 8.356V8.35507ZM17.8067 15.2456C17.8592 14.7562 17.4701 14.2408 16.9967 14.1709C16.5129 14.1001 15.8801 14.554 15.8238 15.0135C15.7601 15.527 16.2832 16.1347 16.8129 16.1636C17.2835 16.1888 17.7523 15.7554 17.8067 15.2456Z" fill="black"/>
</svg>
