<svg width="32" height="28" viewBox="0 0 32 28" fill="none" xmlns="http://www.w3.org/2000/svg">
<path d="M20.4193 2.04266C21.8242 2.04266 23.221 2.04266 24.6185 2.04266C25.1459 2.04266 25.656 2.0884 26.0985 2.42902C26.6522 2.85459 26.9645 3.40024 26.9942 4.09536C27.0049 4.3396 26.9975 4.58465 26.9975 4.8297C26.9975 11.6592 26.9975 18.488 26.9959 25.3175C26.9959 27.0843 26.1018 27.9902 24.3268 27.9926C18.7514 28 13.176 27.9943 7.60147 28C6.73294 28.0008 5.97236 27.7811 5.42356 27.0688C5.0717 26.6146 4.99918 26.0894 5.00001 25.5283C5.00825 21.1754 5.0033 16.8216 5.00248 12.4679C5.00248 9.88344 5.00165 7.29817 5.00083 4.71371C5.00001 2.91994 5.91056 2.03041 7.7432 2.04103C8.78643 2.04674 9.8313 2.03449 10.8737 2.06962C11.3731 2.08677 11.6755 1.94627 11.8963 1.46843C12.3462 0.493944 13.1299 -0.0116758 14.2465 0.00874506C15.3721 0.0291659 16.4994 0.0324332 17.6242 0.00139356C18.7671 -0.0296461 19.5672 0.458003 20.0839 1.44801C20.1836 1.63914 20.2948 1.82375 20.4193 2.04348V2.04266ZM11.6499 2.9518C10.2507 2.9518 8.99079 2.94689 7.73084 2.95343C6.35801 2.96078 5.8537 3.83888 5.88007 4.83541C5.94105 7.11928 5.89902 9.4056 5.89985 11.6911C5.89985 16.2621 5.8982 20.8323 5.90314 25.4033C5.90397 26.5174 6.38191 26.9814 7.50341 26.9847C8.16264 26.9863 8.82186 26.9822 9.48026 26.9822C14.4236 26.9822 19.3662 26.9847 24.3095 26.979C25.5521 26.9773 25.9971 26.5305 26.0029 25.3175C26.0078 24.2565 25.9988 23.1954 25.9988 22.1343C25.9979 16.285 25.9988 10.4356 25.9955 4.58628C25.9955 3.40514 25.5456 2.9616 24.3639 2.95588C23.2655 2.95016 22.167 2.95098 21.0686 2.95751C20.8585 2.95833 20.6492 2.99917 20.4217 3.02286C20.4053 3.26301 20.3863 3.45006 20.3814 3.63712C20.3748 3.8544 20.3871 4.07249 20.3772 4.28977C20.3492 4.91873 20.224 5.06004 19.5886 5.06249C17.1998 5.0723 14.8101 5.0723 12.4212 5.06494C11.7958 5.06331 11.6738 4.9269 11.6524 4.2816C11.6392 3.8789 11.6499 3.4762 11.6499 2.95343V2.9518ZM19.3233 4.06187C19.3233 3.544 19.3332 3.08657 19.3208 2.62996C19.2945 1.65466 18.7036 0.955455 17.7197 0.901544C16.5438 0.837831 15.3597 0.850084 14.1822 0.896643C13.434 0.926049 12.75 1.56236 12.7047 2.20684C12.6635 2.79741 12.6956 3.3937 12.6956 4.06187H19.3233Z" fill="black"/>
<path d="M18.9072 21.0904C17.8648 21.0904 16.8224 21.0978 15.78 21.0855C15.541 21.0822 15.279 21.0585 15.073 20.9548C14.9411 20.8886 14.8101 20.6493 14.8282 20.5055C14.8463 20.361 15.0276 20.1968 15.1776 20.1192C15.3103 20.0514 15.499 20.0841 15.663 20.0841C17.8302 20.0824 19.9974 20.0824 22.1646 20.0824C22.1918 20.0824 22.2198 20.0824 22.247 20.0824C22.8073 20.1004 23.0248 20.236 23.0405 20.5758C23.0562 20.9246 22.8403 21.0831 22.2807 21.088C21.1559 21.0969 20.0311 21.0904 18.9063 21.0904H18.9072Z" fill="black"/>
<path d="M18.9896 9.33453C20.0328 9.33453 21.0752 9.3329 22.1184 9.33617C22.3096 9.33617 22.5411 9.29533 22.6804 9.38599C22.832 9.48483 22.9688 9.71028 22.9779 9.88671C22.9845 10.0141 22.7941 10.2061 22.6474 10.2706C22.4843 10.3417 22.2709 10.3082 22.0789 10.3082C19.9932 10.3115 17.9068 10.3147 15.8212 10.3123C15.6036 10.3123 15.3737 10.3156 15.171 10.2518C14.9238 10.1742 14.7063 9.97493 14.8208 9.70211C14.8867 9.54446 15.11 9.42275 15.2889 9.35005C15.4306 9.29288 15.6135 9.33453 15.7783 9.33453C16.8487 9.33453 17.9192 9.33453 18.9896 9.33453Z" fill="black"/>
<path d="M18.9121 14.7044C19.9512 14.7044 20.9903 14.7044 22.0286 14.7044C22.1926 14.7044 22.3574 14.7011 22.5205 14.7117C22.7999 14.7297 22.9952 14.8702 23.0117 15.1545C23.029 15.4575 22.823 15.5825 22.5436 15.6021C22.4076 15.6119 22.27 15.607 22.1341 15.607C20.0015 15.6021 17.8689 15.5988 15.7363 15.5898C15.5196 15.589 15.2806 15.6103 15.0927 15.5278C14.9568 15.4681 14.806 15.25 14.815 15.112C14.8241 14.9748 15.0004 14.7951 15.1463 14.7346C15.3103 14.666 15.5221 14.7052 15.7141 14.7044C16.7803 14.7028 17.8466 14.7044 18.9129 14.7036L18.9121 14.7044Z" fill="black"/>
<path d="M10.0307 17.1835C9.49427 16.646 8.99985 16.1502 8.51779 15.6674C8.97678 14.9143 9.08637 14.8898 9.63847 15.3644C9.78021 15.4861 9.92524 15.6054 10.1255 15.7744C10.7608 15.1471 11.3788 14.5369 11.9968 13.9276C12.1715 13.7552 12.3372 13.5706 12.53 13.4203C12.7822 13.2235 13.0524 13.248 13.2634 13.4849C13.4661 13.7119 13.3779 13.9358 13.1818 14.131C12.8143 14.4969 12.4443 14.8596 12.0817 15.2296C11.6046 15.7165 11.139 16.2139 10.6553 16.6942C10.4889 16.8592 10.2845 16.9866 10.0299 17.1835H10.0307Z" fill="black"/>
<path d="M10.1741 10.193C10.6331 9.7405 11.1308 9.24877 11.6293 8.75785C11.9589 8.43357 12.2836 8.1052 12.6198 7.78745C12.8283 7.58978 13.0648 7.58651 13.2799 7.77601C13.5024 7.97205 13.4768 8.2122 13.3277 8.4352C13.2387 8.56834 13.1126 8.67862 12.9972 8.79379C12.2259 9.5608 11.4555 10.3278 10.68 11.0907C10.1939 11.5694 10.0151 11.5743 9.52229 11.1177C9.28332 10.8963 9.05588 10.6611 8.8301 10.4258C8.59937 10.1849 8.35381 9.93409 8.67024 9.59265C8.90509 9.33943 9.12593 9.37538 9.50828 9.71273C9.67061 9.85567 9.83047 10.0011 9.99363 10.1432C10.0118 10.1595 10.0455 10.1587 10.1741 10.193Z" fill="black"/>
<path d="M10.1131 21.3289C10.769 20.6779 11.4044 20.0465 12.0413 19.4167C12.216 19.2435 12.3817 19.0589 12.5737 18.907C12.7978 18.7298 13.059 18.604 13.3013 18.8702C13.5015 19.0908 13.4249 19.3244 13.2576 19.5352C13.19 19.6201 13.1126 19.6985 13.036 19.7761C12.2498 20.5733 11.467 21.3738 10.6735 22.1637C10.2351 22.5999 10.0826 22.6015 9.65001 22.1939C9.37149 21.9317 9.10862 21.654 8.84823 21.3747C8.66282 21.1754 8.59196 20.9287 8.78725 20.7147C8.98996 20.4925 9.23717 20.5701 9.44565 20.7416C9.65413 20.9131 9.8519 21.0978 10.1131 21.3281V21.3289Z" fill="black"/>
</svg>
