<svg width="32" height="28" viewBox="0 0 32 28" fill="none" xmlns="http://www.w3.org/2000/svg">
<path d="M19.8376 23.8927C19.9254 24.9586 20.0024 25.9007 20.0902 26.9632C20.6697 26.9632 21.2166 26.9632 21.7627 26.9632C22.0136 26.9632 22.2645 26.9531 22.5153 26.9632C23.2053 26.9921 23.2722 27.087 23.166 27.9443C22.9142 27.9621 22.6458 27.9978 22.3765 27.9978C18.196 28.0012 14.0155 28.0003 9.835 27.9978C9.11581 27.9978 8.89838 27.8663 8.89921 27.4593C8.90005 27.0972 9.11246 26.9802 9.7982 26.9768C10.5759 26.9734 11.3528 26.9768 12.205 26.9768C12.4508 25.9736 12.4575 24.9866 12.3848 23.8927C12.0252 23.8927 11.7266 23.8927 11.4281 23.8927C9.11497 23.8927 6.80185 23.8885 4.48873 23.8952C3.64828 23.8978 2.97676 23.5594 2.46329 22.9022C2.16391 22.5198 2 22.0873 2 21.5769C2.00836 15.2509 2 8.92415 2.01004 2.59737C2.01171 1.0922 3.04534 0.0415553 4.5272 0.0161159C5.8092 -0.00593154 7.0912 0.00594018 8.3732 0.00594018C14.6444 0.0050922 20.9147 0.0101801 27.1859 4.31607e-06C27.9093 -0.000843664 28.5691 0.122961 29.1135 0.635989C29.6679 1.15834 29.9849 1.77483 29.9832 2.57278C29.9757 8.75794 29.9606 14.944 29.9999 21.1291C30.0108 22.8785 28.585 23.9317 27.2704 23.9054C25.1253 23.8622 22.9786 23.8935 20.8328 23.8935C20.5359 23.8935 20.2398 23.8935 19.8368 23.8935L19.8376 23.8927ZM29.0424 19.1516C29.0616 18.8998 29.0817 18.7616 29.0817 18.6233C29.0834 13.3701 29.0884 8.11687 29.08 2.86278C29.0784 1.68833 28.4194 1.02521 27.2561 1.02436C19.7314 1.01419 12.2058 1.00995 4.68108 1.01673C3.52368 1.01758 2.95502 1.62473 2.95418 2.82293C2.94916 8.04818 2.95418 13.2734 2.9592 18.4987C2.9592 18.7124 3.00603 18.9261 3.03279 19.1525H29.0432L29.0424 19.1516ZM3.04032 20.3634C2.73341 22.201 3.3121 22.9336 5.03565 22.9506C5.20291 22.9523 5.36933 22.9531 5.53658 22.9531C12.5788 22.9548 19.6218 22.9557 26.6641 22.9565C26.8313 22.9565 26.9986 22.9616 27.165 22.9523C28.5733 22.87 29.3159 21.8092 28.9513 20.3634H3.04032ZM13.4192 23.941C13.3649 24.9976 13.3164 25.9457 13.2679 26.892C14.1585 27.0853 18.5155 27.0285 19.0707 26.8013C18.9696 25.8693 18.8667 24.9255 18.7605 23.941H13.4192Z" fill="black"/>
<path d="M16.3713 5.22864C18.4185 5.09127 20.3377 5.79425 22.1373 6.87373C22.7294 7.22903 23.2529 7.71238 23.7706 8.17962C23.891 8.28816 23.9554 8.68077 23.8793 8.74776C23.7212 8.88598 23.4394 8.96908 23.2312 8.93347C23.0372 8.9004 22.8699 8.68925 22.6976 8.54849C20.6229 6.84065 18.2529 6.00709 15.581 6.16905C13.1893 6.31406 11.0116 7.08996 9.12835 8.63074C8.95524 8.77235 8.7813 8.91397 8.60485 9.05049C8.40582 9.20567 8.16497 9.26757 8.02531 9.03014C7.92831 8.86563 7.87395 8.57393 7.95423 8.42553C8.08134 8.19149 8.32553 8.01426 8.54213 7.84042C10.8051 6.01387 13.3741 5.10823 16.3704 5.22949L16.3713 5.22864Z" fill="black"/>
<path d="M16.0761 9.70174C14.4922 9.63729 13.0479 10.1401 11.7584 11.1297C11.6254 11.2323 11.4992 11.3502 11.352 11.4265C11.0794 11.569 10.8076 11.5698 10.6094 11.2917C10.4187 11.0254 10.5575 10.8007 10.7549 10.6252C10.984 10.4208 11.2349 10.2402 11.4833 10.0587C14.1351 8.11941 18.4076 8.23304 20.8261 10.1334C21.0652 10.3216 21.3027 10.5302 21.4775 10.7761C21.5678 10.9033 21.5971 11.2154 21.5135 11.2968C21.3805 11.4274 21.1321 11.4715 20.9298 11.48C20.8177 11.4842 20.6864 11.3561 20.5852 11.2637C19.3124 10.1054 17.7954 9.66952 16.0761 9.70089V9.70174Z" fill="black"/>
<path d="M15.9674 12.2152C16.9617 12.1465 17.8916 12.3593 18.7396 12.8995C18.8801 12.9885 19.059 13.0631 19.136 13.1954C19.2355 13.3659 19.3459 13.6406 19.2748 13.772C19.197 13.9145 18.9177 14.0044 18.7254 14.0061C18.5531 14.0069 18.3716 13.8696 18.2077 13.7703C16.766 12.8978 15.3284 12.8859 13.8901 13.7754C13.8666 13.7899 13.8432 13.806 13.8215 13.8229C13.5455 14.0383 13.2729 14.1019 13.0262 13.7839C12.8171 13.5143 12.8982 13.231 13.3013 12.9537C13.9043 12.5382 14.5599 12.2499 15.3025 12.2177C15.5241 12.2084 15.7457 12.216 15.9674 12.216V12.2152Z" fill="black"/>
<path d="M16.0159 16.5314C15.4949 16.5271 15.111 16.1396 15.1353 15.6418C15.1562 15.2119 15.6195 14.7498 15.9983 14.7803C16.4106 14.8134 16.817 15.3128 16.8237 15.7953C16.8304 16.2498 16.5176 16.5356 16.015 16.5314H16.0159Z" fill="black"/>
</svg>
