<svg width="31" height="28" viewBox="0 0 31 28" fill="none" xmlns="http://www.w3.org/2000/svg">
<path d="M11.246 26.8943C11.3941 25.7688 11.5349 24.7063 11.6921 23.5142C11.2652 23.4923 10.916 23.4594 10.5659 23.4585C7.91571 23.4512 5.26465 23.4613 2.61451 23.4412C1.37766 23.4311 0.519265 22.8333 0.152688 21.7717C0.0658434 21.5198 0.0219639 21.2395 0.0210497 20.9721C0.0119081 14.7989 0.0256205 8.62752 2.40937e-05 2.45524C-0.00546085 1.25401 0.926065 0.197915 2.25982 0.0180956C2.49933 -0.013852 2.74707 0.00622937 2.99023 0.00622937C11.2771 0.00622937 19.5639 0.00622937 27.8507 0.00622937C28.0336 0.00622937 28.2164 0.00166543 28.3992 0.0107933C29.9478 0.0874676 30.9817 1.0888 30.9863 2.62502C31.0046 8.70511 31.0046 14.7861 30.9863 20.8662C30.9817 22.3823 30.0959 23.3225 28.5693 23.4065C27.1715 23.4841 25.7683 23.4457 24.3669 23.4503C22.8183 23.4558 21.2688 23.4512 19.6818 23.4512C19.3582 24.5977 19.882 25.6456 19.7714 26.8249C20.2641 26.8514 20.6746 26.8851 21.086 26.8915C21.6646 26.9016 22.2433 26.8851 22.8229 26.8924C23.1867 26.897 23.5268 27.0029 23.5112 27.4383C23.4966 27.839 23.2077 28.0042 22.8174 27.9969C22.6647 27.9942 22.513 27.9978 22.3603 27.9978C17.8517 27.9978 13.3421 27.9978 8.83352 27.996C8.62052 27.996 8.40295 28.0133 8.19544 27.9759C7.8636 27.9166 7.58844 27.6847 7.65152 27.3662C7.68808 27.179 8.01261 26.939 8.22744 26.9162C8.83078 26.8541 9.44418 26.8933 10.053 26.8924C10.4141 26.8924 10.7761 26.8924 11.2451 26.8924L11.246 26.8943ZM29.9341 18.5039C29.9643 18.2921 29.9953 18.1753 29.9953 18.0585C29.9981 13.0153 30.0081 7.97123 29.9908 2.92807C29.9862 1.7168 29.3719 1.16182 28.1634 1.16182C24.1447 1.16182 20.1252 1.16456 16.1066 1.16456C11.6308 1.16456 7.15513 1.16912 2.67942 1.15817C2.16566 1.15726 1.7223 1.23849 1.36669 1.64195C1.04125 2.01163 0.977258 2.44155 0.977258 2.91164C0.983657 7.86443 0.98 12.8163 0.984571 17.7691C0.984571 18.0019 1.02936 18.2355 1.05588 18.5048H29.9332L29.9341 18.5039ZM0.980914 19.7316C0.980914 20.1177 0.973601 20.4162 0.981829 20.7138C1.00834 21.6758 1.59706 22.2993 2.55601 22.3769C2.76809 22.3942 2.982 22.3832 3.195 22.3832C11.4169 22.3832 19.6389 22.3833 27.8608 22.3823C28.104 22.3823 28.3508 22.3988 28.5903 22.3659C29.2686 22.2737 29.9048 21.7133 29.9771 21.0962C30.0283 20.6599 29.9871 20.2126 29.9871 19.7316H0.980914ZM18.3069 23.5133H12.7991C12.6456 24.6314 12.4993 25.7003 12.343 26.8377H18.6927C18.839 25.6848 18.5336 24.6415 18.3069 23.5133Z" fill="black"/>
<path d="M13.5945 13.51C14.5059 12.7259 15.2472 11.9309 15.8433 11.0026C16.0892 10.6192 16.368 10.2568 16.6395 9.89082C17.145 9.20714 17.5171 9.17976 18.0848 9.83423C18.7412 10.5918 19.3619 11.3805 20.0054 12.15C20.1965 12.3782 20.4141 12.5835 20.6207 12.8008C21.267 12.2641 21.8548 11.7429 22.4782 11.2673C23.3275 10.6183 24.3239 10.538 25.3469 10.6211C25.4666 10.6311 25.6229 10.6338 25.6933 10.7059C25.8286 10.8456 26.0041 11.0409 25.9913 11.1988C25.9804 11.3349 25.7399 11.4654 25.5818 11.5713C25.5178 11.6142 25.4035 11.5886 25.3121 11.585C23.8586 11.5357 22.7452 12.2075 21.8008 13.2362C21.6985 13.3485 21.6089 13.4726 21.5028 13.5812C20.8254 14.2832 20.5329 14.3005 19.8628 13.5739C19.2046 12.8601 18.5931 12.1025 17.9614 11.365C17.806 11.1842 17.6487 11.0044 17.4229 10.7443C17.2218 10.9816 17.0253 11.1605 16.8936 11.3778C16.2099 12.5078 15.2984 13.4434 14.3605 14.3553C13.8513 14.85 13.4857 14.8244 12.9417 14.3617C12.2013 13.7318 11.4526 13.1121 10.6874 12.5142C10.4278 12.3115 10.1179 12.1573 9.80801 12.0386C9.25221 11.825 9.01361 11.9154 8.62784 12.3909C8.37919 12.6976 8.14242 13.0153 7.87366 13.3028C7.38001 13.8304 6.75564 14.0002 6.04717 13.919C5.71259 13.8806 5.43012 13.7656 5.42463 13.3914C5.42006 13.0372 5.68425 12.7615 6.00146 12.82C6.92659 12.9907 7.30414 12.3508 7.73471 11.7693C8.47243 10.7753 9.09223 10.5909 10.2614 11.0537C11.331 11.4763 12.1693 12.2312 13.0066 12.9833C13.1831 13.1422 13.3595 13.3019 13.5935 13.5119L13.5945 13.51Z" fill="black"/>
<path d="M15.6842 6.97263C12.641 6.97263 9.59867 6.97263 6.55544 6.97263C6.31228 6.97263 6.04809 7.0128 5.83326 6.93065C5.6678 6.86766 5.47217 6.64768 5.4612 6.48703C5.45023 6.32821 5.61935 6.08084 5.77475 6.00508C5.97861 5.9065 6.24554 5.91745 6.48505 5.91745C12.7233 5.91197 18.9615 5.91197 25.1997 5.91106C25.3514 5.91106 25.505 5.91015 25.6549 5.92749C25.9575 5.96218 26.2391 6.11644 26.1559 6.43226C26.101 6.64038 25.8432 6.85123 25.6266 6.94342C25.42 7.03197 25.1476 6.97263 24.9044 6.97263C21.831 6.97263 18.7576 6.97263 15.6842 6.97263Z" fill="black"/>
</svg>
