<svg width="32" height="28" viewBox="0 0 32 28" fill="none" xmlns="http://www.w3.org/2000/svg">
<path d="M12.2601 26.947V23.7211C11.9202 23.7056 11.6272 23.6821 11.3334 23.6812C8.6453 23.6772 5.95723 23.6812 3.26917 23.6731C2.83213 23.6715 2.39263 23.639 1.95971 23.5829C0.896333 23.4455 0.21979 22.7935 0.0535353 21.7569C0.010737 21.4911 0.00332963 21.2179 0.00250659 20.9488C3.74522e-05 15.0189 -0.00160864 9.08907 0.00250659 3.1592C0.00250659 2.67304 0.0148522 2.18282 0.0741114 1.70072C0.194276 0.734087 0.976991 0.0479326 1.96464 0.00403171C2.12925 -0.0032851 2.29386 0.00159278 2.45847 0.00159278C11.5646 0.00159278 20.6708 0.00159278 29.7778 0.00321873C31.1959 0.00321873 32.0008 0.802377 32 2.20395C31.9942 8.56714 31.9893 14.9303 31.9835 21.2935C31.9835 21.4829 31.986 21.6724 31.9811 21.8618C31.9737 22.1374 31.9663 22.478 31.6362 22.5105C31.4206 22.5317 31.1819 22.3301 30.9835 22.2415C30.7564 22.3829 30.4963 22.6081 30.1926 22.7203C29.5325 22.9634 29.4132 23.0902 29.6658 23.7113C30 24.5316 29.8469 25.1828 29.1276 25.7088C28.9737 25.821 28.837 25.9568 28.6905 26.0787C28.0058 26.6494 27.9712 26.6527 27.1794 26.2307C26.6346 25.9405 26.27 26.1405 26.1794 26.7803C26.0486 27.7096 25.7309 27.986 24.7827 27.9933C24.4535 27.9957 24.1243 28.0071 23.7951 27.9933C23.0543 27.9599 22.777 27.7014 22.6741 26.973C22.622 26.6066 22.3984 26.3091 22.0033 26.0803C21.9515 26.0893 21.8848 26.082 21.8502 26.1112C20.9794 26.8543 20.9984 26.7364 20.005 26.1486C19.842 26.0519 19.7037 25.9153 19.5506 25.7999C18.7333 25.1844 18.6239 24.5715 19.1811 23.7268C19.2255 23.6593 19.2692 23.5918 19.3161 23.5203C19.2593 23.1309 18.9745 22.9683 18.6403 22.9203C17.9844 22.826 17.8008 22.3642 17.7449 21.8268C17.7004 21.3976 17.7103 20.9602 17.7301 20.5285C17.763 19.8033 18.107 19.444 18.8659 19.2903C19.3078 19.2009 19.3679 19.1172 19.2593 18.6985C19.2115 18.5156 19.1268 18.3424 19.0807 18.1595C18.9399 17.6002 18.977 17.0904 19.4815 16.6929C19.6947 16.5254 19.8708 16.3124 20.0708 16.1262C20.6626 15.575 20.898 15.5523 21.5852 15.9669C21.7012 16.0368 21.8181 16.1067 21.9301 16.1734C22.3169 16.0823 22.4617 15.8661 22.4798 15.4758C22.5103 14.8124 22.5984 14.6783 23.2815 14.5694C23.9226 14.4677 24.5934 14.4458 25.2403 14.5068C25.7547 14.5555 26.1062 14.8848 26.2058 15.4612C26.3218 16.1303 26.5679 16.2018 27.1383 15.8173C27.7712 15.3921 27.9111 15.4059 28.4831 15.9303C28.8247 16.2433 29.1819 16.5392 29.5144 16.8612C29.9358 17.2693 29.9663 17.5815 29.6741 18.0944C29.2263 18.8798 29.2782 18.9635 30.1877 19.3212C30.4757 19.4342 30.7095 19.6798 31.0239 19.9041C31.0379 19.6724 31.0617 19.4708 31.0617 19.2692C31.0642 13.6645 31.065 8.05903 31.0609 2.45435C31.0609 2.18688 31.0782 1.89258 30.9761 1.65763C30.7506 1.13976 30.3292 0.928389 29.7284 0.932454C25.9712 0.958469 22.2132 0.959282 18.4552 0.960095C13.1062 0.960095 7.75805 0.953591 2.40909 0.947901C1.32514 0.947088 0.946538 1.2796 0.944892 2.32997C0.937485 7.74522 0.942423 13.1613 0.944892 18.5765C0.944892 18.7099 0.969584 18.844 0.992629 19.0798C1.31032 19.0928 1.6272 19.1164 1.94407 19.1172C6.46999 19.1204 10.9959 19.1196 15.521 19.1229C15.7934 19.1229 16.0873 19.0985 16.3309 19.1895C16.4996 19.2521 16.6963 19.4936 16.6988 19.6586C16.7013 19.8009 16.4716 20.0196 16.3013 20.0749C16.0502 20.1553 15.7613 20.1334 15.4881 20.1334C10.9901 20.1358 6.49139 20.135 1.99345 20.135H1.07329C0.853534 20.6968 0.891394 21.235 1.00991 21.752C1.15312 22.3764 1.65189 22.7154 2.34818 22.7211C3.41814 22.7309 4.48728 22.7211 5.55723 22.7211C8.98604 22.7211 12.4148 22.7211 15.8428 22.7211C16.0897 22.7211 16.3498 22.687 16.5778 22.7544C16.7251 22.7975 16.9103 22.9878 16.9243 23.1276C16.9391 23.2699 16.8 23.5056 16.6659 23.5658C16.4535 23.6617 16.1893 23.6682 15.9465 23.6715C15.1021 23.6829 14.2576 23.6755 13.3556 23.6755V26.899C13.6058 26.912 13.8659 26.9372 14.1268 26.938C15.9918 26.9462 17.8568 26.9478 19.7218 26.9567C19.9399 26.9575 20.1885 26.9275 20.3663 27.0193C20.5268 27.1023 20.6823 27.3266 20.6988 27.5014C20.7103 27.6193 20.498 27.8006 20.3465 27.8787C20.2132 27.9469 20.0255 27.9201 19.8617 27.9201C16.4609 27.9201 13.0601 27.9193 9.65846 27.9177C9.549 27.9177 9.43871 27.9169 9.32924 27.9104C9.04365 27.8933 8.84941 27.7575 8.85929 27.4624C8.86752 27.1982 9.00167 26.9901 9.29962 26.9649C9.54488 26.9437 9.79262 26.9445 10.0387 26.9437C10.7482 26.9413 11.4576 26.9429 12.2609 26.9429L12.2601 26.947ZM28.8132 24.4731C28.4115 23.9452 28.3583 23.4097 28.6535 22.8666C28.744 22.7 28.8181 22.5203 28.9317 22.3699C29.0239 22.248 29.1564 22.0837 29.284 22.0715C30.0395 22.0016 30.1103 21.5057 30.1029 20.9139C30.0955 20.3578 30.0881 20.3147 29.5416 20.2586C29.2387 20.2277 28.9161 20.2521 28.777 19.9082C28.4807 19.1749 27.9251 18.4448 28.8156 17.6538C28.4354 17.3083 28.1021 17.0051 27.7366 16.6734C27.2189 17.0433 26.6947 17.2839 26.07 16.9213C25.5449 16.6164 24.9926 16.3579 25.2634 15.5897C24.6272 15.3246 24.0609 15.3571 23.428 15.5417C23.651 16.3075 23.1951 16.5856 22.6395 16.9416C21.9613 17.3766 21.5185 17.0303 20.9704 16.6782C20.6198 17.0424 20.2889 17.3872 19.9276 17.7627C20.4445 18.2318 20.4831 18.731 20.2107 19.3578C19.9243 20.0171 19.4799 20.3318 18.7589 20.3383V22.061C19.5218 21.8959 19.8807 22.2423 20.1482 22.8788C20.4305 23.5504 20.3416 24.0715 19.6823 24.6617C19.9317 24.8324 20.1424 24.9609 20.335 25.1121C20.5391 25.2722 20.7268 25.4535 20.9235 25.6275C21.242 25.3804 21.4971 25.1828 21.772 24.9698C22.0346 25.0909 22.2716 25.2283 22.5268 25.3145C23.27 25.5641 23.7498 25.9868 23.6535 26.8372C23.6494 26.8746 23.7136 26.9201 23.7975 27.0291C24.2239 27.0063 24.6971 26.9811 25.2066 26.9535C25.2082 26.2177 25.2206 25.6088 26.0206 25.3023C26.6741 25.0519 27.237 24.7991 27.8206 25.5852C28.1778 25.1844 28.4798 24.8462 28.814 24.4715L28.8132 24.4731Z" fill="black"/>
<path d="M16.428 10.7744C16.8255 11.5516 17.1967 12.2735 17.5654 12.9979C17.651 13.167 17.7449 13.3345 17.8066 13.5125C17.9111 13.8141 17.7811 14.0466 17.5235 14.2019C17.2445 14.3702 17.0453 14.1856 16.8947 13.9922C16.7638 13.8239 16.6831 13.6157 16.5844 13.4239C16.1531 12.5824 15.7235 11.741 15.3078 10.9272H13.6618C13.6535 11.576 13.6453 12.1882 13.6379 12.7995C13.6338 13.0971 13.6412 13.3954 13.6239 13.6922C13.6074 13.9881 13.4231 14.1157 13.1317 14.1173C12.8478 14.119 12.6502 14.0149 12.6222 13.7125C12.6074 13.5515 12.6091 13.3881 12.6091 13.2255C12.6074 11.1687 12.605 9.11102 12.6083 7.05419C12.6099 6.18267 12.6313 6.16479 13.5465 6.15503C14.1498 6.14853 14.7531 6.14284 15.3564 6.15503C16.6181 6.17942 17.3943 6.71436 17.7309 7.77367C18.0815 8.87526 17.7441 9.80693 16.735 10.5272C16.6486 10.589 16.5687 10.6606 16.4264 10.7752L16.428 10.7744ZM13.6963 9.85246C14.7424 10.0533 15.5161 10.0037 16.0617 9.71425C16.6346 9.4102 16.8889 8.87363 16.7704 8.21837C16.6757 7.694 16.2305 7.21272 15.6683 7.16557C15.028 7.11191 14.3786 7.15337 13.6963 7.15337V9.85246Z" fill="black"/>
<path d="M6.86011 9.42158C7.33501 9.43703 7.81649 9.45735 8.29797 9.4663C8.73665 9.47443 9.17616 9.45735 9.61402 9.47361C10.1029 9.4915 10.4033 9.7045 10.4115 10.0077C10.4198 10.3199 10.1367 10.5175 9.62801 10.5215C8.7276 10.5297 7.82637 10.524 6.86423 10.524V13.1515C7.5704 13.1515 8.24694 13.1515 8.92348 13.1515C9.30785 13.1515 9.69221 13.1393 10.0749 13.1597C10.4148 13.1775 10.6692 13.354 10.6585 13.7109C10.6478 14.0588 10.3663 14.1214 10.0667 14.1214C8.83213 14.1198 7.59838 14.1312 6.36382 14.1173C5.82884 14.1117 5.7416 14.0247 5.73007 13.4979C5.71114 12.6589 5.72184 11.8191 5.72102 10.9801C5.7202 9.68011 5.71443 8.38097 5.72184 7.08102C5.72678 6.29649 5.84941 6.17129 6.61896 6.16641C7.68892 6.15991 8.75805 6.16804 9.82801 6.17129C9.96464 6.17129 10.1037 6.16804 10.2379 6.18918C10.5194 6.23308 10.7202 6.41437 10.6552 6.68347C10.6157 6.8485 10.4148 7.02898 10.2436 7.09484C10.0519 7.16882 9.81155 7.12654 9.59262 7.12736C8.71855 7.12898 7.84365 7.12736 6.86011 7.12736V9.42158Z" fill="black"/>
<path d="M20.67 11.0272C20.67 11.6516 20.6716 12.1841 20.67 12.7166C20.6683 13.041 20.6733 13.3653 20.651 13.6889C20.6313 13.9775 20.4461 14.1092 20.1572 14.1214C19.8601 14.1336 19.6864 14.0027 19.656 13.7125C19.6362 13.5247 19.6338 13.3353 19.6338 13.1458C19.6305 11.1191 19.6272 9.09151 19.6288 7.06476C19.6288 6.19406 19.6552 6.17292 20.5663 6.16479C21.3325 6.15828 22.1004 6.13552 22.8659 6.1591C24.2099 6.20056 25.0823 7.16231 25.1556 8.52324C25.2329 9.97116 23.9934 10.9646 22.8815 11.0232C22.5268 11.0419 22.1696 11.0272 21.814 11.0272C21.465 11.0272 21.1152 11.0272 20.67 11.0272ZM20.7078 7.14768V10.0021C21.4823 10.0021 22.2173 10.0525 22.9424 9.98742C23.6403 9.92563 24.1333 9.24354 24.1029 8.53625C24.0724 7.82977 23.5383 7.2054 22.8403 7.15744C22.163 7.11191 21.4807 7.14768 20.7078 7.14768Z" fill="black"/>
<path d="M24.4922 23.4146C23.0403 23.5073 22.0996 22.2593 22.1218 21.174C22.1547 19.5993 23.0807 18.6066 24.5621 18.6269C25.8659 18.6448 26.9342 19.8391 26.9062 21.2472C26.8798 22.5821 25.9342 23.4308 24.4922 23.4146ZM24.5539 22.5601C25.3407 22.6666 25.9984 21.839 25.9885 21.2179C25.977 20.5187 25.3342 19.5546 24.4938 19.5895C23.637 19.6245 23.0469 20.2009 23.0519 21.1008C23.056 21.9602 23.67 22.5569 24.5539 22.5601Z" fill="black"/>
</svg>
