<svg width="32" height="28" viewBox="0 0 32 28" fill="none" xmlns="http://www.w3.org/2000/svg">
<path d="M16.4196 27.9984C13.2676 27.9984 10.1155 27.9984 6.96256 27.9984C5.74454 27.9984 5.05334 27.3177 5.01164 26.0593C4.99239 25.4662 5.00282 24.8722 5.00282 24.2791C5.00282 17.1833 5.00282 10.0875 5.00843 2.99165C5.00843 2.58974 5.04131 2.1854 5.09102 1.78673C5.22493 0.726858 6.13263 0.0940125 7.17264 0.012172C7.30575 0.00163803 7.43966 0.00812045 7.57357 0.00812045C12.0078 0.00812045 16.4429 0.0146029 20.8772 1.74251e-05C21.416 -0.00160318 21.8643 0.109408 22.2507 0.504836C24.0694 2.36772 25.9064 4.21359 27.709 6.09268C27.9006 6.29282 27.992 6.67042 27.9928 6.96618C28.0057 12.9016 27.9985 18.8371 27.9928 24.7726C27.9928 25.2579 28.0129 25.7457 27.972 26.2279C27.8694 27.4409 27.2431 28 26.0363 28C22.8305 28 19.6247 28 16.4188 28V27.9976L16.4196 27.9984ZM21.1482 1.07772C20.8042 1.05989 20.5444 1.03477 20.2846 1.03477C16.1157 1.03234 11.9461 1.03234 7.77724 1.03315C7.56315 1.03315 7.34825 1.02748 7.13656 1.04612C6.45658 1.10608 6.1158 1.43425 6.06207 2.11491C6.02599 2.57192 6.02438 3.03217 6.02438 3.4908C6.02198 8.9968 6.02118 14.5028 6.02278 20.0096C6.02278 22.007 6.02919 24.0044 6.04042 26.0018C6.04603 26.915 6.37159 27.1006 7.13816 27.0981C13.3381 27.0779 19.5389 27.0892 25.7388 27.086C26.7804 27.086 26.9488 26.9045 26.9488 25.8608C26.9488 19.9764 26.9488 14.0928 26.9488 8.20838C26.9488 7.91991 26.9488 7.63144 26.9488 7.28544C26.6 7.26681 26.3402 7.2425 26.0812 7.24169C24.9586 7.23682 23.836 7.24493 22.7142 7.23601C21.6301 7.2271 21.1594 6.75064 21.1514 5.65268C21.1426 4.4113 21.149 3.16992 21.149 1.92773C21.149 1.66519 21.149 1.40265 21.149 1.07772H21.1482ZM22.0944 1.918C22.0944 3.23312 22.0808 4.49071 22.1016 5.74911C22.1088 6.1656 22.3109 6.31956 22.804 6.33739C23.391 6.35846 23.9787 6.34387 24.5665 6.34468C25.1952 6.34468 25.8246 6.34468 26.4437 6.34468C24.9979 4.87317 23.5963 3.44704 22.0944 1.91881V1.918Z" fill="black"/>
<path d="M21.5251 18.8752C21.513 19.1345 21.4922 19.3938 21.4914 19.6531C21.4882 21.2162 21.4914 22.7792 21.4882 24.3423C21.4882 24.557 21.5275 24.8042 21.4377 24.9768C21.3414 25.1607 21.1273 25.3511 20.9357 25.3884C20.8234 25.4103 20.5925 25.1615 20.5284 24.9914C20.4474 24.775 20.4682 24.5149 20.4674 24.2742C20.4634 22.6034 20.4674 20.9325 20.4634 19.2617C20.4634 19.0324 20.4321 18.8031 20.4049 18.4255C19.9919 18.9117 19.6808 19.2747 19.3729 19.6401C19.2694 19.7625 19.1836 19.9018 19.0706 20.0145C18.8934 20.1927 18.6536 20.3694 18.4564 20.1255C18.3305 19.9707 18.3489 19.6928 18.3152 19.4683C18.3096 19.4286 18.3649 19.376 18.3986 19.3354C19.0762 18.5397 19.7361 17.727 20.4426 16.9572C20.7842 16.5853 21.06 16.6234 21.392 17.0083C22.0759 17.7991 22.7455 18.6021 23.4158 19.4043C23.6075 19.6336 23.8256 19.884 23.5153 20.1701C23.3084 20.3605 22.9524 20.264 22.6821 19.9594C22.347 19.581 22.0238 19.192 21.6959 18.8079C21.6381 18.8306 21.5812 18.8525 21.5235 18.8752H21.5251Z" fill="black"/>
<path d="M16.5375 10.047C14.4575 10.047 12.3767 10.047 10.2967 10.047C10.1371 10.047 9.95027 10.0948 9.82358 10.0283C9.6584 9.94242 9.45954 9.78441 9.41864 9.62073C9.35369 9.35982 9.53331 9.16048 9.80674 9.11105C9.9623 9.08269 10.1259 9.09242 10.2854 9.09242C14.4463 9.09242 18.6063 9.08918 22.7671 9.0989C23.0221 9.0989 23.2996 9.15319 23.5225 9.26825C23.6452 9.33146 23.7566 9.59318 23.727 9.73256C23.6997 9.86058 23.4872 9.97402 23.3333 10.0413C23.2202 10.0907 23.071 10.0567 22.9379 10.0567C20.8042 10.0567 18.6705 10.0567 16.5367 10.0567V10.0461L16.5375 10.047Z" fill="black"/>
<path d="M16.5062 14.0831C14.5016 14.0831 12.4978 14.0831 10.4931 14.0831C10.3063 14.0831 10.1187 14.0887 9.93263 14.0742C9.62792 14.0507 9.42345 13.9024 9.42987 13.5677C9.43628 13.2379 9.64557 13.0921 9.94546 13.0621C10.1042 13.0459 10.2654 13.0491 10.4258 13.0491C14.488 13.0491 18.5502 13.0491 22.6124 13.0499C22.7992 13.0499 22.9901 13.0443 23.1713 13.0791C23.4704 13.1374 23.7775 13.2525 23.7422 13.6277C23.7133 13.9364 23.4535 14.0588 23.1609 14.075C22.974 14.0847 22.7872 14.0823 22.5996 14.0823C20.5685 14.0823 18.5373 14.0823 16.5062 14.0823V14.0831Z" fill="black"/>
<path d="M13.0968 16.8276C14.0838 16.8276 15.0717 16.8227 16.0588 16.83C16.6169 16.834 16.8719 16.9831 16.8695 17.2708C16.8671 17.5828 16.5455 17.7886 16.0107 17.7886C14.0895 17.7902 12.1682 17.7886 10.247 17.7732C10.016 17.7716 9.75943 17.7278 9.56378 17.616C9.43708 17.5439 9.316 17.2959 9.34407 17.1582C9.37053 17.0293 9.58302 16.8924 9.73858 16.8502C9.93824 16.7951 10.162 16.8284 10.3753 16.8276C11.2822 16.8267 12.1899 16.8276 13.0968 16.8276Z" fill="black"/>
</svg>
