<svg width="32" height="28" viewBox="0 0 32 28" fill="none" xmlns="http://www.w3.org/2000/svg">
<path d="M28.9983 14.1767C28.9983 18.0004 28.9999 21.8232 28.9983 25.6469C28.9975 27.2143 28.159 28.0032 26.5963 28C19.8462 27.987 13.096 27.9894 6.34508 27.9918C4.61515 27.9918 4.02912 27.4251 4.02832 25.6721C4.02349 18.6493 4.0243 11.6257 4.02269 4.60295C4.02269 3.9247 4.05565 3.244 4.00581 2.56981C3.91015 1.28658 5.00663 -0.012128 6.51229 8.54775e-05C11.3339 0.039983 16.1556 0.0163702 20.9772 0.0179986C22.8526 0.0179986 24.7273 0.0131132 26.6027 0.0245125C28.0923 0.0334691 28.9934 0.949483 28.9967 2.46233C29.0031 6.3674 28.9983 10.2717 28.9983 14.1767ZM5.0211 14.2598C5.0211 18.0012 5.0211 21.7426 5.0211 25.484C5.0211 25.7006 5.00904 25.9188 5.02753 26.1346C5.07496 26.6956 5.38928 27.0123 5.94797 27.0661C6.13366 27.084 6.32257 27.0734 6.50988 27.0734C13.0984 27.0734 19.687 27.0734 26.2747 27.0734C26.462 27.0734 26.6598 27.1092 26.835 27.0612C27.0834 26.9928 27.3455 26.9032 27.5473 26.7493C27.9709 26.4253 28.028 25.94 28.028 25.4319C28.0248 17.8408 28.0296 10.2497 28.028 2.65856C28.028 1.42662 27.6084 1.02276 26.3672 1.02276C19.8863 1.02114 13.4047 1.01951 6.92387 1.01951C6.68432 1.01951 6.43994 1.02114 6.20521 1.06348C5.47288 1.19457 5.07737 1.64403 5.02673 2.38498C5.01226 2.60075 5.02191 2.81897 5.02191 3.03555C5.02191 6.77696 5.0211 10.5184 5.0211 14.2598Z" fill="black"/>
<path d="M13.5573 5.6859C14.0051 4.3245 14.8524 3.6894 16.2005 3.59088C17.8363 3.47037 19.0639 3.90762 19.5759 5.68672C20.3581 5.68672 21.1049 5.67532 21.8509 5.68916C22.8782 5.70789 23.3139 6.13699 23.3164 7.18735C23.3276 11.905 23.3252 16.6227 23.3244 21.3404C23.3244 21.5285 23.3003 21.719 23.2689 21.9055C23.113 22.8215 22.6017 23.2888 21.6829 23.2913C18.174 23.3019 14.6659 23.3019 11.157 23.2937C10.2936 23.2921 9.755 22.7506 9.75339 21.8762C9.74455 16.8873 9.74455 11.8985 9.75178 6.9097C9.75259 6.11989 10.1537 5.71196 10.9359 5.69079C11.7904 5.66799 12.6457 5.6859 13.5573 5.6859ZM10.6923 6.64426C10.665 6.90237 10.6393 7.03509 10.6393 7.16781C10.6368 11.9409 10.6344 16.7147 10.6393 21.4878C10.6401 22.2246 10.8587 22.4339 11.616 22.4469C12.4464 22.4616 13.2768 22.451 14.108 22.451C16.4657 22.451 18.8235 22.4591 21.1813 22.442C21.4867 22.4396 21.8187 22.3639 22.0904 22.2246C22.4313 22.0504 22.3541 21.6661 22.3541 21.3453C22.3557 16.7343 22.3557 12.1241 22.3557 7.51305C22.3557 7.37707 22.3525 7.24191 22.3509 7.10593C22.3461 6.77535 22.1765 6.60273 21.8541 6.60029C21.1636 6.5954 20.4731 6.59866 19.7801 6.59866C19.8259 7.65147 19.707 7.785 18.7375 7.78907C17.3178 7.79477 15.8974 7.7907 14.4778 7.79396C13.5485 7.7964 13.5195 7.76953 13.4609 6.79489C13.4584 6.75174 13.399 6.71184 13.3443 6.64263H10.6931L10.6923 6.64426ZM14.436 6.71184C15.1402 6.8926 18.1233 6.86736 18.7407 6.66706C18.8332 5.80967 18.4995 5.12571 17.7801 4.69661C16.9497 4.20155 16.0542 4.31962 15.2567 4.77233C14.5397 5.17945 14.2913 5.88621 14.436 6.71184Z" fill="black"/>
<path d="M16.4609 15.188C17.395 15.188 18.3299 15.1864 19.264 15.1888C19.4505 15.1888 19.6579 15.1571 19.8163 15.2287C19.9618 15.2947 20.1539 15.486 20.1467 15.6122C20.137 15.7881 19.9923 15.9941 19.846 16.1122C19.7423 16.196 19.5406 16.1684 19.3822 16.1684C17.4601 16.1675 15.5373 16.1659 13.6152 16.1545C13.4062 16.1537 13.1626 16.1488 12.9994 16.0438C12.8483 15.9469 12.7149 15.7148 12.7084 15.5365C12.7044 15.4299 12.944 15.2694 13.1023 15.2141C13.2703 15.1555 13.4713 15.1888 13.6586 15.188C14.5927 15.1864 15.5276 15.188 16.4617 15.1872L16.4609 15.188Z" fill="black"/>
<path d="M16.4255 11.4938C17.4135 11.4938 18.4023 11.4914 19.3902 11.4963C19.5743 11.4971 19.7873 11.4759 19.9337 11.5606C20.0679 11.638 20.2062 11.848 20.1997 11.993C20.1933 12.1371 20.0341 12.3162 19.8943 12.3993C19.7713 12.4734 19.5832 12.4473 19.424 12.4473C17.4473 12.4498 15.4713 12.4579 13.4954 12.4375C13.2221 12.4351 12.9118 12.3431 12.6867 12.1892C12.3652 11.9694 12.4472 11.6445 12.8258 11.5525C13.0557 11.4963 13.3017 11.4987 13.5412 11.4971C14.5027 11.4914 15.4641 11.4938 16.4255 11.4938Z" fill="black"/>
<path d="M15.1016 18.6396C15.7165 18.6396 16.3307 18.6445 16.9457 18.6371C17.2519 18.6331 17.4851 18.7242 17.5043 19.0679C17.5269 19.4733 17.2584 19.554 16.9264 19.5531C15.6972 19.5499 14.4681 19.5597 13.2382 19.5458C12.8483 19.5417 12.6305 19.3268 12.6642 19.0353C12.706 18.677 12.9737 18.6404 13.2575 18.6404C13.8724 18.6404 14.4866 18.6396 15.1016 18.6396Z" fill="black"/>
</svg>
