<svg width="32" height="32" viewBox="0 0 32 32" fill="none" xmlns="http://www.w3.org/2000/svg">
<path d="M12.4013 25.6687C12.082 25.6549 11.7959 25.6312 11.5105 25.6312C9.25411 25.6288 6.99855 25.628 4.74217 25.6337C4.22544 25.6353 3.73451 25.579 3.27098 25.3074C2.45759 24.831 2.0126 24.1442 2.00535 23.189C1.99648 22.0486 2.00132 20.9074 2.00132 19.7671C2.00132 14.8507 2.00132 9.93526 2.00293 5.01896C2.00374 3.3965 2.78407 2.45191 4.37619 2.14928C4.74298 2.07994 5.11783 2.00979 5.48865 2.00979C12.6052 2.00163 19.7226 2.00734 26.8391 2C27.4768 2 28.0604 2.15091 28.603 2.4723C29.5058 3.00659 30.0032 3.78397 30 4.86723C29.9943 7.1757 29.9992 9.48417 29.9992 11.7935C29.9992 15.3247 30.0008 18.8551 29.996 22.3863C29.996 22.7379 29.9935 23.0968 29.9242 23.4386C29.6388 24.8408 28.6884 25.6214 27.2543 25.628C25.0519 25.6386 22.8496 25.6304 20.6472 25.6296C20.3554 25.6296 20.0636 25.6296 19.7927 25.6296C19.5847 26.2234 19.538 27.7284 19.6863 28.8827C20.3046 28.9096 20.939 28.9275 21.5718 28.9683C21.7798 28.9814 22.0249 28.9977 22.1773 29.1143C22.3167 29.2212 22.4247 29.47 22.411 29.6462C22.4022 29.7653 22.174 29.9031 22.0176 29.9651C21.8766 30.0206 21.7 29.9888 21.5388 29.9888C17.725 29.9904 13.9111 29.992 10.0981 29.9879C9.7652 29.9879 9.34762 30.103 9.23073 29.6225C9.14528 29.2726 9.58382 28.9438 10.1449 28.9275C10.7084 28.9104 11.2727 28.9243 11.837 28.9202C11.9958 28.9185 12.1546 28.899 12.4013 28.8818V25.6687ZM7.98525 20.5803C7.98525 20.1961 7.98525 19.8992 7.98525 19.6023C7.98525 15.4462 7.98284 11.2902 7.98525 7.13492C7.98525 6.2205 8.19001 5.98721 9.0429 5.98639C13.8773 5.97987 18.7125 5.97905 23.5469 5.98884C24.4417 5.99047 24.6618 6.25558 24.661 7.17896C24.6553 11.4166 24.6513 15.6534 24.6505 19.891C24.6505 20.1235 24.6843 20.3552 24.7005 20.5697C25.9177 20.7247 28.374 20.6733 28.9641 20.4808C28.9738 20.2573 28.9931 20.0175 28.9931 19.7768C28.9963 15.0775 28.9972 10.3782 28.998 5.67968C28.998 5.40805 29.0036 5.1356 28.9843 4.86479C28.9238 4.02786 28.4788 3.43566 27.6815 3.1991C27.3534 3.10203 26.9971 3.06858 26.6529 3.06777C19.4815 3.06043 12.3102 3.06206 5.13879 3.06206C5.00417 3.06206 4.86954 3.05309 4.73653 3.06451C3.64099 3.15994 3.02672 3.7856 2.9453 4.8917C2.9316 5.08095 2.93724 5.27183 2.93724 5.46189C2.93724 10.2697 2.93724 15.0775 2.93966 19.8853C2.93966 20.0966 2.96304 20.3079 2.97916 20.5803H7.98525ZM23.6315 20.5958V7.04111H8.96793C8.98002 11.5928 8.94536 16.0808 8.9905 20.595L23.6315 20.5958ZM28.9714 21.7541H2.96787C2.96787 22.3153 2.9195 22.8301 2.97916 23.3309C3.07025 24.0895 3.63938 24.5741 4.40279 24.6295C4.56321 24.6409 4.72525 24.6312 4.88567 24.6312C12.2433 24.6312 19.6 24.6312 26.9576 24.6312C27.1721 24.6312 27.3889 24.6442 27.6017 24.623C28.2716 24.5577 28.8891 23.9998 28.9609 23.326C29.0141 22.8235 28.9714 22.3113 28.9714 21.7541ZM18.6956 25.7348C17.6943 25.5513 13.9982 25.5945 13.4549 25.7797V28.8256C14.4569 28.9969 18.1208 28.9536 18.6956 28.7668V25.7348Z" fill="black"/>
<path d="M16.2876 10.9818C14.9446 10.9818 13.6024 10.9818 12.2594 10.9818C12.1248 10.9818 11.9909 10.9794 11.8563 10.9802C11.5282 10.9818 11.2606 10.9068 11.263 10.4965C11.2654 10.1253 11.4557 9.95321 11.82 9.96789C11.9273 9.97197 12.0345 9.96626 12.1425 9.96626C14.9083 9.96544 17.6742 9.96463 20.44 9.96381C20.5472 9.96381 20.6545 9.96626 20.7625 9.96544C21.097 9.96381 21.3776 10.1 21.3864 10.4516C21.3953 10.7942 21.1462 10.9753 20.7988 10.9794C20.6109 10.9818 20.4231 10.9826 20.2353 10.9826C18.9197 10.9826 17.6032 10.9818 16.2876 10.9818Z" fill="black"/>
<path d="M13.7153 14.3744C13.1276 14.3744 12.5399 14.3793 11.9522 14.3711C11.7684 14.3687 11.5685 14.3678 11.4041 14.2985C11.0502 14.1492 11.0195 13.7349 11.3525 13.5407C11.5266 13.4387 11.7547 13.3906 11.9587 13.3874C13.2138 13.371 14.4698 13.3751 15.7258 13.3727C15.779 13.3727 15.8322 13.3784 15.8862 13.3816C16.1732 13.3988 16.4601 13.4812 16.4585 13.814C16.4569 14.1468 16.2183 14.3589 15.8797 14.3654C15.159 14.3793 14.4367 14.3695 13.7161 14.3695L13.7153 14.3744Z" fill="black"/>
<path d="M19.0728 16.2701C19.4058 15.6534 19.704 15.093 20.0104 14.5375C20.1144 14.3499 20.2079 14.137 20.3643 14.0049C20.482 13.9062 20.7585 13.8336 20.8447 13.9021C20.9826 14.0122 21.0438 14.243 21.0898 14.4356C21.1091 14.5171 21.0148 14.6313 20.964 14.7259C20.5311 15.5327 20.1079 16.346 19.6573 17.1429C19.3832 17.6283 19.093 17.669 18.7044 17.2971C18.4142 17.0189 18.124 16.731 17.891 16.4055C17.7919 16.2668 17.7588 15.9781 17.8362 15.8345C17.9692 15.5865 18.2465 15.6053 18.4682 15.757C18.6601 15.8883 18.8261 16.0572 19.0728 16.2701Z" fill="black"/>
<path d="M13.4976 16.6763C13.9797 16.6763 14.4609 16.6763 14.943 16.6763C15.2808 16.6763 15.6105 16.7041 15.65 17.1462C15.6782 17.4635 15.4525 17.6462 14.9817 17.6519C13.9918 17.665 13.001 17.6552 12.0103 17.6544C11.9305 17.6544 11.8249 17.678 11.7741 17.6372C11.6016 17.4969 11.3452 17.3525 11.3106 17.1731C11.2501 16.859 11.5064 16.6902 11.8112 16.6837C12.373 16.6714 12.9349 16.6804 13.4976 16.6804V16.6763Z" fill="black"/>
</svg>
