<svg width="30" height="28" viewBox="0 0 30 28" fill="none" xmlns="http://www.w3.org/2000/svg">
<g clip-path="url(#clip0_1_16331)">
<path d="M9.5079 10.3261C9.40642 10.0929 9.30734 9.88166 9.22264 9.66573C9.10678 9.36863 8.9238 9.22599 8.57302 9.19683C7.78836 9.13142 7.49991 8.79728 7.48952 8.03601C7.48313 7.61597 7.47754 7.19514 7.5063 6.77668C7.54865 6.15962 7.88265 5.79633 8.46275 5.68679C8.94538 5.59537 9.28497 5.30904 9.48153 4.82779C8.94458 4.09174 8.98293 3.36383 9.59659 2.64406C9.81953 2.38321 10.0273 2.10581 10.2798 1.87648C10.8007 1.40364 11.1339 1.41704 11.6605 1.88279C11.7196 1.93559 11.7692 1.99863 11.8291 2.04986C11.8683 2.08375 11.9178 2.10581 12.0081 2.16176C12.5658 2.02543 12.9382 1.76221 12.9646 1.0695C12.9885 0.43117 13.4176 0.0615669 14.0481 0.0253159C14.605 -0.00699483 15.1675 -0.00857097 15.7244 0.0253159C16.3884 0.0662953 16.8079 0.41068 16.76 0.974936C16.7001 1.68814 17.0588 1.96948 17.7324 2.12C17.8779 2.00415 18.0536 1.85048 18.243 1.71651C18.6298 1.44147 19.0724 1.42177 19.4144 1.72202C19.9106 2.15782 20.3844 2.62121 20.8415 3.09799C21.1284 3.39745 21.1052 3.77021 20.8423 4.09331C20.4486 4.57719 20.442 5.10362 20.8223 5.6726C22.2214 5.83809 22.3581 5.99255 22.3613 7.4095C22.3613 7.54111 22.3621 7.67192 22.3613 7.80353C22.3573 8.82802 22.2079 9.00612 21.1763 9.21417C20.9174 9.26618 20.6433 9.59507 20.3541 10.2008C20.5027 10.3931 20.6793 10.5886 20.8183 10.8061C21.1116 11.2647 21.1012 11.561 20.728 11.9409C20.2846 12.3924 19.8171 12.8251 19.3361 13.238C18.955 13.5643 18.6921 13.5588 18.2494 13.2822C18.1152 13.1986 17.9969 13.0907 17.8747 12.9898C17.774 12.9078 17.6781 12.8204 17.591 12.7447C17.0165 12.8401 16.7424 13.0954 16.7688 13.6998C16.7952 14.3067 16.4028 14.67 15.7868 14.7046C15.2562 14.7346 14.7216 14.7259 14.1895 14.7101C13.4088 14.6881 13.0413 14.3264 13.0029 13.5383C12.9901 13.2743 13.0381 13.0253 12.7248 12.8724C12.4092 12.7187 12.1351 12.6312 11.8795 12.9575C11.7988 13.0607 11.7021 13.1545 11.6022 13.2396C11.2019 13.5824 10.9158 13.6163 10.549 13.2767C10.0257 12.792 9.52468 12.2813 9.04605 11.7533C8.70646 11.379 8.74002 11.0756 9.08681 10.7186C9.21225 10.5893 9.35129 10.4727 9.5071 10.3285L9.5079 10.3261ZM17.9114 3.24457C17.5287 3.04676 17.233 2.86551 16.9166 2.73626C16.1391 2.41867 15.5431 2.00652 15.9138 0.991485C15.217 0.902434 14.6026 0.870911 14.0041 1.02143C13.9114 1.44699 13.9362 1.90407 13.7204 2.1728C13.4751 2.47857 13.0141 2.61569 12.6473 2.82689C12.6242 2.84029 12.601 2.8529 12.5778 2.86551C12.0504 3.15499 11.554 3.09195 11.0884 2.67637C11.0532 2.64485 10.9909 2.64327 11.0013 2.64643C10.6082 2.98293 10.2382 3.29894 9.89384 3.59289C10.1304 4.09095 10.7392 4.32895 10.4955 4.9003C10.3109 5.33373 10.0393 5.72934 9.83631 6.15647C9.56703 6.7223 8.98533 6.44806 8.51709 6.64901V8.37567C9.56703 7.95169 9.82512 8.67435 10.1943 9.35366C10.5962 10.0921 10.6745 10.7202 9.85788 11.2899C10.3069 11.7163 10.6961 12.0851 11.082 12.4508C11.6951 11.8686 12.3799 11.747 13.1363 12.0859C13.233 12.1292 13.3257 12.186 13.4264 12.2159C13.8451 12.3412 14.0329 12.5958 13.965 13.0394C13.9322 13.257 13.9594 13.4831 13.9594 13.7227H15.8731C15.8411 13.4555 15.7852 13.2483 15.8027 13.0481C15.8171 12.8803 15.8707 12.6383 15.9897 12.5705C16.5147 12.2711 17.0477 11.9472 17.6214 11.7801C18.0896 11.6446 18.3117 12.1875 18.6513 12.4177C18.6889 12.4429 18.7464 12.4389 18.8551 12.461C19.2306 12.0749 19.6286 11.6666 20.0289 11.2545C19.9138 11.0984 19.8691 10.9913 19.7884 10.9353C19.2378 10.5547 19.269 10.0826 19.5431 9.56092C19.6038 9.44507 19.6549 9.32213 19.6917 9.19683C19.8842 8.53643 20.271 8.1558 21.0221 8.25825C21.1148 8.27085 21.2186 8.20623 21.3401 8.17077V6.55129C20.4204 6.75146 19.9186 6.37713 19.5391 5.57173C19.1339 4.71116 19.3976 4.13114 20.0656 3.56846C19.6341 3.14369 19.2682 2.78276 18.8759 2.39661C18.5371 2.6945 18.2446 2.95141 17.9114 3.24457Z" fill="black"/>
<path d="M5.4804 17.9286C3.62662 17.9751 2.00617 16.4392 1.95423 14.5848C1.90549 12.8542 3.4796 11.249 5.27265 11.2001C7.21431 11.1473 8.79961 12.6352 8.84756 14.5557C8.8931 16.3682 7.38291 17.8805 5.4796 17.9286H5.4804ZM5.45962 17.0097C6.81799 16.9963 7.96461 15.8757 7.96302 14.5643C7.96062 13.268 6.77804 12.1505 5.41967 12.1623C3.9766 12.1749 2.90429 13.1955 2.90908 14.551C2.91308 15.9427 4.03493 17.0231 5.46042 17.0089L5.45962 17.0097Z" fill="black"/>
<path d="M14.929 16.4728C17.0369 16.3467 18.3601 18.2294 18.3377 19.6732C18.3106 21.4376 16.8427 22.9499 15.0609 22.9807C13.2159 23.0122 11.6761 21.5346 11.6186 19.7614C11.5643 18.0915 13.1008 16.3207 14.929 16.4736V16.4728ZM14.9722 22.0192C16.2283 22.0996 17.3973 20.9679 17.4116 19.7157C17.4268 18.4548 16.3074 17.3799 15.0073 17.3681C13.605 17.3554 12.5591 18.3587 12.5647 19.7126C12.5694 21.0042 13.6242 22.0137 14.9722 22.0184V22.0192Z" fill="black"/>
<path d="M24.5332 17.7593C22.5372 17.8783 21.1054 15.8687 21.1701 14.4053C21.2556 12.4643 22.9384 11.0268 24.7066 11.1238C26.5868 11.227 28.0538 12.6235 28.0203 14.4557C27.9835 16.4889 26.3119 17.8775 24.5324 17.7593H24.5332ZM24.6227 16.8491C25.6807 17.0106 27.1109 15.8837 27.1109 14.5101C27.1109 13.1428 25.9931 12.0403 24.5652 12.0419C23.2484 12.0434 22.0586 13.1641 22.0562 14.4053C22.053 15.786 23.1613 16.8404 24.6235 16.8483L24.6227 16.8491Z" fill="black"/>
<path d="M24.5987 18.8543C25.3938 18.8953 26.1888 18.9237 26.9831 18.9796C28.3295 19.075 29.9028 20.2445 29.9835 22.3147C30.0186 23.2044 29.9915 24.0965 29.9899 24.9878C29.9899 25.1179 30.017 25.2904 29.9467 25.3692C29.8189 25.5127 29.6343 25.6687 29.4585 25.6884C29.341 25.701 29.1405 25.5103 29.0806 25.3677C29.0031 25.1841 29.015 24.9579 29.0134 24.7498C29.0078 23.9901 29.0294 23.2296 29.011 22.47C28.9735 20.8781 27.9595 19.8812 26.3478 19.8536C25.2843 19.8354 24.2208 19.8536 23.1573 19.8394C21.8173 19.8213 20.9727 20.5132 20.4381 21.6551C20.3159 21.9159 20.2536 22.2099 20.0977 22.4463C20.0194 22.5653 19.7733 22.667 19.6399 22.6331C19.5096 22.6 19.4058 22.3959 19.3307 22.2469C19.2899 22.165 19.3131 22.0373 19.3402 21.9388C19.7358 20.5108 20.8728 18.8701 23.0015 18.8945C23.5328 18.9008 24.065 18.8953 24.5963 18.8953C24.5963 18.8811 24.5979 18.8677 24.5979 18.8535L24.5987 18.8543Z" fill="black"/>
<path d="M0.0227845 23.7245C0.0227845 23.2273 -0.0107752 22.7268 0.0291768 22.2319C0.1762 20.4099 1.56573 19.0552 3.40992 18.9812C4.68359 18.9299 5.96206 18.9331 7.23733 18.9662C9.07992 19.015 10.4287 20.3689 10.825 22.202C10.8897 22.503 10.7755 22.7292 10.475 22.8135C10.1746 22.8978 10.0452 22.6701 9.94847 22.4494C9.85419 22.2343 9.79825 22.0018 9.70317 21.7867C9.16541 20.5628 8.23213 19.8898 6.86418 19.8677C5.85419 19.8512 4.8442 19.8606 3.83341 19.8693C2.10029 19.8843 0.95127 20.9237 0.908122 22.7962C0.89294 23.4511 0.904926 24.106 0.904127 24.7616C0.904127 24.9185 0.911318 25.0769 0.894538 25.2329C0.862577 25.5276 0.70197 25.7467 0.389544 25.7278C0.109081 25.7105 0.00440655 25.478 0.00200942 25.2171C-0.00198578 24.7191 0.00121038 24.2218 0.00121038 23.7237C0.00840175 23.7237 0.0163922 23.7237 0.0235835 23.7237L0.0227845 23.7245Z" fill="black"/>
<path d="M15.1003 23.8635C15.8178 23.8635 16.5362 23.8588 17.2537 23.8643C18.9053 23.8785 20.4035 25.1087 20.5993 27.1324C20.6089 27.2349 20.6297 27.3696 20.5769 27.439C20.4611 27.5911 20.3076 27.8054 20.1574 27.8157C20.008 27.8259 19.7947 27.6462 19.6996 27.4949C19.6109 27.3539 19.65 27.1379 19.6173 26.9582C19.3776 25.6516 18.4139 24.8257 17.0699 24.8092C15.7403 24.7926 14.4099 24.8423 13.0819 24.7989C11.6309 24.7525 10.7695 25.6666 10.5034 26.7912C10.4435 27.0449 10.4051 27.3042 10.3636 27.5619C10.322 27.8243 10.203 28.0198 9.90652 27.9993C9.60049 27.978 9.55175 27.7463 9.52458 27.4933C9.33121 25.6839 10.8358 23.9549 12.708 23.8745C13.5038 23.8407 14.3028 23.869 15.1003 23.869V23.8643V23.8635Z" fill="black"/>
<path d="M18.5168 7.47008C18.5711 9.34647 17.0114 10.9683 15.1369 11.0377C13.4685 11.0999 11.5028 9.97456 11.4093 7.64109C11.3246 5.52592 12.993 3.9821 14.9195 3.96161C16.6886 3.9427 18.5648 5.37777 18.5168 7.47008ZM14.8996 4.85291C13.4876 4.84267 12.3626 6.02713 12.3546 7.53155C12.3466 8.93589 13.5755 10.1424 15.0026 10.1298C16.4065 10.118 17.5931 8.95401 17.6091 7.5749C17.6259 6.07678 16.4185 4.86316 14.9004 4.85291H14.8996Z" fill="black"/>
</g>
<defs>
<clipPath id="clip0_1_16331">
<rect width="30" height="28" fill="white"/>
</clipPath>
</defs>
</svg>
