<svg width="32" height="28" viewBox="0 0 32 28" fill="none" xmlns="http://www.w3.org/2000/svg">
<path d="M6.02846 13.901C6.02846 10.0892 6.07827 6.27661 6.00045 2.46719C5.97399 1.14344 7.13118 -0.0208618 8.30317 0.0264995C9.23469 0.0635992 10.1693 0.018606 11.1032 0.0178166C14.837 0.0162379 18.5716 0.0572844 22.3047 0.000450812C24.0183 -0.0255979 25.0051 1.0795 25.0004 2.72057C24.9779 10.2913 24.9934 17.8612 24.9864 25.4319C24.9849 27.0382 24.0487 27.9902 22.4728 27.9933C17.8051 28.002 13.1382 28.002 8.47048 27.9933C6.8736 27.9902 6.02924 27.1164 6.02768 25.4927C6.02379 21.6288 6.02613 17.7641 6.02613 13.9002L6.02846 13.901ZM6.94831 5.52041V22.5878H24.0036V5.52041H6.94831ZM6.90239 4.40584C8.29461 4.57555 23.4705 4.51319 24.0417 4.33796C24.0417 3.64648 24.0759 2.93922 24.0324 2.23748C23.9857 1.48207 23.4526 1.00688 22.7047 0.966621C22.6012 0.961096 22.4977 0.965043 22.3934 0.965043C17.8074 0.965043 13.2207 0.965043 8.63469 0.965043C8.5055 0.965043 8.37476 0.959517 8.24636 0.9682C7.52418 1.01872 6.95842 1.52785 6.91173 2.25722C6.86737 2.95816 6.90239 3.66306 6.90239 4.40584ZM6.89694 23.689C6.89694 24.2826 6.89383 24.7783 6.89694 25.2748C6.90628 26.5433 7.38332 27.0256 8.64636 27.0264C13.2106 27.0295 17.7748 27.0295 22.339 27.0288C22.546 27.0288 22.7553 27.0319 22.9608 27.0051C23.4269 26.9451 23.9491 26.5251 23.9818 26.0602C24.037 25.2859 23.9966 24.5052 23.9966 23.689H6.89694Z" fill="black"/>
<path d="M12.9608 11.184C12.9608 10.7215 12.9522 10.4081 12.9623 10.0947C12.9849 9.41193 13.258 9.04172 13.9335 9.01015C14.9942 8.95963 16.0604 8.97463 17.1218 9.01725C17.6767 9.03936 18.0176 9.46008 18.0767 10.0813C18.1086 10.4144 18.0822 10.753 18.0822 11.184C18.7857 11.184 19.402 11.1801 20.0183 11.1848C20.9047 11.1919 21.3717 11.6308 21.3779 12.5173C21.3919 14.463 21.3903 16.4088 21.3779 18.3545C21.3717 19.271 20.9382 19.7233 20.044 19.7272C17.0876 19.7399 14.1304 19.743 11.1732 19.7288C10.2401 19.7241 9.70784 19.2047 9.69383 18.2677C9.66659 16.3488 9.6627 14.4291 9.68683 12.5101C9.69772 11.6316 10.1927 11.1998 11.0884 11.1864C11.6783 11.1777 12.2674 11.1848 12.9592 11.1848L12.9608 11.184ZM10.6868 12.2055C10.6752 13.1535 10.6253 14.0281 10.7265 14.935H20.3623V12.2055H10.6868ZM20.3608 15.9841H16.9989C16.7452 17.2747 16.5787 17.4941 15.7359 17.4902C15.3351 17.4886 14.9047 17.4326 14.5405 17.2763C14.002 17.0458 14.1787 16.4175 14.0339 15.9636H10.6705C10.6705 16.6622 10.6674 17.3118 10.6705 17.9614C10.6752 18.7966 10.686 18.8139 11.4829 18.8147C14.23 18.8187 16.9779 18.8171 19.725 18.8131C19.9218 18.8131 20.1187 18.7729 20.36 18.7468V15.9833L20.3608 15.9841ZM17.0767 10.0213H13.9273V11.124H17.0767V10.0213ZM15.065 15.9849C14.9475 16.3362 15.0829 16.4664 15.3732 16.464C15.6681 16.4624 16.0316 16.5469 15.9997 15.9849H15.065Z" fill="black"/>
<path d="M12.8106 3.29285C12.4526 2.54849 12.5654 2.29116 13.258 2.28011C14.6269 2.25801 15.9958 2.2659 17.3646 2.28248C17.5553 2.28484 17.7825 2.35668 17.9273 2.47745C18.2199 2.72136 18.0954 3.16734 17.7304 3.27864C17.6822 3.29364 17.6277 3.29285 17.5763 3.29285C15.9779 3.29285 14.3794 3.29285 12.8106 3.29285Z" fill="black"/>
<path d="M15.3864 26.0168C15.0775 26.0168 14.7685 26.0302 14.4611 26.0129C14.1413 25.9955 13.9086 25.8179 13.8915 25.4887C13.8752 25.1611 14.079 24.933 14.4036 24.9172C15.044 24.8864 15.6876 24.877 16.3288 24.8975C16.6277 24.907 16.8744 25.0727 16.911 25.4161C16.9413 25.6963 16.6775 25.9687 16.311 26.0042C16.0051 26.0342 15.6946 26.0105 15.3857 26.0105V26.016L15.3864 26.0168Z" fill="black"/>
</svg>
