<svg width="32" height="28" viewBox="0 0 32 28" fill="none" xmlns="http://www.w3.org/2000/svg">
<path d="M30.0002 14.0288C30.0002 17.6455 30.0002 21.2631 29.9985 24.8798C29.9985 25.166 30.0081 25.4583 29.9572 25.7376C29.7247 27.0231 28.7726 27.8723 27.4318 27.9689C26.8211 28.0128 26.2042 27.9965 25.5908 27.9965C18.7788 27.9982 11.9668 28.0025 5.15571 27.9878C4.63886 27.987 4.09745 27.9189 3.61132 27.7559C2.6724 27.443 2.138 26.7532 2.04411 25.7713C2.00901 25.4005 2.00725 25.0255 2.00725 24.653C2.00462 17.4188 2.00374 10.1845 2.00287 2.95104C2.00287 2.75016 1.99234 2.54756 2.01164 2.3484C2.13098 1.12329 2.91195 0.282694 4.1501 0.0706052C4.4932 0.0119791 4.84771 0.00249543 5.19783 0.00249543C12.302 -0.000953168 19.4054 -9.10194e-05 26.5096 0.000771129C26.7728 0.000771129 27.0361 0.00335757 27.2984 0.0206005C28.942 0.13268 29.9792 1.19743 29.9906 2.83293C30.0073 5.33057 29.9958 7.82822 29.9958 10.325C29.9958 11.5596 29.9958 12.7942 29.9958 14.0279L30.0002 14.0288ZM2.95232 13.752H7.11866C7.0081 13.496 6.91772 13.3244 6.8598 13.1434C6.57199 12.2424 6.50179 11.3285 6.93702 10.4629C7.67236 9.00074 9.57214 8.55156 11.0007 9.4025C12.4538 10.2681 12.7847 12.389 11.7431 13.4313C11.6729 13.5012 11.6448 13.6115 11.5886 13.7201C12.7847 13.8814 15.182 13.8452 15.8418 13.6494C15.8418 12.4355 15.8515 11.2044 15.8375 9.97324C15.8313 9.46803 15.9805 9.05506 16.4657 8.84555C16.944 8.63864 17.3985 8.73261 17.732 9.1361C18.6042 10.1914 20.0056 9.69822 20.6461 8.80503C21.2007 8.03255 21.0761 7.06694 20.3504 6.3936C19.6361 5.72975 18.7349 5.66336 17.9663 6.21945C17.8022 6.33843 17.653 6.48499 17.4749 6.57552C16.8264 6.90572 16.1516 6.63759 15.9322 5.95563C15.8638 5.74268 15.8603 5.50473 15.8585 5.27798C15.8497 4.10201 15.8541 2.92518 15.8445 1.74835C15.8427 1.53108 15.7953 1.31382 15.7673 1.08449C15.4996 1.06725 15.2978 1.04225 15.0969 1.04225C11.6781 1.04052 8.25853 1.03535 4.83981 1.04397C3.51567 1.04742 2.94881 1.63368 2.94881 2.96656C2.94881 6.23755 2.95232 9.50855 2.95407 12.7795C2.95407 13.0856 2.95407 13.3925 2.95407 13.7512L2.95232 13.752ZM15.7997 22.8356C15.4961 23.0098 15.3171 23.0926 15.16 23.2055C13.3954 24.4703 10.9463 22.8089 10.8568 21.0458C10.7962 19.8595 11.3596 18.9948 12.3134 18.3732C13.2427 17.7679 14.2281 17.7628 15.2083 18.3163C15.3706 18.4076 15.5654 18.4439 15.7883 18.5197V14.8754C15.4092 14.8754 15.0942 14.8754 14.7801 14.8754C13.7271 14.8771 12.6741 14.9039 11.622 14.8728C10.6523 14.8444 10.1934 13.9848 10.6804 13.171C10.8278 12.9244 11.0226 12.6976 11.1297 12.4355C11.4193 11.7243 11.2403 11.0733 10.7366 10.5216C10.2654 10.0051 9.63006 9.84737 8.97457 10.0319C8.28837 10.225 7.8268 10.6983 7.68904 11.4217C7.59514 11.9174 7.66798 12.3761 7.90051 12.8373C8.50511 14.04 7.97071 14.8565 6.58602 14.872C5.62078 14.8832 4.65641 14.8711 3.69117 14.878C3.46741 14.8797 3.24364 14.9177 3.05147 14.9366C3.00233 15.0496 2.96021 15.1013 2.96021 15.153C2.95583 18.5128 2.95846 21.8718 2.95144 25.2316C2.94968 26.1644 3.67625 26.9722 4.81348 26.9558C8.205 26.9067 11.5974 26.9369 14.9898 26.9317C15.2443 26.9317 15.4987 26.8989 15.7989 26.8783V22.8348L15.7997 22.8356ZM29.0139 13.8124C29.0139 13.371 29.0139 13.0865 29.0139 12.8011C29.0139 9.55941 29.0148 6.3186 29.0122 3.07692C29.0113 1.67679 28.3628 1.04397 26.9193 1.04225C23.8815 1.03794 20.8436 1.03966 17.8048 1.04225C17.5214 1.04225 17.2379 1.07156 16.9045 1.08966V5.67112C17.6504 5.17711 18.3445 4.79001 19.2079 4.84777C20.1161 4.90898 20.8278 5.30816 21.385 5.97719C22.2221 6.98331 22.2046 8.53259 21.3648 9.57062C20.9726 10.056 20.4654 10.3629 19.8502 10.5328C18.7701 10.8311 17.8118 10.5966 16.8957 9.86548V13.8064C17.6504 13.8064 18.3436 13.7969 19.0377 13.8098C19.5028 13.8184 19.9784 13.8055 20.4294 13.8952C21.6544 14.1383 21.9097 14.7228 21.3139 15.8091C21.2858 15.8591 21.2499 15.9048 21.2218 15.9557C20.8243 16.6635 20.9111 17.3438 21.4008 17.9619C21.8246 18.4973 22.4213 18.7697 23.0996 18.6249C23.8534 18.4645 24.379 18.0016 24.6343 17.2446C24.8344 16.6514 24.6493 16.1902 24.2904 15.735C23.9868 15.3496 23.8481 14.8901 24.0798 14.4478C24.3246 13.9814 24.787 13.7917 25.3267 13.8064C25.5601 13.8124 25.7944 13.8115 26.0278 13.8115C26.9843 13.8115 27.9399 13.8115 29.0157 13.8115L29.0139 13.8124ZM16.8457 26.8593C17.0826 26.8998 17.1669 26.9274 17.252 26.9274C20.5856 26.9291 23.9192 26.9308 27.2519 26.9248C27.4529 26.9248 27.6626 26.8972 27.853 26.836C28.6603 26.5765 29.0034 26.0187 29.006 24.9272C29.0131 21.7976 29.0095 18.668 29.006 15.5384C29.006 15.347 28.9683 15.1556 28.9411 14.8978C27.6608 14.8642 26.4315 14.8642 25.1451 14.8935C26.0041 16.742 25.8418 18.0309 24.7019 18.9991C23.7726 19.7879 22.3529 19.8595 21.2727 19.2C20.6935 18.8465 20.3636 18.3275 20.11 17.7334C19.6984 16.7678 20.0433 15.8971 20.5119 15.0522C19.8064 14.8254 17.703 14.809 16.8518 15.0228C16.8518 15.2832 16.8536 15.5651 16.8518 15.8462C16.8457 16.7075 16.8624 17.5696 16.822 18.4292C16.7878 19.1706 16.263 19.7155 15.6312 19.6474C15.3382 19.6155 15.0539 19.4155 14.7862 19.2569C13.9447 18.7594 13.2137 18.8025 12.5363 19.4129C11.7545 20.1173 11.6439 20.7811 12.1511 21.7183C12.6188 22.5813 13.4866 22.8925 14.3641 22.4865C14.5976 22.3787 14.7932 22.1925 15.01 22.0468C15.6795 21.5967 16.3341 21.7485 16.657 22.4804C16.7904 22.783 16.829 23.1434 16.8361 23.4788C16.8571 24.5918 16.8439 25.7049 16.8439 26.8558L16.8457 26.8593Z" fill="black"/>
</svg>
