<svg width="32" height="28" viewBox="0 0 32 28" fill="none" xmlns="http://www.w3.org/2000/svg">
<path d="M10.3485 3C14.9033 3.09276 18.9099 6.13182 20.4737 10.4712C22.2241 15.3257 19.3732 21.5219 13.9589 23.614C8.82209 25.599 2.39982 22.6527 0.556034 17.1674C-1.35902 11.4704 1.79823 4.87369 8.09493 3.35163C8.83142 3.17371 9.59677 3.11384 10.3485 3ZM1.03798 14.0406C1.09483 14.4749 1.13216 15.1799 1.28574 15.8595C2.39727 20.7638 6.79843 23.6106 11.1665 23.2042C16.865 22.6746 21.071 17.2214 19.6633 11.4417C19.189 9.49637 18.187 7.8571 16.6834 6.54923C13.7731 4.01696 10.077 3.22852 6.45309 5.01452C2.85122 6.78871 1.12028 9.79994 1.03798 14.0406Z" fill="black"/>
<path d="M29.0248 4.86358C29.3591 4.86358 29.6663 4.89056 29.9666 4.85852C31.1223 4.73709 31.9063 5.59214 31.9708 6.75413C31.9801 6.92194 31.9759 7.09059 31.9759 7.25924C31.9776 11.4148 31.9377 15.5703 31.9996 19.7241C32.0242 21.3769 30.7965 22.2243 29.5441 22.2007C27.0011 22.1535 24.4565 22.1881 21.9127 22.1872C21.7439 22.1872 21.5351 22.2311 21.4146 22.1518C21.25 22.043 21.0566 21.8364 21.0532 21.6686C21.0498 21.5101 21.2449 21.2816 21.4104 21.2032C21.5996 21.1138 21.8516 21.1441 22.0765 21.1433C24.5634 21.1332 27.0512 21.1357 29.5381 21.1121C29.8614 21.1087 30.1974 21.0134 30.502 20.8954C30.7753 20.7891 30.9212 20.5522 30.9195 20.2267C30.9059 16.8023 30.9008 13.377 30.8907 9.95257C30.8907 9.9045 30.8431 9.8556 30.7625 9.6996C30.5173 9.6996 30.2161 9.6996 29.914 9.6996C27.7656 9.6996 25.6172 9.70044 23.4688 9.6996C23.2431 9.6996 23.0157 9.70634 22.7909 9.6861C22.5024 9.66081 22.3166 9.50059 22.3039 9.20292C22.2903 8.88418 22.4303 8.65313 22.7697 8.61096C22.9928 8.58314 23.2211 8.59494 23.4468 8.59494C25.5952 8.59494 27.7436 8.59494 29.892 8.59494C30.1966 8.59494 30.5003 8.59494 30.9085 8.59494C30.9085 7.87397 30.9339 7.23647 30.8991 6.60151C30.8762 6.18241 30.5046 5.8527 30.0608 5.77513C29.9234 5.75151 29.7783 5.7532 29.6383 5.76248C29.4465 5.77513 29.2564 5.80548 28.9807 5.83837C28.9807 6.22711 28.9968 6.58717 28.9773 6.94471C28.9417 7.5957 28.839 7.65472 28.0499 7.47342V5.94546C27.4211 5.72875 24.6847 5.6849 23.5987 5.8721C23.5987 6.25915 23.5927 6.66981 23.6004 7.07963C23.6072 7.41187 23.4705 7.64292 23.1261 7.64798C22.779 7.65304 22.6399 7.4144 22.6399 7.0889C22.6399 6.69848 22.6399 6.30806 22.6399 5.80464C22.0926 5.78946 21.5996 5.77513 21.1058 5.76079C20.7681 5.75151 20.3413 5.79452 20.332 5.32989C20.3226 4.87707 20.7257 4.86105 21.0803 4.86273C21.5572 4.86526 22.034 4.86273 22.5686 4.86273C22.5974 4.59711 22.6237 4.3863 22.6424 4.1738C22.6543 4.03382 22.6441 3.89216 22.6628 3.75386C22.7018 3.46041 22.897 3.25803 23.1719 3.31875C23.3348 3.35416 23.5257 3.58521 23.569 3.76061C23.6487 4.07851 23.6275 4.42087 23.6513 4.80623H28.0024C28.0142 4.45713 28.0287 4.1055 28.0372 3.75302C28.0431 3.49583 28.1458 3.31284 28.419 3.28417C28.721 3.25213 28.912 3.39633 28.9433 3.69989C28.9798 4.05743 28.9951 4.4175 29.0257 4.86273L29.0248 4.86358Z" fill="black"/>
<path d="M23.6453 23.9361C25.2838 23.9361 26.9222 23.9361 28.5598 23.9361C28.7575 23.9361 28.9552 23.9395 29.1529 23.9395C29.5331 23.9412 29.7537 24.1554 29.746 24.5062C29.7392 24.8401 29.4686 24.9666 29.1529 24.9775C28.9832 24.9834 28.8144 24.9851 28.6447 24.9851C25.2269 24.9868 21.8092 24.9885 18.3914 24.9893C18.1946 24.9893 17.9689 25.0307 17.8077 24.9506C17.6354 24.8654 17.4411 24.6773 17.4029 24.5028C17.3469 24.2456 17.4903 23.9994 17.7992 23.9572C18.0215 23.9269 18.2497 23.9353 18.4754 23.9353C20.1987 23.9336 21.9212 23.9353 23.6445 23.9353L23.6453 23.9361Z" fill="black"/>
<path d="M23.9169 16.2921C23.7217 16.2921 23.5053 16.3444 23.3365 16.2778C23.1532 16.2061 22.9054 16.0383 22.8851 15.8857C22.863 15.7254 23.0463 15.4151 23.1931 15.378C23.6165 15.2709 24.0679 15.2271 24.5066 15.238C24.8146 15.2456 24.9944 15.486 24.9783 15.8165C24.9614 16.1665 24.7407 16.2913 24.42 16.2938C24.2529 16.2955 24.0849 16.2938 23.9177 16.2938V16.2913L23.9169 16.2921Z" fill="black"/>
<path d="M28.0278 16.3064C27.8607 16.2988 27.6579 16.3469 27.5357 16.2693C27.3711 16.1656 27.2031 15.9809 27.1564 15.8013C27.0894 15.5425 27.2209 15.2869 27.5162 15.2406C27.8157 15.1942 28.1262 15.2018 28.4317 15.2119C28.7592 15.222 28.9603 15.4033 28.9493 15.7356C28.9391 16.0417 28.7872 16.2643 28.4461 16.2904C28.3078 16.3005 28.1678 16.2921 28.0287 16.2921C28.0287 16.2972 28.0287 16.3022 28.0287 16.3073L28.0278 16.3064Z" fill="black"/>
<path d="M24.0093 19.5858C23.8252 19.574 23.5868 19.6044 23.3857 19.5319C23.2347 19.477 23.0107 19.2637 23.0327 19.1693C23.0726 18.9972 23.2533 18.7535 23.4052 18.7299C23.8142 18.6667 24.2435 18.6642 24.6533 18.7206C24.8137 18.7426 24.9427 18.9871 25.0861 19.1305C24.935 19.2721 24.8052 19.461 24.6262 19.542C24.4607 19.6162 24.2435 19.574 24.0093 19.5858Z" fill="black"/>
<path d="M28.0821 12.5599C28.7541 12.5607 29.1122 12.7336 29.0553 13.0599C28.9629 13.5887 28.4928 13.4959 28.1229 13.5338C27.9311 13.5532 27.7071 13.5836 27.5493 13.5052C27.3838 13.4234 27.2056 13.2353 27.1649 13.0633C27.0987 12.7833 27.2871 12.5953 27.5824 12.5633C27.747 12.5456 27.915 12.5599 28.0821 12.5599Z" fill="black"/>
<path d="M27.9124 19.5386C27.7173 19.5386 27.5043 19.5867 27.3312 19.5243C27.1802 19.4703 26.9621 19.2823 26.9723 19.1709C26.9884 18.9905 27.1445 18.6996 27.2803 18.676C27.6859 18.606 28.1161 18.6034 28.525 18.6608C28.6752 18.6819 28.8984 18.9483 28.8924 19.0959C28.8865 19.246 28.6633 19.4366 28.4919 19.5158C28.3282 19.5917 28.1084 19.5479 27.9133 19.5572C27.9133 19.5512 27.9124 19.5445 27.9124 19.5386Z" fill="black"/>
<path d="M24.1638 13.4208C23.9695 13.4208 23.7463 13.4799 23.5885 13.4048C23.4213 13.3247 23.2474 13.1325 23.2092 12.9596C23.1871 12.8601 23.4137 12.6096 23.552 12.5894C23.933 12.5346 24.3335 12.5219 24.7102 12.5835C24.8655 12.6088 25.0937 12.8753 25.0852 13.0203C25.0767 13.1653 24.8341 13.3365 24.6576 13.4208C24.5218 13.4858 24.3301 13.4335 24.1638 13.4335C24.1638 13.4293 24.1638 13.4259 24.1638 13.4208Z" fill="black"/>
<path d="M10.8211 10.8456C10.8211 11.489 10.8458 12.134 10.8127 12.7766C10.7906 13.2075 10.9374 13.5271 11.2378 13.818C11.8835 14.4429 12.5173 15.0804 13.152 15.717C13.3098 15.8755 13.5296 16.029 13.5796 16.2213C13.6331 16.4253 13.5694 16.7053 13.4523 16.8857C13.4082 16.954 13.0052 16.9094 12.883 16.7938C11.942 15.9093 11.0172 15.0053 10.1186 14.0786C9.96671 13.9217 9.90477 13.6241 9.90223 13.3905C9.88441 11.8229 9.89205 10.2553 9.89544 8.6877C9.89544 8.54856 9.86998 8.36727 9.94465 8.28041C10.0753 8.12863 10.2645 7.97263 10.4487 7.9448C10.5428 7.93046 10.7643 8.18259 10.7796 8.33016C10.8322 8.82937 10.8203 9.33531 10.8279 9.83873C10.833 10.1743 10.8288 10.5108 10.8288 10.8464H10.8203L10.8211 10.8456Z" fill="black"/>
<path d="M17.9349 14.3046C17.4598 14.3172 17.145 14.0735 17.156 13.7666C17.1654 13.5018 17.4683 13.2851 17.8263 13.2851C18.2379 13.2851 18.5467 13.5203 18.517 13.8323C18.4797 14.2287 18.1734 14.2852 17.9349 14.3046Z" fill="black"/>
<path d="M11.0392 21.5354C10.9179 21.6366 10.7482 21.8533 10.5259 21.9452C10.2976 22.0397 9.92599 21.6729 9.90647 21.3996C9.8895 21.1585 10.2238 20.7883 10.4767 20.7681C10.7312 20.7478 11.0282 21.0767 11.0392 21.5354Z" fill="black"/>
<path d="M3.60723 13.732C3.58686 14.098 3.27547 14.3307 2.88516 14.2953C2.57546 14.2675 2.34467 14.1376 2.35485 13.786C2.36418 13.4588 2.67558 13.2438 3.07522 13.2657C3.39935 13.2834 3.5962 13.4293 3.60723 13.732Z" fill="black"/>
<path d="M10.4453 6.6462C10.206 6.32577 9.99132 6.14278 9.92089 5.91595C9.84198 5.66297 10.1721 5.37627 10.4504 5.41422C10.7719 5.45806 10.9849 5.67225 10.9247 5.98341C10.8856 6.18157 10.6718 6.34685 10.4453 6.6462Z" fill="black"/>
</svg>
