<svg width="61" height="56" viewBox="0 0 61 56" fill="none" xmlns="http://www.w3.org/2000/svg">
<g clip-path="url(#clip0_1_16377)">
<path d="M30.4931 27.0453C30.8563 26.5826 31.0322 26.3092 31.2543 26.0848C39.4966 17.756 47.7458 9.43184 55.9834 1.09833C56.8465 0.226649 57.7975 -0.238401 59.017 0.130835C60.8912 0.69871 61.6063 2.94451 60.41 4.50558C60.1994 4.78134 59.9425 5.01971 59.6973 5.26742C50.7793 14.274 41.8591 23.2805 32.9389 32.2871C31.1896 34.0538 29.8151 34.0491 28.0565 32.2731C19.0969 23.2268 10.1327 14.1852 1.19399 5.11552C0.691868 4.60373 0.270731 3.90265 0.0763607 3.21559C-0.226765 2.14294 0.407254 0.965121 1.36522 0.390235C2.33245 -0.189325 3.55884 -0.123891 4.45664 0.579527C4.72969 0.792188 4.96802 1.05159 5.2133 1.29697C13.3792 9.53934 21.5428 17.7817 29.7017 26.0311C29.9447 26.2765 30.1321 26.5779 30.4931 27.0453Z" fill="white"/>
<path d="M30.4464 49.4426C30.8768 48.9332 31.085 48.6504 31.3303 48.4027C39.5309 40.1159 47.7292 31.8245 55.9575 23.5634C56.462 23.0563 57.1677 22.6193 57.848 22.4604C58.9841 22.1986 59.9375 22.7244 60.5761 23.7246C61.1893 24.6851 61.1315 25.9237 60.4512 26.8445C60.2452 27.1225 59.9907 27.3679 59.7477 27.6133C50.809 36.6409 41.8703 45.6685 32.9315 54.6937C31.2123 56.4301 29.8123 56.4347 28.1093 54.7171C19.1081 45.6287 10.1092 36.5381 1.10102 27.4567C0.237918 26.5874 -0.222556 25.6269 0.140732 24.393C0.700705 22.5001 2.92671 21.778 4.47242 22.9838C4.74547 23.1965 4.98149 23.4582 5.22677 23.7036C13.4112 31.967 21.5979 40.2304 29.7753 48.4985C29.9951 48.7228 30.1479 49.015 30.4464 49.4403V49.4426Z" fill="white"/>
</g>
<defs>
<clipPath id="clip0_1_16377">
<rect width="61" height="56" fill="white"/>
</clipPath>
</defs>
</svg>
