<svg width="476" height="584" viewBox="0 0 476 584" fill="none" xmlns="http://www.w3.org/2000/svg">
<g clip-path="url(#clip0_1_16142)">
<path d="M221.094 292.063C217.021 288.731 214.614 287.118 212.639 285.08C139.315 209.479 66.0327 133.814 -7.332 58.2543C-15.0059 50.3376 -19.1 41.6143 -15.8494 30.429C-10.85 13.2372 8.92097 6.67883 22.664 17.6519C25.0917 19.5833 27.1901 21.9393 29.3709 24.1891C108.661 105.988 187.951 187.809 267.24 269.629C282.794 285.675 282.753 298.282 267.117 314.413C187.477 396.594 107.879 478.818 28.0337 560.808C23.5281 565.414 17.3561 569.276 11.3075 571.059C1.86433 573.84 -8.50466 568.024 -13.5657 559.237C-18.6679 550.365 -18.0919 539.116 -11.8993 530.881C-10.0271 528.377 -7.74344 526.191 -5.58324 523.941C66.9791 449.04 139.541 374.16 212.165 299.322C214.326 297.094 216.98 295.374 221.094 292.063Z" fill="#17C4C2"/>
<path d="M418.271 292.509C413.786 288.561 411.296 286.651 409.116 284.401C336.162 209.182 263.168 133.983 190.441 58.5091C185.977 53.8821 182.129 47.4087 180.73 41.1687C178.426 30.7474 183.055 22.003 191.861 16.145C200.316 10.5206 211.22 11.0511 219.326 17.2912C221.774 19.1802 223.935 21.5148 226.095 23.7433C305.57 105.734 385.045 187.724 464.499 269.714C479.785 285.484 479.826 298.325 464.705 313.946C384.695 396.509 304.665 479.051 224.716 561.678C217.063 569.595 208.607 573.818 197.745 570.486C181.08 565.35 174.723 544.932 185.339 530.754C187.211 528.25 189.515 526.085 191.676 523.835C264.423 448.764 337.171 373.672 409.959 298.664C411.934 296.648 414.506 295.247 418.25 292.509L418.271 292.509Z" fill="#17C4C2"/>
</g>
<defs>
<clipPath id="clip0_1_16142">
<rect width="584" height="476" fill="white" transform="translate(0 584) rotate(-90)"/>
</clipPath>
</defs>
</svg>
