<svg width="32" height="32" viewBox="0 0 32 32" fill="none" xmlns="http://www.w3.org/2000/svg">
<path d="M17.0657 32H14.9415C14.5726 31.9537 14.2026 31.9148 13.8349 31.8588C9.61566 31.227 6.1353 29.2745 3.48395 25.933C0.664604 22.3822 -0.445605 18.3116 0.160627 13.8283C0.740078 9.54104 2.78642 6.03525 6.1986 3.37913C9.72766 0.631709 13.7546 -0.42368 18.182 0.152098C21.3471 0.563541 24.1433 1.85752 26.5354 3.97316C29.4399 6.54042 31.2087 9.74676 31.815 13.5837C31.8856 14.034 31.9391 14.4869 32 14.9385V17.0639C31.9525 17.4437 31.9099 17.8235 31.8551 18.202C31.3962 21.3475 30.1448 24.1363 28.0412 26.521C25.4714 29.434 22.2613 31.21 18.417 31.815C17.9678 31.8856 17.5162 31.9391 17.0657 32ZM16.0006 2.92508C8.79639 2.92751 2.94345 8.77658 2.92884 15.9878C2.91424 23.1954 8.79396 29.0797 16.0054 29.0773C23.2096 29.0749 29.0626 23.2258 29.0772 16.0146C29.0918 8.80701 23.2121 2.92264 16.0006 2.92508Z" fill="#0AB8B6"/>
<path d="M13.7485 18.6537C13.8897 18.4832 13.9567 18.3883 14.037 18.3067C16.6482 15.692 19.263 13.0809 21.873 10.4637C22.2212 10.1156 22.6083 9.89284 23.1159 9.92692C23.6868 9.96587 24.0971 10.2483 24.3442 10.7547C24.5877 11.255 24.5317 11.7468 24.2188 12.2032C24.1251 12.3396 24.0058 12.4589 23.8889 12.577C20.9162 15.552 17.9422 18.5258 14.9683 21.4997C14.1758 22.2921 13.3748 22.2909 12.5799 21.496C11.0631 19.9805 9.54384 18.4662 8.03191 16.9458C7.31003 16.2191 7.3502 15.2367 8.10982 14.6646C8.61623 14.2836 9.31254 14.2751 9.82382 14.6524C9.94921 14.7449 10.0624 14.8533 10.1732 14.9641C11.2931 16.0815 12.4119 17.2002 13.5282 18.3226C13.6073 18.4029 13.656 18.5125 13.7497 18.6549L13.7485 18.6537Z" fill="#0AB8B6"/>
</svg>
