<svg width="40" height="39" viewBox="0 0 40 39" fill="none" xmlns="http://www.w3.org/2000/svg">
<path d="M18.7487 0C19.5816 0 20.4155 0 21.2484 0C21.3622 0.02238 21.4738 0.0488292 21.5886 0.0661229C22.6021 0.220749 23.6302 0.313321 24.628 0.536104C32.338 2.25937 38.3937 8.53901 39.6963 16.134C39.8184 16.8451 39.8998 17.5622 40 18.2764V20.7127C39.977 20.8236 39.9489 20.9335 39.9322 21.0454C39.8017 21.9101 39.7224 22.7849 39.5366 23.6374C36.8072 36.1763 22.2848 42.7703 10.6911 36.7368C10.4009 36.5863 10.1557 36.5761 9.8488 36.6616C7.12363 37.4164 4.39532 38.16 1.66493 38.8935C1.42279 38.9586 1.14202 38.9932 0.900923 38.9433C0.183882 38.7948 -0.134455 38.1478 0.0909901 37.3615C0.860217 34.6779 1.63779 31.9963 2.39763 29.3097C2.44981 29.1246 2.44981 28.8723 2.36214 28.7085C0.157789 24.5885 -0.504978 20.2529 0.379059 15.6874C1.88307 7.92152 8.52431 1.58085 16.513 0.300096C17.2551 0.181075 18.0034 0.0986757 18.7487 0ZM2.86417 36.1834C2.99673 36.1539 3.05831 36.1417 3.11884 36.1255C5.3472 35.5192 7.57869 34.9241 9.80079 34.2995C10.3529 34.1438 10.8195 34.1967 11.3246 34.4714C15.1311 36.5446 19.1933 37.1936 23.4653 36.3615C33.0154 34.5009 39.2172 25.4176 37.3176 16.1319C35.3481 6.50547 25.4703 0.408944 15.6978 2.80259C11.6764 3.78833 8.40011 5.91444 5.91082 9.13513C2.96437 12.9458 1.87785 17.256 2.53018 21.9752C2.83182 24.1593 3.58017 26.206 4.71888 28.1124C4.93597 28.4766 4.97877 28.8408 4.85561 29.2426C4.66982 29.8489 4.50283 30.4623 4.32852 31.0716C3.84737 32.7532 3.36516 34.4358 2.86522 36.1824L2.86417 36.1834Z" fill="#DBDBDB"/>
<path d="M9.26118 15.8257C9.25596 13.777 9.92395 12.0038 11.4634 10.5603C12.1534 9.91334 12.8192 9.26229 13.7993 9.04866C15.0956 8.76687 16.2573 9.02221 17.252 9.88283C17.7373 10.303 18.1976 10.7567 18.6318 11.2277C19.9469 12.6559 19.9354 14.7515 18.6203 16.1838C18.4209 16.4015 18.1997 16.5999 17.9961 16.8135C17.6653 17.1604 17.6475 17.5276 17.9826 17.8593C19.2089 19.0678 20.4426 20.2702 21.6836 21.4655C22.0093 21.7788 22.385 21.7636 22.7274 21.4594C22.9486 21.2631 23.1501 21.0454 23.3724 20.8501C24.8785 19.5307 27.0599 19.5408 28.5472 20.8816C28.9678 21.26 29.3728 21.6568 29.7631 22.0647C31.1868 23.553 31.1826 25.6923 29.7798 27.1958C28.6004 28.4603 27.2728 29.4694 25.488 29.7939C23.6166 30.1347 21.7859 29.9496 20.0398 29.2853C14.9725 27.3596 11.4749 23.9151 9.76008 18.8521C9.43444 17.8898 9.34781 16.8491 9.15055 15.8451C9.18708 15.838 9.22465 15.8318 9.26118 15.8247V15.8257ZM23.8066 27.6729C24.0425 27.6556 24.3806 27.6394 24.7167 27.6038C26.2416 27.44 27.2978 26.5346 28.2142 25.4451C28.6526 24.9242 28.5754 24.1766 28.089 23.6659C27.7258 23.2854 27.3479 22.9172 26.9586 22.5611C26.3543 22.0087 25.5214 22.0169 24.9181 22.5662C24.7 22.7656 24.4975 22.9823 24.2762 23.1776C23.0551 24.2498 21.2807 24.2539 20.1024 23.143C18.8019 21.9172 17.5233 20.669 16.2636 19.4035C15.0988 18.2326 15.1134 16.4748 16.2552 15.2784C16.4587 15.0648 16.6831 14.8695 16.8825 14.6528C17.397 14.0923 17.4075 13.307 16.8867 12.7515C16.5005 12.3406 16.0945 11.9448 15.6707 11.5695C15.1864 11.1402 14.4329 11.0588 13.9402 11.4525C12.9695 12.2297 12.0866 13.0842 11.7818 14.3507C11.4634 15.6762 11.5897 16.9753 12.0041 18.2509C13.0624 21.5103 15.2083 23.9568 18.089 25.8215C19.7851 26.9191 21.6346 27.6241 23.8055 27.6729H23.8066Z" fill="#DBDBDB"/>
</svg>
