<svg width="34" height="40" viewBox="0 0 34 40" fill="none" xmlns="http://www.w3.org/2000/svg">
<path d="M18.0944 0C18.764 0.0968213 19.4424 0.153545 20.1011 0.295354C26.8783 1.7555 31.3326 5.79559 33.3374 12.3931C34.5234 16.2963 34.0688 20.134 32.3615 23.8337C30.9487 26.8938 28.9449 29.5432 26.6712 32.0058C24.2874 34.5877 21.6199 36.8713 18.9888 39.1902C17.7783 40.2571 16.2467 40.2747 15.0372 39.2136C11.9505 36.5036 8.82354 33.8327 6.15214 30.6933C3.99519 28.1584 2.13964 25.4376 1.00766 22.2797C-0.554339 17.9227 -0.294169 13.6352 1.74497 9.52077C4.18761 4.5907 8.18637 1.53936 13.5832 0.347188C14.344 0.178973 15.1265 0.113447 15.8992 0C16.6306 0 17.362 0 18.0944 0ZM17.5505 2.33545C15.2856 2.37652 13.5861 2.61613 11.9642 3.25476C6.82956 5.28019 3.69575 8.99363 2.61482 14.3863C2.1043 16.9359 2.41061 19.4269 3.35311 21.8503C4.44778 24.667 6.15508 27.0943 8.11077 29.3662C10.6536 32.3197 13.6303 34.8254 16.5285 37.4122C16.8878 37.7329 17.1215 37.7281 17.4906 37.3906C19.6171 35.4474 21.7878 33.5491 23.8456 31.5354C26.3805 29.0552 28.5846 26.3051 30.1191 23.0748C32.0876 18.931 32.1956 14.7423 30.1496 10.6308C27.4772 5.26063 22.9787 2.61809 17.5505 2.33349V2.33545Z" fill="#DBDBDB"/>
<path d="M24.47 16.2582C24.4877 20.3472 21.1261 23.7114 17.0095 23.7271C12.9087 23.7427 9.53925 20.3912 9.52452 16.2826C9.50979 12.1858 12.8655 8.83128 16.986 8.82346C21.1055 8.81563 24.4533 12.1408 24.471 16.2591L24.47 16.2582ZM22.1187 16.2836C22.1295 13.4826 19.8508 11.1853 17.039 11.1658C14.2036 11.1452 11.9073 13.4024 11.8768 16.2396C11.8464 19.0445 14.1467 21.3652 16.9752 21.3848C19.7889 21.4044 22.1079 19.1051 22.1187 16.2836Z" fill="#DBDBDB"/>
</svg>
