<svg width="40" height="40" viewBox="0 0 40 40" fill="none" xmlns="http://www.w3.org/2000/svg">
<path d="M21.1649 0C21.9239 0.101784 22.6859 0.178123 23.44 0.308289C27.6215 1.02861 31.2035 2.92043 34.1858 5.92404C37.0498 8.80826 38.8759 12.2611 39.633 16.261C40.2698 19.6258 40.0859 22.9621 39.0187 26.2085C38.2206 28.6376 36.503 30.1869 33.9461 30.5666C32.0222 30.8524 30.3779 30.0968 29.1298 28.6298C28.5869 27.9917 28.2289 27.196 27.7859 26.4698C25.5039 29.0946 22.5568 30.3836 18.9915 30.0694C16.5011 29.8492 14.3756 28.7785 12.6551 26.9582C8.83744 22.9201 9.00959 16.7288 12.8282 12.8552C16.5217 9.10774 23.3089 8.51856 27.7193 13.4394C27.7193 12.9687 27.7056 12.5782 27.7223 12.1896C27.7575 11.3568 28.5508 10.8195 29.3225 11.1043C29.7294 11.254 29.9955 11.5466 30.0766 11.9783C30.1148 12.1808 30.1207 12.3922 30.1207 12.5997C30.1226 16.6241 30.1295 20.6475 30.1177 24.6719C30.1148 25.8561 30.4924 26.8544 31.4617 27.5561C32.4623 28.2804 33.5559 28.4644 34.6915 27.8732C35.8819 27.2527 36.5949 26.2515 36.9099 24.9557C37.4283 22.8193 37.7071 20.6632 37.5056 18.4572C37.1711 14.7959 35.8379 11.5447 33.4786 8.73583C30.6283 5.34172 26.9887 3.29429 22.6115 2.60333C13.5413 1.17248 4.83589 7.17482 2.81507 16.2317C0.710125 25.6653 6.72271 35.0892 16.2214 37.1855C20.2337 38.0712 24.1051 37.5692 27.8035 35.7684C27.9785 35.6832 28.1497 35.5873 28.3268 35.5061C28.9978 35.1968 29.6962 35.42 29.9906 36.0336C30.2889 36.6561 30.0424 37.3196 29.3763 37.669C28.1302 38.3228 26.8341 38.8532 25.4765 39.2339C16.3524 41.7903 6.89193 37.8011 2.37295 29.4705C1.03487 27.0022 0.267031 24.3568 0.0684694 21.5509C0.0596662 21.4246 0.0234752 21.3013 0 21.176C0 20.395 0 19.6131 0 18.8321C0.0244534 18.6941 0.0528192 18.557 0.0714038 18.419C0.166283 17.6977 0.222036 16.9686 0.357997 16.2542C1.11605 12.2699 2.92756 8.82685 5.77686 5.94851C8.76408 2.93119 12.3538 1.03154 16.5471 0.308289C17.3003 0.178123 18.0632 0.101784 18.8213 0C19.6018 0 20.3843 0 21.1649 0ZM27.7135 19.9967C27.7037 15.7511 24.201 12.2572 19.9755 12.2797C15.7382 12.3012 12.2873 15.757 12.2726 19.9928C12.257 24.2237 15.7519 27.7264 19.9911 27.7294C24.2264 27.7323 27.7233 24.2305 27.7135 19.9967Z" fill="#DBDBDB"/>
</svg>
