<svg width="40" height="40" viewBox="0 0 40 40" fill="none" xmlns="http://www.w3.org/2000/svg">
<path d="M18.7501 0C19.583 0 20.4169 0 21.2498 0C21.9313 0.0887344 22.616 0.154502 23.2923 0.270379C27.0486 0.912398 30.3718 2.48352 33.219 5.0161C36.6998 8.11345 38.8749 11.9603 39.6931 16.5578C39.8226 17.2855 39.8988 18.0214 40 18.7543V21.2545C39.9791 21.3422 39.9489 21.4288 39.9374 21.5176C39.8226 22.3548 39.7558 23.2014 39.5898 24.0272C37.5609 34.1429 27.9744 41.083 17.6793 39.8605C12.2092 39.2112 7.72646 36.6932 4.32292 32.3797C0.664726 27.7415 -0.656609 22.4425 0.301515 16.61C0.985144 12.4531 2.87217 8.88492 5.83943 5.90449C8.82548 2.90527 12.4138 1.0241 16.5938 0.301697C17.3087 0.178513 18.031 0.0991737 18.7501 0ZM19.9994 37.5075C29.6339 37.5085 37.4815 29.6686 37.5003 20.0247C37.5191 10.3798 29.6527 2.50231 20.0015 2.50127C10.367 2.50022 2.5194 10.3391 2.50061 19.983C2.48182 29.6258 10.3514 37.5065 19.9994 37.5085V37.5075Z" fill="#DBDBDB"/>
<path d="M15.5616 22.5625C14.9218 22.8371 14.2611 23.072 13.6474 23.3956C12.8907 23.7954 12.2541 23.7234 11.5443 23.238C10.1385 22.2765 8.68354 21.386 7.24218 20.4788C6.75894 20.174 6.47818 19.7784 6.54185 19.1917C6.60343 18.6206 6.9562 18.3085 7.47388 18.107C14.4208 15.3918 21.3646 12.6702 28.3063 9.94347C28.8146 9.74408 29.2926 9.69814 29.7383 10.0604C30.1798 10.4185 30.2674 10.882 30.1672 11.429C29.3876 15.6747 28.6194 19.9235 27.8481 24.1702C27.5527 25.7946 27.2553 27.4189 26.9599 29.0443C26.772 30.0757 25.959 30.4912 25.0186 30.0246C23.261 29.1518 21.5044 28.276 19.7542 27.3876C19.5183 27.2676 19.3795 27.2728 19.1874 27.4701C18.4453 28.2374 17.6782 28.9806 16.9288 29.7406C16.5072 30.1686 16.0281 30.3628 15.4478 30.1206C14.8706 29.8795 14.6682 29.4128 14.6744 28.8042C14.688 27.3594 14.7016 25.9136 14.6682 24.4688C14.6535 23.832 14.8143 23.3183 15.3173 22.9237C15.4269 22.8381 15.5407 22.7588 15.6534 22.6774C15.6232 22.6398 15.5918 22.6012 15.5616 22.5636V22.5625ZM27.3356 13.0199C21.7174 15.2195 16.1638 17.394 10.5194 19.604C11.2897 20.0947 11.9827 20.5436 12.6882 20.9716C12.7697 21.0207 12.9366 20.9716 13.0462 20.9257C13.6578 20.6699 14.2632 20.4006 14.8706 20.1364C16.8015 19.2982 18.7334 18.463 20.6611 17.6185C21.1986 17.3836 21.6954 17.3752 22.1432 17.7949C22.7078 18.3242 22.7016 19.0654 22.114 19.6562C20.5547 21.2253 18.987 22.787 17.4256 24.3539C17.3296 24.451 17.2023 24.5721 17.1939 24.6911C17.1647 25.0722 17.1825 25.4574 17.1825 25.8405C17.2221 25.8635 17.2607 25.8875 17.3004 25.9104C17.6239 25.5607 17.9339 25.1995 18.2731 24.8655C18.7251 24.4207 19.1989 24.3498 19.774 24.6139C20.0693 24.7496 20.3574 24.901 20.6476 25.0461C22.0065 25.7246 23.3664 26.4032 24.7765 27.1068C25.6302 22.4101 26.4777 17.75 27.3367 13.0189L27.3356 13.0199Z" fill="#DBDBDB"/>
</svg>
