<svg width="40" height="40" viewBox="0 0 40 40" fill="none" xmlns="http://www.w3.org/2000/svg">
<path d="M21.1719 40H18.8281C18.3008 39.9367 17.7711 39.8836 17.2453 39.8094C13.3016 39.2523 9.81484 37.6773 6.83047 35.0414C3.31484 31.9367 1.11641 28.0734 0.307813 23.4414C0.176563 22.6898 0.100781 21.9289 0 21.1719C0 20.3906 0 19.6094 0 18.8281C0.0242187 18.6906 0.053125 18.5531 0.0710938 18.4148C0.166406 17.693 0.221875 16.9648 0.357812 16.2508C1.11484 12.2672 2.92812 8.82578 5.77812 5.94766C8.76719 2.93047 12.3578 1.03125 16.5531 0.307813C17.307 0.178125 18.0695 0.101562 18.8281 0C19.6094 0 20.3906 0 21.1719 0C21.6992 0.0632813 22.2289 0.116406 22.7547 0.190625C26.6984 0.747656 30.1852 2.32266 33.1695 4.95859C36.6844 8.06328 38.8836 11.9258 39.6922 16.5586C39.8234 17.3102 39.8984 18.0711 40 18.8281V21.1719C39.9758 21.3094 39.9469 21.4469 39.9289 21.5852C39.8336 22.307 39.7781 23.0352 39.6422 23.7492C38.8852 27.7328 37.0719 31.175 34.2219 34.0523C31.2328 37.0695 27.6422 38.9695 23.4469 39.6922C22.693 39.8219 21.9305 39.8992 21.1719 40ZM19.9867 37.6562C29.7141 37.6672 37.6531 29.7352 37.6555 20.0039C37.6586 10.2883 29.7578 2.37188 20.032 2.34453C10.3102 2.31719 2.3625 10.2398 2.34375 19.9781C2.325 29.7031 10.2516 37.6461 19.9867 37.6562Z" fill="#DBDBDB"/>
<path d="M17.4578 17.0258C19.3172 18.8844 21.1281 20.6953 22.982 22.5484C23.2969 22.218 23.6289 21.8539 23.9789 21.507C25.3945 20.1055 27.2516 20.0141 28.7328 21.3312C29.5773 22.0828 30.3844 22.8859 31.1336 23.7328C32.393 25.1555 32.3297 27.0102 31.0227 28.3805C30.3672 29.068 29.693 29.7391 29.0047 30.3937C27.6031 31.7281 25.8836 32.0234 24.0406 31.8352C21.7883 31.6047 19.7758 30.6953 17.8945 29.5047C14.6297 27.4367 11.9875 24.7461 10.0547 21.3852C9.07969 19.6898 8.36172 17.8953 8.15781 15.9375C7.94766 13.9125 8.3875 12.0859 9.94609 10.6398C10.5086 10.118 11.0273 9.54844 11.5797 9.01484C12.9625 7.67812 14.8117 7.58984 16.2516 8.85859C17.1188 9.62266 17.943 10.4477 18.7047 11.3164C19.9711 12.7617 19.8727 14.6055 18.5258 15.9836C18.1711 16.3461 17.8 16.693 17.4578 17.0258ZM24.9133 29.5414C25.8859 29.5531 26.7703 29.3203 27.4805 28.6117C28.0984 27.9961 28.7188 27.3828 29.3289 26.7602C29.8109 26.2687 29.8078 25.7031 29.3234 25.2125C28.6469 24.5266 27.9656 23.8453 27.2805 23.1687C26.7156 22.6117 26.1852 22.6148 25.6188 23.1742C25.0266 23.7602 24.443 24.3547 23.8508 24.9406C23.2289 25.5562 22.5859 25.5672 21.9734 24.9562C19.6602 22.6492 17.35 20.3391 15.043 18.0258C14.4273 17.4086 14.4359 16.7727 15.0531 16.1492C15.6391 15.557 16.232 14.9719 16.8195 14.3813C17.3766 13.8203 17.382 13.2734 16.8344 12.7219C16.1742 12.0562 15.5117 11.3938 14.8461 10.7336C14.2813 10.1742 13.7453 10.1711 13.1828 10.725C12.5984 11.3008 12.0289 11.8906 11.4406 12.4617C10.7859 13.0969 10.5062 13.8836 10.4695 14.7734C10.4023 16.3945 10.8805 17.8937 11.6055 19.3031C13.793 23.5539 17.0578 26.7117 21.4094 28.7102C22.5109 29.2156 23.6828 29.5312 24.9133 29.5422V29.5414Z" fill="#DBDBDB"/>
</svg>
