<svg width="317" height="330" viewBox="0 0 317 330" fill="none" xmlns="http://www.w3.org/2000/svg">
<g clip-path="url(#clip0_1_616)">
<path d="M285.34 290.231C304.51 289.191 316.42 276.581 316.43 257.311V236.601C316.43 211.571 316.43 186.541 316.43 161.511C316.43 142.721 303.35 129.591 284.66 129.561C271.63 129.541 258.6 129.551 245.57 129.561H220.62V121.331C220.62 112.441 220.62 103.541 220.63 94.6506C220.65 73.8406 220.66 52.3206 220.58 31.1506C220.52 14.1806 207.24 0.860609 190.36 0.840609C138.94 0.760609 86.6704 0.760609 30.5704 0.830609C13.8404 0.850609 0.17043 14.4006 0.10043 31.0406C-0.0295703 62.5806 -0.0295703 95.3706 0.10043 131.311C0.15043 144.741 9.33043 156.621 22.4304 160.191C24.5504 160.771 26.8404 161.091 29.2704 161.441C30.5004 161.611 31.7704 161.791 33.0604 162.011L35.9804 162.501V169.311C35.9804 171.981 35.9804 174.651 35.9704 177.311C35.9504 183.511 35.9304 189.921 36.0204 196.211C36.0404 197.991 36.7704 199.401 38.0104 200.071C39.1404 200.691 40.5504 200.571 41.8804 199.741C42.3804 199.431 42.9004 199.001 43.4604 198.551L43.9304 198.171L59.8604 185.481C68.5004 178.601 77.1404 171.711 85.7804 164.831C86.6004 164.171 87.4504 163.551 88.5104 162.771C89.0404 162.381 89.6204 161.951 90.2804 161.461L95.8704 157.291V189.521C95.8604 211.921 95.8504 235.081 95.9204 257.851C95.9204 261.421 96.2904 264.611 97.0004 267.331C100.58 281.161 112.49 290.121 127.36 290.171C161.35 290.291 195.2 290.221 220.9 290.151H220.96C224.9 290.151 227.96 291.211 230.9 293.591C239.45 300.521 248.21 307.501 256.68 314.251C262.01 318.501 267.34 322.741 272.65 327.001C275.7 329.451 276.89 329.521 278.4 328.761C279.85 328.031 280.61 326.961 280.51 323.441C280.43 320.691 280.45 317.931 280.47 315.261C280.47 314.091 280.49 312.921 280.49 311.741V290.991L283.4 290.491C283.67 290.441 283.89 290.401 284.07 290.371C284.48 290.291 284.87 290.221 285.33 290.191L285.34 290.231ZM77.4704 164.821C70.7904 170.861 63.7904 176.291 56.3804 182.031C53.2004 184.491 49.9204 187.041 46.6404 189.651L40.9604 194.181V179.101C40.9604 173.611 40.9604 168.411 40.9604 163.221C40.9604 157.711 39.8404 156.571 34.3204 156.451H34.1604C30.6604 156.371 27.0504 156.301 23.5004 155.341C12.6704 152.431 5.09043 142.491 5.07043 131.161C5.01043 103.721 4.96043 67.5306 5.08043 30.8806C5.13043 17.0606 16.4904 5.81061 30.4104 5.80061C83.0704 5.75061 136.94 5.75061 190.54 5.80061C204.3 5.81061 215.54 16.9506 215.59 30.6306C215.71 62.2806 215.71 95.2106 215.6 131.291C215.56 145.591 204.41 156.411 189.68 156.461C183.32 156.481 176.95 156.511 170.59 156.551C148.01 156.671 124.65 156.791 101.67 156.271C91.5904 156.031 84.3504 158.601 77.4704 164.821ZM276.76 286.711C275.64 287.861 275.25 290.501 275.46 295.531C275.65 299.941 275.6 304.321 275.56 308.951C275.54 311.071 275.52 313.241 275.52 315.481V322.481L269.92 318.281C269.38 317.871 268.88 317.511 268.43 317.171C267.51 316.491 266.72 315.911 265.96 315.301L257.72 308.751C249.09 301.891 240.17 294.801 231.46 287.741C229.26 285.951 227.07 285.191 224.16 285.191H224.11C195.34 285.281 164.67 285.291 127.58 285.231C114 285.211 103.67 276.831 101.24 263.891C100.99 262.561 100.87 261.091 100.87 259.531C100.85 228.861 100.86 198.181 100.87 167.501C100.87 166.961 100.9 166.421 100.95 165.771C100.97 165.481 100.99 165.161 101.01 164.791L101.19 161.481H108.73C116.41 161.481 124.1 161.441 131.78 161.401C149.38 161.301 167.59 161.211 185.5 161.631C203.35 162.071 216.03 153.121 220.32 137.131L221.02 134.541H244.92C258.39 134.541 271.85 134.521 285.32 134.541C300.2 134.571 311.44 145.831 311.46 160.741C311.5 197.021 311.5 229.201 311.46 259.141C311.45 266.481 308.72 273.181 303.77 278.031C298.97 282.731 292.43 285.291 285.45 285.121C280.77 285.041 277.93 285.551 276.8 286.721L276.76 286.711Z" fill="white"/>
<path d="M236.77 247.73C237.42 247.58 238.21 247.391 238.55 245.361C238.54 245.311 238.52 245.271 238.51 245.221C238.3 244.541 238.09 243.83 237.83 243.201C234.52 235.311 231.2 227.43 227.89 219.54C221.61 204.6 215.33 189.671 209.08 174.721C207.85 171.771 206.95 171.771 206.15 171.771C205.35 171.771 204.46 171.771 203.23 174.721C197.24 189.061 191.22 203.381 185.19 217.701C181.61 226.201 178.04 234.701 174.47 243.201C173.81 244.781 173.39 246.821 175.15 247.641C176.12 248.09 176.67 247.881 176.86 247.811C177.64 247.51 178.43 246.561 179.01 245.201L180.1 242.691C181.87 238.611 183.7 234.39 185.27 230.201C186.8 226.12 189.52 224.281 193.76 224.381C201.09 224.581 209 224.59 218.64 224.4C221.29 224.36 225.03 224.861 226.92 229.891C228.87 235.071 231.16 240.281 233.38 245.311L233.78 246.221C234.43 247.691 235.22 248.08 236.8 247.71L236.77 247.73ZM190.01 219.09L206.14 180.71L222.32 219.09H190.01Z" fill="#0AB8B6"/>
<path d="M132.75 111.81L134.63 113.47C136.57 115.18 139.33 117.51 140.86 118.03C141.21 118.15 141.31 118.18 142.03 117.54C142.86 116.8 143.65 116.1 139.13 110.22L137.45 108.04L139.18 105.89C154.58 86.75 149.56 64.42 136.64 52.26C129.26 45.31 119.83 41.79 110.33 41.79C101.96 41.79 93.5301 44.52 86.4001 50.04C71.4701 61.6 67.3301 82.79 76.7701 99.35C81.4801 107.62 88.4001 113.4 97.3401 116.55C108.53 120.49 119.71 119.31 130.58 113.07L132.75 111.82V111.81ZM126.21 108.97C122.01 112.27 116.54 113.84 110.79 113.84C101.57 113.84 91.6401 109.79 85.1401 102.35C73.5101 89.04 74.2901 68.92 86.9101 56.54C99.5701 44.13 119.7 43.71 132.75 55.58C145.81 67.47 147.33 87.42 136.21 101L133.6 104.18L127.24 96.98C124.48 93.84 121.79 90.79 119.07 87.76C116.4 84.79 115.12 85.92 114.57 86.4C114.07 86.84 112.73 88.03 115.33 91.02C117.95 94.04 120.59 97.03 123.24 100.02L129.1 106.66L126.19 108.95L126.21 108.97Z" fill="#0AB8B6"/>
</g>
<defs>
<clipPath id="clip0_1_616">
<rect width="316.43" height="328.44" fill="white" transform="translate(0 0.780273)"/>
</clipPath>
</defs>
</svg>
