<svg width="445" height="300" viewBox="0 0 445 300" fill="none" xmlns="http://www.w3.org/2000/svg">
<g clip-path="url(#clip0_2030_1970)">
<path d="M222.449 143.008C225.1 139.619 226.382 137.617 228.003 135.974C288.131 74.9793 348.309 14.0186 408.403 -47.0105C414.7 -53.3941 421.638 -56.7998 430.534 -54.0957C444.207 -49.937 449.423 -33.4903 440.696 -22.058C439.159 -20.0386 437.286 -18.2929 435.496 -16.4788C370.439 49.4792 305.366 115.437 240.292 181.395C227.53 194.333 217.503 194.299 204.674 181.292C139.314 115.044 73.9191 48.8288 8.71027 -17.5912C5.04723 -21.3392 1.97501 -26.4735 0.557058 -31.505C-1.65427 -39.3604 2.97095 -47.986 9.95942 -52.1961C17.0154 -56.4404 25.962 -55.9612 32.5116 -50.8098C34.5035 -49.2524 36.2421 -47.3528 38.0315 -45.5558C97.6022 14.8059 157.156 75.1675 216.676 135.581C218.449 137.378 219.816 139.585 222.449 143.008Z" fill="#17C4C2"/>
<path d="M222.095 307.031C225.235 303.3 226.754 301.229 228.544 299.415C288.368 238.728 348.175 178.007 408.201 117.509C411.881 113.795 417.03 110.595 421.993 109.431C430.281 107.514 437.235 111.365 441.894 118.69C446.368 125.724 445.946 134.794 440.983 141.537C439.481 143.574 437.624 145.371 435.851 147.168C370.642 213.28 305.434 279.392 240.225 345.487C227.683 358.202 217.47 358.237 205.046 345.658C139.382 279.101 73.7338 212.527 8.0186 146.021C1.72223 139.655 -1.63696 132.621 1.01325 123.584C5.0983 109.722 21.3372 104.434 32.6133 113.265C34.6052 114.822 36.327 116.739 38.1163 118.536C97.8221 179.051 157.545 239.567 217.2 300.117C218.804 301.76 219.918 303.899 222.095 307.014V307.031Z" fill="#17C4C2"/>
</g>
<defs>
<clipPath id="clip0_2030_1970">
<rect width="445" height="300" fill="white"/>
</clipPath>
</defs>
</svg>
