<svg width="493" height="416" viewBox="0 0 493 416" fill="none" xmlns="http://www.w3.org/2000/svg">
<g clip-path="url(#clip0_2030_1796)">
<path d="M238.094 208.063C234.021 204.731 231.614 203.118 229.639 201.08C156.315 125.479 83.0327 49.8135 9.668 -25.7457C1.99413 -33.6624 -2.09997 -42.3857 1.15062 -53.571C6.14995 -70.7628 25.921 -77.3212 39.664 -66.3481C42.0917 -64.4167 44.1901 -62.0607 46.3709 -59.8109C125.661 21.9883 204.951 103.809 284.24 185.629C299.794 201.675 299.753 214.282 284.117 230.413C204.477 312.594 124.879 394.818 45.0337 476.808C40.5281 481.414 34.3561 485.276 28.3075 487.059C18.8643 489.84 8.49534 484.024 3.43429 475.237C-1.66791 466.365 -1.09186 455.116 5.10073 446.881C6.97291 444.377 9.25656 442.191 11.4168 439.941C83.9791 365.04 156.541 290.16 229.165 215.322C231.326 213.094 233.98 211.374 238.094 208.063Z" fill="#17C4C2"/>
<path d="M435.271 208.51C430.786 204.562 428.296 202.652 426.116 200.402C353.162 125.182 280.168 49.9839 207.441 -25.4904C202.977 -30.1174 199.129 -36.5908 197.73 -42.8308C195.426 -53.2521 200.055 -61.9965 208.861 -67.8545C217.316 -73.4789 228.22 -72.9484 236.326 -66.7083C238.774 -64.8193 240.935 -62.4847 243.095 -60.2562C322.57 21.7341 402.045 103.724 481.499 185.714C496.785 201.484 496.826 214.325 481.705 229.946C401.695 312.51 321.665 395.052 241.716 477.679C234.063 485.595 225.607 489.819 214.745 486.487C198.08 481.35 191.723 460.932 202.339 446.754C204.211 444.25 206.515 442.085 208.676 439.835C281.423 364.764 354.171 289.672 426.959 214.665C428.934 212.648 431.506 211.248 435.25 208.51L435.271 208.51Z" fill="#17C4C2"/>
</g>
<defs>
<clipPath id="clip0_2030_1796">
<rect width="416" height="493" fill="white" transform="translate(0 416) rotate(-90)"/>
</clipPath>
</defs>
</svg>
