<svg width="445" height="152" viewBox="0 0 445 152" fill="none" xmlns="http://www.w3.org/2000/svg">
<g clip-path="url(#clip0_1_16373)">
<path d="M222.449 39.0691C225.1 35.6805 226.382 33.6781 228.003 32.0352C288.131 -28.9597 348.309 -89.9203 408.403 -150.949C414.7 -157.333 421.638 -160.739 430.534 -158.035C444.207 -153.876 449.423 -137.429 440.696 -125.997C439.159 -123.978 437.286 -122.232 435.496 -120.418C370.439 -54.4598 305.366 11.4982 240.292 77.4561C227.53 90.3945 217.503 90.3602 204.674 77.3535C139.314 11.1046 73.9191 -55.1101 8.71027 -121.53C5.04723 -125.278 1.97501 -130.412 0.557058 -135.444C-1.65427 -143.299 2.97095 -151.925 9.95942 -156.135C17.0154 -160.379 25.962 -159.9 32.5116 -154.749C34.5035 -153.191 36.2421 -151.292 38.0315 -149.495C97.6022 -89.1331 157.156 -28.7714 216.676 31.6416C218.449 33.4385 219.816 35.6463 222.449 39.0691Z" fill="#17C4C2"/>
<path d="M222.096 203.092C225.236 199.361 226.755 197.29 228.545 195.476C288.369 134.789 348.176 74.0684 408.202 13.5699C411.882 9.85611 417.031 6.65576 421.993 5.49199C430.282 3.57521 437.236 7.42589 441.895 14.7507C446.369 21.7847 445.947 30.8552 440.984 37.5982C439.482 39.6348 437.625 41.4317 435.852 43.2287C370.643 109.341 305.435 175.453 240.226 241.548C227.684 254.263 217.471 254.298 205.047 241.719C139.383 175.162 73.7348 108.588 8.01958 42.0821C1.72321 35.7156 -1.63599 28.6817 1.01423 19.6454C5.09928 5.78293 21.3382 0.494653 32.6143 9.32556C34.6061 10.8829 36.3279 12.7997 38.1173 14.5967C97.8231 75.1124 157.546 135.628 217.201 196.178C218.805 197.821 219.919 199.96 222.096 203.075V203.092Z" fill="#17C4C2"/>
</g>
<defs>
<clipPath id="clip0_1_16373">
<rect width="445" height="152" fill="white"/>
</clipPath>
</defs>
</svg>
