<svg width="100" height="103" viewBox="0 0 100 103" fill="none" xmlns="http://www.w3.org/2000/svg">
<g clip-path="url(#clip0_1_11579)">
<path d="M99.986 5.55312C99.9721 3.25676 98.519 1.32254 96.3673 0.738619C95.624 0.536495 94.8024 0.508422 94.0983 0.508422C68.837 0.5 43.1538 0.5 18.3172 0.5H16.8166C16.3807 0.5 15.9895 0.502807 15.5983 0.536495C12.8458 0.775114 10.9065 2.86374 10.8814 5.61207C10.8646 7.28521 10.8702 8.98924 10.873 10.6343C10.873 11.3754 10.8758 12.1166 10.8758 12.8577V14.3315H10.4566C9.88096 14.3315 9.31929 14.3315 8.77159 14.3287C7.60074 14.3259 6.49695 14.3231 5.38758 14.3343C2.06505 14.3792 0 16.4735 0 19.8113C0 42.4409 0 65.0732 0.00558878 87.7056C0.00558878 88.1828 0.0139719 88.646 0.103392 89.0812C0.637121 91.6779 2.62952 93.1686 5.57201 93.1714C13.9049 93.177 22.2377 93.177 30.5706 93.1742H41.6727V95.7878C41.6727 97.4609 41.6727 99.0751 41.6727 100.689C41.6727 102.32 41.8404 102.486 43.4444 102.489C49.2455 102.489 55.0495 102.489 60.8506 102.489H65.8246C66.037 102.489 66.2494 102.489 66.4645 102.492C66.9703 102.497 67.4957 102.5 68.0015 102.478C68.8817 102.438 69.1611 102.146 69.2002 101.234C69.2114 100.978 69.2086 100.723 69.2058 100.453C69.2058 100.336 69.2058 100.215 69.2058 100.097V93.1742H74.7108C77.6477 93.177 80.5818 93.1798 83.5187 93.1742C87.1319 93.1658 89.1243 91.1614 89.127 87.5372C89.127 85.7938 89.127 84.0477 89.127 82.2623V79.3399H91.0412C92.117 79.3399 93.1649 79.3399 94.2128 79.3399C98.0551 79.3286 100.003 77.3832 100.003 73.5541C100.003 57.6732 100.003 41.7952 100.003 25.9144V18.5845C100.003 17.3606 100.003 16.1394 100.003 14.9154C100.006 11.8471 100.008 8.67482 99.9916 5.55312H99.986ZM41.6755 86.2318C41.6476 87.2087 41.6448 88.2053 41.6392 89.171C41.6392 89.6595 41.6336 90.1479 41.6308 90.6364C41.6308 90.7768 41.5693 90.8694 41.519 90.9424C41.4995 90.9733 41.4715 91.0154 41.4324 91.0828L41.3095 91.2849H31.4844C28.6257 91.2849 25.7699 91.2849 22.9112 91.2849C17.1967 91.2849 11.4821 91.2849 5.76482 91.2849C3.00956 91.2849 1.88342 90.1564 1.88342 87.3884C1.88342 64.9722 1.88342 42.556 1.88342 20.1398C1.88342 17.3774 3.01794 16.2517 5.79556 16.2489C7.32409 16.2489 8.82189 16.2573 10.085 16.2685C10.2303 16.2685 10.3448 16.3191 10.4538 16.364C10.4957 16.3808 10.5404 16.4005 10.5963 16.4229L10.873 16.524V73.5232C10.873 77.4 12.8374 79.3651 16.7104 79.3679C23.0928 79.3708 29.478 79.3679 35.8604 79.3679H43.8915C45.9677 79.3679 46.1382 79.5111 46.4958 81.5464C46.5545 81.8805 46.5797 82.2117 46.6104 82.5907C46.6244 82.7732 46.6411 82.9669 46.6607 83.1746L46.7054 83.6378H46.2443C46.0096 83.6378 45.7861 83.6378 45.5709 83.6378C45.1238 83.6378 44.713 83.635 44.2994 83.6406C42.6508 83.6715 41.7202 84.5923 41.6727 86.2318H41.6755ZM54.4794 53.8778C54.485 55.3937 54.4878 56.9602 54.4431 58.5042C54.4291 58.9646 53.9429 59.3604 53.5377 59.6074C51.9896 60.5591 51.2994 62.2126 51.7409 63.9222C52.1936 65.6768 53.5517 66.752 55.3736 66.8025C57.0586 66.8418 58.5955 65.7021 59.0985 64.0149C59.6127 62.2884 58.9001 60.5367 57.3213 59.6552C56.6283 59.2678 56.3517 58.7793 56.3656 57.9652C56.3908 56.6458 56.3852 55.3011 56.3796 54.0013C56.3796 53.4819 56.3768 52.9626 56.3768 52.4432V52.1316L57.2654 51.8621L69.449 73.9499L68.9739 74.1127C64.6342 75.5921 62.4462 78.5566 62.2869 83.1774L62.273 83.5845H48.6112L48.5972 83.1774C48.4575 78.6128 46.2695 75.623 41.9075 74.0341L41.4464 73.8657L53.5601 51.9211L54.4738 52.098V52.4461C54.4738 52.9233 54.4738 53.4005 54.4766 53.8806L54.4794 53.8778ZM55.3624 60.9774C55.8654 60.9549 56.3544 61.1402 56.7317 61.4967C57.1117 61.8561 57.3353 62.3614 57.3437 62.8807C57.3632 63.9728 56.5389 64.8543 55.4686 64.888C55.4435 64.888 55.4183 64.888 55.3932 64.888C54.8734 64.888 54.4207 64.7167 54.0798 64.3939C53.7193 64.0486 53.5237 63.5685 53.5126 63.0015C53.4902 61.9122 54.3034 61.0223 55.3624 60.9774ZM67.2526 100.49H43.6595V85.5833H67.2526V100.49ZM87.1849 88.4748C87.1458 89.9458 85.8995 91.1979 84.4632 91.2147C82.1998 91.24 79.967 91.2456 77.6924 91.2456C76.3735 91.2456 75.0405 91.2456 73.6797 91.24C72.3328 91.24 70.9775 91.2344 69.6166 91.2344H69.1975V89.5331C69.1975 88.6067 69.1975 87.7028 69.1975 86.796C69.1947 84.3958 68.4206 83.6238 66.0174 83.6182H63.9664L64.0865 83.1016C64.1564 82.8013 64.2206 82.5121 64.2821 82.2314C64.4526 81.4706 64.6119 80.7519 64.8242 80.0501C64.9528 79.6234 65.5759 79.3511 65.9476 79.3511C72.7771 79.3343 79.7183 79.3427 86.4305 79.3511C86.5702 79.3511 86.6847 79.396 86.7881 79.4353C86.8273 79.4494 86.8692 79.4662 86.9195 79.483L87.2129 79.5757V79.8845C87.2129 80.707 87.2185 81.5296 87.2213 82.3521C87.2324 84.3565 87.2436 86.4311 87.1877 88.472L87.1849 88.4748ZM98.1082 73.5653C98.1082 76.2827 96.9681 77.4421 94.2995 77.445C86.0392 77.4506 77.7762 77.445 69.516 77.445C69.2953 77.445 69.0801 77.4281 68.8705 77.4141C68.7783 77.4085 68.6861 77.4 68.5939 77.3944L68.2027 77.372L68.1915 76.527L68.4178 76.4063C68.4514 76.3894 68.4849 76.3698 68.5184 76.3501C68.6078 76.2996 68.7112 76.2406 68.8286 76.1957C70.0665 75.7381 70.7875 75.1935 71.0334 74.5282C71.2821 73.8572 71.0865 72.9617 70.4382 71.7855L66.6434 64.9188C63.4969 59.2228 60.3476 53.5269 57.2095 47.8281C56.6982 46.9017 56.2902 46.43 55.4686 46.4244H55.4491C54.5828 46.4244 54.1413 46.9269 53.6327 47.8505C50.5058 53.5297 47.3677 59.2004 44.2296 64.8739L40.3985 71.8051C39.7642 72.9533 39.5713 73.8348 39.8145 74.5001C40.0604 75.1739 40.7897 75.7325 42.0416 76.2069C42.1394 76.2434 42.226 76.2883 42.3657 76.3641C42.4468 76.4063 42.553 76.4624 42.6983 76.5382L43.9725 77.1895L42.5502 77.3327C42.3601 77.3523 42.2037 77.372 42.0695 77.3888C41.818 77.4197 41.6224 77.4421 41.4184 77.4421C36.8664 77.4421 31.9566 77.4478 26.9491 77.4478C23.4589 77.4478 19.924 77.4478 16.4254 77.4421C13.9943 77.4421 12.762 76.2322 12.762 73.8488C12.7592 60.1857 12.762 46.5255 12.762 32.8624V19.918H15.8274C16.4506 19.918 17.0765 19.918 17.6997 19.918C19.1416 19.9208 20.631 19.9236 22.0952 19.9096C23.6601 19.8927 24.4649 19.0927 24.4788 17.529C24.4872 16.5745 24.4872 15.6201 24.4844 14.6235C24.4844 14.1659 24.4844 13.6999 24.4844 13.2198V12.7987H26.6166C27.4437 12.7987 28.2708 12.7987 29.098 12.7987C31.7471 12.7959 34.4884 12.7903 37.1849 12.8268C37.7438 12.8352 38.4117 13.116 38.8113 13.5146C40.5745 15.2719 42.2903 17.0574 43.9082 18.8176C44.618 19.5896 45.434 19.932 46.5517 19.932H46.5573C59.8866 19.9152 73.4393 19.918 86.5478 19.918H98.1138V73.5653H98.1082ZM98.1082 18.0287H88.4676C74.8896 18.0287 60.8506 18.0287 47.0407 18.0455H47.0352C46.141 18.0455 45.5066 17.7732 44.917 17.136C43.9837 16.1254 43.0084 15.1147 42.0667 14.1378C41.3402 13.3826 40.5885 12.605 39.8564 11.8274C39.25 11.1817 38.5793 10.8926 37.6879 10.8926H37.6628C35.1227 10.9094 32.5407 10.9066 30.0425 10.9038C28.3994 10.9038 26.7563 10.9038 25.1132 10.9038C23.3639 10.9066 22.6122 11.673 22.6038 13.4669C22.5982 14.3792 22.601 15.2916 22.6038 16.232V17.9501H12.7648V17.529C12.7648 16.3668 12.7648 15.213 12.7592 14.0648C12.7536 11.2379 12.748 8.31549 12.7759 5.45767C12.7927 3.84067 13.9859 2.60547 15.6765 2.44826C16.0286 2.41738 16.3779 2.41738 16.716 2.41738H16.8613C42.5837 2.41738 68.3088 2.41738 94.0312 2.41738C97.0743 2.41738 98.1026 3.46169 98.1026 6.55532V18.0287H98.1082Z" fill="black"/>
<path d="M90.5402 35.748C90.3446 33.3141 88.6596 31.5707 86.1418 31.203C83.8113 30.8605 81.6568 32.1631 80.9107 34.3668C80.5698 35.3718 80.0053 35.5655 79.1866 35.5683C75.185 35.5515 71.1164 35.5515 67.1847 35.5543C65.5388 35.5543 63.8929 35.5543 62.247 35.5543C62.0095 35.5543 61.7803 35.5402 61.5121 35.5234C61.3835 35.515 61.2494 35.5066 61.1013 35.4981L60.7045 35.4785V35.077C60.7045 34.8412 60.7045 34.6138 60.7101 34.3921C60.7157 33.9261 60.7185 33.4825 60.7017 33.0474C60.6486 31.6802 59.855 30.8352 58.5752 30.7903C56.4235 30.7117 54.2886 30.7145 52.2319 30.7987C50.9828 30.8493 50.2255 31.6522 50.1585 33.0025C50.1361 33.4572 50.1417 33.9204 50.1473 34.4089C50.1501 34.6447 50.1529 34.8862 50.1529 35.136V35.5571H48.4455C47.0399 35.5571 45.6316 35.5571 44.226 35.5543C40.3306 35.5487 36.3039 35.5431 32.3442 35.5824C31.0756 35.5964 30.2848 35.3353 29.7538 33.9289C28.9602 31.829 26.666 30.751 24.1707 31.3041C22.0162 31.7841 20.4793 33.7071 20.4346 35.981C20.3898 38.3251 21.9128 40.3576 24.1399 40.9246C26.4006 41.5001 28.8121 40.4305 29.7483 38.4402C30.1367 37.6148 30.6955 37.4464 31.4165 37.4492C33.8728 37.4632 36.3682 37.4632 38.7853 37.4604C40.0232 37.4604 41.2639 37.4604 42.5018 37.4604C42.6807 37.4604 42.8539 37.4829 43.0691 37.511C43.1865 37.525 43.3206 37.5418 43.4855 37.5615L44.7597 37.6962L43.2982 38.5525C43.1278 38.6535 43.0132 38.7181 42.8986 38.7827C36.5722 42.3114 32.2576 47.5751 30.0752 54.4277C29.4884 56.2721 29.3403 56.3844 27.4317 56.4489C25.674 56.5051 24.886 57.3023 24.8748 59.0288C24.8637 60.7469 24.8637 62.5323 24.8748 64.489C24.886 66.2407 25.6852 67.0661 27.3926 67.0829C29.2425 67.0998 31.1035 67.0998 32.9283 67.0829C34.6105 67.0661 35.4125 66.2716 35.4516 64.5844C35.4767 63.5851 35.4712 62.5632 35.4656 61.5778C35.4656 61.1455 35.46 60.716 35.46 60.2865C35.46 56.9795 35.3007 56.7942 32.0452 56.3451L31.587 56.2805L31.6931 55.8285C33.9566 46.3315 42.5801 39.4733 49.6108 38.3307L50.0271 38.2633L50.0914 38.6816C50.4295 40.8797 51.2315 41.3485 52.3353 41.3794C54.2411 41.4299 56.2866 41.4327 58.5891 41.3794C59.7292 41.3541 60.5312 40.6186 60.7324 39.4087L60.9392 38.1847L61.364 38.2717C65.5667 39.1364 69.736 41.5142 73.106 44.9615C76.2804 48.2123 78.4964 52.1987 79.1838 55.8959L79.2704 56.3591L78.8037 56.3928C78.6836 56.4012 78.5606 56.4096 78.4405 56.4181C78.1834 56.4349 77.9291 56.4517 77.6748 56.477C76.476 56.6061 75.7299 57.2967 75.6824 58.3214C75.5762 60.6402 75.5762 62.9562 75.6824 65.2077C75.7327 66.2885 76.5571 67.0296 77.7363 67.0549C79.983 67.1026 82.062 67.1026 84.0963 67.0549C85.27 67.0268 86.1446 66.1565 86.1726 64.9859C86.2228 62.9843 86.2229 60.8929 86.1753 58.5937C86.153 57.4455 85.3789 56.6202 84.2081 56.491C83.7638 56.4405 83.2384 56.3984 82.7327 56.4517C81.6345 56.5668 81.2935 55.924 81.0896 55.2137C79.0329 48.0271 74.6736 42.5079 68.1376 38.8135C67.9839 38.7265 67.8469 38.6283 67.6597 38.4907C67.5563 38.4149 67.4362 38.3279 67.2825 38.2212L66.1899 37.4548H70.1411C73.5251 37.4492 76.7191 37.4492 79.9355 37.4885C80.472 37.4941 80.9945 38.0668 81.2125 38.4514C82.4392 40.6018 84.7446 41.5338 87.0863 40.8264C89.3414 40.1442 90.7302 38.1005 90.543 35.7396L90.5402 35.748ZM25.3918 39.1504H25.3639C24.5395 39.1504 23.7738 38.8388 23.2038 38.2745C22.6281 37.7047 22.3096 36.9327 22.3068 36.0989C22.304 35.2651 22.6198 34.4847 23.201 33.898C23.7766 33.3169 24.5395 32.9968 25.3555 32.9968H25.3583C27.0461 32.9968 28.4209 34.3808 28.4265 36.0849C28.4321 37.8759 27.183 39.1336 25.3918 39.1504ZM33.4927 58.4281V65.1796H26.761V58.4281H33.4927ZM58.8462 39.4761H52.0587V32.733H58.8462V39.4761ZM84.25 58.4309V65.1768H77.4541V58.4309H84.25ZM85.5215 39.1504H85.4935C84.672 39.1448 83.9007 38.8107 83.3139 38.21C82.7382 37.6176 82.4253 36.8484 82.4365 36.0428C82.4588 34.3696 83.8895 32.9856 85.555 32.994C87.254 33.0165 88.5701 34.3949 88.5506 36.1326C88.531 37.9405 87.3127 39.1476 85.5215 39.1476V39.1504Z" fill="#0AB8B6"/>
<path d="M78.9955 12.6358C79.6298 13.2815 80.4821 13.6408 81.3959 13.6436H81.4126C82.318 13.6436 83.1759 13.2843 83.827 12.633C84.4837 11.9761 84.8413 11.1114 84.8413 10.1934C84.8386 8.33502 83.3268 6.79101 81.4769 6.74609C81.4518 6.74609 81.4238 6.74609 81.3987 6.74609C80.524 6.74609 79.6941 7.08578 79.057 7.70619C78.3891 8.35467 78.0175 9.22774 78.0119 10.1569C78.0035 11.1002 78.3556 11.9789 78.9983 12.6358H78.9955ZM79.9679 10.011C80.1356 9.44109 80.8454 8.74769 81.4322 8.74769H81.435C81.8877 8.74769 82.2593 9.09299 82.5891 9.39617C82.5919 9.39898 82.5975 9.40179 82.6002 9.4046C82.8126 9.5983 82.9272 9.87622 82.9132 10.1654L82.902 10.404C82.8881 10.6959 82.7456 10.9654 82.5108 11.1423C82.5108 11.1423 82.5108 11.1423 82.508 11.1451C82.1811 11.3893 81.8094 11.6673 81.3707 11.7066C81.3288 11.7094 81.2841 11.7122 81.2422 11.7122C80.8286 11.7122 80.443 11.5381 80.1915 11.2293C79.9204 10.8953 79.8366 10.4517 79.9679 10.0138V10.011Z" fill="#0AB8B6"/>
<path d="M72.0525 13.6436C72.9775 13.6689 73.8353 13.3151 74.492 12.6695C75.1515 12.0238 75.5176 11.162 75.526 10.2412C75.5343 9.30915 75.1795 8.43047 74.5312 7.76795C73.8912 7.11385 73.0362 6.75171 72.128 6.74609H72.1084C71.2114 6.74609 70.3591 7.10823 69.7025 7.76233C69.0402 8.42485 68.6769 9.2923 68.6797 10.2047C68.6853 12.0659 70.1971 13.6099 72.0497 13.6408L72.0525 13.6436ZM70.6553 10.0531C70.7979 9.49162 71.5076 8.76453 72.1 8.74769C72.5471 8.73365 72.9384 9.06772 73.2737 9.35968C73.2737 9.35968 73.2793 9.36529 73.2821 9.3681C73.5 9.559 73.6258 9.83692 73.6202 10.1289L73.6146 10.3647C73.609 10.6595 73.4693 10.9346 73.2374 11.1142C73.2374 11.1142 73.2373 11.1142 73.2346 11.117C72.9104 11.3697 72.5443 11.656 72.1084 11.7094C72.0469 11.7178 71.9883 11.7206 71.9296 11.7206C71.5384 11.7206 71.1807 11.5634 70.9292 11.2742C70.6414 10.943 70.5408 10.4994 70.6553 10.0559V10.0531Z" fill="#0AB8B6"/>
<path d="M87.2578 10.191C87.2578 11.0978 87.6183 11.9624 88.2778 12.6221C88.94 13.2846 89.8063 13.6384 90.7117 13.6412C91.6227 13.6384 92.4805 13.2678 93.1316 12.6053C93.7827 11.9399 94.1348 11.0725 94.1236 10.1573C94.1125 9.23933 93.7352 8.37469 93.0618 7.72059C92.4135 7.08895 91.5779 6.74365 90.7061 6.74365C90.6809 6.74365 90.6586 6.74365 90.6334 6.74365C88.7752 6.78576 87.2634 8.32977 87.2578 10.1882V10.191ZM89.2334 9.96642C89.4095 9.41338 90.1584 8.73121 90.7648 8.75086C91.2203 8.76771 91.5863 9.12142 91.9077 9.43303C92.0278 9.54813 91.9021 11.0753 91.768 11.1707C91.4298 11.4094 91.0442 11.6789 90.5999 11.7041C90.572 11.7041 90.544 11.7041 90.5133 11.7041C90.0885 11.7041 89.6917 11.516 89.4402 11.1904C89.172 10.8451 89.0965 10.3987 89.2334 9.96642Z" fill="#0AB8B6"/>
</g>
<defs>
<clipPath id="clip0_1_11579">
<rect width="100" height="102" fill="white" transform="translate(0 0.5)"/>
</clipPath>
</defs>
</svg>
