<svg width="32" height="28" viewBox="0 0 32 28" fill="none" xmlns="http://www.w3.org/2000/svg">
<path d="M31.9898 2.36327C31.9865 0.81323 31.1612 0.0276503 29.5891 0.0219636C26.672 0.0114025 23.7549 0.00896535 20.8377 0.00815296C14.7003 0.00652818 8.56295 0.022776 2.42638 2.9067e-05C1.04342 -0.00484527 0.198274 0.602822 0.0272626 2.20242C-0.00743526 2.52412 0.00495684 2.8507 0.0041307 3.17566C0.00165228 4.87924 0 6.58363 0 8.28721C0 12.588 0 16.888 0.00247842 21.1888C0.00330456 22.8826 0.928582 23.7819 2.65852 23.7835C2.71387 23.7835 2.7684 23.7835 2.82375 23.7835C5.68633 23.7835 8.54808 23.7827 11.4107 23.786C11.7031 23.786 11.9947 23.8136 12.312 23.829V27.038C11.7981 27.038 11.3371 27.038 10.8753 27.038C10.3796 27.038 9.88477 27.0315 9.38909 27.0355C9.06524 27.0388 8.86532 27.1842 8.87275 27.5262C8.88019 27.8715 9.09333 27.9941 9.41305 27.9958C9.52292 27.9958 9.6328 27.999 9.7435 27.999C13.8717 27.999 18 27.999 22.1282 27.999C22.2934 27.999 22.4611 28.0063 22.6222 27.9811C22.9039 27.9373 23.1022 27.7512 23.0369 27.4823C22.9973 27.3182 22.7957 27.1306 22.6263 27.0745C22.4025 27.0006 22.1373 27.0396 21.8903 27.0388C21.155 27.0363 20.4189 27.038 19.6291 27.038V23.7868C19.9901 23.7868 20.2611 23.7868 20.5321 23.7868C23.3666 23.7852 26.2011 23.7892 29.0364 23.777C29.4453 23.7754 29.8642 23.7421 30.2607 23.6503C31.4247 23.3814 31.9948 22.6844 31.9956 21.5121C32.0014 15.1291 32.003 8.7454 31.9906 2.36246L31.9898 2.36327ZM18.5056 26.999H13.3884V23.8225H18.5056V26.999ZM19.4961 22.7721C19.2317 22.7916 18.9946 22.8241 18.7567 22.8241C13.3595 22.8273 7.96317 22.8282 2.56599 22.8257C1.42592 22.8257 1.03185 22.4431 1.00459 21.3317C0.997152 21.0117 1.00376 20.6916 1.00376 20.3918C1.66302 20.2115 18.4973 20.1692 19.4961 20.3357V22.7721ZM21.806 20.5892C21.8291 21.2887 21.8109 21.9898 21.8109 22.7575H20.5279V18.477H21.7068C21.9134 19.196 21.7829 19.8979 21.8052 20.5892H21.806ZM26.8735 22.7615H25.4798V15.8343H26.8735V22.7615ZM27.9128 15.788C27.9054 14.8952 27.7443 14.7376 26.8669 14.7319C26.344 14.7286 25.821 14.727 25.2981 14.7351C24.5298 14.7465 24.4414 14.8237 24.4389 15.576C24.4323 17.6589 24.4372 19.7427 24.4381 21.8257C24.4381 22.1189 24.4381 22.4122 24.4381 22.794H22.9452C22.9246 22.5357 22.8899 22.3042 22.8891 22.0718C22.8833 20.8817 22.8924 19.6907 22.8841 18.5006C22.8783 17.6695 22.699 17.4948 21.8754 17.4826C21.4623 17.4761 21.0492 17.4745 20.6362 17.4834C19.8646 17.4997 19.606 17.7507 19.5638 18.4973C19.5523 18.7069 19.53 18.9157 19.5085 19.174H1.07068C1.05168 18.9189 1.01698 18.6606 1.01615 18.4023C1.01037 13.0722 1.00707 7.7421 1.00789 2.41201C1.00789 1.37703 1.397 1.0017 2.45364 1.00252C11.4834 1.00333 20.5139 1.00495 29.5436 1.0082C30.5887 1.0082 30.8481 1.23405 30.9605 2.25278C30.9927 2.54768 30.9935 2.84664 30.9935 3.14397C30.9968 8.20353 30.9976 13.2631 30.9968 18.3226C30.9968 18.5867 30.9737 18.8499 30.9596 19.1692H27.9954C27.9673 18.9579 27.9186 18.7532 27.9161 18.5477C27.9079 17.6281 27.9194 16.7076 27.912 15.788H27.9128ZM30.9852 21.8817C30.9266 22.3943 30.4284 22.7981 29.9013 22.8184C29.2759 22.8428 28.6489 22.8241 27.9599 22.8241V20.2846H30.9951C30.996 20.8329 31.0447 21.3634 30.9852 21.8817Z" fill="black"/>
<path d="M25.4526 6.64537C25.4468 6.19856 25.0205 5.96946 24.652 6.2343C24.4612 6.37159 24.3158 6.59013 24.1968 6.7981C23.683 7.69254 23.1873 8.59835 22.6825 9.49767C22.5536 9.72676 22.4124 9.94936 22.2323 10.2491C22.1108 10.0623 22.0357 9.96073 21.9753 9.85187C21.407 8.83151 20.8402 7.81115 20.2751 6.78916C20.0851 6.44552 19.8646 6.08157 19.4118 6.1685C18.9153 6.26355 18.9624 6.71036 18.9566 7.09056C18.9566 7.11737 18.9566 7.14499 18.9566 7.1718C18.9566 9.20115 18.9566 11.2305 18.9591 13.2598C18.9591 13.4215 18.9145 13.6214 18.9921 13.7367C19.1144 13.9171 19.3077 14.1348 19.4994 14.1648C19.7679 14.2071 19.9306 13.9715 19.9439 13.6928C19.9538 13.4767 19.9505 13.2598 19.9505 13.0437C19.9505 11.5977 19.9505 10.1508 19.9505 8.70478C20.0058 8.6934 20.062 8.68284 20.1174 8.67147C20.2082 8.8177 20.3065 8.95987 20.3892 9.11097C20.7799 9.82506 21.1434 10.5546 21.5598 11.2541C21.9605 11.9283 22.4512 11.9088 22.8701 11.2337C22.956 11.0956 23.0163 10.9429 23.0939 10.7999C23.493 10.0655 23.8936 9.33275 24.2943 8.59916C24.3414 8.60404 24.3885 8.60973 24.4356 8.6146C24.4356 9.55941 24.4356 10.505 24.4356 11.4498C24.4356 11.9365 24.4158 12.4255 24.4488 12.9105C24.4802 13.3663 24.7528 13.7018 25.0222 13.7034C25.308 13.705 25.4955 13.4012 25.5211 12.8902C25.5253 12.809 25.5228 12.7277 25.522 12.6465C25.4997 10.6456 25.4798 8.64466 25.4534 6.64456L25.4526 6.64537Z" fill="black"/>
<path d="M16.9367 12.9779C16.5683 12.2541 16.1998 11.5311 15.8074 10.7601C15.9206 10.661 15.9734 10.5944 16.0428 10.557C17.287 9.88193 17.2936 8.70478 17.0705 7.74047C16.8467 6.77292 15.8561 6.16119 14.6599 6.14819C14.0824 6.14169 13.5049 6.13519 12.9274 6.14575C12.1269 6.16037 12.0137 6.26598 12.0113 7.03613C12.0055 9.08985 12.0096 11.1436 12.0113 13.1973C12.0113 13.359 12.0104 13.5231 12.0369 13.6823C12.0856 13.9756 12.307 14.1185 12.5706 14.0495C12.7424 14.0048 12.9605 13.8293 13.0035 13.6717C13.0786 13.3931 13.0398 13.0827 13.0415 12.7862C13.0448 12.2013 13.0423 11.6172 13.0423 11.0501C14.1152 10.8996 14.8645 11.2486 15.2902 12.0973C15.3993 12.315 15.5042 12.536 15.6141 12.7529C15.8107 13.1396 16.0023 13.5287 16.2114 13.9089C16.3601 14.1778 16.6038 14.32 16.8971 14.1657C17.1953 14.0089 17.3134 13.7432 17.1565 13.4134C17.0871 13.2663 17.0094 13.1242 16.9351 12.9788L16.9367 12.9779ZM15.0143 9.91361C14.3938 9.97048 13.7643 9.9258 13.0778 9.9258V7.20917C13.7594 7.20917 14.4137 7.15718 15.0564 7.22298C15.7446 7.29366 16.1849 7.87045 16.1734 8.53011C16.161 9.2247 15.6793 9.85187 15.0143 9.91361Z" fill="black"/>
<path d="M10.2359 11.6383C9.97648 11.5741 9.7402 11.6237 9.60554 11.8861C9.55597 11.982 9.52458 12.0876 9.47418 12.1826C9.0545 12.9747 8.30519 13.3744 7.52862 13.2249C6.74792 13.0746 6.14731 12.4231 6.10353 11.5489C6.05644 10.605 6.06222 9.65608 6.10931 8.71209C6.15144 7.86558 6.84871 7.1718 7.66576 7.05644C8.45638 6.94514 9.05533 7.31315 9.4494 8.15154C9.68402 8.65197 9.72946 8.66659 10.4168 8.45781C10.5597 7.4017 9.74929 6.34235 8.63234 6.12544C6.57856 5.72737 5.10307 6.8899 5.05433 8.95905C5.0345 9.82344 5.04772 10.6886 5.04937 11.5538C5.05185 12.7407 5.66567 13.5718 6.72313 14.03C7.71615 14.4606 8.72239 14.3314 9.59976 13.6782C10.088 13.3151 10.4573 12.835 10.5539 12.2094C10.5944 11.947 10.5366 11.7106 10.2359 11.6359V11.6383Z" fill="black"/>
</svg>
