<svg width="31" height="32" viewBox="0 0 31 32" fill="none" xmlns="http://www.w3.org/2000/svg">
<path d="M15.8325 0C16.0925 0.08 16.3525 0.15 16.6125 0.25C18.0725 0.8 19.0225 2.17 19.0225 3.73C19.0225 6.35 19.0225 8.97 19.0225 11.59C19.0225 11.71 19.0225 11.83 19.0225 11.98C19.1725 11.98 19.2925 11.98 19.4125 11.98C22.0225 11.98 24.6325 11.98 27.2425 11.98C29.2025 11.98 30.8725 13.51 30.9925 15.4C31.1225 17.45 29.7025 19.2 27.7025 19.45C27.5425 19.47 27.3725 19.46 27.2125 19.46C24.6125 19.46 22.0125 19.46 19.4125 19.46H19.0225C19.0225 19.61 19.0225 19.73 19.0225 19.85C19.0225 22.46 19.0225 25.07 19.0225 27.68C19.0225 29.61 17.6025 31.2 15.6925 31.43C13.8625 31.65 12.0925 30.42 11.6425 28.59C11.5725 28.3 11.5425 27.98 11.5425 27.68C11.5425 25.07 11.5425 22.46 11.5425 19.85C11.5425 19.73 11.5425 19.61 11.5425 19.46C11.3925 19.46 11.2725 19.46 11.1525 19.46C8.5625 19.46 5.9725 19.46 3.3825 19.46C1.4925 19.46 0.0225 18.26 -0.3775 16.4C-0.3775 16.35 -0.4175 16.31 -0.4375 16.27C-0.4375 15.9 -0.4375 15.53 -0.4375 15.16C-0.4175 15.12 -0.3875 15.07 -0.3775 15.03C0.0225 13.17 1.4925 11.97 3.3825 11.97C5.9725 11.97 8.5625 11.97 11.1525 11.97H11.5425C11.5425 11.82 11.5425 11.7 11.5425 11.58C11.5425 8.96 11.5425 6.34 11.5425 3.72C11.5425 2.37 12.1425 1.31 13.2825 0.6C13.7125 0.33 14.2325 0.2 14.7225 0C15.0925 0 15.4625 0 15.8325 0Z" fill="#0AB8B6"/>
</svg>
