<svg width="16" height="16" viewBox="0 0 16 16" fill="none" xmlns="http://www.w3.org/2000/svg">
<path d="M16 5.10881C15.9697 5.29617 15.9442 5.48444 15.9088 5.67046C15.7239 6.64451 15.2773 7.4675 14.6117 8.16678C12.2024 10.6985 9.79485 13.2325 7.3877 15.7664C7.26157 15.8991 7.12521 15.9986 6.93985 16C6.69185 16.0022 6.50776 15.8875 6.40251 15.6517C6.29683 15.4154 6.33263 15.1931 6.49242 14.9945C6.5393 14.9363 6.59384 14.8843 6.6454 14.83C9.03891 12.3122 11.4311 9.79348 13.8259 7.27745C14.5627 6.50332 14.9198 5.57768 14.8721 4.47991C14.8026 2.87831 13.5524 1.43942 12.0494 1.22471C10.9083 1.06154 9.9278 1.40132 9.11561 2.25344C6.68929 4.79862 4.2668 7.34737 1.84687 9.89927C0.809267 10.9939 0.937955 12.7049 2.11447 13.5978C2.94498 14.2285 4.1347 14.172 4.90896 13.4647C4.9716 13.4073 5.03296 13.3477 5.09177 13.2858C7.26839 10.997 9.44458 8.70782 11.6203 6.4186C11.9902 6.02951 12.0857 5.54361 11.882 5.10074C11.579 4.44226 10.8035 4.25802 10.2606 4.71748C10.1958 4.77217 10.1357 4.83313 10.0769 4.89499C8.01836 7.0596 5.95977 9.22465 3.90247 11.391C3.73841 11.5636 3.55902 11.6725 3.31826 11.6232C2.91004 11.5399 2.71573 11.0531 2.94881 10.6909C2.98631 10.6326 3.03446 10.5806 3.08219 10.5309C5.16208 8.34204 7.24197 6.15278 9.32313 3.96532C10.0795 3.17057 11.1572 2.99754 12.0281 3.52513C13.335 4.31719 13.5468 6.10482 12.4649 7.25324C11.6105 8.1596 10.7498 9.0588 9.892 9.96157C8.57018 11.352 7.24793 12.7421 5.92654 14.1334C5.40411 14.6835 4.78411 15.0389 4.05545 15.1806C1.85923 15.6073 -0.172086 13.6843 0.0115716 11.3485C0.0818813 10.4529 0.418942 9.68007 1.02361 9.04311C3.44524 6.49301 5.86432 3.94066 8.29363 1.39863C9.29714 0.349273 10.5248 -0.115564 11.9301 0.0242907C13.857 0.216591 15.3941 1.64024 15.8683 3.62734C15.9301 3.88642 15.957 4.15448 16 4.41805V5.10881Z" fill="#949494"/>
</svg>
