<svg width="84" height="84" viewBox="0 0 84 84" fill="none" xmlns="http://www.w3.org/2000/svg">
<g clip-path="url(#clip0_1_380)">
<path d="M76.838 30.284C77.0467 30.4883 77.4641 30.7614 77.9214 30.3062C79.4445 28.792 80.9765 27.2357 82.4574 25.7304C82.9702 25.2086 83.4831 24.6868 83.9982 24.1673V23.741C83.9804 23.7144 83.9605 23.6877 83.9427 23.6611C83.8472 23.5212 83.7584 23.3902 83.6629 23.2948L83.4476 23.0772C81.6758 21.2943 79.8442 19.4516 78.0258 17.6598C77.5596 17.2002 77.2287 17.2002 76.7625 17.6598C76.2652 18.1483 75.7923 18.6678 75.3327 19.1696C75.1373 19.3849 74.9441 19.5959 74.7554 19.7979L74.4268 20.1509L74.0316 19.8756C61.8293 11.3877 49.1718 9.84908 35.3353 15.1754L33.0729 16.0457L34.7314 14.2762C34.8202 14.183 34.8979 14.0964 34.9712 14.0187C35.1177 13.8588 35.2421 13.7256 35.3708 13.5968C35.9614 13.0085 36.552 12.4223 37.1426 11.834C38.5702 10.4152 40.0444 8.94989 41.4787 7.4912C42.0226 6.93837 42.5777 6.62531 43.5191 6.8984C45.0155 7.33357 46.6118 6.6453 47.4022 5.22657C48.1749 3.83893 47.9262 2.10272 46.7961 1.00148C45.6372 -0.128611 43.8676 -0.326211 42.4955 0.517475C41.1234 1.36338 40.4996 2.99525 40.9791 4.48502C41.21 5.20215 41.0813 5.71724 40.5373 6.25898C37.5999 9.18079 34.6226 12.1626 31.743 15.0466L28.6125 18.1816C28.4948 18.2993 28.3705 18.408 28.2595 18.5035C28.2128 18.5435 28.1662 18.5857 28.1218 18.6256L27.8421 18.8765L27.5046 18.71C25.351 17.651 22.2604 16.8894 19.7804 19.2673C17.3648 21.583 16.9963 24.3449 18.6881 27.4732L18.8834 27.8373L16.5944 30.1375C13.1442 33.6033 9.57404 37.1889 6.05498 40.6858C5.67755 41.0588 4.97595 41.081 4.59852 40.9766C2.96887 40.5282 1.36809 41.1254 0.519962 42.5019C-0.328164 43.8763 -0.130564 45.6458 0.99731 46.8025C2.12074 47.9548 3.8836 48.1968 5.28456 47.3886C6.72105 46.5583 7.36492 44.9553 6.88757 43.3989C6.60782 42.4864 6.96306 41.9735 7.38934 41.5583C9.12555 39.8599 10.8707 38.1125 12.558 36.4207L12.8622 36.1143C13.153 35.8213 13.4417 35.5082 13.7192 35.2041C13.8524 35.0575 13.9878 34.911 14.1233 34.7667L16.0327 32.7241L15.0491 35.3417C9.83159 49.2337 11.4035 61.8801 19.8537 74.0091L20.1268 74.4021L19.7782 74.7307C19.5695 74.9261 19.3608 75.1215 19.1499 75.3191C18.6858 75.7498 18.2063 76.1961 17.7534 76.6512C17.1561 77.2485 17.1583 77.5415 17.7645 78.1521C19.494 79.8994 21.0304 81.4336 22.4602 82.8456C22.7688 83.1498 23.0952 83.4296 23.4438 83.7249C23.5504 83.8159 23.6591 83.9069 23.7657 84.0002H24.1609C24.6849 83.4828 25.2111 82.9655 25.7373 82.4482C27.2404 80.9696 28.7923 79.442 30.3021 77.9234C30.6506 77.5726 30.6262 77.1863 30.2266 76.7778C28.4015 74.9106 26.5144 73.0078 24.6161 71.1184C24.1454 70.6499 23.7568 70.6499 23.2795 71.1184C22.942 71.4492 22.629 71.8067 22.2982 72.1863C22.1472 72.3595 21.9962 72.5327 21.8386 72.7059L21.3901 73.2032L20.9838 72.6703C16.2458 66.436 13.6504 58.5497 13.6748 50.4659C13.6992 42.7417 16.0438 35.3528 20.2755 29.6557L20.5397 29.3005L20.946 29.4803C23.6858 30.6948 26.0881 30.3973 28.0841 28.5922C30.3132 26.5763 30.7883 23.9919 29.4961 20.9058L29.3252 20.4973L29.6871 20.2397C42.329 11.2523 60.3506 11.5365 72.5441 20.9169L73.0392 21.2988L72.6018 21.745C72.4419 21.9093 72.2799 22.0714 72.12 22.2357C71.767 22.5932 71.4007 22.964 71.0565 23.3369C70.6702 23.7544 70.6524 24.1451 71.0055 24.5003C72.8371 26.352 74.7443 28.2436 76.8358 30.2863L76.838 30.284ZM42.9329 2.17376C43.2926 1.7941 43.7811 1.58096 44.3072 1.57208C44.8334 1.5632 45.3308 1.7608 45.7104 2.1338C46.0923 2.5068 46.3032 3.00413 46.3054 3.53032C46.3054 4.05651 46.1012 4.55162 45.7237 4.92684C45.3507 5.29762 44.8601 5.49966 44.3383 5.50188C44.3317 5.50188 44.325 5.50188 44.3183 5.50188C43.2682 5.49078 42.42 4.65597 42.389 3.60137C42.3734 3.06407 42.5644 2.55786 42.9307 2.17376H42.9329ZM3.67712 46.2119C3.66158 46.2119 3.64604 46.2119 3.6305 46.2119C3.11985 46.2119 2.64028 46.0166 2.27616 45.6613C1.89428 45.2883 1.68558 44.7843 1.68558 44.2448C1.68558 43.7231 1.87208 43.2524 2.21177 42.9171C2.54925 42.5819 3.01994 42.3998 3.54169 42.3998H3.55723C4.62516 42.4065 5.47773 43.2413 5.49993 44.3003C5.51991 45.366 4.73839 46.1897 3.67934 46.2141L3.67712 46.2119ZM23.9456 72.7836L28.4992 77.3328L23.9855 81.8665L19.4407 77.304L23.9456 72.7836ZM27.2648 27.3023C26.3856 28.1748 25.2066 28.6544 23.9456 28.6544C23.9345 28.6544 23.9211 28.6544 23.91 28.6544C21.3457 28.6366 19.2431 26.5407 19.2209 23.983C19.2098 22.7375 19.7005 21.5497 20.5997 20.6394C21.5011 19.7269 22.6867 19.2207 23.9345 19.2162H23.9522C25.1955 19.2162 26.3656 19.7002 27.2493 20.5816C28.1507 21.4786 28.6458 22.6775 28.6436 23.9586C28.6436 25.2352 28.1529 26.4208 27.2648 27.3023ZM77.4863 19.4005L81.929 23.8387L77.393 28.3413L72.9748 23.9186L77.4885 19.4005H77.4863Z" fill="#0AB8B6"/>
<path d="M83.3635 63.5075C83.5389 63.3322 83.6987 63.1279 83.8697 62.9147C83.9118 62.8615 83.9562 62.806 83.9984 62.7527V62.3752C83.9363 62.3197 83.8719 62.262 83.8097 62.2065C83.5655 61.9845 83.3368 61.7758 83.0948 61.6514C81.978 61.0764 80.8324 60.5036 79.7245 59.9485C78.3502 59.2603 76.9292 58.5498 75.5438 57.826C75.0065 57.544 74.5159 57.0023 74.2961 56.4428C72.5709 52.0512 70.9146 47.7106 69.2273 43.2813C68.9986 42.6796 68.7277 42.3732 68.2637 42.1867C57.0871 37.7374 45.7107 33.1948 34.4541 28.6833C33.8657 28.448 33.4972 28.5279 33.0487 28.9919C31.8809 30.1997 30.491 31.6207 29.0345 32.9994C28.5194 33.4879 28.4417 33.8964 28.7326 34.6202C33.4883 46.4629 37.8688 57.4197 42.125 68.1167C42.3537 68.694 42.6778 69.007 43.2795 69.2335C48.5969 71.2472 52.6577 72.8081 56.441 74.2956C56.9983 74.5154 57.5422 75.0061 57.8242 75.5456C58.548 76.9333 59.2585 78.3542 59.9467 79.7285C60.4996 80.8364 61.0724 81.9798 61.6474 83.0988C61.7718 83.3408 61.9805 83.5695 62.2025 83.8137C62.2602 83.8759 62.3157 83.9381 62.3712 84.0024H62.7487C62.8019 83.9603 62.8552 83.9181 62.9085 83.8759C63.1239 83.7072 63.3259 83.5451 63.5013 83.3697C70.1353 76.7445 76.816 70.0639 83.3612 63.512L83.3635 63.5075ZM57.449 72.9058C57.2381 72.9058 57.016 72.8569 56.774 72.7637C54.9601 72.0554 53.144 71.3538 51.3278 70.6545C49.1076 69.7997 46.8097 68.9138 44.5584 68.0257C44.0299 67.817 43.5193 67.3197 43.3172 66.8157C41.0038 61.0764 38.6614 55.235 36.3968 49.589C34.4519 44.7378 32.507 39.8866 30.5532 35.0376C30.1069 33.9297 30.7441 33.388 31.2614 33.0771L31.6322 32.8529L49.2808 50.4992L49.1254 50.8478C47.7133 54.0028 46.9007 58.3522 51.057 61.1408C53.9677 63.0968 57.9707 62.6594 60.3664 60.1261C62.7864 57.5662 63.0284 53.632 60.9414 50.7701C59.3628 48.6076 55.4086 46.3718 50.977 49.0739L50.604 49.3003L32.9177 31.6118L33.0864 31.2588C33.3595 30.6882 33.9368 30.1087 35.149 30.5971C45.3621 34.7068 55.9303 38.9319 66.5608 43.1592C67.3712 43.4811 67.8507 43.9784 68.1682 44.8221C69.4804 48.319 70.928 52.0778 72.7197 56.6559C73.0305 57.4486 72.9128 58.0347 72.3289 58.6142C68.1882 62.7194 63.6945 67.2131 58.5857 72.3551C58.2172 72.7259 57.8553 72.9058 57.449 72.9058ZM49.394 55.0996C49.394 53.5565 49.989 52.12 51.0614 51.0543C52.1315 49.9908 53.5725 49.4047 55.1155 49.4047H55.1244C56.6564 49.4047 58.0951 50.0108 59.1763 51.1054C60.2531 52.1955 60.8393 53.6364 60.8237 55.1595C60.7904 58.2767 58.2305 60.8233 55.1155 60.8344H55.0955C53.5814 60.8344 52.156 60.2438 51.0814 59.1692C49.9935 58.0835 49.394 56.6382 49.3962 55.1018L49.394 55.0996ZM62.6843 81.7156L58.9721 74.3045L74.3005 58.9916L75.8546 59.7687C77.4621 60.5724 79.1006 61.3939 80.7391 62.2154C80.8546 62.2731 80.9589 62.3375 81.0145 62.373L81.6428 62.7527L81.1454 63.2567L62.682 81.7156H62.6843Z" fill="black"/>
</g>
<defs>
<clipPath id="clip0_1_380">
<rect width="84" height="84" fill="white"/>
</clipPath>
</defs>
</svg>
