<svg width="84" height="84" viewBox="0 0 84 84" fill="none" xmlns="http://www.w3.org/2000/svg">
<g clip-path="url(#clip0_1_360)">
<path d="M31.836 83.9984C37.7894 83.9984 43.7437 83.9984 49.6964 83.9984C58.2169 83.9984 66.7357 83.9984 75.2562 84.0008H75.2595C75.8186 84.0008 76.4783 83.9755 77.1389 83.7912C78.7122 83.3515 79.8983 82.7676 80.8732 81.9553C82.936 80.2365 83.9543 77.9437 83.9846 74.9475C84.0018 73.2737 83.9977 71.5705 83.9928 69.9229C83.9912 69.2121 83.9895 68.5005 83.9887 67.7898L83.9764 20.4217C83.9764 19.1344 83.9764 17.8472 83.9773 16.5591C83.9781 14.1222 83.9797 11.6017 83.974 9.12382C83.9674 6.21767 82.9974 3.95269 81.0091 2.19868C78.0835 -0.381567 73.9064 -0.723852 70.6133 1.34706C69.4845 2.05701 68.9328 3.01918 68.9254 4.29006C68.9188 5.45285 68.918 6.63529 68.9172 7.77924C68.9172 8.27957 68.9172 8.78071 68.9156 9.28104V9.60695V10.3898H67.7442C67.1974 10.3914 66.6506 10.3898 66.103 10.389C64.5084 10.3873 62.8598 10.3865 61.2398 10.3972C60.9001 10.3996 60.5719 10.4463 60.2911 10.5323C60.0513 10.606 59.9293 10.7845 59.9285 11.0621C59.9285 11.3413 60.0496 11.5174 60.2993 11.6009C60.5293 11.6779 60.7962 11.7188 61.0696 11.7204C62.6936 11.7294 64.3463 11.7286 65.9433 11.727C66.473 11.727 67.0026 11.7262 67.5322 11.7262H68.9147L68.918 16.1964C68.9205 18.6906 68.9229 21.1841 68.9221 23.6783V27.5409C68.9213 35.2784 68.9205 43.2787 68.9131 51.148C68.9115 52.8135 68.9041 54.507 68.8967 56.1439C68.8861 58.4768 68.8755 60.89 68.882 63.2614V63.3065C68.8845 64.1606 68.8869 65.0433 69.1063 65.8032C69.541 67.3034 70.9178 68.2704 72.4493 68.2704C72.7538 68.2704 73.0641 68.232 73.3751 68.1525C75.3896 67.635 77.283 67.87 79.0036 68.851C80.9215 69.945 82.2263 71.8669 82.5832 74.1237C82.9393 76.3756 82.2935 78.6004 80.8118 80.2275C79.277 81.9127 77.2797 82.7316 74.7045 82.7324C63.2781 82.7357 51.8517 82.7349 40.4261 82.7349H25.542C25.4479 82.7349 25.3529 82.7332 25.2588 82.7316C25.0099 82.7275 24.7742 82.7234 24.5581 82.7513C24.2994 82.784 24.0858 83.096 24.1103 83.4063C24.1341 83.7159 24.3968 83.9984 24.6612 83.9984H31.8352H31.836ZM81.7237 69.2514C81.4634 69.0664 81.2088 68.8789 80.9633 68.6979C80.4263 68.3024 79.9196 67.9298 79.3867 67.6014C78.2178 66.8808 76.8164 66.5787 75.1023 66.6769C74.6145 66.7048 74.111 66.7621 73.624 66.817C73.3571 66.8473 73.0821 66.8784 72.8079 66.9046C72.6155 66.9234 72.3765 66.9463 72.126 66.925C70.637 66.7989 70.2818 65.8196 70.2457 65.0204C70.1999 63.9902 70.1999 62.9478 70.2007 61.9406V61.5566C70.1991 51.8129 70.1991 42.07 70.1991 32.3264V21.2348C70.2007 18.1518 70.2007 15.068 70.1991 11.9849C70.1991 10.425 70.1942 8.83803 70.1893 7.3043C70.1868 6.55913 70.1852 5.81397 70.1835 5.0688C70.1794 3.39995 70.7205 2.57699 72.2504 1.92272C74.5784 0.927799 77.2142 1.15544 79.3016 2.53277C81.4209 3.93058 82.6872 6.31429 82.6896 8.90928C82.697 17.2085 82.6954 25.6461 82.6937 33.806C82.6937 37.1478 82.6921 40.4896 82.6921 43.8314V69.9409L81.7221 69.2514H81.7237Z" fill="white"/>
<path d="M7.23825 47.8327L7.58614 48.437C8.33186 49.7325 9.28713 50.0756 10.682 49.5515C10.8858 49.4745 11.0904 49.3984 11.2943 49.3222C12.1922 48.9865 13.1205 48.6393 14.0152 48.2675C14.3443 48.1308 14.6717 48.062 14.9983 48.062C15.4706 48.062 15.9437 48.2045 16.4275 48.4911L16.633 48.6131C17.2723 48.9922 17.9329 49.3844 18.5959 49.7259C19.2966 50.0862 19.6928 50.6365 19.8074 51.4095C19.9998 52.7025 20.2085 54.0806 20.4606 55.4662C20.6595 56.5569 21.2734 57.1489 22.286 57.2251C23.536 57.3201 24.8277 57.307 26.0776 57.2939L26.5671 57.2889C27.9047 57.2775 28.6692 56.624 28.9058 55.2917C29.1407 53.9644 29.3405 52.7426 29.5173 51.5561C29.6335 50.7749 30.0321 50.1763 30.7034 49.7767C30.9784 49.6129 31.2551 49.4516 31.5326 49.2903C32.0679 48.9791 32.6213 48.6565 33.1468 48.3224C33.7566 47.9351 34.3812 47.8802 35.0565 48.1553C36.2377 48.636 37.4222 49.0962 38.578 49.5228C38.8465 49.6219 39.1371 49.6907 39.4449 49.7636C39.5595 49.7906 39.6774 49.8184 39.796 49.8487C40.5909 49.789 41.1704 49.3894 41.6665 48.5631C42.2706 47.5576 42.968 46.3841 43.5999 45.1886C43.7923 44.8258 43.9192 44.391 43.9495 43.9963C44.0019 43.3085 43.6851 42.7402 42.8902 42.0949C42.6348 41.8877 42.3803 41.6789 42.1265 41.4701C41.479 40.9387 40.8103 40.3892 40.1366 39.8774C39.44 39.3476 39.1134 38.6655 39.1396 37.7934L39.1453 37.6133C39.1682 36.8558 39.1919 36.073 39.1338 35.3254C39.0642 34.4312 39.3671 33.7605 40.0875 33.2143C41.1868 32.3799 42.2534 31.4988 43.0605 30.8241C44.0076 30.0314 44.2302 29.1298 43.7235 28.1431C43.1276 26.9844 42.4384 25.7856 41.488 24.2559C41.0591 23.5656 40.4673 23.2487 39.7265 23.3118C39.3246 23.3462 38.9267 23.4322 38.5756 23.5599C37.3313 24.0127 36.1174 24.4975 35.0942 24.9118C34.4148 25.1862 33.7796 25.1297 33.1501 24.7391C32.3798 24.2608 31.558 23.7867 30.6371 23.2905C30.001 22.9474 29.6417 22.4364 29.5394 21.7273C29.329 20.2705 29.117 18.9284 28.8902 17.6248C28.7044 16.5521 27.9849 15.8888 26.9674 15.8503C25.4482 15.793 23.9223 15.7897 22.4317 15.8421C21.3856 15.8789 20.6743 16.4956 20.4803 17.5355C20.2535 18.7482 20.0775 19.9594 19.8868 21.3023C19.7476 22.2825 19.2696 22.9957 18.4666 23.4207C17.675 23.84 17.0226 24.1994 16.4144 24.5507C15.4927 25.0838 14.5473 25.155 13.6051 24.7636C12.5819 24.3386 11.5276 23.9292 10.5084 23.5337L10.014 23.3413C9.9379 23.3118 9.8454 23.2954 9.76845 23.2954C8.81318 23.3077 8.16733 23.6582 7.73676 24.3976C7.54358 24.7301 7.34876 25.0609 7.15394 25.3917C6.66853 26.2179 6.16593 27.072 5.69934 27.922C5.18282 28.8629 5.23439 29.6473 5.85978 30.3917C6.06934 30.6406 6.34192 30.8732 6.58176 31.0705C7.36841 31.7207 8.20826 32.4036 9.3035 33.2839C9.87978 33.7466 10.1704 34.3345 10.1679 35.0314C10.1663 35.553 10.1663 36.0754 10.1671 36.597C10.1671 37.0835 10.1671 37.5707 10.1671 38.0571C10.1655 38.7433 9.87978 39.3181 9.31906 39.7661C8.16815 40.6856 7.22352 41.4529 6.34847 42.1833C5.24094 43.107 5.0715 44.0348 5.78038 45.2868C6.2617 46.1368 6.75939 46.9991 7.23989 47.8327H7.23825ZM7.40033 42.9858C7.69665 42.7475 7.99297 42.5084 8.2893 42.2693C9.19955 41.5348 10.1409 40.7757 11.0806 40.0428C11.476 39.7349 11.634 39.3967 11.6258 38.8776C11.6029 37.3136 11.602 35.752 11.6258 34.2354C11.634 33.6942 11.4596 33.324 11.0413 32.9981C10.2072 32.3471 9.36899 31.6765 8.55861 31.0279C8.19025 30.7332 7.82189 30.4384 7.45272 30.1444C6.70782 29.5507 6.59158 28.9161 7.07699 28.0874C7.67537 27.0655 8.1616 26.2253 8.6069 25.4425C9.05057 24.6629 9.59819 24.4697 10.4372 24.7964C10.7687 24.9258 11.1011 25.0543 11.4334 25.1829C12.5459 25.6136 13.6951 26.0591 14.819 26.5242C15.2995 26.7232 15.6908 26.688 16.168 26.4014C17.5686 25.5612 18.7392 24.8652 19.9867 24.2052C20.5989 23.8809 20.8838 23.46 20.9698 22.7509C21.1065 21.6274 21.2808 20.4949 21.4494 19.3992C21.5002 19.0668 21.5518 18.7351 21.6017 18.4027C21.7441 17.4577 22.2287 17.0614 23.2118 17.0737C24.1949 17.0868 25.1682 17.0892 26.1046 17.0819C27.1721 17.0761 27.5658 17.4069 27.7271 18.4526C27.8228 19.0766 27.9211 19.6998 28.0185 20.3237C28.1634 21.2474 28.3132 22.2022 28.4539 23.1431C28.5121 23.5321 28.6987 23.8056 29.0425 24.0062C29.9159 24.5147 30.8065 25.0281 31.6677 25.5252C32.2185 25.8429 32.7694 26.1606 33.3195 26.4792C33.6961 26.697 34.0489 26.7191 34.4647 26.5504C35.5108 26.127 36.5782 25.7102 37.6105 25.3074C38.0345 25.1419 38.4585 24.9765 38.8817 24.8103C39.7715 24.4607 40.2553 24.6302 40.7317 25.458C41.2834 26.4177 41.8376 27.3717 42.3066 28.1791C42.7601 28.9603 42.6561 29.5114 41.9472 30.083C41.6395 30.3311 41.3317 30.58 41.0239 30.8281C40.1259 31.5545 39.1977 32.3054 38.2694 33.0293C37.8618 33.3478 37.6997 33.7065 37.7112 34.2682C37.7414 35.7446 37.7414 37.28 37.7112 38.8309C37.7005 39.3836 37.8659 39.7423 38.2817 40.0666C39.2591 40.8289 40.2389 41.6183 41.1868 42.3815C41.4234 42.5723 41.6607 42.7631 41.8973 42.9531C42.6651 43.5705 42.7609 44.1232 42.2509 44.9937C41.7099 45.9166 41.1737 46.8501 40.721 47.6411C40.2823 48.4075 39.7461 48.6008 38.9284 48.2863C38.6402 48.1758 38.3521 48.0653 38.0631 47.9547C36.8942 47.5068 35.6852 47.0433 34.5015 46.5659C34.0415 46.38 33.6551 46.412 33.2082 46.6732C31.7307 47.5371 30.254 48.3822 29.1325 49.0217C28.7282 49.2518 28.5194 49.5408 28.4548 49.9568C28.2624 51.2015 28.0586 52.4658 27.8613 53.6876C27.7925 54.1142 27.7238 54.5408 27.655 54.9675C27.6395 55.0625 27.6223 55.1566 27.6018 55.2606C27.5928 55.3081 27.583 55.3581 27.5732 55.4113L27.4807 55.9141H23.8077C23.694 55.9141 23.581 55.9124 23.4672 55.9116C23.2126 55.9083 22.972 55.9051 22.7362 55.9182C22.7117 55.9198 22.6863 55.9206 22.6593 55.9206C22.3122 55.9206 21.7949 55.7896 21.6827 55.0379C21.5526 54.1699 21.4126 53.2872 21.2767 52.4331C21.1474 51.6191 21.0131 50.7773 20.8887 49.9478C20.8265 49.5359 20.6235 49.2592 20.2085 49.0233L19.6797 48.7228C18.5566 48.0857 17.3942 47.4265 16.2695 46.742C15.7268 46.4111 15.2823 46.3694 14.7364 46.5962C13.7205 47.0196 12.6785 47.4159 11.6716 47.7991C11.2673 47.9531 10.8629 48.107 10.4593 48.2634C9.57281 48.6057 9.04402 48.4165 8.57416 47.5879C8.02654 46.6232 7.46991 45.666 7.04507 44.9396C6.5924 44.165 6.70455 43.5443 7.39951 42.9858H7.40033Z" fill="white"/>
<path d="M22.0618 11.7277H34.4247C40.0049 11.7277 45.5843 11.7277 51.1644 11.7269C51.4092 11.7269 51.6539 11.7269 51.8987 11.7285C52.845 11.731 53.8232 11.7342 54.776 11.6892C55.0772 11.6753 55.3547 11.5885 55.3481 11.0538C55.3432 10.7016 55.2434 10.5002 54.7301 10.4437C54.5525 10.424 54.3438 10.4036 54.1449 10.4036C52.3219 10.4019 50.4998 10.4019 48.6768 10.4019C47.539 10.4019 46.402 10.4019 45.2642 10.4019L40.672 10.4003C32.3807 10.3978 24.0886 10.3946 15.7973 10.3905C13.9236 10.3897 12.0507 10.3864 10.177 10.3831C8.01272 10.3798 5.84842 10.3766 3.68412 10.3757H3.68085C2.78042 10.3757 1.84234 10.4527 1.08352 11.0071C0.443401 11.4746 0.016108 11.9111 0.0136523 12.5179C-0.00353767 16.631 -0.000263391 20.8154 0.00137375 24.8623C0.00137375 26.1078 0.00301089 27.3533 0.00301089 28.5988C0.00301089 28.8993 0.26659 29.2039 0.544904 29.2244C0.920628 29.2522 1.17602 29.0573 1.22759 28.7036C1.27589 28.3785 1.28162 28.0362 1.28244 27.7742C1.28407 25.2586 1.28407 22.7439 1.28407 20.2283C1.28407 18.0919 1.28407 15.9547 1.28489 13.8182C1.28489 13.0845 1.28489 12.5048 1.67207 12.1166C2.05926 11.7285 2.63799 11.7285 3.37061 11.7285C9.60074 11.7269 15.8317 11.7269 22.0626 11.7277H22.0618Z" fill="white"/>
<path d="M0.000186599 34.4968C0.000186599 39.8563 0.000186599 45.2149 0.000186599 50.5744V61.5104C0.000186599 68.1669 0.000186599 75.0503 0.00509802 81.8207C0.00509802 81.9378 0.0247437 82.0532 0.0574865 82.1286C0.340712 82.7812 0.745085 83.2701 1.25751 83.5829C1.49899 83.7303 1.90336 83.9759 2.1653 83.9776C6.85162 84.0038 11.6165 84.0005 16.2251 83.998L19.068 83.9964H19.0925C19.1154 83.9964 19.1457 83.9964 19.1686 83.9964C19.3774 83.8752 19.5738 83.4723 19.5501 83.3233C19.4903 82.9532 19.2955 82.7755 18.9182 82.7452C18.675 82.7263 18.4115 82.7181 18.0668 82.7181C15.4589 82.7206 12.8501 82.7239 10.2421 82.7272C8.00662 82.7296 5.77029 82.7329 3.53477 82.7345C2.77678 82.7345 2.12192 82.7362 1.70199 82.3144C1.28289 81.8944 1.28207 81.236 1.28125 80.4736C1.27879 78.5247 1.27961 76.5758 1.27961 74.6269C1.27961 73.7508 1.27961 72.8746 1.27961 71.9984V66.3638C1.27961 56.3016 1.27961 46.2385 1.27797 36.1763C1.27797 36.0748 1.27797 35.9741 1.27797 35.8725C1.27961 35.3468 1.28207 34.8514 1.22968 34.3633C1.17811 33.8769 0.853136 33.7869 0.619025 33.7869C0.592013 33.7869 0.566637 33.7877 0.54208 33.7901C0.225293 33.8155 -0.00390625 34.1128 -0.00390625 34.4968H0.000186599Z" fill="white"/>
<path d="M64.7262 43.4727C64.6124 42.2231 63.6637 41.3355 62.3663 41.2643C61.8612 41.2364 61.1965 41.2045 60.5228 41.2078L59.4833 41.2118C56.5274 41.2233 53.4709 41.234 50.4667 41.2815C50.1352 41.2864 49.7316 41.4051 49.3592 41.6065C48.5021 42.0692 48.1141 42.8504 48.0994 44.1393C48.0806 45.8442 48.0781 47.5613 48.0912 49.2433C48.0912 49.3407 48.092 49.439 48.0929 49.5364C48.0945 50.1391 48.0961 50.7082 48.2075 51.238C48.4538 52.418 49.4058 53.1599 50.691 53.1746C51.9942 53.1902 53.2924 53.1853 54.7323 53.1787C54.887 53.1787 55.2488 53.1763 55.5173 53.4465C55.6941 53.6242 55.7817 53.8682 55.7792 54.1728C55.7735 54.8296 55.7735 55.4994 55.7735 56.1463C55.7735 56.8538 55.7735 57.5859 55.7653 58.3073C55.7629 58.5579 55.6573 58.7536 55.5729 58.91C55.5418 58.9673 55.5132 59.0213 55.4878 59.0778L55.0728 60.0187L54.4417 59.2072C54.3459 59.0844 54.2632 58.9698 54.1912 58.8682C54.0643 58.6913 53.9636 58.5513 53.8613 58.4621L53.8269 58.4318C53.5691 58.2041 53.3022 57.9683 53.0591 57.8864C53.0337 57.8782 53.0084 57.8741 52.9822 57.8741C52.8152 57.8741 52.6384 58.0371 52.5344 58.2221C52.4493 58.3753 52.4255 58.6324 52.6408 58.8527C54.016 60.2586 55.0834 61.3224 56.1026 62.3017C56.3105 62.5015 56.4783 62.6039 56.8892 62.2157C57.373 61.7596 57.8535 61.2773 58.3184 60.8114L58.6246 60.5051C58.7539 60.3757 58.8849 60.2464 59.015 60.1178C59.4153 59.7215 59.8303 59.312 60.2069 58.8944C60.4909 58.58 60.4786 58.3081 60.1659 58.0133C59.94 57.7996 59.615 57.8397 59.34 58.1149C59.2344 58.2205 59.1321 58.3425 59.0232 58.4711C58.9217 58.5914 58.8178 58.7159 58.7007 58.8379C58.5812 58.9624 58.4519 59.0475 58.3471 59.1163C58.3152 59.1368 58.2832 59.1581 58.2529 59.1802L57.5907 59.6592L57.3149 58.8895C57.3059 58.8641 57.2895 58.8281 57.2715 58.7896C57.2085 58.6504 57.1217 58.4596 57.1192 58.2238C57.1094 57.1879 57.111 56.1365 57.1127 55.1203V54.3702C57.1143 53.5218 57.4319 53.2041 58.2857 53.1984C58.7547 53.1951 59.2238 53.1943 59.692 53.1935C60.5171 53.1918 61.3701 53.191 62.2066 53.1755C63.6375 53.1493 64.6533 52.2018 64.7336 50.818C64.8056 49.5806 64.8048 48.3098 64.804 47.0798C64.804 46.8522 64.804 46.6237 64.804 46.3961V46.2323C64.8056 45.3201 64.8064 44.3776 64.7237 43.4719L64.7262 43.4727ZM63.6228 48.4703L63.6211 50.0949C63.6211 50.1498 63.6211 50.2046 63.6187 50.2595C63.563 51.4821 63.017 52.0045 61.7916 52.0061C60.5163 52.0078 59.2418 52.0078 57.9664 52.0069H55.7367C54.2215 52.0069 52.7063 52.0078 51.1911 52.0094H51.1838C50.7205 52.0094 50.1393 51.957 49.7398 51.5566C49.3412 51.1578 49.2912 50.587 49.2929 50.135C49.297 48.3556 49.3093 46.4747 49.3314 44.0361C49.3412 42.9364 49.8192 42.4647 50.9292 42.459C52.2324 42.4524 53.556 42.4541 54.8371 42.4549C55.1678 42.4549 55.4985 42.4549 55.83 42.4549L56.4169 42.4508H57.9984C59.2721 42.4508 60.5466 42.4508 61.8203 42.4508C63.0187 42.4508 63.6269 43.0576 63.6277 44.2531C63.6277 45.6583 63.6269 47.0635 63.6244 48.4686L63.6228 48.4703Z" fill="white"/>
<path d="M64.7351 25.5413C64.7842 23.1264 64.7834 20.6174 64.7318 18.0822C64.7089 16.9628 63.5907 15.8991 62.4308 15.8942C58.4468 15.8762 54.4006 15.8762 50.4044 15.8934C49.2682 15.8983 48.1803 16.9604 48.164 18.0798C48.1328 20.2997 48.1328 22.699 48.164 25.6297C48.173 26.5223 48.8385 27.3706 49.7119 27.604C50.0884 27.7047 50.5321 27.7604 51.1067 27.7784C52.1332 27.8112 53.1818 27.8185 54.1952 27.8259L54.8107 27.83C55.6817 27.8366 55.7742 28.4482 55.7734 28.7111C55.7726 29.2303 55.7717 29.7486 55.7717 30.2678C55.7717 31.1669 55.7717 32.0963 55.7652 33.0118C55.7652 33.1109 55.7406 33.4212 55.7259 33.5973L55.608 35.036L54.6536 33.9527C54.2909 33.5416 53.6312 32.8226 53.4012 32.6433C53.2947 32.5598 53.1802 32.4918 53.0516 32.4918C52.9231 32.4918 52.7881 32.5549 52.6284 32.7293C52.2977 33.0912 52.549 33.3533 52.6317 33.4392C53.7368 34.5914 54.9073 35.7632 56.109 36.9235C56.3939 37.1986 56.6468 37.0701 56.8081 36.9137C57.995 35.7664 59.1467 34.6135 60.2321 33.4867C60.5137 33.1944 60.4163 32.934 60.2853 32.7678C60.1953 32.6531 60.0471 32.5139 59.858 32.4992C59.687 32.4869 59.4881 32.577 59.2973 32.7547C59.0591 32.9766 58.8389 33.2247 58.6056 33.4867C58.4968 33.6087 58.3879 33.7316 58.2774 33.8511L58.2602 33.8683C58.2397 33.8888 58.2127 33.9174 58.1865 33.9453C58.1521 33.9821 58.1178 34.0182 58.0916 34.0444L57.0463 35.0892L57.0438 33.6104C57.0438 33.1223 57.0438 32.5884 57.0438 32.039C57.0438 30.9188 57.0438 29.7601 57.0373 28.7766C57.0356 28.4884 57.1207 28.255 57.2918 28.0822C57.5521 27.8194 57.8902 27.8177 58.0719 27.8177C58.4255 27.8161 58.7783 27.8161 59.132 27.8161C60.2133 27.8153 61.3315 27.8136 62.4267 27.785C63.6325 27.753 64.7113 26.7032 64.7351 25.5388V25.5413ZM63.5817 24.9877C63.5203 26.1456 63.0349 26.6009 61.848 26.6115C61.3266 26.6164 60.8002 26.6173 60.2796 26.6173C59.989 26.6173 59.6992 26.6173 59.4136 26.6173C59.091 26.6173 58.7685 26.6173 58.446 26.6173H58.2446C55.9649 26.6173 53.686 26.6189 51.4063 26.6173H51.3171C51.1165 26.6173 50.9094 26.6181 50.6917 26.5968C49.8109 26.5092 49.3558 26.0277 49.3378 25.1646C49.3075 23.6931 49.2993 22.2273 49.2952 20.8623C49.2928 20.1204 49.2936 19.3294 49.3345 18.5416C49.4024 17.2224 50.2816 17.0668 50.9373 17.0644C52.1373 17.0603 53.3373 17.0578 54.5373 17.0562L55.9281 17.0537C56.0492 17.0537 56.1712 17.0537 56.2924 17.0537H57.0831V17.0636H58.0122C59.2679 17.0636 60.5235 17.0636 61.7792 17.0636C63.0406 17.0652 63.5858 17.5999 63.6005 18.8528C63.6136 19.9615 63.6194 20.9949 63.6177 22.0112C63.6177 22.2175 63.6177 22.4247 63.6177 22.631C63.6194 23.4016 63.621 24.1983 63.5793 24.9885L63.5817 24.9877Z" fill="white"/>
<path d="M37.2015 72.9296C37.4569 72.67 37.4504 72.6512 37.4283 72.5873C37.2957 72.2008 36.956 71.9502 36.78 71.947C36.1431 71.9363 35.5112 71.9347 35.0315 71.9347C30.0137 71.9339 24.9958 71.933 19.978 71.9347C19.7152 71.9347 19.4549 71.9339 19.193 71.933C18.4088 71.9306 17.5984 71.9273 16.8077 71.9527C16.4041 71.9658 16.1569 72.1885 16.1471 72.548C16.1373 72.9026 16.2412 73.1515 16.7848 73.2187C16.9272 73.2359 17.0901 73.2449 17.2816 73.2449C19.8773 73.2465 22.473 73.2465 25.0687 73.2465H26.8139C27.6005 73.2465 28.3864 73.2465 29.173 73.2449C29.9465 73.2449 30.7291 73.2432 31.5157 73.2432C33.0538 73.2432 34.6075 73.2457 36.1456 73.2555C36.6465 73.2596 36.906 73.2359 37.1221 73.0115C37.1483 72.9845 37.1745 72.9574 37.2007 72.9312L37.2015 72.9296Z" fill="white"/>
<path d="M62.0933 66.5837C60.3022 66.5682 58.4629 66.5608 56.5483 66.5608C54.6336 66.5608 52.8058 66.5673 50.8052 66.5821C49.1116 66.5935 48.0875 67.6188 48.0671 69.3236C48.0392 71.6566 48.04 73.8069 48.0703 75.8983C48.0949 77.577 49.1656 78.6251 50.8649 78.6325C52.1615 78.6382 53.4811 78.6366 54.7572 78.6358C55.3278 78.6358 55.8991 78.635 56.4697 78.635H58.1445C59.401 78.635 60.6575 78.635 61.914 78.635H61.9173C63.7402 78.635 64.8289 77.5475 64.8306 75.7263C64.8322 74.0354 64.8322 72.3444 64.8314 70.6543V69.4219C64.8314 67.6859 63.782 66.5993 62.0924 66.5845L62.0933 66.5837ZM63.5405 75.692C63.5323 76.8408 63.0543 77.3117 61.8902 77.3182C59.1808 77.3321 56.4263 77.3346 53.7627 77.3371L52.2197 77.3387C52.1484 77.3387 52.0772 77.3387 52.006 77.3387C51.5967 77.3387 51.1784 77.3354 50.7593 77.3076C49.8122 77.2462 49.3817 76.7884 49.3637 75.8254C49.353 75.2711 49.3547 74.711 49.3563 74.1697C49.3563 73.9543 49.3579 73.7381 49.3571 73.5228V72.6179C49.3555 71.623 49.3547 70.6273 49.3571 69.6323C49.3596 68.3385 49.8368 67.8571 51.1162 67.8571H54.8718H56.4361C58.2231 67.8571 60.01 67.8571 61.7969 67.8571C62.9953 67.8571 63.5339 68.377 63.5421 69.5439C63.556 71.5149 63.5552 73.5834 63.5397 75.6928L63.5405 75.692Z" fill="white"/>
<path d="M9.72842 78.6669C11.0791 78.6055 11.7577 78.0241 11.9975 76.7221C12.1719 75.7763 12.1678 74.7977 11.986 73.8151C11.792 72.7637 11.2141 72.1888 10.1696 72.0046C9.07684 71.8122 8.02416 71.8253 7.0386 72.0431C6.05222 72.2609 5.50869 72.8063 5.42438 73.6636C5.31715 74.7421 5.31715 75.8385 5.42274 76.9211C5.54635 78.1878 6.55728 78.5138 7.14911 78.5956C7.46671 78.6399 7.7925 78.6554 8.1363 78.6693V78.6677H8.69457C8.80835 78.6677 8.92295 78.6693 9.03755 78.6702C9.27821 78.6734 9.50495 78.6759 9.72924 78.6661L9.72842 78.6669ZM8.86155 77.2846C8.46373 77.2846 8.06099 77.2797 7.65989 77.2617C7.21459 77.2412 6.739 76.7532 6.71854 76.2946C6.69153 75.705 6.69562 75.1089 6.69889 74.5324C6.69971 74.3334 6.70135 74.1336 6.70135 73.933V73.3189H10.655V77.2805H10.0411C9.84466 77.2805 9.6482 77.2814 9.45174 77.283C9.25692 77.2838 9.06047 77.2855 8.86237 77.2855L8.86155 77.2846Z" fill="white"/>
<path d="M5.41779 65.1548C5.41533 65.4553 5.41369 65.7427 5.42515 66.0318C5.46199 66.9669 6.34605 67.8202 7.28085 67.821C7.71469 67.821 8.15836 67.8169 8.58729 67.8128C9.0416 67.8079 9.51146 67.803 9.9764 67.8046H9.98213C11.0299 67.8046 11.7928 67.2077 11.9262 66.2815C12.0638 65.3259 12.0343 64.3023 12.0065 63.3132L12.0032 63.2092C11.9819 62.4452 11.6839 61.5018 10.389 61.3471C9.33546 61.221 8.26805 61.2046 7.21782 61.2988C6.18315 61.3913 5.60606 61.9235 5.45217 62.9258C5.40223 63.2517 5.41615 63.608 5.43007 63.9846C5.43743 64.1672 5.4448 64.3556 5.4448 64.5464V65.1572H5.41861L5.41779 65.1548ZM6.68248 64.8657C6.68248 64.7552 6.68084 64.6455 6.68084 64.5357C6.68084 64.426 6.68166 64.3163 6.68248 64.2057C6.68493 63.9601 6.68657 63.7275 6.67757 63.4958C6.66529 63.1944 6.74633 62.952 6.91823 62.776C7.09013 62.5999 7.32751 62.5131 7.62383 62.5172C8.25086 62.5262 8.93518 62.5271 9.77667 62.5172C9.88882 62.5164 10.231 62.5123 10.4921 62.7743C10.664 62.9463 10.7491 63.1789 10.745 63.4655C10.736 64.1861 10.736 64.9108 10.745 65.6191C10.7491 65.9131 10.6632 66.1505 10.4905 66.3233C10.321 66.4928 10.0902 66.5788 9.8045 66.5788C9.79877 66.5788 9.79304 66.5788 9.78731 66.5788C8.99739 66.5698 8.27951 66.569 7.59355 66.5788C7.31441 66.5829 7.08603 66.4977 6.91904 66.3282C6.66529 66.0703 6.67511 65.7329 6.67838 65.6224C6.68575 65.3742 6.68412 65.1278 6.68248 64.8665V64.8657Z" fill="white"/>
<path d="M29.588 77.5305C29.4489 77.3839 29.1894 77.3528 28.9962 77.352C27.5743 77.3471 26.1279 77.3479 24.729 77.3487C24.1478 77.3487 23.5674 77.3487 22.9863 77.3487H22.3723V77.3364H22.3101C22.085 77.3364 21.8599 77.3364 21.6356 77.3364C21.3638 77.3364 21.0929 77.3364 20.8211 77.3381L19.9592 77.3405C18.9564 77.3438 17.9193 77.3463 16.901 77.361C16.4385 77.3675 16.3256 77.5158 16.2478 77.8449C16.1741 78.1561 16.1569 78.2298 16.6145 78.4591C16.7839 78.5443 16.9886 78.595 17.1621 78.5967C20.8244 78.6237 24.4932 78.6351 28.2423 78.6458C28.5763 78.6466 28.9012 78.6442 29.2082 78.5975C29.5364 78.5475 29.7043 78.3649 29.7198 78.0398C29.7272 77.8793 29.7108 77.6599 29.588 77.5305Z" fill="white"/>
<path d="M28.5413 66.6451H28.5233C27.0736 66.6443 25.6231 66.6443 24.1734 66.6451H23.5308V66.6566H22.9169C22.339 66.6566 21.7611 66.6566 21.1832 66.655C20.6151 66.655 20.0388 66.6533 19.4601 66.6533C18.5695 66.6533 17.6715 66.655 16.7825 66.6615C16.3094 66.6648 16.2374 66.9129 16.2276 67.1291C16.2038 67.6483 16.3954 67.7694 16.7572 67.8104C16.9487 67.8317 17.155 67.8309 17.3744 67.8284C17.43 67.8284 17.4857 67.8276 17.5414 67.8276L19.5984 67.8251C22.7196 67.8219 25.9473 67.8178 29.1209 67.8063C29.4589 67.8047 29.6808 67.5868 29.6857 67.2495C29.6914 66.89 29.5039 66.6918 29.1282 66.6607C28.9424 66.6451 28.7476 66.6451 28.5421 66.6451H28.5413Z" fill="white"/>
<path d="M24.7165 29.771C24.705 29.771 24.6936 29.771 24.6821 29.771C20.8348 29.7898 17.8331 32.8155 17.8487 36.6601C17.8634 40.2377 21.0329 43.365 24.6363 43.3658C24.6445 43.3658 24.6518 43.3658 24.6592 43.3658C28.3452 43.3519 31.4541 40.2443 31.4476 36.5799C31.4443 34.7243 30.7313 32.9957 29.4405 31.7125C28.1799 30.4597 26.5034 29.7718 24.7165 29.7718V29.771ZM28.5466 40.4261C27.5144 41.4587 26.1351 42.0278 24.6625 42.0278H24.6535C23.1784 42.0253 21.7999 41.4562 20.7726 40.4236C19.7404 39.3869 19.174 37.9965 19.1772 36.5086C19.1854 33.46 21.6133 31.064 24.7059 31.055C24.7116 31.055 24.7173 31.055 24.7222 31.055C26.1539 31.055 27.4988 31.6102 28.5122 32.619C29.5567 33.659 30.1338 35.0617 30.1362 36.5668C30.1387 38.0276 29.5739 39.3984 28.5458 40.4269L28.5466 40.4261Z" fill="white"/>
</g>
<defs>
<clipPath id="clip0_1_360">
<rect width="84" height="84" fill="white"/>
</clipPath>
</defs>
</svg>
