<svg width="52" height="52" viewBox="0 0 52 52" fill="none" xmlns="http://www.w3.org/2000/svg">
<g clip-path="url(#clip0_1_12698)">
<path d="M50.055 41.0762C47.2774 38.293 44.5012 35.5069 41.7193 32.728C41.5813 32.5897 41.3857 32.5104 41.2477 32.4225C42.418 30.1336 43.2619 27.8996 43.5653 25.5157C43.7694 23.9201 43.814 22.2972 43.8226 20.6858C43.8255 20.2246 43.8974 19.9363 44.2137 19.6293C45.3308 18.5382 46.4263 17.4226 47.529 16.3171C48.2637 15.5792 49.0127 14.8556 49.7301 14.1004C50.39 13.4057 50.3699 12.4703 49.7244 11.8332C49.0673 11.186 48.1587 11.1803 47.46 11.8231C47.3018 11.9687 47.1523 12.1258 47.0014 12.2786C45.7261 13.5642 44.4509 14.8513 43.1225 16.1903C43.0535 16.0462 43.0233 16.0015 43.0103 15.9539C41.7092 11.2884 39.0739 7.51211 35.2611 4.59631C29.9359 0.523138 23.9379 -0.853324 17.3705 0.508725C12.4234 1.53495 8.32305 4.06158 5.10836 7.95171C0.99368 12.9315 -0.642417 18.6824 0.225951 25.0833C0.871476 29.8353 2.96476 33.9171 6.30309 37.3619C12.9366 44.2082 23.334 45.9579 31.7862 41.6239C32.1097 41.4581 32.2937 41.4754 32.5597 41.7435C35.3 44.5137 38.0603 47.2623 40.8049 50.0297C42.0241 51.2591 43.4833 51.9063 45.2086 51.9927C47.8798 52.1253 50.3771 50.622 51.4424 48.2179C52.5307 45.7619 51.9988 43.0248 50.0536 41.0762H50.055ZM25.3123 40.3555C15.1694 42.3301 5.78839 35.6597 3.7253 26.0634C1.92962 17.7095 5.5828 9.63517 13.0142 5.55912C23.3829 -0.128339 36.6385 5.1469 39.8862 17.058C40.0515 17.6619 40.375 18.3393 40.2313 18.8784C40.0889 19.4102 39.4563 19.8181 39.025 20.2649C38.4025 20.9092 37.767 21.5419 37.0813 22.2352C35.461 20.6065 33.8925 19.0283 32.3225 17.45C32.1327 17.2598 31.9473 17.0637 31.7489 16.8807C30.9969 16.186 30.1444 16.1874 29.4083 16.911C28.3458 17.9559 27.3006 19.0182 26.2468 20.0732C24.661 21.663 23.0738 23.2499 21.4952 24.844C21.3586 24.9824 21.2695 25.1683 21.1387 25.36C20.8957 25.138 20.762 25.0256 20.6398 24.9045C19.573 23.838 18.5149 22.7627 17.4409 21.7034C16.5869 20.8602 15.7459 20.8631 14.9048 21.7048C12.8216 23.7875 10.7427 25.8731 8.66522 27.9601C7.89605 28.7341 7.8558 29.6292 8.54302 30.3426C9.20292 31.0273 10.1719 31.0042 10.9224 30.2562C12.6649 28.5194 14.3944 26.7725 16.1786 24.9795C16.6602 25.4465 17.1318 25.8818 17.5804 26.3401C18.1569 26.931 18.7018 27.5537 19.2869 28.136C19.5903 28.4372 19.9296 28.7139 20.2904 28.9402C20.9848 29.3755 21.5527 29.3164 22.1451 28.7514C22.7949 28.1331 23.4203 27.4859 24.0543 26.8503C26.0958 24.8036 28.1388 22.757 30.1775 20.7074C30.304 20.5806 30.4003 20.4249 30.731 20.2001C30.8302 20.3745 30.8977 20.5806 31.0343 20.7189C32.5985 22.3029 34.1728 23.8783 35.7471 25.4537C36.66 26.3675 37.4881 26.3689 38.3968 25.4623C39.0408 24.8181 39.6792 24.168 40.319 23.5209C40.3722 23.5396 40.4253 23.5583 40.4785 23.5771C40.3448 24.4102 40.2816 25.262 40.0674 26.0734C38.0287 33.8177 33.2052 38.8162 25.3094 40.3526L25.3123 40.3555ZM46.8332 48.4759C45.6816 49.1187 44.2223 48.9948 43.2461 48.0305C40.4368 45.256 37.6693 42.4382 34.9434 39.6968C36.4401 38.1978 37.918 36.7176 39.4348 35.1985C39.4046 35.1768 39.4822 35.2172 39.5397 35.2763C42.2282 37.9701 44.9282 40.6524 47.5994 43.3635C49.168 44.9548 48.7827 47.3892 46.8317 48.4759H46.8332Z" fill="#231F20"/>
<path d="M9.13092 22.7906C9.13092 15.3001 15.2095 9.20762 22.6798 9.20762C23.5927 9.20762 24.3331 8.46534 24.3331 7.5501C24.3331 6.63486 23.5927 5.89258 22.6798 5.89258C13.3851 5.89258 5.82422 13.4739 5.82422 22.7906C5.82422 23.7059 6.56463 24.4482 7.47757 24.4482C8.3905 24.4482 9.13092 23.7059 9.13092 22.7906Z" fill="#0AB8B6"/>
</g>
<defs>
<clipPath id="clip0_1_12698">
<rect width="52" height="52" fill="white"/>
</clipPath>
</defs>
</svg>
