<svg width="52" height="52" viewBox="0 0 52 52" fill="none" xmlns="http://www.w3.org/2000/svg">
<g clip-path="url(#clip0_1_12707)">
<path d="M42.4499 52H10.1551C10.1105 51.9769 10.0687 51.9409 10.0212 51.9323C7.70781 51.5303 6.0974 49.395 6.19391 47.091C6.21119 46.6746 6.19679 46.2568 6.19679 45.8015C5.599 45.8015 5.06172 45.8116 4.52443 45.8001C3.44122 45.777 2.48332 45.4226 1.64066 44.7324C0.718781 43.9759 0.266482 42.9659 0 41.8435C0 41.4372 0 41.0323 0 40.626C0.0201662 40.5799 0.051856 40.5367 0.0604986 40.4891C0.452299 38.1665 2.51934 36.5037 5.03867 36.6637C5.41751 36.6882 5.79922 36.6666 6.16942 36.6666V30.5689C5.62205 30.5689 5.10205 30.5747 4.58205 30.5689C3.44122 30.5545 2.43723 30.1813 1.56576 29.4364C0.688532 28.6843 0.25928 27.6973 0 26.6095C0 26.2032 0 25.7968 0 25.392C0.0201662 25.3459 0.051856 25.3026 0.0604986 25.2551C0.452299 22.9324 2.51934 21.2697 5.03867 21.4296C5.41751 21.4541 5.79922 21.4325 6.16942 21.4325V15.3349C5.62205 15.3349 5.10205 15.3406 4.58205 15.3349C3.44122 15.3205 2.43723 14.9473 1.56576 14.2024C0.688532 13.4503 0.25928 12.4618 0 11.3754V10.1565C0.0201662 10.1104 0.051856 10.0672 0.0604986 10.0196C0.452299 7.69698 2.51934 6.03281 5.04011 6.19418C5.41895 6.21868 5.80066 6.19706 6.19679 6.19706C6.19679 5.70862 6.19679 5.30374 6.19679 4.89742C6.19823 1.92785 8.11258 0.00432253 11.0727 0.00288168C15.0829 0.00288168 19.0945 0.00288168 23.1047 0.00288168C30.1283 0.00288168 37.1505 0.00576337 44.1741 0C45.2573 0 46.2497 0.259352 47.114 0.92358C48.3845 1.89903 48.952 3.20732 48.9506 4.79945C48.9434 14.2932 48.9448 23.7883 48.9578 33.282C48.9578 33.5399 49.0529 33.8555 49.2185 34.0442C51.3979 36.5441 52.3644 39.4344 51.8747 42.7195C51.2654 46.8115 48.9837 49.673 45.1665 51.2594C44.3066 51.6167 43.3573 51.7594 42.4484 52H42.4499ZM33.8317 48.9555C29.4009 44.2641 30.3069 38.3754 32.4863 35.2747C33.7251 33.5111 35.3024 32.1769 37.3003 31.3671C40.1725 30.2044 43.0347 30.3211 45.904 31.5876C45.904 31.3369 45.904 31.1539 45.904 30.9709C45.904 22.3215 45.904 13.6722 45.904 5.02278C45.904 3.57761 45.3653 3.04594 43.9047 3.04594C33.0222 3.04594 22.1396 3.04594 11.2571 3.04594C11.1217 3.04594 10.9863 3.04162 10.8509 3.04594C9.89585 3.08196 9.27357 3.69576 9.24332 4.64816C9.22892 5.1049 9.26061 5.56309 9.23324 6.0184C9.21452 6.33394 9.32255 6.48091 9.61352 6.62211C11.3363 7.45924 12.274 8.84965 12.2726 10.7689C12.2711 12.6881 11.3291 14.077 9.60343 14.9084C9.30526 15.0525 9.2318 15.2139 9.23324 15.5193C9.24621 17.4313 9.24765 19.3447 9.23324 21.2567C9.23036 21.5723 9.32975 21.7164 9.61784 21.8576C11.3377 22.6976 12.2769 24.088 12.274 26.0072C12.2697 27.9264 11.3262 29.3111 9.602 30.1467C9.33839 30.275 9.2318 30.4061 9.23324 30.7072C9.24765 32.6365 9.24765 34.5658 9.23324 36.4965C9.23036 36.815 9.33407 36.9576 9.62216 37.0945C11.1807 37.8336 12.0983 39.0814 12.2596 40.7917C12.4325 42.6115 11.7468 44.146 10.158 45.0393C9.33839 45.5004 9.12377 45.9989 9.24044 46.8086C9.24477 46.8418 9.24044 46.8764 9.24044 46.9095C9.24044 48.3576 9.82959 48.9526 11.2585 48.9526C18.5702 48.9526 25.8819 48.9526 33.1936 48.9526C33.378 48.9526 33.5638 48.9526 33.8331 48.9526L33.8317 48.9555ZM33.7165 41.2398C33.7193 45.4557 37.1562 48.9425 41.322 48.9526C45.4777 48.9641 48.9261 45.4845 48.9477 41.2585C48.9693 37.0974 45.5166 33.6278 41.3422 33.6192C37.1764 33.6091 33.715 37.07 33.7165 41.2398ZM6.17662 9.24156C5.67103 9.24156 5.16399 9.23004 4.65839 9.24444C3.72787 9.27038 3.03789 9.94037 3.05086 10.7847C3.06382 11.6161 3.73651 12.2688 4.64255 12.2861C5.63789 12.3048 6.63324 12.3048 7.62859 12.2861C8.55911 12.2702 9.24909 11.5916 9.23612 10.7472C9.22316 9.91588 8.55047 9.27182 7.64443 9.24444C7.15612 9.2286 6.66637 9.24156 6.17662 9.24156ZM6.12188 27.5244C6.62748 27.5244 7.13452 27.5374 7.64011 27.5215C8.54759 27.4942 9.22028 26.8544 9.23612 26.0216C9.25197 25.1787 8.56055 24.4958 7.63291 24.4799C6.63756 24.4612 5.64222 24.4612 4.64687 24.4799C3.73939 24.4972 3.0667 25.1456 3.05086 25.9784C3.03501 26.8213 3.72643 27.4956 4.65407 27.523C5.14238 27.5374 5.63213 27.5259 6.12188 27.5259V27.5244ZM6.14493 39.7111C5.63934 39.7111 5.1323 39.6966 4.6267 39.7139C3.72499 39.7456 3.0523 40.4041 3.05086 41.234C3.05086 42.0625 3.72355 42.7339 4.62382 42.7541C5.63501 42.7757 6.64909 42.7757 7.66028 42.7541C8.56199 42.7354 9.23468 42.0654 9.23612 41.2369C9.23612 40.4084 8.56344 39.7471 7.66316 39.7154C7.15756 39.6966 6.65053 39.7125 6.14493 39.7125V39.7111Z" fill="black"/>
<path d="M19.8838 14.6901C20.0653 14.5172 20.1992 14.3947 20.3289 14.2651C21.8125 12.7824 23.2933 11.2969 24.7799 9.81862C25.5073 9.09532 26.4335 9.04633 27.073 9.68174C27.714 10.3172 27.6723 11.2523 26.952 11.9756C25.006 13.9293 23.0585 15.8788 21.1038 17.8225C20.3274 18.5948 19.4819 18.5905 18.6997 17.8167C17.618 16.7462 16.542 15.6699 15.4717 14.5878C14.7544 13.8631 14.7198 12.9323 15.3666 12.2954C15.996 11.6773 16.9179 11.7162 17.6223 12.4121C18.3684 13.1484 19.1002 13.8991 19.8823 14.6887L19.8838 14.6901Z" fill="#0AB8B6"/>
<path d="M19.9243 26.8755C21.5664 25.2286 23.1508 23.6091 24.7785 22.0342C25.081 21.7417 25.542 21.5299 25.9612 21.4593C26.5589 21.3585 27.0357 21.6927 27.3296 22.2259C27.6349 22.7806 27.5889 23.3324 27.2273 23.8482C27.1121 24.0125 26.9623 24.1551 26.8197 24.2978C24.9672 26.1522 23.1134 28.0065 21.2595 29.8594C20.2872 30.8306 19.5253 30.8363 18.5659 29.8782C17.513 28.8264 16.4542 27.7803 15.4113 26.7184C14.8049 26.1017 14.7401 25.2632 15.2183 24.6508C15.7988 23.9073 16.8172 23.8396 17.5346 24.5226C18.2072 25.1637 18.854 25.8337 19.5137 26.4893C19.6318 26.606 19.7557 26.717 19.9228 26.8755H19.9243Z" fill="#0AB8B6"/>
<path d="M19.9238 39.1106C20.3833 38.6279 20.7823 38.1928 21.1972 37.7749C22.4129 36.5516 23.6287 35.3269 24.8588 34.1181C25.5329 33.4553 26.4663 33.4481 27.0785 34.0647C27.6921 34.6829 27.6806 35.6108 27.0123 36.2851C25.0345 38.2778 23.0496 40.2632 21.0575 42.2415C20.343 42.9504 19.4773 42.9562 18.7643 42.2574C17.6407 41.1566 16.5316 40.0414 15.4268 38.9218C14.757 38.2417 14.731 37.3239 15.336 36.7029C15.9568 36.0646 16.8946 36.079 17.5918 36.7634C18.3509 37.5084 19.0927 38.2734 19.9238 39.112V39.1106Z" fill="#0AB8B6"/>
<path d="M36.7448 15.3348C35.2756 15.3348 33.8049 15.3377 32.3356 15.3348C31.3446 15.3334 30.6762 14.721 30.6719 13.8234C30.6676 12.9214 31.3345 12.2946 32.3183 12.2932C35.2756 12.2903 38.2313 12.2903 41.1886 12.2932C42.1796 12.2932 42.848 12.9055 42.8523 13.8046C42.8566 14.7066 42.1897 15.3319 41.2059 15.3348C39.7193 15.3391 38.2328 15.3348 36.7448 15.3348Z" fill="black"/>
<path d="M36.8169 24.4785C38.2862 24.4785 39.7569 24.4756 41.2261 24.4785C42.1797 24.4814 42.8423 25.098 42.8524 25.977C42.8625 26.8818 42.1955 27.5187 41.2189 27.5187C38.2458 27.5215 35.2713 27.5215 32.2982 27.5187C31.3447 27.5187 30.6821 26.8991 30.672 26.0202C30.6619 25.1153 31.3288 24.4814 32.3055 24.4785C33.8093 24.4742 35.3131 24.4785 36.8169 24.4785Z" fill="black"/>
<path d="M42.8518 39.7145C43.3905 39.7145 43.8774 39.7073 44.3642 39.7159C45.2588 39.7318 45.9084 40.3917 45.8983 41.2605C45.8882 42.102 45.24 42.746 44.3671 42.7547C43.3516 42.7662 42.3361 42.7676 41.3206 42.7547C40.4563 42.7431 39.824 42.1077 39.8139 41.2389C39.8009 40.2231 39.8024 39.2073 39.8139 38.193C39.824 37.3227 40.4736 36.6772 41.3163 36.67C42.1834 36.6628 42.8359 37.3155 42.8518 38.2117C42.8604 38.6857 42.8518 39.1583 42.8518 39.7159V39.7145Z" fill="#0AB8B6"/>
</g>
<defs>
<clipPath id="clip0_1_12707">
<rect width="52" height="52" fill="white"/>
</clipPath>
</defs>
</svg>
