<svg width="52" height="52" viewBox="0 0 52 52" fill="none" xmlns="http://www.w3.org/2000/svg">
<g clip-path="url(#clip0_1_12722)">
<path d="M0 0.917914C0.378761 0.0847401 1.01819 -0.228774 1.94133 -0.205869C3.78472 -0.158627 5.631 -0.194416 7.47584 -0.191553C8.53291 -0.190121 9.13202 0.414001 9.13778 1.4705C9.14066 1.9057 9.13778 2.33946 9.13778 2.81188C9.33508 2.8219 9.49782 2.83622 9.66199 2.83622C13.5043 2.83622 17.3467 2.83049 21.189 2.84767C21.5706 2.8491 21.7262 2.72026 21.8947 2.38957C22.7516 0.713199 24.1442 -0.194416 26.0423 -0.177237C27.9188 -0.16149 29.2755 0.761873 30.1295 2.41534C30.2447 2.63723 30.2922 2.8491 30.6422 2.84767C34.6875 2.83336 38.7329 2.83908 42.8619 2.83908C42.8619 2.3638 42.859 1.9014 42.8619 1.43901C42.8691 0.421159 43.4783 -0.185827 44.5065 -0.18869C46.4536 -0.192985 48.3993 -0.192985 50.3463 -0.18869C51.3775 -0.187258 51.9939 0.418296 51.9968 1.43328C52.0011 3.38451 52.0011 5.33717 51.9968 7.2884C51.9939 8.27332 51.3732 8.8889 50.3795 8.89176C48.4165 8.89606 46.4522 8.89606 44.4892 8.89176C43.4912 8.8889 42.8734 8.27762 42.8633 7.29699C42.859 6.84462 42.8633 6.39081 42.8633 5.90264H36.6375C37.0854 6.22618 37.4786 6.49675 37.8559 6.78592C42.2109 10.1258 44.8046 14.4949 45.6097 19.9077C45.6126 19.9249 45.6169 19.9406 45.6169 19.9578C45.5679 20.917 46.0028 21.461 46.8684 21.962C48.7146 23.03 49.3685 25.6168 48.4482 27.5222C47.4401 29.6066 45.1733 30.6545 43.0505 30.0146C41.1452 29.4405 39.8793 27.9087 39.7295 25.9962C39.5826 24.1137 40.5835 22.39 42.3592 21.5511C42.6991 21.3908 42.6862 21.1789 42.6559 20.9098C42.3247 17.9422 41.2907 15.2351 39.525 12.8243C37.1632 9.59896 34.0409 7.44301 30.1237 6.38938C29.2049 7.93977 27.8828 8.88317 26.0207 8.88747C24.1571 8.89176 22.8207 7.97413 21.8961 6.39367C19.2102 7.08226 16.8599 8.35492 14.8336 10.2045C11.9317 12.8529 10.1617 16.1226 9.46901 19.9736C9.45749 20.0394 9.46181 20.1096 9.44165 20.1725C9.20258 20.9728 9.42149 21.4366 10.2179 21.9004C12.1333 23.0171 12.8131 25.4966 11.9115 27.4707C10.9754 29.5207 8.66829 30.6402 6.58726 30.0518C4.32046 29.4119 2.87023 27.3347 3.18562 25.0943C3.41317 23.468 4.28878 22.2569 5.79374 21.5526C6.14082 21.3894 6.26179 21.189 6.29491 20.8425C6.75576 15.9251 8.78206 11.742 12.3421 8.31055C13.2451 7.44015 14.269 6.6943 15.2368 5.89262H9.14354C9.14354 6.35216 9.14642 6.81742 9.14354 7.28125C9.1349 8.27046 8.52283 8.8889 7.53201 8.89176C5.66989 8.89749 3.80777 8.86027 1.94709 8.90751C1.02395 8.93042 0.384521 8.61833 0.00576062 7.78516V0.917914H0ZM3.07329 2.85769V5.83393H6.05873V2.85769H3.07329ZM45.9308 5.83393H48.9177V2.85912H45.9308V5.83393ZM26.0164 5.86113C26.8272 5.84968 27.5314 5.13532 27.5199 4.33507C27.5084 3.5291 26.7897 2.82906 25.9847 2.84051C25.1739 2.85197 24.4697 3.56632 24.4812 4.36657C24.4927 5.17254 25.2113 5.87258 26.0164 5.86113ZM9.23715 25.6354C9.22419 24.8294 8.50411 24.1308 7.7005 24.1437C6.8897 24.1566 6.1869 24.8724 6.19986 25.6712C6.21282 26.4772 6.9329 27.1758 7.73651 27.1629C8.54731 27.15 9.25011 26.4342 9.23715 25.6354ZM45.8012 25.6941C45.83 24.8996 45.1373 24.1738 44.3236 24.1437C43.5243 24.1151 42.7942 24.8037 42.7639 25.6125C42.7351 26.407 43.4278 27.1328 44.2415 27.1629C45.0408 27.1915 45.771 26.5029 45.8012 25.6941Z" fill="black"/>
<path d="M16.8353 51.9986C15.8457 51.4189 15.6287 50.9269 15.7891 49.6955C16.0378 47.7813 16.8146 46.1456 18.2354 44.8576C18.4773 44.6385 18.5229 44.4208 18.4759 44.1168C17.9479 40.7011 16.6418 37.6389 14.5065 34.9527C14.1582 34.5145 13.7795 34.103 13.4104 33.6846C12.7125 32.8943 12.6544 32.2835 13.2266 31.4056C17.0385 25.5497 20.8532 19.6924 24.6706 13.8408C25.4031 12.7183 26.5959 12.7211 27.327 13.8408C31.1361 19.6797 34.9411 25.5214 38.7461 31.3631C39.3501 32.2892 39.3086 32.9042 38.5498 33.7185C36.1339 36.3142 34.5182 39.3467 33.7608 42.8501C33.6626 43.3025 33.6074 43.7648 33.5037 44.2158C33.4249 44.5607 33.6322 44.729 33.8368 44.9226C35.2825 46.2926 36.0482 47.9934 36.2306 49.9953C36.3163 50.9312 36.0192 51.6112 35.1623 52H16.8353V51.9986ZM24.5102 19.503C21.6907 23.8292 18.9348 28.0577 16.1691 32.3005C17.5112 33.857 18.61 35.5338 19.4779 37.3646C20.3487 39.2011 20.9264 41.138 21.2913 43.0437C24.4702 42.8684 27.5578 42.8557 30.68 43.0508C30.6648 43.0706 30.6911 43.048 30.7008 43.0197C30.727 42.942 30.7547 42.8628 30.7699 42.7822C31.4872 38.9707 33.0822 35.5903 35.5479 32.6426C35.769 32.3782 35.7773 32.2128 35.5879 31.9244C32.9674 27.9277 30.3621 23.9225 27.7513 19.9187C27.6808 19.8098 27.5965 19.7108 27.4569 19.527C27.4569 22.4055 27.4528 25.1609 27.4694 27.9178C27.4694 28.0634 27.6214 28.2472 27.7527 28.3447C28.1673 28.6572 28.6538 28.8834 29.027 29.2368C30.5902 30.7142 30.8279 33.2477 29.6061 35.005C28.2986 36.8825 25.8785 37.4975 23.9491 36.4089C22.3541 35.5097 21.5525 34.0917 21.6299 32.2383C21.7059 30.4442 22.6154 29.1548 24.1979 28.3801C24.4259 28.2684 24.5448 28.1652 24.5434 27.8754C24.531 25.185 24.5351 22.4945 24.5351 19.8027C24.5351 19.7433 24.5254 19.6854 24.5089 19.503H24.5102ZM33.0006 48.9986C32.427 47.1635 30.7491 45.9377 28.7907 45.9194C26.9248 45.901 25.0576 45.9066 23.1917 45.9194C22.2629 45.9264 21.3949 46.1753 20.6348 46.7393C19.8663 47.3091 19.2858 48.0287 18.9818 49H33.0006V48.9986ZM26.0126 30.9659C25.24 30.9546 24.5503 31.6459 24.5407 32.4419C24.5296 33.2322 25.2055 33.9376 25.9836 33.9475C26.7562 33.9588 27.4459 33.2675 27.4555 32.4715C27.4666 31.6812 26.7907 30.9758 26.0126 30.9659Z" fill="#0AB8B6"/>
</g>
<defs>
<clipPath id="clip0_1_12722">
<rect width="52" height="52" fill="white"/>
</clipPath>
</defs>
</svg>
