<svg width="52" height="52" viewBox="0 0 52 52" fill="none" xmlns="http://www.w3.org/2000/svg">
<g clip-path="url(#clip0_1_12731)">
<path d="M-0.15676 25.2856C0.253138 24.7484 0.624067 24.1745 1.08015 23.6813C4.78655 19.6657 8.51028 15.6661 12.221 11.6563C12.7363 11.1 13.3165 10.7155 14.0959 10.8226C14.8839 10.9312 15.4439 11.3789 15.7167 12.1421C15.9996 12.9347 15.7874 13.6377 15.2346 14.2395C14.2272 15.3373 13.2111 16.4279 12.1965 17.5199C9.72554 20.1808 7.25316 22.8403 4.78222 25.5013C4.7014 25.5879 4.6249 25.6789 4.51521 25.8051C4.65521 25.9593 4.788 26.109 4.92367 26.2557C8.33852 29.9338 11.7519 33.6134 15.1682 37.2901C15.7499 37.9153 16.014 38.6272 15.7167 39.4652C15.4468 40.2284 14.8839 40.6761 14.0959 40.7862C13.3612 40.8889 12.7853 40.5543 12.2932 40.023C10.606 38.2 8.9144 36.3815 7.22429 34.5616C5.17336 32.3512 3.11521 30.1496 1.07871 27.926C0.625511 27.4299 0.251695 26.859 -0.158203 26.3218C-0.158203 25.9769 -0.158203 25.6305 -0.158203 25.2856H-0.15676Z" fill="#0AB8B6"/>
<path d="M20.8491 44.4188C21.0936 42.8504 21.3726 41.0527 21.6547 39.2551C22.1677 35.984 22.6823 32.7114 23.1968 29.4403C23.7084 26.1852 24.2184 22.9302 24.73 19.6752C25.2415 16.4201 25.7546 13.1665 26.2661 9.91148C26.4447 8.77535 26.6097 7.63776 26.8047 6.50456C26.9907 5.421 27.9868 4.685 29.0369 4.82081C30.1816 4.96976 30.9676 5.8518 30.8251 6.97624C30.5971 8.77973 30.2926 10.5745 30.012 12.3721C29.505 15.6272 28.9904 18.8822 28.4804 22.1372C27.9703 25.3923 27.4618 28.6473 26.9502 31.9024C26.4372 35.1735 25.9211 38.4461 25.4066 41.7172C25.228 42.8533 25.063 43.9909 24.8665 45.1241C24.685 46.1711 23.6754 46.9188 22.6643 46.7903C21.5152 46.6443 20.7681 45.7696 20.8476 44.4188H20.8491Z" fill="black"/>
<path d="M47.1703 25.803C45.3273 23.8144 43.5231 21.8684 41.719 19.9238C39.9726 18.0394 38.2233 16.158 36.4768 14.2736C35.9086 13.6601 35.6764 12.9498 35.9678 12.1353C36.2403 11.3736 36.8028 10.9275 37.5916 10.8218C38.3257 10.7235 38.9025 11.0581 39.3928 11.5879C41.6743 14.0505 43.9572 16.5117 46.2401 18.9728C47.8352 20.6929 49.4316 22.4129 51.0281 24.1329C52.114 25.3026 52.1126 26.3005 51.0266 27.4731C47.1588 31.6411 43.2924 35.8106 39.426 39.98C38.4165 41.0675 37.0551 41.0807 36.2591 40.0123C35.6332 39.1713 35.7255 38.1528 36.5172 37.2943C38.1324 35.5464 39.7534 33.8014 41.3715 32.055C43.2924 29.9842 45.2133 27.9134 47.1718 25.803H47.1703Z" fill="#0AB8B6"/>
</g>
<defs>
<clipPath id="clip0_1_12731">
<rect width="52" height="52" fill="white"/>
</clipPath>
</defs>
</svg>
