<svg width="52" height="52" viewBox="0 0 52 52" fill="none" xmlns="http://www.w3.org/2000/svg">
<g clip-path="url(#clip0_1_12742)">
<path d="M28.1609 -0.110056C28.7375 0.116365 29.339 0.296994 29.8829 0.580657C30.719 1.01696 31.3258 1.70004 31.6993 2.54594C31.8421 2.86904 32.0216 2.95427 32.365 2.95045C33.4409 2.93773 34.5234 2.86268 35.5534 3.30662C36.6674 3.78745 37.5087 4.53159 38.0028 5.61536C38.1378 5.91047 38.3068 6.0046 38.6318 6.00078C40.0956 5.98425 41.5608 5.98297 43.0259 5.99569C45.3717 6.01605 47.1448 7.31733 47.7542 9.48615C47.8761 9.91991 47.922 10.3867 47.922 10.8383C47.9311 22.9048 47.9311 34.9713 47.9272 47.0391C47.9272 49.9189 45.8959 51.8868 42.9394 51.8868C32.5825 51.8893 22.2257 51.8893 11.8688 51.8868C9.49807 51.8868 7.74593 50.6236 7.1182 48.4396C6.98977 47.9905 6.93997 47.5059 6.93866 47.0391C6.92818 34.9726 6.92818 22.9061 6.93211 10.8396C6.93211 8.5105 8.24261 6.78944 10.494 6.17505C10.9567 6.04912 11.4546 6.00841 11.9369 6.00078C13.3667 5.97916 14.7964 5.98297 16.2262 6.00078C16.5512 6.0046 16.7124 5.90538 16.8552 5.61536C17.6821 3.94264 19.0804 3.07638 20.9754 2.94664C21.0803 2.939 21.1864 2.9301 21.2886 2.94282C22.3331 3.08274 23.1076 2.91102 23.6305 1.81326C24.0643 0.902481 25.0354 0.38858 26.0549 0.0896528C26.2699 0.0260513 26.4808 -0.0439105 26.6945 -0.111328C27.1833 -0.111328 27.6708 -0.111328 28.1596 -0.111328L28.1609 -0.110056ZM16.3821 9.11217C16.1829 9.09691 16.0453 9.07655 15.909 9.07655C14.5841 9.07401 13.2579 9.06765 11.933 9.07655C10.6932 9.08546 10.1075 9.64897 10.1075 10.8574C10.1035 22.9086 10.1035 34.9598 10.1075 47.0123C10.1075 48.2653 10.7077 48.8326 12.009 48.8326C22.2977 48.8339 32.5865 48.8339 42.8739 48.8326C44.1412 48.8326 44.7387 48.2602 44.7505 47.0391C44.7597 45.9731 44.7532 44.9059 44.7532 43.8399C44.7532 32.889 44.7532 21.9368 44.7532 10.9859C44.7532 9.60699 44.2093 9.07783 42.7966 9.07528C41.5582 9.07274 40.3197 9.07401 39.0826 9.07528C38.8978 9.07528 38.7118 9.09055 38.4785 9.10199C38.4785 9.55484 38.485 9.95807 38.4785 10.3613C38.4549 11.5443 37.8481 12.1421 36.6267 12.1434C30.4884 12.1485 24.35 12.1498 18.2116 12.1434C17.0256 12.1421 16.4136 11.5379 16.3861 10.3893C16.3756 9.97079 16.3847 9.55229 16.3847 9.11344L16.3821 9.11217ZM35.2874 9.02058C35.2874 8.58809 35.2874 8.18613 35.2874 7.78417C35.2835 6.58846 34.7029 6.02241 33.458 6.01223C32.5865 6.00587 31.715 6.01605 30.8422 6.00969C29.6496 6.00078 29.1241 5.53903 28.997 4.40184C28.904 3.57629 28.2579 2.97208 27.4506 2.95681C26.6342 2.94155 25.9514 3.56484 25.861 4.41074C25.8466 4.54558 25.8518 4.68296 25.8204 4.81398C25.6565 5.49197 25.1048 5.96771 24.3709 5.99061C23.3435 6.02241 22.3135 5.99697 21.286 6.01477C20.3569 6.03131 19.6715 6.5274 19.5942 7.28808C19.5365 7.85286 19.5824 8.42655 19.5824 9.02058H35.2874Z" fill="black"/>
<path d="M33.9301 39.289C34.6542 38.6314 35.2952 38.0385 35.9487 37.4567C36.7517 36.7419 37.7333 36.7008 38.4449 37.3386C39.1358 37.9589 39.0873 38.8763 38.3051 39.5862C37.6585 40.1742 36.9967 40.7485 36.2823 41.38C36.9677 41.9916 37.6225 42.5833 38.2885 43.1651C38.6886 43.5157 38.953 43.9172 38.9226 44.4331C38.8866 45.0497 38.546 45.4997 37.9188 45.7484C37.2626 46.0082 36.6395 45.9037 36.1328 45.4637C35.406 44.8322 34.7151 44.1671 33.9453 43.4573C33.2074 44.1348 32.5359 44.7911 31.8173 45.4028C30.8302 46.2431 29.364 45.905 29.0013 44.7725C28.8157 44.1957 29.0013 43.6947 29.4651 43.2782C30.1546 42.6604 30.8537 42.0513 31.6235 41.3725C30.8551 40.7025 30.1199 40.0847 29.4152 39.4382C28.9583 39.0193 28.8116 38.5046 29.0276 37.9315C29.2505 37.3423 29.7198 37.0079 30.3899 36.9109C31.0074 36.8227 31.4989 37.0663 31.9184 37.4492C32.576 38.0484 33.2323 38.6501 33.9301 39.289Z" fill="#0AB8B6"/>
<path d="M33.5964 20.0513C34.8271 18.7946 35.9353 17.6281 37.089 16.5108C37.3837 16.2254 37.8034 16.0038 38.1998 15.9176C38.8451 15.7782 39.45 16.1578 39.7472 16.7377C40.0393 17.3057 39.9897 18.0382 39.5334 18.5119C37.9312 20.1734 36.3185 21.8243 34.6824 23.4512C34.0932 24.0378 33.2171 24.0338 32.6109 23.4433C31.4962 22.3591 30.4037 21.251 29.3425 20.1124C28.7441 19.4701 28.8184 18.5146 29.422 17.9227C30.0217 17.3348 30.9604 17.3057 31.5796 17.9148C32.2628 18.5863 32.899 19.3082 33.5964 20.0527V20.0513Z" fill="#0AB8B6"/>
<path d="M33.629 29.5426C34.8406 28.1571 35.9764 26.8476 37.1226 25.5516C37.7963 24.7901 38.6188 24.6826 39.2781 25.2396C40.0719 25.9114 40.1593 27.1343 39.4361 27.9943C38.5457 29.0529 37.6253 30.0757 36.7179 31.1149C36.0926 31.8301 35.4737 32.5542 34.8379 33.2575C34.0755 34.1011 33.1995 34.0996 32.4449 33.25C31.4422 32.1227 30.4474 30.988 29.463 29.8413C28.7789 29.0454 28.7554 27.9674 29.3782 27.2328C30.014 26.4818 30.9801 26.4982 31.6942 27.2985C32.3365 28.0182 32.958 28.7618 33.629 29.5426Z" fill="#0AB8B6"/>
<path d="M19.3932 42.8831C18.415 42.8831 17.4368 42.8991 16.4599 42.877C15.6537 42.8586 15.0868 42.3714 14.9547 41.6414C14.8313 40.9653 15.1715 40.3039 15.817 40.0499C16.0712 39.9505 16.3627 39.9014 16.6381 39.9002C18.4948 39.8879 20.3514 39.883 22.2068 39.8978C23.4678 39.9076 24.2391 40.8916 23.8104 41.926C23.5351 42.5911 22.988 42.8794 22.2778 42.8831C21.3171 42.888 20.3551 42.8843 19.3932 42.8831Z" fill="#0AB8B6"/>
<path d="M19.4105 20.8868C18.466 20.8868 17.5215 20.8918 16.5771 20.8856C15.6214 20.8794 14.9436 20.2661 14.9299 19.4038C14.9162 18.5465 15.5766 17.9073 16.5459 17.8998C18.4685 17.885 20.3898 17.885 22.3124 17.8998C23.2905 17.9073 23.9359 18.5267 23.9296 19.3964C23.9234 20.2748 23.2406 20.8818 22.2438 20.8856C21.2994 20.8893 20.3549 20.8856 19.4105 20.8856V20.8868Z" fill="#0AB8B6"/>
<path d="M19.4119 31.8588C18.3668 31.8588 17.3217 31.8886 16.2779 31.8472C15.6581 31.8241 15.138 31.2023 14.9846 30.4367C14.815 29.5901 15.0432 28.6756 15.5982 28.249C15.8576 28.0489 16.1868 27.915 16.4849 27.91C18.4416 27.8803 20.3983 27.8869 22.3551 27.8984C23.2467 27.9034 23.904 28.7286 23.9289 29.8315C23.9551 30.9708 23.3228 31.8423 22.395 31.872C21.401 31.9051 20.4046 31.8787 19.4094 31.8787C19.4094 31.872 19.4094 31.8654 19.4094 31.8572L19.4119 31.8588Z" fill="#0AB8B6"/>
</g>
<defs>
<clipPath id="clip0_1_12742">
<rect width="52" height="52" fill="white"/>
</clipPath>
</defs>
</svg>
