<svg width="52" height="52" viewBox="0 0 52 52" fill="none" xmlns="http://www.w3.org/2000/svg">
<g clip-path="url(#clip0_1_12755)">
<path d="M48.3377 18.1913H3.68798C3.6789 18.3624 3.66527 18.5077 3.66527 18.6545C3.66527 27.1153 3.66073 35.5746 3.66679 44.0354C3.6683 46.1956 5.01394 47.8487 7.09975 48.2665C7.46454 48.3392 7.85052 48.3331 8.22591 48.3346C14.0792 48.3392 19.9325 48.3346 25.7858 48.3392C27.03 48.3392 27.8504 49.1309 27.808 50.2708C27.7778 51.1004 27.142 51.824 26.3186 51.9512C26.1142 51.983 25.9054 51.9936 25.698 51.9936C19.8069 51.9951 13.9157 52.0102 8.02459 51.989C4.19354 51.9754 1.1072 49.5911 0.241394 45.9822C0.062783 45.2389 0.0158598 44.4502 0.0143461 43.6827C0.0022369 34.8994 0.0022369 26.1177 0.00980516 17.3375C0.0128325 13.9208 -0.041659 10.501 0.0779195 7.08888C0.203553 3.50565 3.51845 0.273624 7.10126 0.0495779C7.59017 0.0193013 8.08211 0.00113537 8.57253 0.00113537C20.317 -0.000378457 32.0629 -0.000378457 43.8073 0.00113537C47.4552 0.00113537 50.3811 1.94489 51.5027 5.2087C51.8085 6.10035 51.9689 7.08737 51.9735 8.03048C52.0128 14.7337 51.9962 21.4369 51.9932 28.1387C51.9932 29.4057 51.2787 30.2187 50.1889 30.2277C49.1233 30.2383 48.3422 29.4027 48.3407 28.228C48.3362 25.1307 48.3392 22.0334 48.3392 18.9361C48.3392 18.7105 48.3392 18.4835 48.3392 18.1883L48.3377 18.1913ZM48.2892 14.4794C48.312 14.3704 48.3316 14.3159 48.3331 14.2599C48.3362 12.1632 48.3453 10.0681 48.3362 7.97144C48.3241 5.44638 46.5425 3.66006 44.0162 3.66006C32.0084 3.654 19.9991 3.654 7.99129 3.66006C5.46652 3.66006 3.6789 5.45092 3.66679 7.9669C3.65771 9.96818 3.66376 11.9695 3.66679 13.9723C3.66679 14.1342 3.69101 14.2962 3.70463 14.4794H48.2892Z" fill="black"/>
<path d="M41.8659 45.5104C40.8381 46.8501 39.8724 48.1278 38.8885 49.3903C37.6549 50.9738 35.6629 51.2599 34.1341 50.0852C33.4939 49.5947 33.0776 48.9407 32.9368 48.1566C32.2012 44.0602 31.4868 39.9592 30.7678 35.8598C30.4514 34.0598 30.1502 32.2584 29.8217 30.4614C29.5629 29.0445 29.961 27.8637 31.128 27.0266C32.2966 26.1894 33.5559 26.1864 34.7986 26.9009C39.553 29.6349 44.3029 32.3779 49.0542 35.118C49.5113 35.3814 49.979 35.6296 50.4195 35.9188C51.585 36.6818 52.1194 37.7687 51.9468 39.1538C51.7788 40.4921 51.0129 41.4125 49.7505 41.85C48.1687 42.398 46.5642 42.8748 44.8902 43.4077C45.0143 43.6 45.1142 43.768 45.2262 43.9285C46.4144 45.63 47.6117 47.3255 48.7939 49.0316C49.3388 49.8172 49.3327 50.6165 48.812 51.2872C48.0552 52.2606 46.596 52.2197 45.8543 51.1767C44.651 49.4857 43.4734 47.7781 42.2836 46.0781C42.1671 45.9101 42.0399 45.7496 41.8659 45.5149V45.5104ZM33.5014 30.3509C34.4702 35.8522 35.4101 41.196 36.3698 46.6458C36.5575 46.4202 36.6665 46.2961 36.7679 46.1659C37.8259 44.7898 38.9233 43.441 39.9254 42.0241C40.5399 41.1551 41.3028 40.6571 42.3154 40.3725C44.1379 39.8593 45.9331 39.2447 47.8554 38.6361C43.048 35.8613 38.3391 33.1424 33.5014 30.3509Z" fill="#0AB8B6"/>
<path d="M17.5417 9.04955C17.5568 10.0532 16.7183 10.91 15.7253 10.9085C14.7672 10.9085 13.9165 10.0668 13.8968 9.10405C13.8771 8.11098 14.7202 7.26172 15.7268 7.26172C16.7228 7.26172 17.5266 8.05345 17.5417 9.05106V9.04955Z" fill="#0AB8B6"/>
<path d="M7.875 9.079C7.875 8.07231 8.64999 7.28058 9.65354 7.26392C10.6737 7.24727 11.4957 8.05566 11.4957 9.07749C11.4957 10.0933 10.6586 10.9274 9.65808 10.9092C8.67724 10.8911 7.87651 10.0706 7.875 9.08052V9.079Z" fill="#0AB8B6"/>
<path d="M19.961 8.99879C20.0034 7.99512 20.8162 7.23518 21.8213 7.26243C22.8264 7.29119 23.6589 8.17527 23.6029 9.15471C23.5469 10.1281 22.6765 10.941 21.7259 10.9077C20.7269 10.8729 19.9202 10.0009 19.9625 8.99879H19.961Z" fill="#0AB8B6"/>
</g>
<defs>
<clipPath id="clip0_1_12755">
<rect width="52" height="52" fill="white"/>
</clipPath>
</defs>
</svg>
