<svg width="52" height="52" viewBox="0 0 52 52" fill="none" xmlns="http://www.w3.org/2000/svg">
<g clip-path="url(#clip0_1_12766)">
<path d="M45.8446 14.1537C41.584 2.83078 29.0648 -2.87237 17.9391 1.43973C9.82209 4.58591 4.25651 12.607 4.08914 21.3966C4.08097 21.8413 3.91496 22.14 3.5353 22.393C1.88468 23.4936 0.779725 25.0416 0.254465 26.9941C0.189148 27.2373 0.129274 27.4888 0.0707604 27.732C0.0476272 27.8307 0.0231332 27.9307 0 28.0294V37.0621C0.00408233 37.0733 0.00816466 37.083 0.0108862 37.0941C0.0435449 37.183 0.0802859 37.2845 0.097976 37.4054C0.655895 41.0796 3.93809 43.9743 7.57136 43.9937C9.23287 44.0021 10.5909 44.0021 11.8442 43.9937C12.7518 43.9868 13.4377 43.2836 13.439 42.3595C13.4445 35.8545 13.4445 29.2592 13.439 22.7543C13.439 21.8315 12.7532 21.1284 11.8442 21.12C11.0305 21.1131 10.2004 21.1145 9.39889 21.1159C9.04373 21.1159 8.68448 21.1159 8.3334 21.1172H7.16857L7.2788 20.61C7.3795 20.1431 7.47067 19.679 7.55776 19.2287C7.74963 18.2434 7.92925 17.3124 8.21229 16.3896C9.49414 12.2082 12.2075 8.60618 15.8517 6.24933C19.4931 3.89386 23.8435 2.92388 28.0987 3.51866C32.6342 4.15234 36.496 6.2938 39.5768 9.88467C40.9485 11.4828 42.0426 13.363 42.8305 15.4725C43.1013 16.1979 43.5653 16.5772 44.2484 16.6301C44.8512 16.6773 45.3615 16.4605 45.6827 16.0186C46.0392 15.5308 46.0991 14.8346 45.8432 14.1551L45.8446 14.1537ZM7.90748 24.4399C8.32115 24.4371 8.73483 24.4385 9.16075 24.4399H10.18V40.5377L9.82209 40.5835C9.32132 40.6475 8.79606 40.6933 8.26808 40.6933C6.39701 40.6933 4.50145 40.111 3.56115 37.6583C3.37473 37.1705 3.27539 36.5924 3.26723 35.9407C3.23729 33.5908 3.24818 31.1436 3.2577 29.1772C3.26995 26.4521 5.22538 24.4608 7.90612 24.4427L7.90748 24.4399Z" fill="black"/>
<path d="M29.5333 50.4904C29.844 50.0047 30.2463 49.9345 30.6015 49.9345H30.619C32.5577 49.9455 34.4547 49.9551 36.3517 49.9345C38.1397 49.9166 39.6251 49.1556 40.766 47.6722C41.5476 46.6552 41.9324 45.4759 41.9432 44.064L41.9459 43.654H43.0168C43.4931 43.654 43.9599 43.654 44.4268 43.654C48.5894 43.6374 51.9852 40.1573 51.996 35.8969C52.0013 33.7667 52.0013 31.4425 51.996 28.7935C51.9879 24.5042 48.5625 21.0075 44.3635 21.0006C43.2886 20.9992 42.2149 21.0006 41.14 21.0006H40.5386C39.325 21.0006 38.7102 21.6322 38.7088 22.8762V29.8957C38.7088 34.5758 38.7088 39.2559 38.7088 43.9361C38.7088 45.6066 37.689 46.6456 36.0503 46.6484C35.4059 46.6484 34.7615 46.6484 34.117 46.6484C32.9694 46.6484 31.7828 46.647 30.6163 46.6552C30.1293 46.6552 29.8091 46.4956 29.5413 46.1075C28.6399 44.8085 27.0295 44.2649 25.532 44.7548C24.0212 45.2489 23.004 46.6607 23 48.268C22.996 49.9083 23.9727 51.3009 25.489 51.817C25.6208 51.8624 25.7513 51.9106 25.8818 51.9601L25.9895 52H27.2676C28.0856 51.7385 28.9843 51.3505 29.5359 50.4877L29.5333 50.4904ZM41.9499 24.2083L42.3791 24.2358C42.6885 24.2565 43.0033 24.2647 43.3088 24.2744C43.9976 24.295 44.7093 24.3156 45.3968 24.4588C47.3113 24.8578 48.7267 26.6495 48.763 28.7192C48.8074 31.2993 48.8074 33.6607 48.763 35.9395C48.7159 38.3188 46.9696 40.1724 44.6084 40.3458C44.3259 40.3665 44.0406 40.3733 43.7568 40.3733C43.5227 40.3733 43.2899 40.3692 43.0599 40.3651C42.8258 40.361 42.5917 40.3568 42.3535 40.3568H41.9499V24.2097V24.2083Z" fill="#0AB8B6"/>
</g>
<defs>
<clipPath id="clip0_1_12766">
<rect width="52" height="52" fill="white"/>
</clipPath>
</defs>
</svg>
