<svg width="721" height="540" viewBox="0 0 721 540" fill="none" xmlns="http://www.w3.org/2000/svg">
<path d="M720.75 229.65C720.55 229.85 720.25 230.02 720.16 230.27C719.43 232.43 718.51 234.55 718.07 236.77C715.68 248.83 708.51 257.71 699.4 265.35C688.43 274.56 675.9 280.9 662.26 284.98C652.34 287.95 642.27 290.39 632.27 293.1C629.89 293.74 627.54 294.5 625.1 295.23V302.37C628.5 302.86 631.79 302.57 635.05 302.17C647.31 300.7 659.39 298.23 671.34 295.15C676.45 293.83 681.54 292.37 686.54 290.7C695.45 287.73 703.66 283.33 711.29 277.86C712.47 277.02 713.64 276.17 715.17 275.07C715.86 276.58 716.77 277.89 717.06 279.32C717.93 283.57 718.97 287.85 719.19 292.15C719.73 302.76 717.91 313.02 713.21 322.64C708.76 331.75 701.94 338.39 692.61 342.48C683.93 346.28 674.83 348.01 665.44 348.43C655.57 348.88 645.76 347.92 635.95 346.94C629.87 346.34 623.77 345.89 617.67 345.41C616.55 345.32 615.41 345.4 614.05 345.4C613.06 348.07 612.11 350.64 611.01 353.6C614.73 354.39 618.12 355.18 621.55 355.83C634.6 358.3 647.72 360.2 661.03 360.54C674.27 360.89 687.35 360.04 699.97 355.54C700.34 355.41 700.76 355.41 701.3 355.34C701.39 355.93 701.52 356.41 701.53 356.9C701.65 362.84 701.12 368.71 699.59 374.46C695.34 390.47 684.91 399.78 668.71 402.62C657.06 404.67 645.57 403.25 634.2 400.41C619.81 396.81 606.34 391 593.7 383.27C593 382.84 592.28 382.44 591.33 381.88C589.56 383.58 587.79 385.27 586.04 386.94C589.15 391.51 605.43 400.98 623.28 409.08C636.67 415.15 650.77 418.12 665.53 419.39C665.41 420.43 665.43 421.24 665.23 422C661.22 437.14 651.66 446.6 636.29 449.94C627.36 451.88 618.56 450.94 609.9 448.24C599.12 444.87 589.65 439.2 581.46 431.51C575.79 426.19 570.44 420.54 564.93 415.05C562.59 412.72 560.2 410.44 557.72 408.02C555.58 409.18 553.62 410.25 551.29 411.52C563.93 433.33 580.99 450.24 602.62 463.26C602.46 464.11 602.36 465.22 602.05 466.26C600.57 471.13 597.26 474.42 592.84 476.67C587.51 479.38 581.8 480.1 575.91 479.65C563.73 478.72 553.36 473.81 544.63 465.33C537.93 458.82 532.8 451.18 528.62 442.9C525.73 437.17 523.18 431.26 520.46 425.44C519.72 423.86 518.92 422.3 517.99 420.43C515.84 421.24 513.86 421.98 511.48 422.88C512.58 428.01 513.51 432.98 514.71 437.88C516.82 446.46 519.76 454.75 523.54 462.74C526.31 468.61 529.86 473.92 534.79 478.24C536.1 479.39 537.22 480.75 538.63 482.22C535.71 485.45 532.27 487.41 528.37 488.59C516.18 492.28 502.15 487.19 494.65 476.4C490.46 470.38 488.36 463.57 487.44 456.41C486.81 451.48 486.63 446.5 486.26 441.54C486.19 440.65 486.14 439.77 486.06 438.66C481.5 440.35 480.16 444.9 477.13 447.56C476.86 447.49 476.76 447.49 476.67 447.44C476.59 447.4 476.46 447.32 476.46 447.26C476.48 418.85 476.5 390.43 476.54 362.02C476.54 361.63 476.72 361.24 476.91 360.45C478.65 360.45 480.4 360.58 482.13 360.43C487.59 359.93 493.11 359.68 498.48 358.67C515.23 355.53 525.13 344.97 529.72 328.94C532.09 320.66 531.7 312.33 530.05 303.99C528.62 296.78 527.01 289.6 525.78 282.35C525.26 279.32 525.23 276.13 525.51 273.06C525.7 270.98 526.45 268.72 527.63 267.01C529.96 263.61 532.46 260.2 535.44 257.38C542.43 250.75 549.66 244.36 556.95 238.05C564.83 231.23 572.29 224.02 577.81 215.13C581.02 209.96 583.56 204.36 586.37 198.94C587.74 196.3 589.05 193.63 590.59 190.56C593.78 193.51 596.56 196.08 599.58 198.88C600.46 197.97 601.33 197.26 601.98 196.39C605.26 191.99 608.67 187.66 611.71 183.09C623.54 165.29 634.37 146.89 643.87 127.73C649.74 115.87 654.21 103.54 656.31 90.42C656.45 89.52 656.72 88.64 656.95 87.67C659.97 87.71 662.53 88.83 665.02 90.08C670.54 92.85 674.74 97.1 678.19 102.13C683.49 109.85 686.66 118.48 688.67 127.56C691.54 140.45 692.09 153.42 689.71 166.47C688.73 171.82 686.88 176.85 684.42 181.68C678.24 193.78 669.78 204.09 659.35 212.67C652.24 218.52 644.62 223.76 637.16 229.18C632.3 232.71 627.33 236.11 622.37 239.51C620.62 240.71 620.02 242.13 620.48 244.25C620.93 246.37 621.21 248.49 622.59 250.56C624.21 249.77 625.74 249.17 627.14 248.34C633.19 244.73 639.41 241.34 645.19 237.34C656.95 229.19 668.51 220.76 680.06 212.32C686.8 207.4 692.6 201.49 697.63 194.81C700.68 190.76 703.96 186.89 707.16 182.89C710 183.76 711.86 185.6 713.17 187.8C714.69 190.36 715.94 193.13 716.96 195.93C718.2 199.33 719.08 202.86 720.14 206.33C720.25 206.68 720.56 206.96 720.77 207.27V229.67L720.75 229.65Z" fill="#F2F2F2"/>
<path d="M359.8 757.37C356.65 756.12 353.49 754.87 350.34 753.63C347.64 752.57 344.89 751.63 342.24 750.44C332.6 746.09 327.65 738.61 327.32 728.01C327.08 720.36 328.59 712.96 330.24 705.57C333.54 690.81 337.03 676.09 340.16 661.29C342.41 650.64 344.18 639.89 344.21 628.95C344.21 627.52 344.08 626.09 344 624.38C342.31 624.28 340.82 624.19 339.05 624.08C338.46 626.1 337.88 627.96 337.38 629.84C333.85 643.15 330.59 656.55 326.73 669.77C322.86 683.03 317.67 695.81 310.48 707.68C306.48 714.28 301.78 720.28 295.9 725.36C277.33 741.41 252.79 733.04 242.48 721.46C239.48 718.09 237.17 714.33 235.82 709.68C236.75 708.96 237.66 708.14 238.68 707.5C241.93 705.46 245.23 703.5 248.48 701.47C260.41 694.01 270.51 684.57 278.64 673.08C287.14 661.05 295.1 648.67 302.13 635.71C303.76 632.71 305.21 629.6 306.54 626.46C307.33 624.59 307.71 622.55 308.37 620.22C306.11 619.69 304.24 619.25 302.11 618.75C301.37 620.17 300.65 621.51 299.96 622.87C291.84 638.96 282.18 654.03 269.82 667.22C265.86 671.45 261.58 675.41 257.15 679.15C248.41 686.53 238.21 690.63 226.76 691.17C216.86 691.64 207.59 689.45 199.46 683.5C194.09 679.57 190.37 674.47 188.98 667.85C188.83 667.14 188.73 666.42 188.66 665.7C188.61 665.2 188.66 664.69 188.66 664.17C189.16 663.94 189.51 663.7 189.89 663.61C207.16 659.64 222.51 651.6 236.75 641.33C247.36 633.69 257.42 625.34 266.91 616.34C269.22 614.14 271.32 611.72 273.76 609.16C270.88 606.61 268.29 604.32 265.43 601.79C266.52 600.98 267.36 600.26 268.3 599.69C271.04 598.01 273.81 596.38 276.59 594.76C285.36 589.67 291.39 582.12 295.42 573.03C297.06 569.31 297.58 565.1 298.7 560.77C302.26 560.14 306.3 560.47 310.29 560.87C318.56 561.71 326.67 563.38 334.58 565.98C341.57 568.28 347.78 571.94 353.33 576.75C355.75 578.85 358.17 580.95 360.86 583.29C371.17 571.98 383.92 565.36 398.77 562.69C406.81 561.25 414.86 559.89 423.16 560.83C423.3 562.4 423.39 563.73 423.55 565.05C424.4 572.43 427.69 578.65 432.6 584.11C437.64 589.73 443.76 593.99 450.11 597.95C451.94 599.09 453.75 600.27 455.95 601.68C453.08 604.21 450.47 606.5 447.7 608.94C448.8 610.3 449.65 611.61 450.74 612.67C466 627.4 482.07 641.1 500.68 651.52C510.04 656.76 519.98 660.6 530.34 663.38C531.03 663.57 531.71 663.81 532.83 664.16C532.5 666.17 532.34 668.21 531.81 670.14C530.35 675.44 527.08 679.53 522.78 682.84C516.78 687.45 509.85 689.67 502.45 690.77C489.89 692.64 478.64 689.52 468.35 682.28C457.98 674.97 449.47 665.81 441.8 655.8C433.7 645.23 426.82 633.91 420.86 622.01C420.4 621.09 419.94 620.17 419.36 619.03C417.39 619.29 415.48 619.54 413.23 619.84C413.46 621.31 413.46 622.56 413.86 623.67C414.85 626.39 415.84 629.14 417.16 631.71C425.16 647.23 434.44 661.96 444.88 675.93C452.97 686.76 463.01 695.54 474.57 702.58C477.14 704.14 479.73 705.67 482.27 707.27C483.39 707.98 484.41 708.84 485.62 709.73C484.96 711.22 484.51 712.6 483.78 713.82C476.8 725.58 466.76 732.88 452.99 734.48C445.5 735.35 438.61 733.37 432.18 729.56C425.65 725.69 420.43 720.39 415.9 714.38C408.6 704.7 403.32 693.91 399.01 682.64C393.19 667.42 388.64 651.82 385.33 635.85C384.53 632.02 383.45 628.24 382.47 624.37H377.29C376.99 629.55 377.01 634.6 377.55 639.64C379.24 655.46 383.27 670.8 386.86 686.24C389.32 696.84 391.87 707.42 393.11 718.25C393.76 723.92 394.04 729.61 392.91 735.28C392.06 739.55 389.91 742.94 386.5 745.61C382.46 748.77 377.96 751.1 373.23 753C369.41 754.53 365.53 755.91 361.67 757.36H359.8V757.37Z" fill="#F2F2F2"/>
<path d="M361.67 0.01C363.64 1.51 365.57 3.08 367.6 4.5C373.85 8.84 375.9 14.84 374.61 22.13C372.86 32.04 369.11 41.19 363.68 49.64C362.91 50.84 361.87 51.86 360.72 53.25C359.8 52.24 358.95 51.51 358.35 50.6C352.06 41.17 347.73 30.97 346.53 19.59C345.93 13.89 347.75 9.19 352.31 5.64C354.02 4.3 355.79 3.04 357.5 1.69C358.12 1.2 358.62 0.57 359.18 0C360.01 0 360.84 0 361.67 0V0.01Z" fill="#F2F2F2"/>
<path d="M6.14042 275.33C6.69042 275.57 7.01042 275.64 7.24042 275.82C19.4704 285.41 33.4504 291.18 48.4204 294.84C60.9104 297.89 73.4504 300.69 86.2404 302.15C89.5104 302.52 92.8204 302.53 96.3204 302.71C96.3204 300.42 96.3304 298.49 96.3204 296.57C96.3104 295.22 95.2204 294.89 94.2404 294.61C90.9604 293.66 87.6804 292.66 84.3604 291.87C72.3504 289.03 60.4404 285.93 48.9604 281.3C38.1804 276.96 28.3704 271.08 19.5604 263.51C12.9704 257.85 8.18042 250.96 5.32042 242.72C3.80042 238.32 2.05042 234 0.440418 229.63C0.200418 228.97 0.0404183 228.23 0.0404183 227.53C0.0104183 221.72 0.0204183 215.91 0.0404183 210.11C0.0404183 209.6 0.0804183 209.06 0.240418 208.58C1.78042 203.86 3.23042 199.09 4.97042 194.44C5.90042 191.94 7.20042 189.55 8.61042 187.27C9.81042 185.33 11.5704 183.85 14.1904 182.72C14.6304 183.31 15.1004 183.97 15.5904 184.63C17.5804 187.29 19.6104 189.91 21.5404 192.61C24.9504 197.35 28.9304 201.53 33.3604 205.34C51.1804 220.66 70.3004 234.15 90.4404 246.22C93.0804 247.8 95.8704 249.14 98.6904 250.64C100.57 247.82 100.96 244.96 100.99 242.06C100.99 241.41 100.28 240.6 99.6804 240.13C97.6604 238.51 95.5904 236.94 93.4704 235.45C85.4904 229.86 77.3504 224.49 69.5104 218.7C59.6104 211.4 50.9304 202.82 43.6904 192.81C35.1804 181.04 30.4404 168.04 30.1704 153.46C29.9204 139.94 31.8004 126.8 36.8204 114.18C38.9804 108.75 41.7304 103.66 45.4404 99.12C49.6004 94.03 54.5804 90.1 60.9904 88.23C62.0604 87.92 63.1704 87.76 64.4804 87.49C64.9604 89.97 65.3604 92.19 65.8004 94.4C68.3504 107.21 73.0404 119.26 78.9804 130.83C89.2704 150.86 100.77 170.19 113.52 188.75C115.34 191.4 117.42 193.85 119.37 196.41C120.05 197.31 120.68 198.26 121.42 199.31C124.92 196.31 127.81 193.85 130.89 191.21C131.56 192.21 132.14 192.92 132.54 193.71C133.6 195.84 134.72 197.96 135.58 200.18C139.25 209.71 144.93 217.92 151.81 225.39C160.96 235.33 170.57 244.74 181.3 252.99C183.76 254.88 186.02 257.04 188.28 259.17C194.84 265.36 197.22 272.78 195.33 281.74C193.77 289.13 192.65 296.63 191.53 304.11C190.37 311.93 190 319.81 191.36 327.66C193.93 342.51 202.77 351.88 216.84 356.61C224.27 359.1 231.95 360.18 239.76 360.43C241.39 360.48 243.02 360.55 244.72 360.61V447.73C242.25 446.59 241.63 444.38 240.37 442.76C239.09 441.11 237.65 439.7 235.41 438.49C235.27 439.65 235.11 440.51 235.08 441.36C234.84 448.31 234.56 455.24 232.89 462.04C231.07 469.43 228.13 476.27 222.33 481.4C213.72 489 203.78 491.65 192.57 488.45C188.46 487.28 185.3 485.08 182.95 482.08C184.03 480.93 185.06 479.64 186.28 478.58C190.9 474.55 194.24 469.61 196.96 464.19C203.44 451.29 207.61 437.69 209.6 423.4C209.63 423.21 209.54 423 209.45 422.46C207.67 421.9 205.74 421.29 203.42 420.55C202.46 422.29 201.39 423.91 200.61 425.66C198.79 429.73 197.12 433.86 195.37 437.96C190.01 450.49 182.39 461.32 171.37 469.52C163.31 475.52 154.46 479.64 144.25 480.06C132.89 480.53 124.46 475.7 119.04 465.68C118.75 465.15 118.58 464.56 118.25 463.78C124.73 458.52 132.66 455.37 138.51 449.39C144.23 443.53 150.02 437.73 155.47 431.63C160.99 425.46 165.95 418.82 170 411.13C167.72 410.13 165.69 409.24 163.49 408.27C160.87 410.82 158.35 413.27 155.84 415.72C149.61 421.8 143.59 428.13 137.09 433.9C128.27 441.73 117.98 447.06 106.39 449.57C95.8904 451.84 85.5304 451.42 75.6704 446.77C64.3304 441.42 57.8904 432.3 55.5404 419.62C70.1304 417.58 84.5804 415.51 97.9304 409.15C111.11 402.87 124.3 396.63 136.08 387.08C134.85 386.01 133.95 385.22 133.04 384.44C132.11 383.63 131.17 382.83 130.1 381.91C129.05 382.52 128.08 383.07 127.13 383.65C112 392.82 95.8404 399.33 78.3504 402.32C69.1904 403.88 60.0004 404.29 50.8404 402.3C35.2104 398.9 25.5504 389.34 21.6204 373.88C20.2304 368.41 19.8004 362.85 19.8004 357.23C19.8004 356.64 19.9904 356.06 20.1104 355.38C20.6604 355.47 21.0804 355.47 21.4504 355.6C33.1504 359.79 45.3104 360.73 57.6004 360.59C74.8904 360.39 91.8504 357.59 108.7 353.98C109.19 353.87 109.66 353.65 110.51 353.35C109.42 350.7 108.38 348.18 107.3 345.57C102.15 345.15 97.2204 345.84 92.3104 346.36C80.8704 347.58 69.4404 349.06 57.8904 348.47C49.0604 348.02 40.3804 346.84 31.9904 343.82C18.8804 339.11 10.2804 330.06 5.77042 317.03C1.93042 305.93 0.950418 294.58 3.26042 283.02C3.79042 280.39 4.49042 277.79 6.18042 275.34L6.14042 275.33Z" fill="#F2F2F2"/>
<path d="M255.12 305.97H466.2C466.38 310.61 466.71 315.05 466.71 319.49C466.73 338.16 466.64 356.82 466.61 375.49C466.53 414.79 466.42 454.1 466.4 493.4C466.4 501.59 466.76 509.78 466.84 517.97C466.88 522.65 466.31 527.28 465.01 531.8C462.85 539.29 458.12 544.41 450.85 547.21C445.96 549.09 440.85 549.85 435.66 550.17C426.14 550.77 416.6 551.13 407.12 552.1C400.86 552.74 394.64 554.07 388.49 555.46C382.48 556.82 377.01 559.56 371.86 562.97C368.93 564.91 365.81 566.56 362.79 568.37C361.28 569.28 359.87 569.13 358.44 568.19C357.05 567.28 355.58 566.5 354.23 565.54C344.04 558.23 332.43 554.66 320.25 552.62C309.27 550.77 298.15 550.91 287.08 550.17C282.76 549.88 278.4 549.35 274.2 548.35C263.04 545.69 256.87 538.26 255.33 527.06C254.7 522.46 254.51 517.76 254.5 513.11C254.45 457.63 254.47 402.15 254.5 346.67C254.5 335.57 254.63 324.48 254.75 313.38C254.77 311.01 254.99 308.64 255.13 305.98L255.12 305.97ZM406.48 383.09C408.91 386.22 409.09 389.56 408.74 393.04C408.53 395.1 408.24 397.16 408.18 399.23C408.1 402.08 409.05 403.41 411.25 403.91C414.64 404.68 416.58 404.05 417.67 401.41C420.63 394.23 423.5 387.01 426.29 379.76C426.8 378.44 427 376.93 426.99 375.51C426.98 367.12 421.89 360.85 413.18 359.23C409.05 358.46 404.7 358.28 400.51 358.61C389.2 359.5 380.76 364.98 375.85 375.42C374.93 377.38 374.09 379.41 373.44 381.48C372.32 385.04 371.43 388.66 370.35 392.23C369.99 393.44 369.35 394.56 368.65 396.14C366.7 393.26 366.51 390.67 366.97 387.96C367.96 382.18 370.76 377.25 374.25 372.67C375.17 371.46 375.39 370.44 374.85 369C373.99 366.71 373.36 364.33 372.62 361.96C374.23 360.82 375.57 359.86 376.91 358.9C379.21 357.25 381.25 355.38 382.51 352.76C385.89 345.74 384.03 336.53 378.16 331.4C372.43 326.39 363.59 325.81 357 330.02C350.39 334.25 347.63 341.37 349.57 349.19C350.05 351.13 349.447 352.48 347.76 353.24C348.35 355.17 348.87 357.17 349.56 359.1C354.55 373.05 359.55 387 364.59 400.94C369.66 414.97 374.86 428.96 379.8 443.03C380.63 445.39 381.57 446.84 384.17 446.89C385.83 446.92 386.59 447.93 387.21 449.46C388.18 451.85 389.5 454.09 390.73 456.37C392.35 459.38 394.3 462.24 395.62 465.37C399.07 473.58 402.26 481.9 405.53 490.19C405.94 491.22 406.15 492.32 406.53 493.65C404.07 494.4 401.84 495.09 399.64 495.76C399.66 498.89 402.61 501.42 400.44 504.88C399.62 503.32 398.85 502.11 398.31 500.8C395.59 494.19 392.73 487.62 390.28 480.91C373.17 433.99 356.16 387.03 339.09 340.09C338.18 337.59 337.79 335.19 338.51 332.52C339.15 330.14 338.89 327.71 336.38 326.27C333.66 324.71 332.28 322.29 331.61 319.32C331.22 317.59 330.21 316.38 328.34 315.98C326.91 317.43 327.16 319.13 327.66 320.67C330.45 329.18 330.97 337.93 330.68 346.79C330.59 349.38 330.58 351.98 330.64 354.57C330.71 357.76 332.17 360.11 335.15 361.41C336.76 362.12 338.33 363.02 340.02 363.45C342.57 364.11 343.29 365.72 343.59 368.14C344.63 376.53 344.69 384.89 343.51 393.26C343.05 396.5 342.6 399.75 342.14 403.03C340.77 403.1 339.74 403.17 338.71 403.21C334.33 403.41 330.04 404.1 325.97 405.79C318.93 408.72 314.96 413.95 314.21 421.61C313.67 427.07 314.62 432.36 315.94 437.6C317 441.77 317.17 445.99 317.03 450.25C316.9 454.07 315.6 457.32 312.65 459.84C310.01 462.1 308.46 465.05 308.13 468.45C307.67 473.18 307.39 477.94 307.26 482.69C307.17 486.18 307.79 489.63 305.89 492.99C304.68 495.13 305.9 496.92 308.33 497.53C311.05 498.22 313.63 498.08 316.06 496.27C315.58 494.4 315.11 492.61 314.66 490.82C313.4 485.87 312.63 480.87 312.98 475.74C313.31 470.84 315.26 466.97 319.78 464.65C321.25 463.89 322.71 463.1 324.14 462.26C329.35 459.19 333.5 455.1 336.21 449.63C337.03 447.98 337.92 446.36 338.86 444.58C350.76 445.77 362.48 446.93 374.04 448.09C377.22 454.89 389.37 489.62 389.37 491.97C386.4 490.72 384.31 488.6 382.97 485.84C381.89 483.61 381.16 481.22 380.23 478.92C379.46 477 378.81 474.99 377.76 473.24C375.99 470.3 372.96 469.41 369.71 470.63C370.32 471.39 370.91 472.12 371.61 472.99C370.24 473.44 369.2 473.78 367.66 474.29C369.01 475.27 370.04 475.91 370.94 476.7C371.43 477.13 372.05 477.84 372.02 478.39C371.89 480.92 371.55 483.44 371.26 486.17C369.91 485.84 368.93 485.58 367.93 485.36C362.77 484.23 357.66 482.8 352.45 482.05C343.87 480.83 336.24 483.25 329.82 489.2C322.01 496.43 319.82 507.1 324.15 516.81C328.56 526.71 337.59 532.06 348.49 530.79C361.1 529.32 367.2 519.85 365.28 508.13C364.15 501.24 355.52 497.74 349.63 501.53C345.92 503.92 345.4 507.9 348.36 511.18C348.88 511.76 349.3 512.43 349.87 513.19C345.14 513.54 342.49 511.2 342.57 507.04C342.65 502.61 345.59 498.49 349.83 497.18C354.38 495.77 358.93 496 363.03 498.53C364.72 499.57 366.32 501.15 367.31 502.87C369.67 506.98 370.22 511.47 368.73 516.07C367.99 518.34 367.14 520.56 366.39 522.82C365.56 525.31 365.04 527.86 365.77 530.46C366.84 534.3 365.43 537.12 362.41 539.39C361.12 540.36 359.88 541.39 358.14 542.78C370.76 544.46 382.4 542.31 393.95 539.39C394.78 541.05 395.47 542.41 396.15 543.78C399.32 542.06 401.72 539.59 403.9 535.78C406.78 530.75 408.23 525.27 408.99 519.57C409.21 517.91 409.43 516.24 409.7 514.15C411.51 515.78 412.86 517 414.43 518.42C416.08 515.53 417.6 512.87 419.15 510.16C420.95 510.98 421.38 513.51 423.8 512.78C424.82 511.03 425.88 509.2 426.91 507.42C428.24 507.93 429.19 508.29 429.84 508.53C432.79 506.01 435.64 503.79 438.24 501.31C442.86 496.92 445.88 491.55 447.3 485.31C448.44 480.29 445.53 475.07 437.87 476.5C438.61 477.93 439.33 479.32 440.18 480.95H434.84C435.81 483.05 436.69 484.94 437.53 486.75C434.62 490.07 431.5 491.57 427.17 490.41C427.33 488.01 427.45 485.75 427.65 483.49C427.69 483.01 427.89 482.3 428.24 482.12C431.2 480.59 430.26 477.47 431.95 474.71C429.31 474.56 427.38 474.26 425.47 474.39C423.19 474.54 422.21 475.72 422.08 478.07C421.99 479.72 422.09 481.39 422.08 483.05C422.06 485.1 421.4 486.95 419.94 488.4C417.5 490.84 414.43 491.83 410.88 492.38C409.96 489.92 409.03 487.73 408.33 485.48C405.12 475.14 403.43 464.5 402.15 453.79C400.87 443.08 400.81 432.55 405.31 422.33C407.64 417.04 407.11 411.36 405.38 405.87C404.42 402.81 403.25 399.79 402.51 396.68C401.92 394.19 401.53 391.57 401.59 389.02C401.65 386.13 403.17 383.96 406.45 383.12L406.48 383.09ZM339.54 393.61C339.73 393 339.87 392.62 339.96 392.23C341.4 385.99 341.53 379.69 340.44 373.42C339.19 366.29 340.71 367.15 333.57 364.34C333.47 364.3 333.38 364.25 333.29 364.21C330.44 363.03 328.48 361.11 327.77 357.99C327.49 356.73 326.85 355.55 326.39 354.35C315.1 358.44 303.24 367.74 299.84 375.59C301.78 377.81 303.87 379.81 305.48 382.13C307.6 385.21 310.37 386.89 314.02 386.95C319.75 387.05 324.99 388.72 330.04 391.28C332.91 392.73 335.97 393.66 339.54 393.6V393.61ZM286.96 474.87C287.82 476.1 288.47 477.01 289.09 477.92C291.91 482.01 292.1 486.18 289.44 490.42C288.73 491.56 287.95 492.66 287.17 493.76C285.74 495.79 284.16 497.73 282.86 499.84C276.47 510.25 281.11 522.34 292.78 525.91C297.22 527.27 301.76 527.41 306.32 527.08C311.81 526.69 317.14 525.54 322.47 523.43C322.01 517.72 319.19 512.76 318.52 507.24C314.16 508.01 310.22 508.88 306.23 509.35C303.69 509.65 301.04 509.64 298.52 509.26C295.44 508.79 294.29 507.02 294.51 503.99C294.59 502.97 294.81 501.94 295.08 500.95C295.78 498.35 296.64 495.8 297.27 493.18C298.81 486.87 297.21 481.5 292.22 477.26C290.81 476.06 289.22 475.16 286.94 474.87H286.96ZM286.97 453.11C288.35 453.04 289.08 453.07 289.78 452.95C299.34 451.25 307.88 438.97 304.08 429.21C303.1 426.7 302.05 424.22 301.08 421.71C299.99 418.92 299.77 416.11 300.84 413.22C301.6 411.16 302.82 409.85 305.16 409.97C306.91 410.06 308.68 410.02 310.39 410.33C314.52 411.09 314.61 411.12 316.74 407.35C315.59 404.57 313.54 402.56 311.03 401C306.07 397.91 300.62 396.89 294.92 397.85C289.11 398.82 284.67 401.92 282.75 407.68C280.76 413.64 280.5 419.51 285.24 424.57C286.09 425.48 286.88 426.44 287.7 427.37C291.34 431.45 292.43 436.18 291.61 441.52C290.99 445.57 289.63 449.3 286.96 453.11H286.97ZM437.12 455.51C437.03 453.47 437.05 451.63 436.84 449.82C436.48 446.74 436.03 443.67 435.49 440.61C435.19 438.89 434.97 437.02 434.11 435.57C431.95 431.92 429.54 428.42 427.05 424.98C425.51 422.84 423.36 421.35 420.74 420.7C417.15 419.82 413.6 420.11 409.96 421C408.36 427.07 406.79 433.03 405.12 439.36C408.7 438.68 411.38 437.23 413.88 435.41C415.97 433.89 418 432.27 420.06 430.7C420.84 430.1 421.68 429.66 422.58 430.43C424.93 432.44 427.51 434.25 429.51 436.56C432.09 439.53 432.01 443.01 430.01 446.39C429.33 447.53 428.61 448.64 427.86 449.84C430 453.2 432.81 455.15 437.13 455.51H437.12ZM353.48 450.45C350.23 449.92 347.26 449.54 344.34 448.91C342.64 448.54 341.48 449.06 340.65 450.41C339.2 452.78 337.84 455.21 336.43 457.61C334.93 460.18 333.42 462.75 331.91 465.32C331.6 465.85 331.06 466.36 331.03 466.9C330.78 471.66 330.9 476.37 333.31 480.78C334.18 480.64 334.89 480.58 335.58 480.4C336.34 480.2 337.07 479.88 337.83 479.61C337.59 476.62 337.54 473.82 337.09 471.08C336.77 469.1 337.38 467.98 339.08 467.11C340.55 466.36 341.96 465.48 343.31 464.52C345.49 462.97 347.75 461.46 349.7 459.65C352.21 457.32 353.44 454.3 353.48 450.45Z" fill="#F2F2F2"/>
<path d="M561 602.88C560.58 600.28 560.2 598.05 559.87 595.82C558.78 588.37 558.74 580.93 560.43 573.56C563.15 561.62 569.93 552.55 580.14 545.95C585.67 542.38 591.66 539.8 597.96 537.98C599.7 537.48 600.52 536.71 600.89 534.92C601.66 531.28 602.5 527.67 602.06 523.75C599.07 523.48 596.33 523.93 593.72 524.86C591.11 525.79 588.6 527.01 585.88 528.18C584.12 523.89 583.7 519.61 584.08 515.24C584.22 513.6 584.54 511.95 584.96 510.35C585.43 508.58 585.88 508.37 587.66 508.97C588.93 509.4 590.13 510.03 591.37 510.56C595.32 512.26 599.05 512.95 602.34 512.55C603.02 506.57 600.13 501.32 598.64 495.39C605.25 493.19 611.73 493.14 618.63 495.49C616.33 501.05 613.74 506.41 614.66 512.82C620.62 513.09 625.68 510.46 631.09 508.01C633.7 514.71 633.49 521.2 631.22 528.15C625.82 526.49 621 523.2 614.79 523.62C615.12 526.59 615.38 529.43 615.75 532.26C616.41 537.35 616.44 537.35 621.24 538.96C622.71 539.45 624.18 539.99 625.68 540.38C641.57 544.54 655.28 562.68 657.61 576.42C658.92 584.16 658.36 591.71 656.31 599.19C655.38 602.58 654.09 605.88 653.16 609.27C652.34 612.25 651.58 615.28 651.18 618.34C650.77 621.46 649.76 624.12 647.43 626.29C645.46 628.13 643.51 630 641.67 631.97C639.32 634.49 636.48 635.49 633.24 634.56C630.38 633.74 628.27 634.53 626.27 636.54C625.11 637.7 623.7 638.63 622.31 639.54C618.44 642.08 614.53 642.06 610.67 639.48C610.33 639.25 610 638.99 609.65 638.76C609.31 638.54 608.94 638.34 608.42 638.04C607.12 639.2 605.78 640.33 604.52 641.53C602.31 643.65 599.64 644.48 596.64 644.74C589.64 645.36 583.79 643.12 579.02 637.99C576.69 635.48 574.37 632.97 572.1 630.41C566.08 623.6 558.95 618.39 550.34 615.35C541.45 612.21 532.54 609.13 523.62 606.08C512.57 602.3 501.99 597.64 492.78 590.29C491.67 589.4 490.68 589.36 489.35 589.7C485.04 590.82 480.71 591.89 476.35 592.74C474.15 593.17 471.85 593.09 469.18 593.27C469.52 590.09 469.76 587.25 470.15 584.43C470.96 578.68 470.24 573.06 469 567.46C468.31 564.37 466.99 561.61 465.02 559.12C463.68 557.43 462.54 555.59 461.3 553.79C463.17 551.85 464.83 550.15 466.46 548.42C472.49 542.03 475.57 534.47 475.63 525.64C475.66 520.36 475.97 515.07 476.21 509.79C476.28 508.36 476.55 506.93 476.79 504.97C477.61 505.89 478.16 506.41 478.6 507.01C481.65 511.07 484.57 515.24 487.73 519.21C496.22 529.88 507.5 535.3 520.95 536.52C522.07 536.62 523.19 536.79 524.22 536.92C526.29 541.97 522.34 544.69 520 548.22C524.13 550.27 528.29 549.3 532.65 549.47C533.17 554.41 532.45 558.94 528.83 562.62C527.46 564.02 525.85 565.19 524.33 566.44C523.47 567.15 522.57 567.83 521.75 568.47C526.47 580.57 549.37 600.72 561.02 602.88H561Z" fill="#F2F2F2"/>
<path d="M360.79 295.53C361.38 290.59 361.77 285.86 362.54 281.19C365.48 263.36 372.58 247.32 383.42 232.87C386.27 229.07 389.67 225.99 393.54 223.32C396.16 221.51 398.84 219.74 401.14 216.94C399.99 216.47 399.1 216.08 398.19 215.74C394.67 214.43 391.29 212.88 388.43 210.38C384.45 206.91 382.51 202.57 382.73 196.95C385.23 197.4 387.42 197.93 389.65 198.17C392.01 198.43 394.41 198.61 396.77 198.47C399.85 198.29 402.57 197.07 404.94 194.4C404.09 193.86 403.39 193.35 402.63 192.95C400.26 191.68 397.81 190.53 395.49 189.17C388.32 184.96 384.22 178.59 382.96 170.45C382.49 167.39 382.51 164.26 382.39 161.16C382.36 160.27 382.61 159.36 382.79 158.05C384.62 159.3 386.2 160.26 387.65 161.38C394.36 166.54 402.11 168.44 410.38 168.48C435.06 168.61 459.74 168.64 484.42 168.75C487.11 168.76 489.82 168.81 492.47 169.2C497.42 169.92 499.5 172.14 500.15 177.12C500.36 178.74 500.33 180.39 500.41 182.23C503.65 182.7 506.85 182.97 509.95 183.66C513.37 184.42 516.84 185.23 520.06 186.58C526.55 189.3 530.11 194.47 530.77 201.43C531.5 209.02 530.2 216.37 526.77 223.17C525.44 225.8 523.26 227.99 521.26 230.66C519.68 229.38 518.16 228.46 517.03 227.18C509.76 218.93 500.52 218.55 490.73 220.57C486.23 221.5 482.14 223.58 478.18 225.88C477.85 226.07 477.6 226.4 477.14 226.83C478.13 227.36 478.88 227.92 479.73 228.2C487.57 230.76 494.54 235.15 501.92 238.66C505.27 240.25 508.78 241.61 512.36 242.58C516.98 243.84 521.62 242.93 526.18 241.78C527.96 241.33 529.73 240.89 531.61 240.41C530.55 245.45 526.12 249.31 520.63 250.17C516.04 250.89 511.52 250.29 507.07 249.22C503.34 248.32 499.66 247.27 495.95 246.3C494.86 246.02 493.76 245.8 492.47 245.51C491.35 249.28 492.08 253.05 491.43 256.98C490.74 256.68 490.07 256.51 489.55 256.13C487.46 254.6 485.4 253.03 483.37 251.41C475.04 244.79 457.95 244.56 449.45 257.07C445.04 263.56 442.76 270.84 441.36 278.42C440.5 283.1 440.01 287.85 439.35 292.57C439.22 293.49 439.07 294.4 438.9 295.51H360.79V295.53ZM487.4 188.68C483.76 187.93 459.51 187.94 457.57 188.68C461.76 192.23 477.77 199.03 482.27 199.1C483.87 196.07 485.51 192.97 487.13 189.85C487.31 189.51 487.31 189.08 487.4 188.69V188.68Z" fill="#F2F2F2"/>
<path d="M338.67 158.06C339.08 166.63 338.13 174.34 334.15 181.43C331.9 185.43 328.52 188.28 324.34 190.19C321.72 191.39 319.15 192.68 316.29 194.07C318.61 197.14 321.51 198.42 324.74 198.46C328.13 198.5 331.53 197.96 334.92 197.61C336.04 197.5 337.15 197.21 338.63 196.93C338.84 201.95 337.28 206.03 333.91 209.43C331.16 212.21 327.74 213.94 324.14 215.34C322.91 215.82 321.67 216.28 320.15 216.86C320.95 217.73 321.51 218.45 322.19 219.05C323.28 220 324.37 221 325.59 221.76C335.63 227.9 341.88 237.3 347.21 247.34C353.66 259.51 357.98 272.46 359.58 286.22C359.93 289.2 360.13 292.2 360.4 295.15C358.13 295.88 287.7 296.15 282.11 295.46C281.67 291.66 281.28 287.78 280.77 283.91C279.89 277.21 278.44 270.65 275.78 264.4C273.89 259.97 271.4 255.93 267.86 252.61C261.94 247.05 255.07 245.25 247.19 247.44C242.01 248.88 237.5 251.58 233.18 254.68C232.09 255.46 231.02 256.25 229.73 257.18C228.86 255.1 229.32 253.16 229.23 251.28C229.15 249.44 229.21 247.59 229.21 245.41C227.1 245.92 225.39 246.29 223.71 246.75C217.91 248.31 212.18 250.25 206.11 250.41C203.85 250.47 201.52 250.35 199.33 249.85C194.41 248.73 191.28 245.48 189.28 240.46C190.48 240.67 191.34 240.8 192.2 240.98C194.73 241.51 197.24 242.22 199.8 242.58C205.45 243.37 210.98 242.84 216.2 240.35C218.82 239.1 221.44 237.84 223.98 236.46C229.44 233.49 234.87 230.45 240.81 228.5C241.94 228.13 242.98 227.5 244.55 226.76C240.29 224.1 236.3 222.24 232.04 220.95C227.4 219.54 222.65 219.37 217.87 219.83C213.5 220.25 209.71 221.99 206.54 225.09C204.63 226.96 202.56 228.67 200.22 230.75C198.1 227.94 195.69 225.64 194.39 222.83C191.18 215.89 189.53 208.53 190.42 200.79C191.1 194.88 194.18 190.59 199.35 187.75C203.5 185.47 208.03 184.4 212.63 183.58C215.36 183.09 218.11 182.69 221.07 182.21C221.07 180.72 221.01 179.39 221.07 178.06C221.33 172.75 223.63 170.07 228.84 169.17C230.67 168.86 232.55 168.72 234.4 168.72C249.44 168.71 264.47 168.69 279.51 168.79C287.08 168.84 294.65 169.31 302.21 169.19C307.27 169.11 312.36 168.63 317.35 167.78C323.84 166.66 329.81 163.96 335.31 160.3C336.25 159.68 337.19 159.06 338.69 158.07L338.67 158.06ZM238.95 199.51C246.13 198.16 260.87 191.58 263.82 188.34H233.77C235.54 192.16 237.21 195.77 238.95 199.51Z" fill="#F2F2F2"/>
<path d="M107.13 598.52C93.6404 574.63 80.4104 551.18 67.0604 527.55C63.1004 528.52 59.2404 528.93 55.3004 527.11C55.8904 522.24 58.8104 517.3 54.8704 512.31C54.1504 513.27 53.5604 514.06 52.9704 514.86C49.3604 519.68 44.1704 521.4 38.3704 519.7C30.1804 517.3 23.9804 508.98 24.3604 500.85C24.5104 497.65 25.6304 494.83 27.8504 492.04C33.1804 498.52 39.5504 500.54 47.2404 497.11C47.2004 491.9 43.6904 487.31 38.9204 486.46C38.1304 486.32 37.0304 486.99 36.3104 487.57C34.5104 489.01 33.8504 489.02 32.6104 487.26C31.0104 484.99 31.0204 482.82 32.9504 480.77C34.0704 479.58 35.4404 478.57 36.8204 477.69C38.5504 476.58 40.4104 475.67 42.2804 474.64C43.9504 476.08 43.8004 477.81 43.4404 479.77C45.9304 481.11 48.3404 482.41 51.1904 483.94C51.0504 481.31 50.9104 478.99 50.8104 476.67C50.7604 475.59 50.0704 475.14 49.2404 474.59C48.4004 474.03 47.8204 473.06 46.8304 471.93C50.0904 470.14 52.8004 468.4 55.7104 467.12C58.9104 465.72 61.6404 466.92 62.9604 469.86C63.6404 471.37 63.3204 472.5 61.7104 472.96C59.2304 473.66 58.6304 475.29 58.6104 477.63C58.5804 481.6 59.4604 485.03 63.1804 487.1C68.4304 484.72 70.7604 481.19 70.5204 475.65C70.4004 473 69.9204 470.37 69.6004 467.72C78.2704 467.35 87.3304 474.11 88.4404 484.16C88.7104 486.58 88.5604 489.19 87.9204 491.52C86.6204 496.25 83.4104 499.33 78.5404 500.51C76.8704 500.91 75.2004 501.33 73.1704 501.82C74.7604 504.55 76.6004 506.35 79.2804 507.24C80.6604 507.7 82.0704 508.07 83.4004 508.64C85.6204 509.58 85.9504 510.09 85.2804 512.46C84.8704 513.9 84.0504 515.27 83.2304 516.55C82.4504 517.75 81.4104 518.79 80.3904 520.01C80.8604 520.91 81.2504 521.74 81.7104 522.51C93.5304 542.26 105.37 561.99 117.16 581.75C118.13 583.38 119.15 584.44 121.22 584.51C123.27 584.58 125.31 585.15 127.36 585.41C131.54 585.95 135.01 587.87 138.01 590.75C138.16 590.89 138.34 591.01 138.46 591.18C146.56 602.05 165.09 601.23 174.61 594.96C183.65 589 191.24 581.61 197.43 572.77C198.3 571.52 198.94 570.11 199.73 568.69C197.46 566.8 195.32 565.17 193.36 563.34C189.12 559.39 187.93 555.45 189.05 549.37C192.97 549.31 197.03 550.13 201.33 548.36C200.46 547.16 199.76 545.96 198.85 544.96C196.79 542.69 196.19 540.14 196.98 536.99C199.49 536.64 202.05 536.37 204.57 535.9C218.6 533.28 229.65 525.98 237.91 514.41C239.53 512.13 240.98 509.73 242.54 507.4C243.04 506.66 243.64 505.99 244.42 504.99C245.58 509.85 245.44 514.39 245.68 518.89C245.83 521.79 245.83 524.69 245.88 527.6C246.01 534.87 248.82 541.09 253.43 546.57C255.43 548.94 257.58 551.18 259.92 553.75C259.03 555.26 258.3 557 257.15 558.39C251.12 565.67 250.33 574.16 251.22 583.07C251.54 586.26 251.88 589.45 252.24 592.9C251.35 592.98 250.57 593.12 249.79 593.12C243.83 593.1 238 592.29 232.51 589.83C231.44 589.35 230.56 589.38 229.6 589.98C228.46 590.69 227.19 591.24 226.14 592.06C217.44 598.79 207.33 602.39 196.98 605.59C189.76 607.82 182.6 610.27 175.58 613.06C171.67 614.61 168.07 616.99 164.4 619.12C162.04 620.49 160.62 622.49 160.51 625.42C160.33 630 158.37 633.8 154.89 636.8C153.87 637.68 152.8 638.5 151.59 639.48C152.75 641.64 153.57 643.39 154.6 645.03C157.95 650.39 161.52 655.62 164.72 661.07C167.23 665.35 169.41 669.83 171.5 674.33C172.31 676.08 172.69 678.1 172.9 680.03C173.29 683.58 171.75 686.28 168.61 687.99C164.56 690.19 159.34 689.29 156.57 685.61C154.59 682.97 152.93 680.07 151.31 677.18C148.37 671.94 145.59 666.61 142.71 661.33C142.22 660.42 141.53 659.62 141.03 658.72C139.92 656.72 138.32 655.99 135.98 655.86C132.91 655.69 129.78 655.19 126.83 654.3C121.2 652.6 119.45 649.57 120.19 643.78C120.23 643.48 120.19 643.16 120.19 642.63C119.56 642.34 118.85 641.99 118.12 641.68C117.45 641.4 116.75 641.19 116.08 640.91C108.86 637.93 107 634.36 108.72 626.75C108.83 626.26 108.91 625.76 109.06 624.99C107.28 624.13 105.54 623.27 103.79 622.45C97.9004 619.69 95.3604 615.15 96.0804 608.66C96.4104 605.63 97.9804 603.47 100.63 602.04C102.71 600.92 104.79 599.8 107.17 598.52H107.13Z" fill="#F2F2F2"/>
<path d="M337.62 34.98C339.6 43.71 342.93 51.59 347.65 58.87C350.26 62.89 353.22 66.62 357.24 69.37C360.32 71.47 360.82 71.47 363.85 69.33C367.36 66.84 370.13 63.61 372.57 60.1C377.83 52.53 381.55 44.26 383.67 35.05C387.27 34.39 390.82 34.92 394.31 35.87C404.56 38.64 411.27 45.41 414.53 55.25C420.18 72.32 416.69 87.96 405.99 102.13C403.81 105.02 401.24 107.61 398.84 110.34C396.73 112.74 394.05 113.96 390.89 113.98C387.16 114 383.43 113.85 379.69 113.86C363.72 113.91 347.75 113.94 331.78 114.1C327.86 114.14 324.7 112.92 322.18 109.94C319.96 107.33 317.57 104.87 315.47 102.17C304.37 87.87 301.08 72 307 54.79C311.43 41.9 322.61 34.52 335.86 34.8C336.37 34.81 336.87 34.9 337.62 34.98Z" fill="#F2F2F2"/>
<path d="M284.62 104.87C293.17 103.97 300.57 107.92 304.41 115.33C307.27 120.85 307.95 126.75 307.3 132.85C306.44 140.96 302.73 147.82 297.81 154.13C295.58 157 292.58 158.44 288.97 158.67C288.25 158.72 287.52 158.76 286.8 158.76C273.64 158.76 260.48 158.73 247.32 158.8C245.37 158.81 243.94 158.33 242.83 156.7C242.25 155.86 241.44 155.16 240.69 154.45C233.55 147.69 230.04 139.23 229.46 129.58C228.55 114.64 238.75 105.44 251.98 104.43C252.85 106.26 253.79 108.19 254.7 110.15C256.4 113.81 257.95 117.54 259.8 121.13C261.39 124.21 263.73 126.68 266.77 128.48C268.21 129.34 269.37 129.28 270.74 128.32C273.76 126.2 276.35 123.63 278.04 120.38C279.94 116.72 281.49 112.87 283.14 109.08C283.71 107.76 284.11 106.36 284.63 104.87H284.62Z" fill="#F2F2F2"/>
<path d="M436.7 104.93C437.39 106.86 438.11 108.9 438.85 110.92C440.33 115.02 441.94 119.1 444.7 122.52C446.37 124.59 448.46 126.33 450.42 128.16C451.84 129.49 453.29 129.31 454.91 128.28C457.7 126.51 459.92 124.2 461.41 121.32C463.17 117.93 464.67 114.4 466.29 110.93C467.29 108.78 468.28 106.63 469.22 104.6C478.96 104.06 489.08 111.49 490.97 120.98C493.05 131.37 491.62 141.21 484.48 149.62C482.4 152.07 480.22 154.43 478.25 156.97C477.17 158.36 475.93 158.79 474.26 158.79C465.97 158.76 457.68 158.82 449.39 158.82C444.31 158.82 439.23 158.71 434.16 158.76C428.82 158.81 424.96 156.5 421.92 152.13C416.56 144.41 413.26 136.14 413.91 126.57C414.19 122.48 415.15 118.59 417.1 114.98C420.99 107.8 428.66 103.83 436.71 104.93H436.7Z" fill="#F2F2F2"/>
<path d="M529.37 118.01C528.62 123.35 527.97 128.26 527.22 133.16C527 134.58 526.55 135.98 526.12 137.36C522.32 149.65 513.95 156.49 501.26 158.16C499.83 158.35 498.4 158.5 496.4 158.73C497.12 157.82 497.49 157.3 497.92 156.84C499.63 155.04 501.46 153.33 503.07 151.45C508.77 144.78 510.68 137.11 508.92 128.52C508.28 125.37 507.56 122.24 506.93 119.09C505.38 111.31 507.47 104.7 513.54 99.52C515.58 97.78 517.74 96.11 520.04 94.76C524.36 92.22 528.96 91.99 533.39 94.43C536.19 95.97 538.78 97.91 541.37 99.79C545.74 102.95 549.95 106.31 554.38 109.38C558.84 112.47 563.75 114.65 569.05 115.96C571.45 116.55 573.76 117.49 576.07 118.26C576.66 121.57 576.12 124.55 575.29 127.41C574 131.88 572.32 136.25 571.01 140.71C569.93 144.38 568.81 148.08 568.3 151.85C567.32 158.98 569.27 165.61 572.65 171.87C573.23 172.94 573.8 174.01 574.57 175.46C572.69 175.28 571.27 175.11 569.84 175.03C568.5 174.96 567.14 174.9 565.8 174.98C562.29 175.2 560.69 176.41 559.77 179.77C559.14 182.06 558.78 184.43 558.27 186.76C558.14 187.34 557.93 187.91 557.62 188.95C551.46 182.73 546.11 176.48 545.25 167.72C544.1 155.93 546.05 144.79 552.98 134.85C554.7 132.39 556.26 129.81 557.85 127.26C558.38 126.41 558.8 125.49 559.44 124.28C549.3 121.77 539.35 120 529.33 118.03L529.37 118.01Z" fill="#F2F2F2"/>
<path d="M146.79 175.46C147.48 174.12 147.92 173.2 148.41 172.32C153.54 163.26 154.7 153.79 151.33 143.86C150 139.94 148.57 136.04 147.28 132.1C145.87 127.76 144.7 123.36 145.15 118.43C146.75 117.85 148.34 117.07 150.02 116.69C159.03 114.64 166.69 109.98 173.93 104.49C176.24 102.74 178.45 100.84 180.8 99.13C183.06 97.49 185.35 95.85 187.79 94.5C192.56 91.87 197.46 92.04 201.92 95.11C204.88 97.15 207.66 99.57 210.1 102.21C214.39 106.86 215.65 112.52 214.48 118.71C213.76 122.47 212.92 126.22 212.17 129.98C210.75 137.12 212.41 143.59 216.71 149.36C218.5 151.76 220.62 153.91 222.67 156.11C223.28 156.77 224.14 157.2 224.89 157.74C224.75 158.01 224.62 158.28 224.48 158.55C223.83 158.55 223.17 158.65 222.54 158.53C219.38 157.96 216.16 157.58 213.1 156.67C205.59 154.45 200.35 149.58 197.28 142.36C194.94 136.87 193.85 131.08 193 125.22C192.68 122.99 192.36 120.77 191.98 118.14C181.88 120.13 172.06 122.06 161.9 124.06C162.36 125.11 162.59 125.87 163 126.52C165.36 130.3 167.86 134 170.14 137.83C176.08 147.81 177.39 158.66 175.61 169.94C175.2 172.54 174.07 175.11 172.83 177.47C170.61 181.72 167.38 185.23 163.75 188.91C163.45 187.94 163.2 187.32 163.06 186.69C162.64 184.77 162.3 182.83 161.85 180.91C160.8 176.39 159.1 175 154.5 174.95C152.95 174.93 151.4 175.1 149.85 175.2C149.03 175.25 148.21 175.34 146.8 175.46H146.79Z" fill="#F2F2F2"/>
<path d="M327.69 124.02H346.4C347.26 139.95 332.5 159.94 312.59 157.95C312.98 157.54 313.19 157.23 313.48 157.03C321.11 151.69 324.78 144.05 326.18 135.12C326.74 131.55 327.16 127.96 327.69 124.01V124.02Z" fill="#F2F2F2"/>
<path d="M393.6 124.19C394.19 128.27 394.63 132.06 395.3 135.81C396.68 143.56 399.65 150.5 405.96 155.63C406.82 156.32 407.67 157.02 408.66 157.83C391.99 160.2 374.94 143.84 374.76 124.19H393.61H393.6Z" fill="#F2F2F2"/>
<path d="M452.83 117.14C451.89 115.87 451.17 115.02 450.59 114.09C446.84 108.04 444.26 101.54 443.5 94.44C443.27 92.32 443.44 90.09 443.85 88C444.57 84.3 446.95 82.07 450.71 81.34C454.64 80.57 457.57 81.78 459.66 85.24C461.54 88.35 462.22 91.79 461.99 95.36C461.45 103.5 457.42 110.18 452.83 117.15V117.14Z" fill="#F2F2F2"/>
<path d="M268.8 116.72C268.39 116.47 268.16 116.41 268.05 116.25C263.77 110.32 260.44 103.94 259.39 96.61C258.87 92.95 259.53 89.38 261.19 86.07C263.11 82.25 266.21 80.58 269.98 81.19C274.36 81.89 277.1 84.28 277.59 88.53C277.92 91.36 277.89 94.34 277.39 97.14C276.33 103.19 273.97 108.82 270.71 114.05C270.13 114.98 269.42 115.84 268.78 116.71L268.8 116.72Z" fill="#F2F2F2"/>
<path d="M356.91 353.21C354.19 352.51 352.93 350.75 352.31 348.4C350.45 341.4 356.75 328.7 368.37 330.57C375.92 331.79 381.69 337.14 380.44 346.42C379.91 350.34 378.43 353.82 375.47 356.51C373.98 357.86 372.22 358.93 370.12 357.98C369.39 357.65 368.64 356.85 368.43 356.11C368.32 355.72 369.26 354.92 369.84 354.45C371.43 353.15 373.31 352.14 374.66 350.64C377.3 347.71 377.69 343.57 375.54 340.28C374.39 338.52 372.81 336.81 371.02 335.73C364.89 332.04 357.09 336.18 356.55 343.35C356.44 344.81 357.06 346.36 357.55 347.81C358.33 350.12 358.34 350.67 356.91 353.21Z" fill="#F2F2F2"/>
<path d="M373.69 495.32C374.72 494.82 375.7 494.34 376.77 493.82C376.19 492.73 375.68 491.79 375.14 490.78C379.15 490.08 381.8 491.42 383.33 494.87C384.54 497.61 385.59 500.42 386.79 503.16C387.32 504.38 388.04 505.51 388.66 506.67C385.5 508.62 380.16 508.52 377.7 506.51C377.34 506.22 377.06 505.69 376.97 505.23C376.82 504.42 376.78 503.58 376.8 502.76C376.874 499.667 375.837 497.187 373.69 495.32Z" fill="#F2F2F2"/>
</svg>
