<svg width="544" height="586" viewBox="0 0 544 586" fill="none" xmlns="http://www.w3.org/2000/svg">
<g clip-path="url(#clip0_1_577)">
<path d="M639.8 270.91C638.71 268.39 639.58 265.74 639.3 263.16C638.61 256.89 638.86 250.54 638.02 244.3C633.69 212.19 623.92 181.72 609.83 152.62C590.72 113.16 564.52 79.09 531.53 50.21C502.8 25.06 470.63 5.6 434.96 -7.93C407.47 -18.36 379.27 -25.87 349.61 -26.5C347.05 -26.78 344.41 -25.91 341.9 -27H337.9C335.9 -26.21 333.9 -26.21 331.9 -27H307.91C305.91 -26.21 303.91 -26.21 301.91 -27H296.91C294.69 -25.94 292.33 -26.75 290.04 -26.5C283.28 -25.69 276.43 -26.11 269.68 -25.1C238.15 -20.4 208.11 -10.85 179.45 3.04C140.12 22.1 106.19 48.24 77.3802 81.1C49.5802 112.81 28.9202 148.64 15.2102 188.48C6.89023 212.66 1.10023 237.36 0.490234 263.08C0.250234 265.35 1.00023 267.7 -0.00976562 269.91V315.9C1.05023 318.12 0.240234 320.48 0.490234 322.77C1.25023 329.04 0.920234 335.38 1.78023 341.64C6.04023 372.92 15.4202 402.67 28.9502 431.12C48.0802 471.37 74.5702 506.06 108.09 535.44C139.03 562.56 173.87 582.98 212.65 596.62C237.71 605.43 263.31 611.79 290.08 612.31C292.35 612.55 294.7 611.8 296.91 612.81H301.91C303.91 612.02 305.91 612.02 307.91 612.81H331.9C333.57 612.02 335.23 612.02 336.9 612.81H341.9C344.42 611.72 347.07 612.59 349.64 612.31C356.41 611.54 363.26 611.93 370.01 610.93C400.88 606.34 430.33 597.1 458.49 583.7C498.6 564.61 533.1 538.13 562.39 504.76C589.53 473.84 609.95 438.98 623.61 400.19C632.43 375.12 638.73 349.5 639.3 322.73C639.54 320.46 638.79 318.11 639.8 315.9V270.91ZM307.03 419.07C307.03 420.23 306.89 421.39 306.81 422.55C306.17 423.64 305.09 423.34 304.14 423.34C288.6 423.36 273.07 423.36 257.53 423.34C256.63 423.34 255.48 423.77 255.03 422.42C254.99 385.29 254.99 348.16 254.9 311.03C254.88 301.38 254.72 291.7 253.18 282.15C251.05 268.93 241.63 260.21 228.26 258.79C205.14 256.32 187.97 268.72 182.99 291.48C180.74 301.79 180.4 312.29 180.35 322.77C180.22 354.07 180.31 385.38 180.28 416.68C180.28 418.66 180 420.64 179.86 422.62C179.15 423.61 178.08 423.35 177.12 423.35C162.01 423.37 146.9 423.36 131.79 423.35C130.82 423.35 129.77 423.57 129.01 422.68C127.96 421 128.33 419.12 128.33 417.32C128.32 326.06 128.36 234.8 128.21 143.54C128.21 138.84 129.55 137.76 134.03 137.85C147.85 138.14 161.68 138.12 175.49 137.85C179.58 137.77 180.4 139.13 180.38 142.92C180.24 175.39 180.3 207.87 180.3 240.34V245.69C180.67 245.93 181.03 246.17 181.4 246.41C183.34 244.32 185.21 242.14 187.24 240.14C206.64 221.04 229.89 214.3 256.45 219.27C285.4 224.69 302.89 244.3 305.7 274.24C306.52 283.01 306.94 291.85 306.97 300.67C307.1 340.14 307.03 379.61 307.02 419.08L307.03 419.07ZM510.79 422.68C510.03 423.58 508.97 423.35 508.01 423.35C492.9 423.36 477.79 423.36 462.68 423.35C461.72 423.35 460.65 423.61 459.94 422.62C459.79 420.64 459.52 418.66 459.52 416.68C459.49 382.05 459.58 347.42 459.45 312.78C459.41 303.14 459.19 293.48 457.97 283.88C456.14 269.52 446.39 260.02 432 258.73C408.07 256.58 391.21 269.85 386.98 294.18C385.49 302.73 384.92 311.37 384.91 320.03C384.85 354.16 384.82 388.29 384.79 422.43C384.34 423.78 383.19 423.35 382.28 423.35C366.7 423.38 351.12 423.38 335.55 423.35C334.65 423.35 333.49 423.78 333.04 422.43C333 411.61 332.93 400.78 332.93 389.96C332.93 307.86 332.96 225.75 332.83 143.65C332.83 139.22 333.74 137.7 338.48 137.83C352.13 138.18 365.79 138.13 379.44 137.85C383.7 137.76 385.06 138.67 385.02 143.24C384.8 175.71 384.89 208.19 384.93 240.66C384.93 242.4 384.43 244.24 385.35 245.94C387.82 243.68 390.25 241.5 392.63 239.28C416.62 216.94 444.21 212.12 474.49 223.48C495.93 231.52 506.51 248.46 509.75 270.51C511.04 279.26 511.42 288.09 511.44 296.91C511.56 337.21 511.49 377.51 511.48 417.82C511.48 419.46 511.77 421.17 510.8 422.68H510.79Z" fill="#3E454A"/>
</g>
<defs>
<clipPath id="clip0_1_577">
<rect width="544" height="586" fill="white"/>
</clipPath>
</defs>
</svg>
