<svg width="90" height="90" viewBox="0 0 90 90" fill="none" xmlns="http://www.w3.org/2000/svg">
<g clip-path="url(#clip0_1_547)">
<path d="M7.41939 64.8417C5.19162 65.866 2.96117 66.8903 0.730712 67.9066C-0.0939934 68.2837 -0.00563207 68.6608 0.0238217 68.7838C0.112183 69.1556 0.527213 69.5648 0.829784 69.8376C0.974375 69.9686 1.20465 70.0542 1.44831 70.1451C1.58219 70.1959 1.71607 70.2441 1.84192 70.3029L8.23071 73.2341C20.031 78.6498 32.2302 84.2474 44.2259 89.7674C44.8391 90.0482 45.2648 90.0723 45.7414 89.845C47.0133 89.2459 48.3119 88.6495 49.5677 88.0745C50.6548 87.5744 51.7393 87.0769 52.8237 86.5715C53.7287 86.1489 53.6698 85.6729 53.4904 85.261C53.378 85.0016 53.2307 84.8411 53.0379 84.7662C52.7862 84.67 52.4381 84.7181 52.0231 84.9053L51.5036 85.1407C49.6909 85.9617 47.8139 86.8122 45.9904 87.6814C45.3478 87.9863 44.8016 87.9916 44.1643 87.6974C34.2464 83.1268 24.1572 78.4947 14.3973 74.0177L9.03667 71.5572C7.91743 71.0437 6.79819 70.5302 5.63343 69.998L3.17805 68.8721L4.32675 68.3212C4.54096 68.2168 4.715 68.1339 4.88905 68.0537L8.53596 66.3795C13.187 64.2453 17.9853 62.0416 22.7166 59.8566C21.9776 59.5169 21.2412 59.1746 20.5022 58.8296L7.41404 64.8417H7.41939Z" fill="black"/>
<path d="M62.1289 82.2978C66.2604 80.4043 70.3893 78.5081 74.5209 76.6119C79.3888 74.3761 84.2567 72.143 89.1246 69.9098C89.727 69.6343 89.9921 69.4525 90.0002 68.8721C90.0109 68.2543 89.719 68.0538 89.1005 67.7703C85.6785 66.2057 82.2565 64.6332 78.8372 63.0633L69.6422 58.8403L69.2808 59.0088C68.6649 59.2923 68.0517 59.5785 67.4359 59.862C71.3131 61.6485 75.1929 63.4323 79.0701 65.2135L83.0223 67.0294C83.7051 67.3424 84.3825 67.6606 85.1001 67.9976L86.9423 68.8588L83.8684 70.2762C82.2136 71.0384 80.6071 71.7792 79.0005 72.5174C73.1446 75.2052 67.2886 77.893 61.43 80.5754C60.79 80.867 60.4928 81.0622 60.5116 81.5837C60.5196 81.8404 60.5946 82.1855 60.8891 82.3673C61.1837 82.5492 61.6362 82.5224 62.1315 82.2978H62.1289Z" fill="black"/>
<path d="M35.5154 61.9345C38.3028 63.2129 41.1866 64.5341 44.0142 65.8526C44.772 66.2056 45.3557 66.2083 46.1001 65.8606C49.182 64.4244 52.3255 62.9802 55.3646 61.5815C57.7263 60.4957 60.0879 59.4098 62.4442 58.3187C62.5353 58.2759 62.629 58.2411 62.728 58.209C63.933 57.6554 65.1379 57.1018 66.3428 56.5509L66.9587 56.2674C66.9855 56.2513 67.0229 56.2326 67.0604 56.2166C69.6979 55.0024 72.338 53.7935 74.9781 52.582L81.0242 49.806C83.7098 48.5704 86.4892 47.2947 89.2257 46.0511C89.8282 45.7783 90.0237 45.4814 89.9969 44.877C89.9755 44.3715 89.7291 44.2378 89.1695 43.981C84.9683 42.0528 80.7698 40.1245 76.5686 38.1962L69.6363 35.0137C68.9 35.356 68.1609 35.6983 67.4246 36.038C71.3473 37.8459 75.2727 39.6485 79.1954 41.451L83.0458 43.2188C83.7072 43.521 84.3632 43.8313 85.0647 44.1576L86.8534 44.9947L86.1224 45.3691C85.9939 45.4359 85.8867 45.4921 85.7903 45.5402C85.6136 45.6338 85.4771 45.7034 85.3405 45.7676L82.454 47.0941C70.461 52.6034 58.0583 58.3026 45.851 63.8842C45.3932 64.0928 44.7452 64.0981 44.306 63.9002C31.6088 58.0994 18.7134 52.1755 6.2384 46.4495L4.81123 45.7943C4.64789 45.7194 4.49527 45.6338 4.31854 45.5322C4.23018 45.4814 4.13379 45.4279 4.02669 45.3691L3.36799 45.0107L4.03204 44.663C4.13914 44.6069 4.23286 44.556 4.31854 44.5106C4.48991 44.4196 4.62647 44.3448 4.76838 44.2806C5.62522 43.8848 6.48474 43.4916 7.34425 43.0958C9.11415 42.2828 10.943 41.443 12.737 40.6032C12.9672 40.4963 13.2618 40.309 13.3635 40.0256C13.4331 39.8277 13.409 39.5976 13.2859 39.3382C13.1172 38.9825 12.7959 38.5519 11.9551 38.9344C8.94011 40.3064 5.87959 41.7158 2.91815 43.0771L0.591305 44.1469C0.133433 44.3581 -0.0513229 44.6791 0.00490699 45.1631C0.0611369 45.6445 0.422615 45.8344 1.00634 46.1019C7.51294 49.0812 14.0142 52.0712 20.5181 55.0585C20.5958 55.0826 20.6975 55.1201 20.8073 55.1682C23.8277 56.5429 26.8908 57.9523 29.855 59.3162L33.3144 60.9075L33.285 60.9129C34.0267 61.2525 34.7684 61.5949 35.5101 61.9345H35.5154Z" fill="#0AB8B6"/>
<path d="M20.2901 37.1452L20.3624 37.1131C22.1912 36.284 24.0789 35.4282 25.9184 34.551C26.2478 34.3959 26.5503 34.3156 26.8502 34.3156C27.1501 34.3156 27.4313 34.3879 27.7419 34.5323C29.9241 35.5459 32.1118 36.5488 34.2994 37.5517C37.4322 38.9906 40.6721 40.4749 43.8451 41.9672C44.7126 42.3737 45.4141 42.363 46.3486 41.9271C49.5805 40.416 52.874 38.9023 56.063 37.4394C58.1676 36.4739 60.2696 35.5058 62.3715 34.535C62.4464 34.5002 62.5187 34.4708 62.591 34.444C64.2645 33.6738 65.9407 32.9062 67.6169 32.1413L71.6119 30.3067C77.4572 27.6215 83.2997 24.9391 89.1476 22.2593C89.7474 21.9838 89.9964 21.7779 89.9964 21.2083C89.9964 20.6466 89.7742 20.4434 89.1503 20.1599C81.5245 16.6644 73.3256 12.9015 64.0905 8.65179C59.7528 6.65666 55.4177 4.65619 51.0853 2.65839L45.3338 0H44.6323L40.8836 1.92827C39.992 2.38559 40.0696 2.85362 40.2624 3.25211C40.4606 3.65862 40.7819 4.02235 41.6762 3.61583L41.7779 3.57037C41.8904 3.51955 41.9975 3.47409 42.0725 3.41792C43.9575 2.0085 45.9309 1.97373 48.1051 3.3163C49.0503 3.89932 50.0919 4.34328 51.1951 4.81398C51.7039 5.03061 52.2313 5.25526 52.7642 5.50131L53.5568 5.86771L51.1041 6.99364C49.1548 7.88958 47.3126 8.7347 45.4409 9.5611C45.0634 9.72691 44.5707 9.57447 44.2253 9.41935C41.229 8.06876 38.1605 6.67004 35.1053 5.26061C34.5082 4.98514 34.0825 4.96642 33.5871 5.19642C22.3947 10.3394 11.2424 15.4422 0.861304 20.1893C0.232065 20.4781 0.00446765 20.7376 -0.000887575 21.1815C-0.0062428 21.6469 0.229387 21.9223 0.901469 22.2299C7.25545 25.1343 13.6068 28.0494 19.9581 30.9646L20.1642 31.0609C20.9595 31.4246 21.7494 31.7963 22.5446 32.1681L24.0495 32.8715L23.8245 33.2512C23.8004 33.294 23.7817 33.3261 23.771 33.3475C23.7362 33.4117 23.6799 33.5187 23.5434 33.5829C23.0132 33.8316 22.4804 34.0776 21.9475 34.3263C21.1416 34.7008 20.3383 35.0752 19.5323 35.4523C19.1307 35.6422 18.8709 35.8775 18.7772 36.1396C18.7049 36.3402 18.7317 36.5675 18.8522 36.8189C19.0182 37.1639 19.3502 37.5731 20.2874 37.1479L20.2901 37.1452ZM34.2646 35.364C34.1307 35.364 33.9968 35.3426 33.8709 35.2865C31.8011 34.3611 29.7662 33.4251 27.6107 32.4328L25.1125 31.2855L27.4527 30.2104C29.41 29.3118 31.2576 28.4613 33.1159 27.6215C33.405 27.4905 33.8094 27.4905 34.0985 27.6215C36.171 28.5549 38.2221 29.4963 40.3909 30.4912L42.7874 31.5904L41.3763 32.2617C40.9747 32.4542 40.6159 32.6254 40.2544 32.7912L39.435 33.171C37.9891 33.8396 36.4923 34.5296 35.0116 35.1902C34.8991 35.241 34.5885 35.364 34.2646 35.364ZM51.7895 25.1691L54.2958 26.3351L48.8013 28.8705C47.8026 29.3332 46.769 29.8119 45.7381 30.2612C45.532 30.3521 45.2615 30.4136 45.0018 30.4136C44.8304 30.4136 44.6644 30.3869 44.5198 30.3227C42.3777 29.3679 40.2142 28.3677 38.1203 27.4022L37.0225 26.8941C36.9074 26.8406 36.8324 26.763 36.7601 26.6908C36.7333 26.6614 36.7012 26.6293 36.661 26.5919L36.2192 26.1854L38.4791 25.145C40.5462 24.1929 42.5009 23.2943 44.4984 22.393C44.8144 22.2513 45.291 22.1791 45.6498 22.3422C47.6794 23.2595 49.6742 24.1876 51.7869 25.1718L51.7895 25.1691ZM47.4705 21.1173L48.1908 20.7402C48.3194 20.6734 48.4291 20.6119 48.5309 20.5584C48.7264 20.4514 48.895 20.3605 49.0718 20.2802L50.2419 19.74C51.9422 18.9537 53.7014 18.1407 55.4445 17.3678C55.814 17.2046 56.4004 17.0816 56.8395 17.2768C58.8183 18.1487 60.7622 19.0446 62.824 19.9941C63.4345 20.2749 64.053 20.561 64.6796 20.8472L65.4748 21.2109L63.0248 22.3342C60.9684 23.2783 59.0245 24.1688 57.0671 25.0487C56.9118 25.1183 56.7244 25.153 56.5343 25.153C56.3442 25.153 56.1514 25.1156 55.9934 25.0434C53.9691 24.1261 51.9743 23.2007 49.8617 22.2219L47.4705 21.1146V21.1173ZM40.8006 22.0213C39.9009 22.4385 39.0655 22.8236 38.2274 23.2087L37.4188 23.5805C36.3906 24.0565 35.3276 24.5459 34.2672 25.0033C34.0637 25.0915 33.8013 25.1504 33.5443 25.1504C33.3675 25.1504 33.1935 25.1209 33.0436 25.0541C30.9845 24.1341 28.904 23.1686 26.8931 22.2379L25.7176 21.6923C25.5944 21.6362 25.5248 21.5399 25.4739 21.473C25.4579 21.4489 25.4365 21.4195 25.407 21.3874L25.0723 20.9863L25.5489 20.767C26.1567 20.4862 26.7806 20.2187 27.3804 19.9566C28.7353 19.3682 30.1383 18.7611 31.4156 18.0203C33.1319 17.0254 34.7117 17.0415 36.5432 18.0711C37.7106 18.7264 38.945 19.2773 40.2544 19.8603C40.8515 20.1278 41.4647 20.4006 42.0939 20.6921L42.8758 21.0558L40.7979 22.0159L40.8006 22.0213ZM51.2005 37.6159C49.2458 38.5199 47.3983 39.3703 45.5186 40.2181C45.382 40.2796 45.2294 40.3037 45.0794 40.3037C44.8706 40.3037 44.6671 40.2556 44.5198 40.1887C42.6749 39.357 40.8435 38.5145 38.9049 37.6212L36.5378 36.5328L38.9531 35.4282C40.8836 34.543 42.7071 33.7085 44.5412 32.8875C44.8465 32.7511 45.2856 32.7591 45.6069 32.9035C47.4893 33.7487 49.3931 34.6259 51.2353 35.4737L52.3759 35.9979C52.4509 36.0326 52.5152 36.0728 52.5928 36.1236C52.633 36.1503 52.6785 36.1797 52.7401 36.2172L53.3747 36.6103L51.2031 37.6132L51.2005 37.6159ZM64.1682 31.5877C64.0718 31.6412 63.9888 31.692 63.9138 31.7375C63.7585 31.8284 63.6246 31.9087 63.48 31.9755L62.5589 32.4008C60.5694 33.3208 58.5104 34.2729 56.4754 35.1875C56.2719 35.2784 56.0041 35.3453 55.7417 35.3453C55.5703 35.3453 55.4016 35.3186 55.2517 35.2517C53.4282 34.4413 51.6342 33.6123 49.7331 32.7351L47.2885 31.6091L49.6715 30.5126C51.8699 29.5017 53.9477 28.5469 56.0496 27.5975C56.3308 27.4718 56.7351 27.4771 57.0323 27.6108C58.8933 28.4533 60.7221 29.2984 62.658 30.1917L64.8456 31.1999L64.1655 31.5851L64.1682 31.5877ZM73.9575 27.1696C71.7967 28.1644 69.7537 29.1059 67.6919 30.0392C67.558 30.1007 67.4 30.1302 67.2394 30.1302C67.0787 30.1302 66.9127 30.0981 66.7762 30.0366C64.8831 29.1727 63.0088 28.3062 61.0246 27.3862L58.7594 26.3378L61.0353 25.2948C63.2015 24.3026 65.2472 23.3665 67.317 22.4331C67.6009 22.3048 67.9757 22.3609 68.2194 22.4706C70.1044 23.3237 71.9841 24.1849 73.9709 25.0942L76.2228 26.1265L73.9575 27.1696ZM79.0503 17.571C80.8631 18.3894 82.6624 19.2185 84.5662 20.0984L86.9547 21.2002L84.7135 22.2299C82.6919 23.1606 80.7828 24.0378 78.8549 24.9097C78.7478 24.9578 78.6273 24.9792 78.5068 24.9792C78.306 24.9792 78.1025 24.923 77.9472 24.8535C75.623 23.8051 73.2908 22.7354 71.1032 21.7298C70.972 21.6683 70.8916 21.572 70.8301 21.4944C70.8113 21.4703 70.7899 21.4436 70.7631 21.4169L70.3802 21.0103L72.3724 20.093C74.2092 19.2452 76.1103 18.3707 77.982 17.5309C78.322 17.3785 78.7745 17.4453 79.0557 17.571H79.0503ZM66.2781 12.388C66.4495 12.3104 67.0493 12.0777 67.5071 12.281C69.5314 13.1823 71.5369 14.1076 73.6576 15.0865L76.2255 16.2686L73.7808 17.3918C71.8583 18.2771 70.0428 19.1115 68.2167 19.9245C68.0748 19.9887 67.9115 20.0155 67.7481 20.0155C67.5018 20.0155 67.2554 19.9566 67.0653 19.871C65.0839 18.9804 63.1399 18.0899 61.0809 17.1458L58.7005 16.0546L59.3351 15.6615C59.4207 15.608 59.4957 15.5598 59.5653 15.5144C59.7153 15.4154 59.8438 15.3298 59.9964 15.2603L60.4516 15.0517C62.3581 14.1718 64.3288 13.2625 66.2808 12.3933L66.2781 12.388ZM49.1574 9.93017C49.9768 9.54772 50.7506 9.18668 51.5245 8.8283C51.7815 8.71063 52.0439 8.60098 52.3036 8.48865C52.8392 8.264 53.3452 8.05272 53.8031 7.76655C55.083 6.97225 56.2906 6.96155 57.7258 7.73446C58.9147 8.37632 60.1812 8.93795 61.4075 9.48086C61.9645 9.72959 62.5241 9.97563 63.0757 10.2324C63.2524 10.3126 63.4238 10.4035 63.6273 10.5078C63.7264 10.5587 63.8335 10.6148 63.9513 10.6737L64.6903 11.0481L62.3661 12.1205C60.457 13.0004 58.6549 13.8322 56.8208 14.6612C56.6628 14.7334 56.4432 14.7843 56.2183 14.7843C56.0577 14.7843 55.897 14.7575 55.7524 14.6933C53.7576 13.8001 51.7895 12.8961 49.7064 11.9413L47.251 10.8154L49.1494 9.93017H49.1574ZM44.5145 12.059C44.7956 11.9333 45.208 11.9413 45.5159 12.0777C48.0141 13.2037 50.5793 14.3858 52.8445 15.4288C52.9864 15.493 53.0641 15.6 53.1257 15.6855C53.1444 15.7096 53.1632 15.739 53.1899 15.7685L53.5327 16.1723L51.5593 17.0816C49.618 17.9775 47.6098 18.9029 45.6364 19.7962C45.4864 19.863 45.307 19.8978 45.1303 19.8978C44.9536 19.8978 44.7795 19.8657 44.635 19.7988C42.284 18.7237 39.9036 17.6111 37.6035 16.536L37.2501 16.3702C37.0948 16.298 37.0305 16.1669 36.9904 16.0894C36.9797 16.0707 36.9689 16.0466 36.9556 16.0225L36.7226 15.6374L38.6103 14.7682C40.5436 13.875 42.5464 12.9523 44.5171 12.059H44.5145ZM27.8811 9.85796C29.9295 8.91656 31.8654 8.02865 33.812 7.15411C34.0878 7.02841 34.4948 7.03911 34.7974 7.1755C36.9582 8.149 39.1485 9.15726 41.2665 10.1334L41.6494 10.3099C41.7913 10.3768 41.8609 10.4918 41.9038 10.5667C41.9172 10.5908 41.9332 10.6202 41.9573 10.6523L42.2305 11.0454L40.324 11.9226C38.3854 12.8159 36.3825 13.7412 34.4065 14.6318C34.2726 14.6933 34.1226 14.7174 33.9727 14.7174C33.7638 14.7174 33.5577 14.6693 33.4077 14.5997C31.5789 13.768 29.7581 12.9255 27.8302 12.0323L25.4954 10.9518L27.8838 9.85796H27.8811ZM16.4531 15.0918C18.6139 14.0996 20.6542 13.1609 22.7214 12.2329C23.0935 12.067 23.5809 12.1339 23.8727 12.2649C25.6453 13.0673 27.3858 13.875 29.2306 14.7334L31.5441 15.8086L30.864 16.1937C30.7649 16.2499 30.6739 16.3033 30.5935 16.3515C30.4222 16.4531 30.2749 16.5387 30.1116 16.6163L28.7058 17.2661C26.8984 18.1032 25.0295 18.9698 23.1712 19.7801C22.9463 19.8791 22.6651 19.9272 22.3813 19.9272C22.0975 19.9272 21.7922 19.8737 21.5486 19.7694C20.0223 19.1168 18.4934 18.4081 17.0154 17.7235C16.5869 17.5256 16.1585 17.3277 15.7301 17.1297C15.5346 17.0388 15.3499 16.9425 15.1169 16.8195C14.9964 16.7553 14.8626 16.6858 14.7073 16.6056L13.9763 16.2285L16.4504 15.0918H16.4531ZM11.6815 24.9016C10.822 24.9016 10 24.4577 9.20743 24.0298C8.89415 23.8613 8.59693 23.7008 8.29972 23.5671C7.309 23.1231 6.32632 22.6685 5.29811 22.1924C4.85095 21.9865 4.39576 21.7752 3.92717 21.5613L3.1346 21.1976L5.51768 20.1037C7.44288 19.2185 9.26098 18.3841 11.1032 17.5577C11.4191 17.4159 11.8609 17.4159 12.1796 17.5577C14.0218 18.3867 15.8372 19.2238 17.7597 20.1117L20.108 21.1922L17.9579 22.1924C16.9779 22.6498 16.0407 23.0857 15.1035 23.5136C14.7983 23.6527 14.4957 23.8212 14.1744 24.0004C13.3872 24.439 12.5705 24.8936 11.7083 24.9016C11.7003 24.9016 11.6923 24.9016 11.6842 24.9016H11.6815ZM23.3104 30.0392C23.1873 30.0954 23.0507 30.1168 22.9088 30.1168C22.6973 30.1168 22.483 30.0633 22.3197 29.9911C20.3222 29.0898 18.3515 28.1858 16.2629 27.2284L13.8906 26.1426L15.3285 25.4686C15.7408 25.2761 16.1184 25.0996 16.4959 24.9257L17.5777 24.4256C18.9111 23.8105 20.2901 23.1713 21.6557 22.5642C21.9984 22.4117 22.4991 22.3074 22.8713 22.4733C24.8313 23.3451 26.7699 24.2384 28.821 25.1825L31.3567 26.3485L29.0646 27.4049C27.0778 28.3196 25.2008 29.1861 23.3104 30.0392Z" fill="black"/>
</g>
<defs>
<clipPath id="clip0_1_547">
<rect width="90" height="90" fill="white"/>
</clipPath>
</defs>
</svg>
