<svg width="91" height="90" viewBox="0 0 91 90" fill="none" xmlns="http://www.w3.org/2000/svg">
<g clip-path="url(#clip0_1_515)">
<path d="M71.1578 52.5817C72.2596 52.0925 73.3762 51.6774 74.6188 51.2253C75.2709 50.9881 75.5476 50.5903 75.5476 49.8936C75.5427 47.2722 75.5452 44.6508 75.5476 42.0294C75.5476 41.382 75.2734 40.9892 74.6583 40.7569C74.4063 40.6631 74.1544 40.5692 73.9024 40.4728C72.9834 40.1294 72.0323 39.7761 71.1158 39.3783C70.7255 39.2103 70.3401 38.815 70.1598 38.3974C69.4039 36.6655 68.6529 34.852 67.8649 32.8532C67.729 32.5122 67.6672 31.9835 67.8327 31.5709C68.3145 30.3603 68.8728 29.1521 69.3644 28.0872C69.6657 27.4325 69.5719 26.9334 69.0482 26.4146C67.2745 24.6653 65.4464 22.837 63.6183 20.984C63.0872 20.4454 62.6055 20.349 61.9558 20.6554C61.0171 21.0976 59.772 21.6708 58.4726 22.1897C58.1045 22.3379 57.5882 22.328 57.1905 22.1674C55.2982 21.4114 53.4356 20.6307 51.6569 19.8499C51.3259 19.7042 50.8664 19.3731 50.6663 18.9185C50.1772 17.8042 49.7449 16.6479 49.3299 15.5287L49.2731 15.378C49.0334 14.7356 48.6332 14.4688 47.9341 14.4688C45.3551 14.486 42.7415 14.486 40.1624 14.4688C40.1575 14.4688 40.1501 14.4688 40.1451 14.4688C39.4534 14.4688 39.0582 14.7405 38.821 15.3755L38.6555 15.8202C38.2776 16.8431 37.8848 17.9005 37.4401 18.9209C37.2425 19.3731 36.7805 19.7042 36.4421 19.8499C34.5177 20.69 32.7316 21.4312 30.9826 22.1156C30.5306 22.291 29.955 22.3058 29.5474 22.1477C28.3641 21.6906 27.1857 21.1396 26.1432 20.6529C25.4985 20.3515 24.9995 20.4478 24.4758 20.9766C22.7416 22.7332 20.9135 24.5615 19.046 26.4071C18.5173 26.9285 18.421 27.4275 18.7248 28.0749C19.2041 29.0977 19.7624 30.3084 20.2614 31.5561C20.4071 31.9193 20.3972 32.4356 20.2367 32.8384C19.4807 34.7359 18.7026 36.5988 17.9219 38.3777C17.7737 38.7162 17.4427 39.1782 16.9906 39.3758C15.8172 39.8897 14.587 40.3394 13.5272 40.7199C12.8232 40.9719 12.5391 41.3721 12.544 42.0961C12.5638 44.5865 12.5638 47.1313 12.544 49.8713C12.5391 50.5705 12.8108 50.9708 13.4506 51.2105L13.6137 51.2722C14.7278 51.6873 15.8814 52.1172 16.9906 52.6064C17.4452 52.8065 17.7762 53.2661 17.9219 53.5971C18.7643 55.5268 19.5079 57.3131 20.1897 59.0574C20.3626 59.4996 20.3725 60.0778 20.2144 60.4929C19.834 61.4861 19.3696 62.5435 18.7545 63.8184C18.4185 64.5151 18.5049 65.0216 19.0534 65.5602C20.7727 67.2502 22.5489 69.0291 24.4832 70.9933C24.997 71.5146 25.496 71.6085 26.1556 71.3046L26.5706 71.1144C27.539 70.6696 28.5419 70.2076 29.5597 69.8173C30.0242 69.6394 30.6195 69.711 31.0024 69.8593C32.9392 70.6153 34.698 71.3441 36.3779 72.0878C36.8349 72.2904 37.2746 72.7178 37.4722 73.1527C37.9663 74.2447 38.3789 75.3763 38.7914 76.5326C39.036 77.217 39.4535 77.511 40.1847 77.511H40.2662C41.5656 77.511 42.8872 77.5085 44.2138 77.5085C45.4317 77.5085 46.652 77.5085 47.865 77.5135H47.8749C48.6332 77.5135 49.0631 77.2046 49.3175 76.4807C49.7128 75.3541 50.108 74.2522 50.6046 73.1799C50.8096 72.7351 51.279 72.2904 51.7706 72.0755C52.2004 71.8877 52.655 71.7469 53.0947 71.611C53.7839 71.3985 54.4336 71.1984 54.9573 70.8352C56.8817 69.4961 58.8086 69.5084 61.0245 70.8772C61.358 71.0822 61.7508 71.228 62.1683 71.3812C62.3264 71.4405 62.4894 71.4998 62.6549 71.564C62.7364 71.5196 62.818 71.4751 62.9019 71.4306C63.1613 71.2947 63.4059 71.1638 63.5763 70.9958C64.6855 69.9111 65.8021 68.7919 66.8792 67.7122C67.6104 66.9784 68.3441 66.2471 69.0778 65.5158C69.5817 65.0167 69.6608 64.5127 69.3446 63.8332C68.8357 62.7362 68.3071 61.6022 67.85 60.4311C67.6771 59.9913 67.7438 59.4329 67.8846 59.0722C68.6554 57.1105 69.3965 55.3242 70.1499 53.612C70.3426 53.1747 70.7477 52.7571 71.1578 52.5743V52.5817ZM69.3199 50.9239C68.8456 51.1734 68.4034 51.6527 68.2922 52.0431C67.5437 54.6768 66.6099 56.898 65.434 58.835C65.1154 59.3588 65.0981 59.8282 65.3748 60.4039C65.6218 60.9178 65.8515 61.4465 66.0739 61.958C66.2863 62.4472 66.5062 62.9512 66.7359 63.4355C66.9484 63.8802 67.0842 64.4138 66.479 64.9895C65.9429 65.501 65.4118 66.0346 64.898 66.5535C64.2804 67.1761 63.6406 67.8185 62.9859 68.4312C62.6722 68.7252 62.025 68.8438 61.6001 68.6857C60.4884 68.2731 59.4237 67.7839 58.438 67.3169C57.939 67.0797 57.4993 67.1044 56.82 67.4034C54.651 68.362 52.4153 69.2861 50.1772 70.1533C49.4559 70.4325 49.115 70.7462 48.9173 71.3071C48.485 72.5523 48.0848 73.5727 47.6599 74.5165C47.487 74.8995 46.9584 75.2577 46.5507 75.2701C45.6762 75.2948 44.8388 75.3096 44.0236 75.3096C43.2084 75.3096 42.3462 75.2948 41.5359 75.2676C41.0715 75.2503 40.5577 74.8155 40.3848 74.435C40.1773 73.973 40.0019 73.4936 39.8314 73.0316C39.6066 72.4189 39.3966 71.8408 39.1125 71.2923C38.8606 70.8055 38.3863 70.3559 38.0108 70.2496C35.4169 69.5109 33.1936 68.5819 31.2149 67.4059C31.037 67.2996 30.8295 67.2255 30.5874 67.139C30.5083 67.1118 30.4268 67.0822 30.3453 67.0501C30.1526 67.1316 29.9575 67.2131 29.7648 67.2947C29.2509 67.5096 28.7198 67.7345 28.2035 67.9618C25.79 69.034 25.6245 69.0019 23.7594 67.139C23.5543 66.934 23.3518 66.7239 23.1467 66.5164C22.6724 66.0297 22.1808 65.5257 21.6719 65.071C20.9753 64.4484 21.1309 63.8579 21.373 63.3613L21.4175 63.2699C21.8918 62.3014 22.3834 61.3008 22.7194 60.2804C22.8602 59.8529 22.833 59.2501 22.6576 58.9363C21.4175 56.7374 20.4689 54.4569 19.7624 51.9665C19.6611 51.6132 19.2312 51.1561 18.7816 50.9263C17.9195 50.4865 16.9709 50.153 16.0519 49.8318L15.6542 49.691C15.0144 49.4661 14.7377 49.0659 14.7525 48.3988C14.7871 46.8818 14.7871 45.2857 14.7525 43.5118C14.7401 42.8793 15.002 42.5013 15.5998 42.2863C15.7851 42.2196 15.9679 42.1554 16.1532 42.0886C17.0474 41.7724 17.9738 41.4463 18.8162 41.0164C19.1966 40.8237 19.5944 40.3765 19.8019 39.907C20.2959 38.7903 20.7703 37.6389 21.2273 36.5246C21.6744 35.4351 22.1364 34.3084 22.623 33.209C22.8824 32.6234 22.9886 32.1466 22.7243 31.5882C22.203 30.4838 21.7386 29.4856 21.3409 28.4331C21.1828 28.0156 21.2989 27.3559 21.5855 27.0495C22.2105 26.3824 22.8676 25.7277 23.5024 25.0952C24.0286 24.5714 24.5696 24.0303 25.0884 23.4868C25.622 22.9284 26.1284 23.0569 26.5533 23.2545C27.0276 23.4769 27.5168 23.6943 27.9911 23.9019C28.5148 24.1341 29.0558 24.3713 29.582 24.6233C30.1156 24.8778 30.5948 24.8555 31.2865 24.5442C33.4678 23.5683 35.7035 22.6393 37.9317 21.7845C38.6259 21.5176 38.9544 21.2261 39.1447 20.7048C39.3176 20.2304 39.5004 19.761 39.6832 19.2915C39.908 18.7109 40.1427 18.1106 40.3527 17.5151C40.5602 16.9221 40.9406 16.6652 41.5829 16.6751C43.3986 16.7072 44.9944 16.7072 46.4668 16.6751C47.1337 16.6578 47.5216 16.932 47.7489 17.5818C47.9243 18.0858 48.1244 18.5948 48.3195 19.0865C48.5147 19.5806 48.7172 20.0896 48.8951 20.601C49.1026 21.1965 49.4583 21.5226 50.2093 21.8067C51.3778 22.249 52.5487 22.7431 53.6777 23.22C54.7152 23.6573 55.7874 24.1094 56.8521 24.5195C57.3536 24.7122 57.9835 24.7518 58.4207 24.6134C59.3224 24.3293 60.2093 23.8969 61.0665 23.4769L61.4963 23.2669C62.1188 22.9655 62.5808 23.0445 63.0428 23.5288C63.5615 24.0748 64.105 24.6159 64.6312 25.1397C65.2438 25.7499 65.8787 26.38 66.479 27.0273C66.7754 27.3435 66.8965 27.9933 66.7384 28.4134C66.3184 29.5425 65.8071 30.6444 65.3649 31.5758C65.0931 32.1441 65.1178 32.6135 65.439 33.1472C66.6223 35.0991 67.5561 37.3227 68.2922 39.9416C68.3985 40.3221 68.8456 40.7989 69.3298 41.0534C70.1228 41.4685 71.0071 41.7749 71.8619 42.0689C72.0299 42.1282 72.2003 42.185 72.3683 42.2443C72.8302 42.4074 73.3589 42.7063 73.3391 43.5908C73.2971 45.308 73.3144 46.9782 73.3342 48.3864C73.3441 49.0708 73.0674 49.4711 72.435 49.686L72.3634 49.7107C71.3357 50.0591 70.271 50.4198 69.3174 50.9189L69.3199 50.9239Z" fill="black"/>
<path d="M33.3692 10.4016C35.0515 8.22494 36.5658 6.19156 38.0011 4.18783C38.2136 3.88887 38.2827 3.56027 38.1913 3.26132C38.1024 2.96483 37.8702 2.73259 37.5342 2.60658C35.3875 1.79125 33.0604 0.95863 30.4221 0.0642381C30.2936 0.0222363 30.1652 0 30.0392 0C29.8712 0 29.7082 0.0370604 29.5599 0.113652C29.3055 0.242128 29.1202 0.466961 29.0338 0.743679C28.8435 1.36135 29.1103 1.87279 29.7675 2.14703C30.1751 2.31751 30.5975 2.47069 31.0866 2.64858C31.3287 2.73506 31.5856 2.82895 31.8672 2.93519L32.9097 3.32308L31.8425 3.63686C28.1173 4.73632 24.7601 6.1965 21.5733 8.09647C5.01216 17.9817 -3.19432 37.2284 1.15101 55.9909C1.49686 57.4881 1.99093 58.9854 2.47017 60.4357C2.57146 60.7396 2.67027 61.0435 2.76908 61.3474C3.01612 62.1034 3.56206 62.427 4.22906 62.2121C4.84417 62.0144 5.08627 61.3943 4.84911 60.6358C4.79971 60.4752 4.74289 60.3171 4.68607 60.1589L4.6416 60.0379C2.13668 52.9396 1.51168 45.9549 2.78391 39.2791C6.00276 22.3796 16.0151 11.1033 32.5441 5.7666C32.7022 5.71472 32.8579 5.68754 33.0555 5.65295C33.1568 5.63565 33.2704 5.61589 33.4063 5.58871L34.3425 5.40341L33.7768 6.1718C33.5323 6.50534 33.2951 6.81912 33.0678 7.12548C32.5688 7.79257 32.097 8.4226 31.6647 9.06498C31.3164 9.58135 31.4102 10.1595 31.9018 10.54C32.3119 10.8562 32.9468 10.9476 33.3692 10.3992V10.4016Z" fill="#0AB8B6"/>
<path d="M90.7213 55.6226C90.2915 55.1112 89.6986 55.084 89.0933 55.5485C88.7623 55.803 88.4387 56.0797 88.0632 56.3984C87.873 56.559 87.6704 56.7319 87.4456 56.9197L86.6477 57.5868L86.9367 56.0772C86.9837 55.8277 87.0183 55.6424 87.0578 55.4571C88.4214 49.0777 88.4733 42.9875 87.2159 37.3592C83.6685 21.4825 74.1947 10.4632 59.054 4.61264C57.2482 3.91343 55.2941 3.46871 53.4043 3.03881C52.7027 2.87821 51.9764 2.71268 51.2675 2.53726C50.9438 2.45572 50.6276 2.50267 50.3757 2.66573C50.1311 2.82386 49.9681 3.07834 49.9137 3.37976C49.7951 4.05179 50.136 4.52123 50.8747 4.70406C51.1019 4.76088 51.302 4.80536 51.4848 4.83995C62.5223 6.9178 71.3983 12.504 77.8656 21.4405C85.4027 31.8545 87.6358 43.7312 84.5084 56.7418L84.4516 56.9815L83.6759 57.1075L83.5622 56.8431C83.4288 56.5368 83.2979 56.2279 83.1695 55.9216C82.8755 55.2322 82.5741 54.5207 82.2505 53.8338C82.0257 53.357 81.6527 53.0976 81.2327 53.0976C81.0746 53.0976 80.9116 53.1346 80.746 53.2087C80.1853 53.4632 79.9728 54.0661 80.2273 54.6739C81.0178 56.5639 82.0677 59.0495 83.1769 61.535C83.3523 61.9303 83.6289 62.1897 83.955 62.2663C84.2762 62.3429 84.6344 62.2342 84.9629 61.9624C86.6082 60.606 88.372 59.1038 90.5163 57.2384C91.0795 56.7468 91.1561 56.1464 90.7213 55.6275V55.6226Z" fill="#0AB8B6"/>
<path d="M48.4087 89.7828C59.8687 88.7129 69.6907 83.5739 77.6057 74.5064C78.1492 73.8838 78.4086 73.3773 78.3765 72.9993C78.3567 72.7671 78.2184 72.5497 77.9565 72.3372C77.5242 71.9888 77.0425 71.7837 75.916 73.0685C67.7441 82.3929 57.5021 87.3664 45.4715 87.8507C35.6272 88.246 26.5709 85.3207 18.5497 79.1563C17.6653 78.4744 16.8131 77.7307 15.9904 77.0093C15.6051 76.6732 15.2222 76.3348 14.8319 76.0037L14.5972 75.8036L14.9998 75.1068L15.2543 75.1513C15.4939 75.1933 15.736 75.2353 15.9756 75.2798C16.5018 75.3737 17.0428 75.47 17.5789 75.554C18.2508 75.6578 19.0833 75.601 19.2315 74.7362C19.3847 73.8344 18.6337 73.4984 17.9766 73.3749C16.0226 73.0067 13.8882 72.6188 11.2597 72.1519C10.8842 72.0852 10.3704 72.0679 10.0517 72.3668C9.74789 72.6485 9.72566 73.1229 9.76024 73.4712C9.97269 75.5936 10.237 77.8938 10.5878 80.7153C10.6767 81.4269 11.1782 81.8815 11.8057 81.8222C12.4579 81.7579 12.821 81.2687 12.7741 80.5127C12.7395 79.942 12.6777 79.3737 12.6036 78.714C12.569 78.4003 12.532 78.0667 12.4949 77.7085L12.3986 76.7647L13.4386 77.6838C13.5893 77.8172 13.6881 77.9037 13.7869 77.9926C23.6016 87.0452 35.2492 91.0107 48.4063 89.7828H48.4087Z" fill="#0AB8B6"/>
<path d="M44.0732 26.9678C44.0559 26.9678 44.0411 26.9678 44.0238 26.9678C33.5595 26.995 25.0343 35.5139 25.0244 45.9575C25.0145 56.4185 33.5125 64.9597 43.9695 64.9967C43.9917 64.9967 44.0139 64.9967 44.0362 64.9967C49.0856 64.9967 53.8434 63.0276 57.4403 59.4475C61.0519 55.8527 63.0455 51.0818 63.0529 46.0119C63.0603 40.9371 61.0741 36.1513 57.4575 32.5392C53.8607 28.9468 49.1078 26.9678 44.0708 26.9678H44.0732ZM44.1053 62.778H44.0708C39.5846 62.778 35.3603 61.0288 32.1761 57.8465C28.9943 54.6692 27.2403 50.4542 27.2428 45.9773C27.2453 36.7567 34.7749 29.2235 44.0214 29.1865C48.4704 29.1741 52.675 30.9061 55.8642 34.076C59.0633 37.2557 60.8271 41.4683 60.837 45.9378C60.8543 55.2029 53.3469 62.7558 44.1053 62.7756V62.778Z" fill="black"/>
<path d="M31.8823 45.132C31.5834 45.3914 31.4253 45.6879 31.4229 45.9894C31.4229 46.2834 31.5735 46.5724 31.8626 46.822C33.5869 48.3192 35.489 49.9276 37.8507 51.8795C38.3373 52.2822 38.9302 52.2624 39.3601 51.8276C39.5824 51.6028 39.6936 51.3384 39.6812 51.0617C39.6664 50.7133 39.4589 50.3501 39.0957 50.0413C38.078 49.1716 37.0626 48.3192 35.988 47.4174C35.5409 47.0419 35.0864 46.6614 34.6244 46.2735L34.2885 45.9918L34.6219 45.7077C35.0938 45.3074 35.5607 44.9146 36.0202 44.5267C37.1466 43.578 38.2089 42.6811 39.2687 41.7521C39.7603 41.3197 39.822 40.6848 39.4169 40.203C39.1945 39.9386 38.903 39.8027 38.6017 39.8027C38.3546 39.8027 38.1002 39.8941 37.8729 40.0819C35.704 41.8658 33.7425 43.5187 31.8799 45.132H31.8823Z" fill="#0AB8B6"/>
<path d="M50.3557 51.7785C52.0652 50.3579 54.081 48.6778 56.0671 46.9681C56.455 46.6345 56.6501 46.3034 56.6501 45.9872C56.6501 45.6586 56.4401 45.3127 56.0251 44.9569C54.3626 43.5387 52.5419 42.002 50.452 40.2651C50.1803 40.0402 49.9407 39.9019 49.7356 39.8549C49.6393 39.8327 49.5355 39.8179 49.4268 39.8179C49.1057 39.8179 48.7599 39.9488 48.5375 40.4158C48.2781 40.9618 48.3992 41.4362 48.9105 41.8661C49.958 42.7456 51.0054 43.6302 52.0899 44.5468L53.7944 45.9847L53.4609 46.2689C52.9965 46.6617 52.542 47.0447 52.0899 47.4251C51.0029 48.3418 49.9753 49.209 48.9451 50.096C48.3597 50.6 48.246 51.272 48.6635 51.7686C49.0958 52.2825 49.7455 52.2875 50.3532 51.781L50.3557 51.7785Z" fill="#0AB8B6"/>
<path d="M46.0175 37.9943C45.9656 37.9868 45.9162 37.9844 45.8668 37.9844C45.3406 37.9844 44.9429 38.3476 44.765 39.0023C44.3302 40.5959 43.9078 42.1944 43.4829 43.7905C43.2853 44.5367 43.0852 45.2853 42.8875 46.0314C42.7072 46.7084 42.5244 47.3854 42.3416 48.0599C41.9488 49.5225 41.5412 51.0346 41.1558 52.5269C40.9878 53.1717 41.2769 53.7425 41.8525 53.9129C42.4947 54.1032 43.0407 53.7968 43.2778 53.1149C43.3297 52.9667 43.3693 52.8135 43.4137 52.6479L43.7299 51.4694C44.7403 47.6967 45.7531 43.9264 46.761 40.1536C46.8327 39.8893 46.892 39.6126 46.9389 39.3927C46.9537 39.3185 46.9685 39.2494 46.9834 39.1876C46.9537 38.5304 46.5782 38.0634 46.0199 37.9943H46.0175Z" fill="#0AB8B6"/>
</g>
<defs>
<clipPath id="clip0_1_515">
<rect width="91" height="90" fill="white"/>
</clipPath>
</defs>
</svg>
