<svg width="91" height="96" viewBox="0 0 91 96" fill="none" xmlns="http://www.w3.org/2000/svg">
<g clip-path="url(#clip0_1_497)">
<path d="M89.374 64.8526C89.5355 64.812 89.697 64.7715 89.8559 64.7283C90.7631 64.4906 90.9731 64.2285 90.9838 63.3344C90.9919 62.7914 90.9892 62.2484 90.9865 61.7054C90.9865 61.203 90.9838 60.7032 90.9865 60.2007V59.8793C91.0054 58.6231 91.0135 57.864 90.7496 57.5506C90.467 57.2157 89.6244 57.0482 88.2756 56.8159C86.7896 56.5592 85.3709 56.046 85.064 54.055C85.0478 53.9524 84.9698 53.8146 84.8863 53.666C84.7759 53.4715 84.6521 53.25 84.5929 52.9853C84.5337 52.7178 84.4287 52.0398 84.714 51.5319C85.1205 50.8052 85.5782 50.1056 86.0197 49.4248C86.1812 49.179 86.3427 48.9304 86.5016 48.6819C86.8784 48.093 86.8381 47.6203 86.375 47.1475C85.0048 45.7536 83.7933 44.5407 82.6707 43.4385C82.2185 42.9954 81.7689 42.9522 81.2089 43.2953C81.1228 43.3493 81.034 43.4007 80.9451 43.452C80.6948 43.6006 80.4579 43.741 80.264 43.9058C79.5695 44.4974 77.4616 46.2939 74.9822 44.4245C74.9526 44.4137 74.9203 44.4083 74.8907 44.4002C74.7453 44.3651 74.5488 44.3164 74.3765 44.1625C74.3307 44.1219 74.2822 44.0787 74.2311 44.0355C73.9377 43.7843 73.5742 43.4709 73.445 43.036C73.297 42.5335 73.192 42.0229 73.0897 41.5286C72.9739 40.964 72.8635 40.4291 72.6939 39.9131C72.5566 39.4944 72.2686 39.0919 72.1394 39.019C71.9644 38.9947 71.7921 38.9649 71.6144 38.9379C70.1984 38.7137 68.8577 38.503 67.6544 39.5512L66.8387 40.2589L70.8203 41.3395L70.8902 41.6583C70.9468 41.9122 71.0114 42.185 71.076 42.4687C71.2402 43.1764 71.426 43.9788 71.5794 44.7838C71.6952 45.4024 72.0075 45.7401 72.6939 45.9913C74.0077 46.4722 75.3537 47.0368 76.8128 47.7148C77.4347 48.0039 77.8869 47.9877 78.3769 47.6635C78.6999 47.4501 79.0284 47.2421 79.3568 47.0341C79.8144 46.745 80.2909 46.4479 80.7351 46.1345C81.567 45.5456 82.1592 45.9535 82.5308 46.3128L82.5765 46.356C84.2133 47.9363 84.2456 48.2173 83.0261 50.1299C82.9426 50.2622 82.8592 50.3946 82.7784 50.527C82.5954 50.8241 82.4042 51.1321 82.1915 51.4265C81.8227 51.9398 81.8174 52.4045 82.17 53.1392C82.7623 54.3684 83.3114 55.6975 83.8068 57.0941C84.0679 57.8262 84.4206 58.1612 85.0694 58.2854C85.8339 58.4313 86.5742 58.6015 87.3576 58.7852C87.6915 58.8635 88.0307 58.9419 88.3699 59.0175L88.7898 59.1121V62.759L88.3699 62.8535C88.0333 62.9292 87.6995 63.0075 87.3657 63.0858C86.5985 63.2668 85.8043 63.4532 85.0155 63.6045C84.4098 63.7207 84.0733 64.0394 83.8202 64.7364C83.298 66.1681 82.7327 67.5269 82.1404 68.775C81.8147 69.4612 81.8389 69.9447 82.2212 70.5012C82.6573 71.1333 83.0745 71.7952 83.5134 72.4975C83.7179 72.8217 83.9306 73.1621 84.1594 73.5214L84.4098 73.9158L84.0572 74.221C83.8983 74.3588 83.7395 74.502 83.5807 74.6425C83.1607 75.018 82.73 75.4043 82.2562 75.7446C81.8766 76.0175 81.217 75.9716 80.8374 75.7581C79.9464 75.2557 79.1091 74.7019 78.4092 74.2264C77.8896 73.8726 77.4266 73.8591 76.7643 74.1724C75.3402 74.8451 74.0211 75.3962 72.7316 75.8581C72.0101 76.1174 71.6817 76.474 71.5606 77.1305C71.4152 77.9139 71.2348 78.7054 71.076 79.4023C71.0087 79.6914 70.9468 79.9723 70.8876 80.2371L70.8149 80.564L66.8252 81.5689V54.2495L67.2371 54.1496C69.6007 53.5715 71.7113 54.0874 73.515 55.6786C75.4291 57.3697 76.2178 59.5821 75.8006 62.0809C75.4291 64.3123 74.2096 66.0088 72.177 67.1298C70.8822 67.843 71.2429 68.5157 71.3802 68.7696C71.5471 69.0803 71.7625 69.2532 72.0424 69.2991C72.3655 69.3531 72.7908 69.2423 73.2727 68.983C76.9366 67.0002 78.7968 62.8022 77.8008 58.7744C76.7886 54.6845 73.1704 51.8047 69.0031 51.7723C68.6451 51.7696 68.2843 51.7723 67.9101 51.7723H66.8145V40.2778L66.7606 40.3238V38.0113C66.7606 32.3816 66.5129 32.3789 65.6999 32.3654C65.2854 32.3546 65.1615 32.4221 65.0888 32.4951C64.642 32.9354 64.607 35.1776 64.607 38.06V51.5319C64.607 63.6882 64.607 75.8473 64.607 88.0036C64.607 91.5938 62.3752 93.8252 58.7813 93.8279C47.2404 93.8306 35.6968 93.8306 24.1559 93.8279C20.4947 93.8279 18.3061 91.6235 18.3061 87.9307C18.3061 84.6485 18.3061 81.3663 18.3061 78.0841C18.3061 74.1211 18.3061 70.1581 18.3061 66.1952C18.3061 65.6981 18.1984 65.301 17.9965 65.0498C17.8188 64.8282 17.5684 64.7202 17.2319 64.7202C16.3435 64.7202 16.1578 65.5225 16.1578 66.1952V71.1657C16.1497 76.7928 16.1443 82.6116 16.1632 88.3332C16.1766 92.6798 19.4313 95.9647 23.7306 95.9728C36.884 96.0025 48.4734 95.9971 59.1609 95.9512C60.2189 95.9458 61.3496 95.7081 62.2595 95.2974C65.14 93.9954 66.6529 91.6911 66.7552 88.4494C66.7956 87.1365 66.7848 85.8371 66.7741 84.5782C66.7687 84.038 66.766 83.5139 66.766 83.0087V82.3091L67.4417 82.4847C67.684 82.5495 67.9182 82.617 68.1497 82.6819C68.6424 82.8223 69.1108 82.9574 69.5711 83.0276C69.9534 83.0844 70.3626 83.0709 70.796 83.052C70.9629 83.0466 71.1325 83.0384 71.2994 83.0357C72.2524 83.0222 72.5378 82.7926 72.7558 81.866C72.8905 81.296 73.017 80.7071 73.1381 80.1425C73.2323 79.6995 73.3266 79.2565 73.4262 78.8161C73.4639 78.646 73.5823 78.1246 75.4102 77.2169C76.304 76.7739 77.4858 76.2984 78.0458 76.5578C78.2181 76.6361 78.3688 76.7388 78.5034 76.8279C78.5438 76.8549 78.5869 76.8846 78.6273 76.9116L79.3056 77.3466C79.9033 77.7275 80.5009 78.1084 81.0932 78.5001C81.7474 78.9323 82.2346 78.8864 82.7757 78.338C83.3303 77.7788 83.8849 77.2196 84.4394 76.6604C85.0721 76.0256 85.702 75.3881 86.332 74.7505C86.8461 74.2318 86.8946 73.7483 86.4989 73.1405C86.3589 72.9271 86.2189 72.711 86.0789 72.4975C85.6159 71.7898 85.1367 71.0577 84.6979 70.3121C84.469 69.9231 84.4098 69.3531 84.5579 68.956C84.6494 68.7129 84.7275 68.4508 84.8136 68.1753C85.0828 67.3 85.3601 66.3951 86.0304 65.8386C86.6765 65.3037 87.5568 65.1632 88.4075 65.0281C88.7521 64.9741 89.0779 64.9228 89.3794 64.8472L89.374 64.8526Z" fill="black"/>
<path d="M22.0669 16.1897H22.0373C9.8799 16.2032 -0.00807126 26.1255 4.94379e-06 38.3035C0.00269701 44.2411 2.33941 49.8277 6.58211 54.0338C10.7871 58.2047 16.2924 60.4631 22.1073 60.401H22.1127C34.2458 60.401 44.1311 50.4976 44.1472 38.3278C44.1553 32.4306 41.8617 26.8765 37.689 22.6893C33.5109 18.4967 27.9625 16.187 22.0669 16.187V16.1897ZM34.7735 53.4611C31.7556 56.2759 27.3191 57.9616 22.6026 58.0778C22.4222 58.0832 22.2419 58.0859 22.0615 58.0859C17.2885 58.0859 12.8169 56.4947 9.41955 53.5718L9.1315 53.3233L9.26611 52.9667C10.5098 49.6926 13.4953 47.5369 16.8685 47.4801C20.0748 47.4261 23.7064 47.3667 27.2787 47.4936C30.773 47.6206 33.3386 49.4171 34.9 52.8343L35.0615 53.1882L34.7761 53.453L34.7735 53.4611ZM37.2852 51.0784L36.7925 51.6457L36.4156 50.9947C34.7196 48.0745 32.4179 46.3158 29.3866 45.6162C28.5844 45.4325 27.6825 45.3325 26.7053 45.319C23.9163 45.2866 20.8824 45.2812 17.4338 45.3109C13.3796 45.3433 10.2164 47.0965 8.03045 50.5246C7.95238 50.6462 7.86892 50.7651 7.78278 50.8839C7.71009 50.9839 7.62394 51.0379 7.58356 51.0649L7.20129 51.3513L6.88093 50.9974C1.2572 45.0408 -0.228821 33.4436 7.15822 25.0936C10.7333 21.0523 15.6571 18.6642 21.017 18.367C26.3257 18.0699 31.4111 19.8663 35.3361 23.4214C39.3607 27.0629 41.7109 32.0119 41.9559 37.3526C42.1874 42.3934 40.4833 47.3964 37.2825 51.0784H37.2852Z" fill="#0AB8B6"/>
<path d="M51.6904 22.1191C51.6904 25.4905 54.3367 28.0379 57.8499 28.046C63.6163 28.0568 69.7838 28.0568 76.7051 28.046C80.2237 28.0406 82.8942 25.5121 82.913 22.1624C82.9211 20.5712 82.3343 19.0936 81.2601 18.0049C80.1079 16.8379 78.49 16.1949 76.7024 16.1895C74.538 16.1841 72.3736 16.1841 70.2092 16.1868H67.326H64.3862C63.4305 16.1868 62.4722 16.1868 61.5165 16.1868C60.2943 16.1868 59.0721 16.1868 57.8499 16.1922C54.3394 16.2057 51.6931 18.7532 51.6931 22.1191H51.6904ZM54.8725 19.5312C55.6262 18.7694 56.7219 18.348 57.963 18.3453C60.1597 18.3399 62.3537 18.3426 64.5504 18.3453H67.3502H70.1203C72.2928 18.3453 74.4653 18.3453 76.6378 18.3453C77.8789 18.3453 78.9772 18.7694 79.731 19.5339C80.4121 20.2227 80.7675 21.1277 80.7594 22.1488C80.7432 24.3154 79.0311 25.893 76.689 25.893C73.5743 25.8957 70.438 25.8984 67.3044 25.8984C64.1709 25.8984 61.0319 25.8984 57.9199 25.893C55.5778 25.893 53.8656 24.3154 53.8495 22.1488C53.8414 21.125 54.1967 20.22 54.8778 19.5312H54.8725Z" fill="#0AB8B6"/>
<path d="M64.6121 10.5516C64.6175 10.9406 64.7333 11.8455 65.6647 11.8644C65.9609 11.8671 66.1978 11.7834 66.3808 11.6078C66.6177 11.3782 66.7523 10.9892 66.7604 10.5164C66.7739 9.43047 66.7846 8.36611 66.7523 7.30716C66.6312 3.31177 63.3496 0.048472 59.4353 0.0322636C48.6724 -0.00825756 36.9269 -0.010959 23.5258 0.0295622C19.9373 0.0403678 16.9168 2.60941 16.3407 6.13745C16.1334 7.40441 16.1522 8.75512 16.1684 10.0626C16.1711 10.3354 16.1764 10.6056 16.1764 10.8757C16.1791 11.5106 16.7148 11.859 17.2156 11.8644C17.221 11.8644 17.2236 11.8644 17.229 11.8644C17.824 11.8644 18.2601 11.4214 18.2897 10.7839C18.3193 10.1517 18.3139 9.5007 18.3086 8.87128C18.3086 8.57412 18.3032 8.27697 18.3032 7.97711C18.3139 4.39504 20.5457 2.16908 24.1288 2.16638C28.3688 2.16368 32.6115 2.16638 36.8542 2.16638H41.4819C43.2317 2.16638 44.9816 2.16638 46.7287 2.16638C48.3709 2.16638 50.0346 2.16638 51.7064 2.16638C54.1777 2.16638 56.6705 2.16638 59.1365 2.17718C62.2539 2.18799 64.5529 4.47878 64.6014 7.62593C64.6094 8.11218 64.6068 8.59573 64.6041 9.08199C64.6041 9.57364 64.5987 10.0626 64.6068 10.5543L64.6121 10.5516Z" fill="black"/>
<path d="M27.6256 70.107C36.8433 70.107 46.0636 70.107 55.2839 70.107C55.3674 70.107 55.4508 70.107 55.5343 70.1124C55.7362 70.1178 55.93 70.1232 56.0915 70.0908C56.9503 69.9287 57.0499 69.4073 57.0499 69.0291C57.0499 68.6509 56.9503 68.1269 56.0942 67.9675C55.9327 67.9378 55.7416 67.9432 55.5397 67.9486C55.4535 67.9486 55.3728 67.9486 55.2839 67.954H37.9981H27.6256C27.5368 67.9486 27.456 67.954 27.3726 67.9486C27.1707 67.9432 26.9795 67.9378 26.818 67.9675C25.9619 68.1269 25.8623 68.6482 25.8623 69.0264C25.8623 69.4046 25.9619 69.926 26.818 70.0881C26.9768 70.1178 27.1707 70.1124 27.3726 70.1097C27.456 70.1097 27.5422 70.0989 27.6256 70.1043V70.107Z" fill="black"/>
<path d="M49.1248 80.8966C45.4421 80.8939 41.7593 80.8939 38.0766 80.8966H33.9846C33.3251 80.8966 32.6655 80.8966 32.006 80.8966C30.4069 80.8966 28.7513 80.8912 27.1253 80.9047C26.6757 80.9074 26.3042 81.0559 26.0753 81.3207C25.8923 81.5314 25.8169 81.8042 25.8573 82.1068C25.9407 82.7308 26.4011 83.0469 27.2275 83.0496C29.89 83.055 32.5525 83.055 35.2149 83.055H38.23H41.3205C43.9561 83.055 46.5943 83.055 49.2298 83.0496C49.7359 83.0496 50.1478 82.8956 50.3874 82.6174C50.5651 82.412 50.6378 82.1446 50.5974 81.8448C50.5624 81.5881 50.4709 80.902 49.1275 80.902L49.1248 80.8966Z" fill="black"/>
<path d="M25.8489 75.4883C25.8435 75.7854 25.9296 76.0231 26.1019 76.196C26.3442 76.4446 26.7615 76.5742 27.3026 76.5769C31.338 76.5823 35.3761 76.5823 39.4142 76.5769C40.0899 76.5769 40.8975 76.3905 40.9083 75.5126C40.9137 75.2181 40.8275 74.9831 40.6579 74.8075C40.4157 74.559 39.9984 74.4266 39.4519 74.4239C38.0332 74.4185 36.6171 74.4185 35.1984 74.4212H33.3974H31.5803C30.9746 74.4212 30.3689 74.4212 29.7631 74.4212C28.9555 74.4212 28.1506 74.4212 27.343 74.4239C26.3604 74.4266 25.8569 74.7832 25.8489 75.4856V75.4883Z" fill="black"/>
<path d="M42.8789 6.4809H41.5544H40.1518C39.6861 6.4809 39.2176 6.4809 38.7519 6.4809C38.1408 6.4809 37.527 6.4809 36.9159 6.4863C36.4017 6.49171 35.5403 6.63488 35.543 7.56146C35.543 8.49075 36.4071 8.63122 36.9213 8.63392C39.9768 8.64473 43.0323 8.64473 46.0017 8.63392C46.4136 8.63392 47.3746 8.52587 47.3719 7.55876C47.3719 6.63758 46.5051 6.49171 45.9909 6.4863C44.9544 6.4782 43.918 6.4809 42.8789 6.4809Z" fill="black"/>
<path d="M7.53477 67.6404C6.93174 67.6404 6.47948 68.1321 6.46063 68.8074C6.44986 69.2045 6.56024 69.8772 7.41362 69.9204C7.70437 69.9339 7.98165 69.8312 8.20509 69.6259C8.44469 69.4071 8.59006 69.0911 8.60621 68.7615C8.61967 68.4697 8.51199 68.1888 8.3047 67.9727C8.09741 67.7566 7.82551 67.6377 7.53746 67.6377L7.53477 67.6404Z" fill="black"/>
<path d="M7.45933 76.3933C7.45933 76.3933 7.4701 76.3933 7.47279 76.3933C8.05697 76.3933 8.56038 75.8854 8.60076 75.256C8.61961 74.9669 8.51731 74.6833 8.3154 74.4645C8.1135 74.2429 7.8416 74.1187 7.55355 74.1133C7.54547 74.1133 7.5374 74.1133 7.52932 74.1133C6.93437 74.1133 6.4848 74.5887 6.45788 75.2533C6.44173 75.618 6.53326 75.9151 6.71901 76.1123C6.88861 76.2933 7.14436 76.3906 7.45664 76.396L7.45933 76.3933Z" fill="black"/>
<path d="M7.53478 80.583C6.93176 80.583 6.47949 81.072 6.46064 81.7473C6.44988 82.1444 6.55756 82.8171 7.41095 82.863C7.699 82.8792 7.97897 82.7739 8.20241 82.5712C8.44201 82.3524 8.59007 82.0391 8.60353 81.7095C8.61699 81.4177 8.50931 81.1368 8.30202 80.9207C8.09473 80.7046 7.82283 80.5857 7.53478 80.583Z" fill="black"/>
<path d="M16.7286 38.7437C18.15 40.1835 20.0344 40.9804 22.04 40.9858H22.0669C24.0725 40.9858 25.9597 40.2024 27.3892 38.7734C28.8186 37.3443 29.6047 35.4561 29.6074 33.4489C29.6128 29.3158 26.2693 25.9282 22.1558 25.8931C22.1342 25.8931 22.1127 25.8931 22.0912 25.8931C20.091 25.8931 18.2065 26.6711 16.7743 28.0839C15.3421 29.4994 14.548 31.3796 14.5372 33.376C14.5265 35.3912 15.3018 37.2957 16.7259 38.7383L16.7286 38.7437ZM22.04 28.0515C23.4776 28.0515 24.8452 28.6053 25.8735 29.6345C26.8992 30.6611 27.4592 32.0199 27.4565 33.4597C27.4484 36.4043 25.0497 38.8139 22.11 38.8301H22.0804C20.6482 38.8301 19.2995 38.2682 18.2792 37.2471C17.2535 36.2206 16.6909 34.8617 16.6963 33.4192C16.7043 30.4747 19.103 28.0677 22.0427 28.0515H22.04Z" fill="#0AB8B6"/>
</g>
<defs>
<clipPath id="clip0_1_497">
<rect width="91" height="96" fill="white"/>
</clipPath>
</defs>
</svg>
