<svg width="91" height="91" viewBox="0 0 91 91" fill="none" xmlns="http://www.w3.org/2000/svg">
<g clip-path="url(#clip0_1_529)">
<path d="M3.47 1.65814C1.77446 2.74261 0.658375 4.48001 0.151065 6.82516C0.11499 6.98783 0.054113 7.12112 0 7.23183V76.6058C0.489272 78.1783 0.958251 79.6423 2.00669 80.8262C3.60528 82.6314 5.56236 83.5961 7.98843 83.7746C8.27027 83.7949 8.56112 83.7927 8.86551 83.7904C8.97599 83.7904 9.08647 83.7904 9.1947 83.7904H18.094C35.8273 83.7904 54.1648 83.7904 72.2002 83.7701H72.207C73.2419 83.7701 73.9905 84.0886 74.712 84.8365C74.9397 85.0737 75.1674 85.3109 75.3952 85.5481C76.5924 86.7975 77.8325 88.0898 79.1605 89.1992C81.2394 90.9343 83.8052 91.4472 86.193 90.6067C88.5807 89.7662 90.3281 87.6764 90.8715 85.0127C90.9008 84.8726 90.9504 84.7596 90.9955 84.6693V82.9228C90.5671 81.1018 89.7892 79.6491 88.619 78.4833C84.989 74.8707 81.3093 71.188 77.7491 67.6251C75.6522 65.5285 73.5553 63.4296 71.4585 61.333C71.0007 60.8743 70.6242 60.6529 70.3085 60.6507C69.9951 60.6507 69.6231 60.8698 69.1744 61.3239C68.595 61.9091 68.0178 62.5236 67.409 63.1743C67.1159 63.4883 66.8115 63.8137 66.4868 64.1548L65.966 64.7039L65.0528 63.6171C64.7394 63.2443 64.4689 62.9235 64.1983 62.605C64.0991 62.4897 63.9976 62.3745 63.8894 62.2548L63.3505 61.6515L63.8962 60.9353C64.0405 60.7456 64.178 60.5626 64.32 60.3863C67.2872 56.663 69.0437 52.4178 69.5397 47.7682C70.6445 37.4002 65.3437 27.6649 56.034 22.9656C54.9269 22.4075 53.7455 21.9715 52.5324 21.5354C51.8944 21.3073 51.2833 21.5445 51.0511 22.1138C50.7986 22.7284 51.0579 23.2864 51.7455 23.6027C51.971 23.7066 52.219 23.7925 52.4806 23.8806C52.582 23.9145 52.6858 23.9506 52.7872 23.9868C61.2311 27.0075 67.1136 35.0189 67.4248 43.9206C67.675 51.0758 65.0776 57.1488 59.7024 61.9724C56.6811 64.6835 52.6542 66.5339 48.3612 67.1846C44.0638 67.8352 39.6761 67.2569 36.0077 65.5533C26.7363 61.2494 21.6858 52.3274 22.8334 42.2668C23.5797 35.7171 26.7363 30.4755 32.2198 26.6821C33.5185 25.7829 34.975 25.1232 36.3842 24.4838C36.86 24.2692 37.3515 24.0455 37.8227 23.8173C38.5645 23.4604 38.8396 23.2525 38.9027 22.7871C38.9613 22.3578 38.8486 22.0167 38.5803 21.7953C38.2376 21.5151 37.6807 21.4699 37.0877 21.6755C32.5535 23.2435 28.7047 25.9704 25.6496 29.7819C18.4661 38.74 18.6532 52.0789 26.0825 60.8111C33.9514 70.0584 46.3726 72.3764 56.99 66.5746C58.0001 66.0233 58.9764 65.3477 59.9189 64.6971C60.3563 64.3943 60.8095 64.0803 61.2604 63.7843L61.7204 63.4816L64.169 65.9261L63.9909 66.3305C63.9638 66.4119 63.9119 66.5633 63.7767 66.6988C63.2468 67.2343 62.7147 67.7697 62.1848 68.3029L61.425 69.0666C60.3923 70.1058 60.3901 70.5238 61.416 71.5495C62.9266 73.0633 64.4395 74.577 65.9525 76.0885C67.1181 77.2542 68.2838 78.4201 69.4495 79.5858C69.5961 79.7327 69.7359 79.8841 69.9095 80.0693C69.9974 80.1642 70.0966 80.2704 70.2071 80.3879L71.2848 81.5311H53.6959C38.7945 81.5311 23.8909 81.5311 8.98952 81.5311C4.77547 81.5311 2.25922 79.0255 2.25922 74.8278C2.25922 60.5083 2.25922 46.1889 2.25922 31.8695V15.3066H88.7453V23.0785C88.7453 38.9524 88.7453 54.8239 88.7498 70.6978C88.7498 70.7881 88.7476 70.8808 88.7453 70.9779C88.7408 71.17 88.7295 71.5269 88.7836 71.6241C89.1827 72.1844 89.566 72.4736 89.7712 72.5097C89.929 72.5391 90.4138 72.2431 90.6483 72.1008C90.7249 72.0533 90.8038 72.0082 90.8783 71.9652C90.8985 71.9246 90.9256 71.8613 90.9436 71.8139C90.9617 71.7732 90.9797 71.728 91 71.6828V8.57837C91 7.70402 90.8286 6.83645 90.4972 6.02762C90.4972 6.02311 90.4949 6.01859 90.4927 6.01633C90.0891 5.02676 89.7058 4.09367 89.1714 3.26224C88.1794 1.72592 86.5695 0.709237 84.2517 0.157969C84.0758 0.115042 83.9247 0.0517817 83.794 -0.00244141L7.21732 -0.000182108C6.83402 0.162487 6.4417 0.31386 6.06291 0.458455C5.1272 0.819943 4.24336 1.1611 3.46774 1.65588L3.47 1.65814ZM69.348 76.3099C69.2353 76.1992 69.1361 76.0839 69.0211 75.9506C68.9625 75.8829 68.8994 75.8083 68.8227 75.7247L68.392 75.239L68.8588 74.7871C69.1609 74.4934 69.4653 74.2042 69.7674 73.915C70.4619 73.253 71.1157 72.6295 71.7493 71.9652C72.074 71.6241 72.2228 71.2174 72.1574 70.8491C72.101 70.5283 71.8846 70.2617 71.5486 70.0968C71.1946 69.9228 70.746 69.8302 70.1079 70.4515C69.5397 71.005 68.976 71.5608 68.4101 72.1189C68.0561 72.4691 67.7021 72.817 67.3481 73.1649C67.152 73.3592 66.9197 73.3683 66.8453 73.3705L66.5094 73.4157L66.072 72.9525L63.5512 70.3634L70.4235 63.5968L70.9173 64.0193C70.9962 64.0825 71.1631 64.2158 71.3209 64.3717L73.9792 67.0287C78.2474 71.2942 82.6621 75.7044 86.9979 80.0513C89.0835 82.1411 89.327 84.8477 87.6179 86.9444C86.6552 88.126 85.2527 88.745 83.8368 88.745C82.8312 88.745 81.8188 88.4333 80.9508 87.7916C80.6554 87.5725 80.3645 87.3194 80.0602 87.0167C76.4887 83.4515 72.9195 79.8818 69.3526 76.3099H69.348ZM7.85089 2.29075C8.25223 2.25234 8.6468 2.25234 9.0301 2.25234H9.17666C33.399 2.25234 57.6213 2.25234 81.8436 2.25234C86.2944 2.25234 88.7453 4.70142 88.7475 9.14546V12.9569H2.41028V12.2791C2.41028 11.7549 2.39225 11.2172 2.37195 10.6976C2.32911 9.50468 2.28627 8.27111 2.4644 7.06238C2.8477 4.47775 5.01222 2.5596 7.84864 2.28849L7.85089 2.29075Z" fill="black"/>
<path d="M35.1961 54.0765L35.7643 53.4687L36.2423 54.1488C38.5151 57.3705 41.4078 58.9362 45.0898 58.9362H45.1146C48.7492 58.9294 51.6127 57.3818 53.8696 54.203L54.3454 53.5342L54.9113 54.1284C55.0939 54.3205 55.2653 54.5057 55.4299 54.6842C55.7613 55.0434 56.0747 55.3823 56.3994 55.6828C56.9518 56.1912 57.6057 56.2386 58.0656 55.798C58.5414 55.3439 58.503 54.6752 57.9687 54.0923L57.7409 53.8438C57.2291 53.2835 56.7489 52.7548 56.1987 52.3187C54.749 51.1665 55.2743 49.716 55.4479 49.2393L55.6103 48.792H56.7782C57.2765 48.792 57.768 48.7942 58.2595 48.792C59.8153 48.7807 59.8243 47.9831 59.8266 47.6827C59.8311 47.3528 59.7499 47.1088 59.5785 46.9371C59.3283 46.6818 58.857 46.5462 58.2167 46.5417C57.7004 46.5394 57.184 46.5417 56.7151 46.5417H55.723L55.5358 46.1712C54.6159 44.357 55.8583 43.2838 56.3272 42.8816C56.8639 42.4185 57.3712 41.8763 57.8604 41.3498L57.9303 41.2753C58.3655 40.8099 58.6383 40.1117 58.0949 39.5537C57.6124 39.0567 56.9518 39.1177 56.3272 39.7141C56.0093 40.0169 55.7117 40.3422 55.4254 40.6585C55.2991 40.7963 55.1773 40.9296 55.0624 41.0539L54.6069 41.5396L54.1154 41.09C53.7501 40.7556 53.4006 40.4258 53.0602 40.1004C52.2936 39.3707 51.5676 38.6816 50.7874 38.101C50.0659 37.5633 49.5857 36.9736 49.5767 35.8372C49.5631 34.1223 48.8101 32.7555 47.4572 31.9896C46.0052 31.1694 44.0661 31.1875 42.6322 32.0393C41.1982 32.891 40.5105 34.2105 40.533 36.0744C40.5353 36.3184 40.506 37.1498 39.9896 37.613C39.0336 38.4738 38.0574 39.2871 37.0247 40.1502C36.6707 40.4461 36.31 40.7466 35.9447 41.0539L35.4644 41.4583L35.027 41.0109C34.9278 40.9115 34.8196 40.7941 34.7001 40.6698C34.4047 40.358 34.0688 40.0056 33.7103 39.6734C33.1195 39.1267 32.4589 39.0792 31.9877 39.5469C31.5232 40.0078 31.5773 40.6653 32.132 41.2617L32.3777 41.5283C32.9076 42.1044 33.4104 42.6467 33.9741 43.1053C34.9549 43.9006 35.1781 44.9218 34.6325 46.1396L34.4543 46.5394H33.3134C32.7994 46.5394 32.2853 46.5372 31.7712 46.5394C31.194 46.544 30.7408 46.6863 30.4951 46.9393C30.3192 47.1178 30.238 47.3573 30.2403 47.6736C30.2448 47.947 30.2538 48.7784 31.8141 48.792C32.3462 48.7965 32.8783 48.7942 33.3788 48.792H34.4611L34.6392 49.1919C35.1826 50.4074 34.9346 51.424 33.8816 52.3052C33.4104 52.7006 32.9843 53.1547 32.5333 53.6359C32.4273 53.7489 32.3236 53.8596 32.2177 53.9725C31.8952 54.3137 31.7036 54.6842 31.6833 55.0209C31.6653 55.3168 31.7735 55.5812 32.0102 55.8048C32.716 56.4781 33.4938 55.8681 33.796 55.5744C34.1116 55.2671 34.4137 54.935 34.7339 54.5848C34.885 54.4199 35.0383 54.2504 35.1984 54.0787L35.1961 54.0765ZM43.3649 34.3031C43.7054 33.91 44.2195 33.6931 44.8936 33.6524C46.2713 33.5733 47.1213 34.2895 47.2137 35.618L47.2656 36.3432H43.0064L42.9568 35.7197C42.8982 35.0012 43.1485 34.5516 43.3649 34.3008V34.3031ZM38.1701 42.4501C39.8544 39.5514 43.5408 38.0309 46.9409 38.8352C50.3635 39.6463 52.8099 42.4614 53.0241 45.8413C53.0512 46.2774 53.0444 46.7112 53.0376 47.1291C53.0354 47.3076 53.0309 47.4838 53.0309 47.6623C53.2225 50.2628 52.6228 52.3165 51.1955 53.9364C49.5857 55.7664 47.5542 56.7018 45.2408 56.7018C44.5554 56.7018 43.8452 56.6204 43.1147 56.4532C39.8972 55.7258 37.8206 53.593 37.2705 50.4503C36.8398 48.0012 36.6121 45.1342 38.1701 42.4501Z" fill="#0AB8B6"/>
<path d="M79.5596 21.2915C77.9655 21.2847 76.3715 21.2847 74.7774 21.287H73.1698H71.5937C70.0177 21.287 68.4417 21.287 66.8656 21.287C66.7912 21.287 66.7168 21.287 66.6424 21.287C66.5725 21.287 66.5049 21.287 66.4372 21.287C66.2974 21.287 66.1644 21.2915 66.0381 21.3051C65.3843 21.3774 64.9401 21.8224 64.9356 22.4099C64.9311 22.9882 65.3752 23.4469 66.0178 23.5282C66.1644 23.5463 66.329 23.544 66.5049 23.544H66.6537H68.1012C71.9116 23.544 75.7221 23.544 79.5326 23.5395C79.8392 23.5395 80.1594 23.5282 80.4322 23.4582C80.9147 23.3317 81.2687 22.8821 81.2394 22.4325C81.1898 21.6779 80.7614 21.4723 80.4457 21.3819C80.2022 21.3118 79.9159 21.2983 79.5596 21.296V21.2915Z" fill="#0AB8B6"/>
<path d="M17.5732 71.0708C15.4651 71.0708 13.3637 71.0753 11.3006 71.0798H10.9827C10.4596 71.0798 10.1124 71.2832 9.88694 71.7124C9.70882 72.0559 9.70882 72.4128 9.89145 72.7201C10.1056 73.0816 10.5318 73.303 11.0346 73.3143C12.4077 73.3414 13.8079 73.3346 15.163 73.3301C15.7627 73.3278 16.3625 73.3278 16.9622 73.3256C17.5507 73.3256 18.1369 73.3256 18.7254 73.3278C20.1233 73.3324 21.5663 73.3369 22.9845 73.3188C23.803 73.3098 24.2765 72.9076 24.2855 72.2185C24.29 71.8977 24.1908 71.6243 23.9992 71.43C23.7804 71.2064 23.449 71.0866 23.0386 71.0844C21.2259 71.0731 19.3973 71.0708 17.5732 71.0708Z" fill="#0AB8B6"/>
<path d="M16.0156 63.8564C15.6368 63.8564 15.2603 63.861 14.8815 63.8587C14.5117 63.8587 14.1397 63.8587 13.7699 63.8587C13.3956 63.8587 13.0146 63.8587 12.6313 63.8587C12.1555 63.8587 11.6753 63.8587 11.2018 63.8655C10.6945 63.8723 10.2751 64.0191 10.0226 64.2789C9.83769 64.4687 9.7475 64.7127 9.75426 65.0042C9.76779 65.813 10.4915 66.1044 11.1635 66.109C13.6572 66.1248 16.1373 66.1248 18.5296 66.109C19.1992 66.1044 19.9162 65.8107 19.923 64.9996C19.932 64.1818 19.2218 63.879 18.5566 63.8677C17.7134 63.8542 16.8498 63.8564 16.0156 63.861V63.8564Z" fill="#0AB8B6"/>
<path d="M76.6417 28.492C75.5437 28.492 74.4456 28.4988 73.3543 28.5101C72.5607 28.5191 72.0398 28.9529 72.0286 29.6171C72.015 30.2881 72.5539 30.7332 73.4017 30.749C74.1435 30.7626 74.9033 30.7603 75.6361 30.7558C76.3012 30.7536 76.9664 30.7536 77.6338 30.7558C78.3666 30.7581 79.1264 30.7626 79.8682 30.749C80.716 30.7332 81.2548 30.2881 81.2458 29.6171C81.2368 28.9529 80.716 28.5169 79.9223 28.5078C78.8355 28.4965 77.7397 28.4897 76.6417 28.4897V28.492Z" fill="#0AB8B6"/>
<path d="M45.045 22.6068C45.3291 22.6158 45.6245 22.4893 45.8544 22.2656C46.0799 22.0442 46.2084 21.7573 46.2084 21.4794C46.2084 20.9055 45.6831 20.3904 45.0878 20.3791C44.4881 20.3678 43.9627 20.84 43.9357 21.4319C43.9222 21.7256 44.0326 22.0103 44.2423 22.2362C44.4543 22.4644 44.7451 22.5977 45.045 22.6068Z" fill="#0AB8B6"/>
<path d="M28.944 72.2254C28.9508 72.5056 29.0815 72.7857 29.3003 72.9959C29.519 73.206 29.794 73.3189 30.0714 73.3144C30.6621 73.2986 31.1514 72.7767 31.1378 72.1735C31.1311 71.8888 31.0026 71.6041 30.7839 71.3963C30.5719 71.1929 30.2946 71.0845 30.024 71.089C29.4423 71.1048 28.926 71.647 28.9418 72.2254H28.944Z" fill="#0AB8B6"/>
<path d="M79.5213 6.49316H79.3184C74.0085 6.49316 68.6964 6.49316 63.3866 6.49316H54.5594C49.6802 6.49316 44.801 6.49316 39.9219 6.49316C39.3041 6.49316 38.2646 6.64002 38.2646 7.62055C38.2646 8.58979 39.3063 8.74117 39.9286 8.74568H43.1281C55.2223 8.74568 67.3166 8.74568 79.4131 8.74568H79.5822C79.8099 8.74568 80.0241 8.7502 80.2157 8.72083C80.8155 8.63272 81.2506 8.16956 81.2484 7.62055C81.2484 7.06928 80.8132 6.60613 80.2157 6.52028C80.006 6.4909 79.7738 6.49316 79.5258 6.49542L79.5213 6.49316Z" fill="black"/>
<path d="M10.85 6.5091C10.5771 6.51587 10.2976 6.64691 10.0811 6.87284C9.86691 7.09425 9.74741 7.37441 9.75418 7.641C9.76771 8.21487 10.3201 8.73902 10.886 8.73224C11.1589 8.72547 11.4384 8.59443 11.6526 8.37076C11.8668 8.14935 11.9841 7.86919 11.9773 7.6026C11.9706 7.33148 11.8398 7.05133 11.6143 6.83443C11.3979 6.62658 11.125 6.50684 10.8657 6.50684C10.859 6.50684 10.8522 6.50684 10.8455 6.50684L10.85 6.5091Z" fill="black"/>
<path d="M17.3003 6.86814C17.0861 7.08955 16.9644 7.3697 16.9689 7.6363C16.9801 8.21016 17.5235 8.7411 18.0962 8.73206C18.369 8.72754 18.6486 8.5965 18.8651 8.37509C19.0793 8.15368 19.1988 7.87579 19.1943 7.60693C19.1898 7.33581 19.059 7.05566 18.8358 6.84103C18.6148 6.62639 18.3285 6.50439 18.0669 6.50891C17.7963 6.51343 17.5168 6.64447 17.3003 6.86814Z" fill="black"/>
<path d="M25.2824 8.73194C25.8551 8.74098 26.3985 8.21004 26.4098 7.63618C26.4211 7.07813 25.8777 6.52009 25.3117 6.50879C25.3072 6.50879 25.3005 6.50879 25.296 6.50879C25.0344 6.50879 24.7616 6.62853 24.5451 6.83865C24.3219 7.05554 24.1912 7.33343 24.1866 7.60681C24.1821 7.8734 24.3016 8.15356 24.5158 8.37497C24.7323 8.59864 25.0119 8.72742 25.2847 8.7342L25.2824 8.73194Z" fill="black"/>
</g>
<defs>
<clipPath id="clip0_1_529">
<rect width="91" height="91" fill="white"/>
</clipPath>
</defs>
</svg>
