<svg width="91" height="92" viewBox="0 0 91 92" fill="none" xmlns="http://www.w3.org/2000/svg">
<g clip-path="url(#clip0_1_486)">
<path d="M90.9873 4.55771C90.9746 2.48649 89.6523 0.741895 87.6942 0.215225C87.0178 0.0329168 86.2702 0.00759619 85.6294 0.00759619C62.6416 0 39.2699 0 16.6687 0H15.3031C14.9064 0 14.5504 0.00253206 14.1944 0.0329168C11.6897 0.248142 9.92491 2.132 9.90203 4.61089C9.88677 6.12 9.89186 7.65696 9.8944 9.14075C9.8944 9.80921 9.89694 10.4777 9.89694 11.1461V12.4755H9.51551C8.99167 12.4755 8.48055 12.4755 7.98214 12.4729C6.91667 12.4704 5.91223 12.4679 4.9027 12.478C1.8792 12.5185 0 14.4074 0 17.4181C0 37.829 0 58.2425 0.00508579 78.656C0.00508579 79.0865 0.0127145 79.5043 0.0940871 79.8967C0.57978 82.2389 2.39286 83.5834 5.07053 83.586C12.6534 83.591 20.2363 83.591 27.8193 83.5885H37.9222V85.9458C37.9222 87.4549 37.9222 88.9109 37.9222 90.3668C37.9222 91.838 38.0747 91.9873 39.5344 91.9899C44.8134 91.9899 50.095 91.9899 55.3741 91.9899H59.9004C60.0937 91.9899 60.2869 91.9899 60.4827 91.9924C60.943 91.9975 61.4211 92 61.8813 91.9798C62.6823 91.9443 62.9366 91.681 62.9722 90.858C62.9824 90.6276 62.9799 90.3972 62.9773 90.1541C62.9773 90.0478 62.9773 89.9389 62.9773 89.8326V83.5885H67.9868C70.6594 83.591 73.3294 83.5936 76.002 83.5885C79.29 83.5809 81.1031 81.773 81.1056 78.5041C81.1056 76.9317 81.1056 75.3568 81.1056 73.7464V71.1105H82.8475C83.8265 71.1105 84.7801 71.1105 85.7337 71.1105C89.2301 71.1003 91.0025 69.3456 91.0025 65.8919C91.0025 51.568 91.0025 37.2467 91.0025 22.9228V16.3116C91.0025 15.2076 91.0025 14.1061 91.0025 13.0021C91.0051 10.2346 91.0076 7.37337 90.9924 4.55771H90.9873ZM37.9247 77.3267C37.8993 78.2079 37.8967 79.1067 37.8917 79.9778C37.8917 80.4183 37.8866 80.8589 37.884 81.2995C37.884 81.4261 37.8281 81.5097 37.7823 81.5755C37.7645 81.6034 37.7391 81.6413 37.7035 81.7021L37.5916 81.8844H28.6508C26.0494 81.8844 23.4506 81.8844 20.8492 81.8844C15.649 81.8844 10.4488 81.8844 5.24599 81.8844C2.7387 81.8844 1.71391 80.8665 1.71391 78.3699C1.71391 58.1514 1.71391 37.9328 1.71391 17.7143C1.71391 15.2228 2.74633 14.2074 5.27396 14.2049C6.66492 14.2049 8.02792 14.2125 9.1773 14.2226C9.30954 14.2226 9.41379 14.2682 9.51297 14.3087C9.55111 14.3239 9.59179 14.3416 9.64265 14.3619L9.8944 14.453V65.864C9.8944 69.3608 11.6821 71.1333 15.2065 71.1358C21.0145 71.1383 26.825 71.1358 32.633 71.1358H39.9412C41.8306 71.1358 41.9857 71.2649 42.3112 73.1007C42.3646 73.402 42.3875 73.7008 42.4155 74.0426C42.4282 74.2072 42.4434 74.3819 42.4612 74.5693L42.5019 74.9871H42.0824C41.8687 74.9871 41.6653 74.9871 41.4695 74.9871C41.0627 74.9871 40.6888 74.9845 40.3125 74.9896C38.8122 75.0175 37.9654 75.848 37.9222 77.3267H37.9247ZM49.5763 48.1447C49.5813 49.512 49.5839 50.9249 49.5432 52.3175C49.5305 52.7328 49.088 53.0898 48.7193 53.3126C47.3105 54.171 46.6824 55.6624 47.0842 57.2044C47.4962 58.7869 48.732 59.7567 50.39 59.8023C51.9234 59.8377 53.3219 58.8097 53.7797 57.2879C54.2476 55.7307 53.5991 54.1507 52.1624 53.3556C51.5317 53.0062 51.28 52.5656 51.2927 51.8313C51.3156 50.6413 51.3105 49.4284 51.3054 48.2561C51.3054 47.7876 51.3029 47.3192 51.3029 46.8508V46.5697L52.1115 46.3266L63.1985 66.2489L62.7663 66.3958C58.8171 67.7302 56.826 70.404 56.6811 74.5718L56.6684 74.939H44.2362L44.2235 74.5718C44.0963 70.4547 42.1052 67.758 38.1358 66.3249L37.7162 66.173L48.7396 46.3798L49.5712 46.5393V46.8533C49.5712 47.2838 49.5712 47.7142 49.5737 48.1472L49.5763 48.1447ZM50.3798 54.5482C50.8375 54.528 51.2825 54.6951 51.6258 55.0167C51.9717 55.3408 52.1751 55.7966 52.1827 56.265C52.2005 57.25 51.4504 58.045 50.4764 58.0754C50.4536 58.0754 50.4307 58.0754 50.4078 58.0754C49.9348 58.0754 49.5229 57.921 49.2126 57.6298C48.8846 57.3183 48.7066 56.8853 48.6964 56.3739C48.6761 55.3914 49.4161 54.5888 50.3798 54.5482ZM61.1998 90.187H39.7302V76.7418H61.1998V90.187ZM79.3383 79.3498C79.3027 80.6766 78.1686 81.8059 76.8615 81.8211C74.8018 81.8439 72.77 81.849 70.7001 81.849C69.4998 81.849 68.2869 81.849 67.0485 81.8439C65.8228 81.8439 64.5895 81.8388 63.3511 81.8388H62.9697V80.3044C62.9697 79.4688 62.9697 78.6535 62.9697 77.8356C62.9671 75.6707 62.2628 74.9744 60.0759 74.9693H58.2094L58.3187 74.5034C58.3823 74.2325 58.4408 73.9717 58.4967 73.7185C58.6518 73.0323 58.7968 72.3841 58.9901 71.7511C59.107 71.3662 59.6741 71.1206 60.0123 71.1206C66.2271 71.1054 72.5437 71.113 78.6517 71.1206C78.7788 71.1206 78.8831 71.1611 78.9772 71.1966C79.0128 71.2092 79.0509 71.2244 79.0967 71.2396L79.3637 71.3232V71.6017C79.3637 72.3436 79.3688 73.0855 79.3713 73.8274C79.3815 75.6353 79.3917 77.5065 79.3408 79.3473L79.3383 79.3498ZM89.2785 65.902C89.2785 68.3531 88.241 69.3988 85.8125 69.4013C78.2957 69.4064 70.7764 69.4013 63.2596 69.4013C63.0587 69.4013 62.8629 69.3861 62.6722 69.3735C62.5882 69.3684 62.5043 69.3608 62.4204 69.3558L62.0644 69.3355L62.0542 68.5733L62.2602 68.4645C62.2907 68.4493 62.3212 68.4316 62.3518 68.4138C62.4331 68.3683 62.5272 68.3151 62.634 68.2746C63.7605 67.8618 64.4166 67.3706 64.6404 66.7705C64.8667 66.1654 64.6887 65.3576 64.0987 64.2967L60.6455 58.1033C57.7822 52.9657 54.9163 47.8282 52.0607 42.6881C51.5953 41.8525 51.2241 41.4271 50.4764 41.422H50.4586C49.6703 41.422 49.2686 41.8753 48.8058 42.7083C45.9603 47.8307 43.1046 52.9455 40.2489 58.0628L36.7626 64.3144C36.1854 65.35 36.0099 66.1451 36.2312 66.7452C36.4549 67.3529 37.1186 67.8568 38.2578 68.2847C38.3468 68.3176 38.4257 68.3581 38.5528 68.4265C38.6266 68.4645 38.7232 68.5151 38.8554 68.5835L40.015 69.1709L38.7206 69.3C38.5477 69.3178 38.4053 69.3355 38.2833 69.3507C38.0544 69.3785 37.8764 69.3988 37.6908 69.3988C33.5484 69.3988 29.0805 69.4039 24.5237 69.4039C21.3476 69.4039 18.1308 69.4039 14.9471 69.3988C12.7348 69.3988 11.6134 68.3075 11.6134 66.1578C11.6109 53.8342 11.6134 41.5132 11.6134 29.1896V17.5143H14.403C14.97 17.5143 15.5396 17.5143 16.1067 17.5143C17.4188 17.5168 18.7742 17.5193 20.1067 17.5067C21.5307 17.4915 22.263 16.7699 22.2757 15.3595C22.2834 14.4986 22.2834 13.6377 22.2808 12.7388C22.2808 12.3261 22.2808 11.9058 22.2808 11.4728V11.093H24.2211C24.9738 11.093 25.7265 11.093 26.4792 11.093C28.8898 11.0904 31.3844 11.0854 33.8383 11.1183C34.3469 11.1259 34.9546 11.3791 35.3183 11.7386C36.9228 13.3237 38.4842 14.9341 39.9565 16.5217C40.6024 17.218 41.3449 17.5269 42.3621 17.5269H42.3672C54.4968 17.5118 66.8298 17.5143 78.7585 17.5143H89.2835V65.902H89.2785ZM89.2785 15.8102H80.5055C68.1496 15.8102 55.3741 15.8102 42.8071 15.8254H42.802C41.9883 15.8254 41.411 15.5798 40.8745 15.005C40.0252 14.0935 39.1377 13.1819 38.2807 12.3008C37.6196 11.6196 36.9355 10.9183 36.2693 10.2169C35.7175 9.6345 35.1072 9.3737 34.296 9.3737H34.2731C31.9616 9.38889 29.612 9.38636 27.3387 9.38383C25.8434 9.38383 24.3482 9.38383 22.853 9.38383C21.2611 9.38636 20.5771 10.0776 20.5695 11.6956C20.5644 12.5185 20.5669 13.3414 20.5695 14.1897V15.7393H11.6159V15.3595C11.6159 14.3112 11.6159 13.2705 11.6109 12.2349C11.6058 9.68514 11.6007 7.04927 11.6261 4.47162C11.6414 3.01316 12.7272 1.89905 14.2656 1.75725C14.586 1.7294 14.9039 1.7294 15.2116 1.7294H15.3438C38.7512 1.7294 62.161 1.7294 85.5684 1.7294C88.3376 1.7294 89.2734 2.67133 89.2734 5.46166V15.8102H89.2785Z" fill="black"/>
<path d="M82.3927 31.7925C82.2147 29.5972 80.6813 28.0248 78.3902 27.6931C76.2694 27.3842 74.3088 28.559 73.6299 30.5467C73.3196 31.4532 72.806 31.6279 72.0609 31.6304C68.4195 31.6153 64.717 31.6153 61.1392 31.6178C59.6414 31.6178 58.1437 31.6178 56.6459 31.6178C56.4297 31.6178 56.2212 31.6051 55.9771 31.5899C55.8601 31.5823 55.7381 31.5747 55.6033 31.5671L55.2422 31.5494V31.1873C55.2422 30.9746 55.2422 30.7695 55.2473 30.5695C55.2524 30.1492 55.2549 29.7491 55.2397 29.3567C55.1914 28.1235 54.4692 27.3614 53.3045 27.3209C51.3465 27.25 49.4037 27.2525 47.5322 27.3285C46.3955 27.374 45.7064 28.0982 45.6453 29.3161C45.625 29.7263 45.6301 30.1441 45.6352 30.5847C45.6377 30.7974 45.6403 31.0152 45.6403 31.2405V31.6203H44.0865C42.8075 31.6203 41.5259 31.6203 40.2468 31.6178C36.702 31.6127 33.0377 31.6077 29.4344 31.6431C28.2799 31.6558 27.5603 31.4203 27.0771 30.1517C26.3549 28.2577 24.2672 27.2854 21.9964 27.7842C20.0359 28.2172 18.6373 29.9517 18.5966 32.0027C18.5559 34.1169 19.9418 35.9501 21.9685 36.4616C24.0257 36.9807 26.2202 36.016 27.072 34.2207C27.4255 33.4763 27.9341 33.3244 28.5901 33.3269C30.8254 33.3396 33.0962 33.3396 35.2958 33.3371C36.4223 33.3371 37.5513 33.3371 38.6778 33.3371C38.8406 33.3371 38.9982 33.3573 39.194 33.3826C39.3008 33.3953 39.4229 33.4105 39.5729 33.4282L40.7325 33.5497L39.4025 34.322C39.2474 34.4132 39.1432 34.4714 39.0389 34.5297C33.2818 37.7125 29.3556 42.4601 27.3696 48.6408C26.8356 50.3044 26.7008 50.4057 24.964 50.4639C23.3645 50.5146 22.6474 51.2337 22.6372 52.7909C22.6271 54.3405 22.6271 55.9509 22.6372 57.7158C22.6474 59.2958 23.3747 60.0402 24.9284 60.0554C26.6118 60.0706 28.3053 60.0706 29.9659 60.0554C31.4967 60.0402 32.2265 59.3236 32.2621 57.8019C32.285 56.9004 32.2799 55.9788 32.2748 55.09C32.2748 54.7001 32.2697 54.3127 32.2697 53.9253C32.2697 50.9425 32.1248 50.7754 29.1623 50.3702L28.7453 50.312L28.8419 49.9043C30.9016 41.3384 38.749 35.1525 45.1469 34.122L45.5258 34.0612L45.5843 34.4385C45.892 36.4211 46.6218 36.844 47.6263 36.8718C49.3605 36.9174 51.2219 36.9199 53.3172 36.8718C54.3547 36.849 55.0846 36.1856 55.2676 35.0943L55.4558 33.9903L55.8423 34.0688C59.6669 34.8487 63.4608 36.9934 66.5276 40.1027C69.4163 43.0349 71.4328 46.6304 72.0584 49.9651L72.1372 50.3829L71.7125 50.4133C71.6032 50.4209 71.4913 50.4285 71.382 50.4361C71.148 50.4513 70.9166 50.4665 70.6852 50.4893C69.5943 50.6057 68.9154 51.2286 68.8721 52.1528C68.7755 54.2443 68.7755 56.3333 68.8721 58.364C68.9179 59.3388 69.6681 60.0073 70.7412 60.0301C72.7856 60.0731 74.6776 60.0731 76.5288 60.0301C77.5968 60.0048 78.3927 59.2198 78.4182 58.1639C78.4639 56.3586 78.4639 54.4722 78.4207 52.3984C78.4004 51.3628 77.696 50.6184 76.6305 50.5019C76.2262 50.4563 75.7481 50.4184 75.2879 50.4665C74.2885 50.5703 73.9783 49.9904 73.7926 49.3498C71.9211 42.8677 67.9541 37.8897 62.0063 34.5575C61.8665 34.479 61.7419 34.3904 61.5715 34.2663C61.4774 34.198 61.368 34.1195 61.2282 34.0232L60.2339 33.332H63.8296C66.909 33.3269 69.8155 33.3269 72.7424 33.3624C73.2306 33.3674 73.7062 33.884 73.9045 34.2309C75.0208 36.1704 77.1187 37.0111 79.2497 36.373C81.3018 35.7577 82.5656 33.9144 82.3952 31.7849L82.3927 31.7925ZM23.1077 34.8614H23.0822C22.3321 34.8614 21.6353 34.5803 21.1166 34.0714C20.5927 33.5573 20.3029 32.861 20.3003 32.109C20.2978 31.357 20.5851 30.6531 21.114 30.1239C21.6379 29.5997 22.3321 29.3111 23.0746 29.3111H23.0772C24.6131 29.3111 25.8642 30.5594 25.8693 32.0963C25.8743 33.7118 24.7377 34.8462 23.1077 34.8614ZM30.4795 52.249V58.3386H24.3537V52.249H30.4795ZM53.5512 35.1551H47.3745V29.0731H53.5512V35.1551ZM76.6686 52.2516V58.3361H70.4843V52.2516H76.6686ZM77.8257 34.8614H77.8002C77.0526 34.8563 76.3508 34.555 75.8168 34.0131C75.2929 33.4789 75.0081 32.7851 75.0183 32.0584C75.0387 30.5493 76.3406 29.3009 77.8562 29.3085C79.4023 29.3288 80.6 30.572 80.5822 32.1394C80.5644 33.77 79.4557 34.8588 77.8257 34.8588V34.8614Z" fill="#0AB8B6"/>
<path d="M71.8855 10.9461C72.4627 11.5284 73.2383 11.8525 74.0698 11.8551H74.0851C74.909 11.8551 75.6896 11.531 76.2821 10.9435C76.8797 10.351 77.2052 9.57115 77.2052 8.74316C77.2027 7.06694 75.827 5.6743 74.1436 5.63379C74.1207 5.63379 74.0952 5.63379 74.0724 5.63379C73.2764 5.63379 72.5212 5.94017 71.9414 6.49975C71.3337 7.08466 70.9955 7.87213 70.9904 8.71025C70.9827 9.56102 71.3031 10.3536 71.888 10.9461H71.8855ZM72.7704 8.57858C72.923 8.06457 73.5689 7.43915 74.1029 7.43915H74.1054C74.5174 7.43915 74.8556 7.75059 75.1556 8.02406C75.1582 8.02659 75.1633 8.02912 75.1658 8.03165C75.3591 8.20637 75.4633 8.45704 75.4506 8.71784L75.4404 8.93307C75.4277 9.1964 75.298 9.43948 75.0844 9.599C75.0844 9.599 75.0844 9.599 75.0819 9.60153C74.7844 9.82182 74.4462 10.0725 74.0469 10.1079C74.0088 10.1105 73.9681 10.113 73.93 10.113C73.5536 10.113 73.2027 9.95602 72.9738 9.67749C72.7272 9.37618 72.6509 8.97611 72.7704 8.58111V8.57858Z" fill="#0AB8B6"/>
<path d="M65.5683 11.8551C66.41 11.8779 67.1907 11.5588 67.7883 10.9764C68.3884 10.3941 68.7215 9.61673 68.7291 8.78621C68.7368 7.94556 68.4138 7.15303 67.8239 6.55546C67.2415 5.96549 66.4634 5.63885 65.637 5.63379H65.6192C64.8029 5.63379 64.0273 5.96043 63.4297 6.5504C62.8271 7.14796 62.4965 7.93037 62.499 8.75329C62.5041 10.432 63.8798 11.8247 65.5658 11.8525L65.5683 11.8551ZM64.2969 8.61656C64.4266 8.11015 65.0724 7.45434 65.6115 7.43915C66.0184 7.42649 66.3744 7.72781 66.6796 7.99114C66.6796 7.99114 66.6846 7.9962 66.6872 7.99874C66.8855 8.17092 67 8.42159 66.9949 8.68493L66.9898 8.89762C66.9847 9.16349 66.8576 9.41163 66.6465 9.57368C66.6465 9.57368 66.6465 9.57368 66.644 9.57621C66.349 9.8041 66.0159 10.0624 65.6192 10.1105C65.5632 10.1181 65.5098 10.1206 65.4564 10.1206C65.1004 10.1206 64.7749 9.97881 64.5461 9.71801C64.2842 9.41922 64.1926 9.01916 64.2969 8.61909V8.61656Z" fill="#0AB8B6"/>
<path d="M79.4072 8.74072C79.4072 9.55858 79.7353 10.3385 80.3354 10.9335C80.9381 11.5311 81.7263 11.8501 82.5502 11.8526C83.3792 11.8501 84.1599 11.5159 84.7524 10.9183C85.3449 10.3182 85.6653 9.53579 85.6551 8.71034C85.6449 7.88235 85.3017 7.10248 84.6888 6.51251C84.0989 5.94279 83.3385 5.63135 82.5452 5.63135C82.5223 5.63135 82.5019 5.63135 82.479 5.63135C80.788 5.66933 79.4123 7.06196 79.4072 8.73819V8.74072ZM81.2051 8.53816C81.3653 8.03934 82.0468 7.42405 82.5986 7.44177C83.0131 7.45697 83.3462 7.77601 83.6386 8.05706C83.748 8.16088 83.6335 9.53832 83.5115 9.62441C83.2038 9.83964 82.8529 10.0827 82.4485 10.1055C82.4231 10.1055 82.3977 10.1055 82.3697 10.1055C81.9832 10.1055 81.6221 9.93586 81.3932 9.64214C81.1491 9.33069 81.0805 8.92809 81.2051 8.53816Z" fill="#0AB8B6"/>
</g>
<defs>
<clipPath id="clip0_1_486">
<rect width="91" height="92" fill="white"/>
</clipPath>
</defs>
</svg>
