<svg width="90" height="83" viewBox="0 0 90 83" fill="none" xmlns="http://www.w3.org/2000/svg">
<g clip-path="url(#clip0_1_473)">
<path d="M87.3901 36.9729C86.656 36.4679 85.8814 36.0264 85.084 35.6635C81.9095 34.2171 78.2921 33.3949 73.6925 33.0802C72.4521 32.9939 71.2066 33.0168 69.8903 33.0396C69.2802 33.0498 68.66 33.0599 68.0272 33.0599H67.5209V23.6073C67.5209 17.2151 67.5209 10.8254 67.5209 4.4332C67.5184 1.49211 66.04 0 63.1263 0C43.5432 0 23.9575 0 4.37178 0C1.5138 0 0 1.5048 0 4.34692C0 17.8013 0 31.2582 0 44.7151C0 47.6486 1.47582 49.1357 4.3895 49.1382C9.40933 49.1382 14.4292 49.1382 19.4465 49.1382H27.5141L27.4255 49.7218C26.9167 53.0766 24.0689 55.8679 20.8008 56.213C19.4743 56.3526 18.1251 56.3577 16.8188 56.3602C16.2493 56.3602 15.6594 56.3628 15.0848 56.3754C13.9912 56.4008 13.5989 56.784 13.5786 57.8473C13.5583 58.9943 13.5634 60.1641 13.5685 61.2959V62.3972C13.5761 64.0771 13.8495 64.3511 15.5379 64.3511H47.8517H49.4895V64.8587C49.4895 65.8255 49.492 66.7796 49.4971 67.7211C49.5047 69.9618 49.5148 72.0781 49.4743 74.2326C49.4414 76.0216 50.0717 77.3741 51.3425 78.2521C52.8107 79.2646 54.4005 80.2771 56.0839 80.838C63.8098 83.406 71.8496 83.6852 80.6641 81.6881C83.6309 81.0156 85.8712 80.0488 87.7141 78.6429C89.276 77.4503 89.9975 76.0089 89.9899 74.1006C89.9266 61.6131 89.9316 51.4093 90 41.9898C90.0152 39.8074 89.1874 38.2138 87.3901 36.9729ZM82.8082 36.6278C83.8081 36.945 84.8536 37.4246 85.9143 38.0514C87.8584 39.2035 88.2483 40.3454 88.2305 41.1016C88.2153 41.835 87.7977 42.9185 85.9143 43.9234C83.8258 45.0374 81.6488 45.8495 79.6161 46.2707C77.3504 46.7427 75.0165 47.0091 72.7584 47.2654C71.8066 47.3746 69.3131 47.3517 69.3131 47.3517C63.6782 47.2807 59.4228 46.5448 55.5624 44.9791C54.7928 44.6669 54.0587 44.2914 53.3803 43.8625C51.95 42.9566 51.2337 41.9821 51.2463 40.9646C51.259 39.9647 51.9728 39.036 53.3702 38.1986C54.8511 37.3104 56.3446 36.6608 57.8103 36.2624C66.3311 33.9506 74.7431 34.075 82.8107 36.6278H82.8082ZM26.2484 55.4568C27.9344 53.7845 28.9064 51.9194 29.3115 49.5873L29.3849 49.1661H38.4018L38.4752 49.5873C38.8803 51.9169 39.8827 53.8378 41.5383 55.4543L42.4293 56.3247H25.3725L26.2484 55.4568ZM40.2498 49.1636H49.4136V56.1877L48.9883 56.2562C48.6389 56.3145 48.2896 56.3399 47.9403 56.3399C44.4013 56.3399 40.9991 53.4876 40.351 49.7574L40.2472 49.1636H40.2498ZM49.4338 62.5545H15.3304V58.1594H49.4313V62.5545H49.4338ZM49.4414 47.3847H4.69327C2.35676 47.3847 1.74922 46.7833 1.74922 44.4563V42.7536V41.4137H49.4389V47.3847H49.4414ZM50.7831 38.1504C49.9882 39.546 48.7756 39.5968 47.7732 39.5968C47.7327 39.5968 47.6947 39.5968 47.6567 39.5968C35.9413 39.574 24.0309 39.574 12.5103 39.5765H1.8201L1.79732 39.0918C1.79225 38.9522 1.78466 38.8228 1.77707 38.701C1.76188 38.4498 1.74922 38.2138 1.74922 37.9753C1.74922 26.8022 1.74669 15.6316 1.74922 4.45857C1.74922 2.42341 2.40486 1.77125 4.44266 1.77125C23.9878 1.77125 43.533 1.77125 63.0782 1.77125C65.0882 1.77125 65.7691 2.45133 65.7691 4.46365V24.0083V32.8239L65.3616 32.9051C64.5692 33.0625 63.7769 33.202 63.0124 33.3365C61.2531 33.6486 59.5899 33.9405 57.9698 34.4226C56.2712 34.9276 54.608 35.7422 53.0006 36.5288C52.7247 36.6633 52.4487 36.7978 52.1728 36.9323C51.5779 37.2216 51.0438 37.6885 50.778 38.1504H50.7831ZM84.9675 78.3511C82.1905 79.6808 79.0971 80.4878 75.2392 80.8912C73.1913 81.1069 71.237 81.2135 69.3714 81.2135C65.9261 81.2135 62.7719 80.8481 59.8279 80.1122C57.666 79.5717 55.5953 78.6886 53.6588 77.8284C51.9197 77.0569 51.0818 75.6206 51.2412 73.6768C51.34 72.4461 51.3172 71.2052 51.2944 69.8933C51.2843 69.3045 51.2716 68.7082 51.2716 68.0992V67.211L52.0361 67.6627C57.99 71.1824 64.3566 71.662 69.8068 71.6442C75.2316 71.6366 81.5729 71.1595 87.461 67.6576L88.2255 67.2034V68.0941C88.2255 68.6575 88.2103 69.2106 88.1926 69.7435C88.1571 70.8982 88.1267 71.9893 88.2584 73.0526C88.6482 76.1688 86.7066 77.5213 84.97 78.3511H84.9675ZM51.2716 58.738C51.2716 58.1239 51.2666 57.5047 51.2666 56.8754V56.0811L51.9855 56.416C63.5794 61.7983 76.1657 61.8085 87.4205 56.4414L88.0761 56.1293L88.1419 56.8551C88.1495 56.9464 88.1596 57.0327 88.1698 57.119C88.1926 57.3118 88.2128 57.5123 88.2153 57.7204C88.2153 58.2685 88.2103 58.8166 88.2052 59.3647C88.1926 60.4711 88.1799 61.6131 88.2407 62.7245C88.3293 64.3562 87.6559 65.5768 86.294 66.2518L85.8484 66.4726C84.2385 67.2719 82.5753 68.0992 80.816 68.5407C77.0138 69.4949 73.2546 69.9719 69.5663 69.9719C65.1818 69.9719 60.8936 69.2995 56.7395 67.952C55.4535 67.5358 54.2764 66.8101 53.1373 66.1122C52.9196 65.9777 52.7019 65.8458 52.4842 65.7138C51.907 65.3662 51.2286 64.6379 51.2564 63.1356C51.2843 61.6867 51.2792 60.2554 51.2716 58.743V58.738ZM84.7599 55.8933C81.7804 57.256 78.4415 58.063 74.2494 58.436C72.5711 58.5857 70.951 58.6593 69.3866 58.6593C65.2983 58.6593 61.5771 58.1492 58.109 57.1215C56.3396 56.5962 54.6232 55.7106 53.1094 54.9265C51.8032 54.2515 51.1577 53.0537 51.2412 51.4652C51.3096 50.1431 51.2969 48.8235 51.2792 47.4253C51.2716 46.8137 51.264 46.1946 51.264 45.5627V44.6771L52.026 45.1262C57.99 48.6383 64.5971 49.09 69.6878 49.0951H69.7334C75.1506 49.0951 81.4868 48.618 87.4559 45.1186L88.2179 44.672V45.5576C88.2179 46.1058 88.2001 46.6412 88.185 47.1614C88.1495 48.2729 88.1166 49.3209 88.2508 50.3334C88.6837 53.6501 86.6129 55.0483 84.7599 55.8958V55.8933Z" fill="black"/>
<path d="M31.8249 25.9596C31.7085 26.4012 31.5895 26.8427 31.4705 27.2842C31.1364 28.5251 30.7896 29.8092 30.4833 31.0754C30.4099 31.3825 30.4377 31.654 30.5668 31.8621C30.6782 32.0423 30.8605 32.1641 31.0984 32.2174C31.5642 32.3214 31.9692 32.0372 32.1591 31.4764C32.1768 31.4256 32.1869 31.3723 32.1971 31.319C32.2097 31.2581 32.2224 31.1972 32.2376 31.1389L36.9789 13.401C37.0144 13.2716 37.0447 13.1396 37.0878 12.9468L37.1308 12.759C37.103 12.7184 37.0751 12.6778 37.0473 12.6347C36.9156 12.4418 36.7384 12.1779 36.6017 12.1271C36.5461 12.1068 36.4726 12.0967 36.3916 12.0967C36.1486 12.0967 35.8246 12.183 35.5791 12.3225C35.5234 12.3631 35.4246 12.5255 35.2778 13.0686C34.2906 16.7227 33.3008 20.4454 32.3413 24.0437L31.8325 25.9596H31.8249Z" fill="#0AB8B6"/>
<path d="M24.4383 23.7848C23.9599 23.3077 23.4738 22.823 22.9827 22.3333L22.6207 21.9729L22.9853 21.6126C23.4637 21.1381 23.9421 20.6686 24.4155 20.2017C25.6281 19.009 26.7723 17.8798 27.9266 16.7125C28.1342 16.5019 28.2481 16.2456 28.2456 15.9943C28.2431 15.7736 28.1494 15.5655 27.9823 15.4082C27.8127 15.2458 27.6127 15.1646 27.4102 15.1646C27.1799 15.1646 26.9444 15.2686 26.7343 15.4741C24.7117 17.4662 22.7321 19.4506 20.8538 21.3715C20.4462 21.7877 20.4437 22.2064 20.8437 22.615C22.9169 24.7389 25.0129 26.8223 26.79 28.5809C27.1216 28.9082 27.4786 28.9361 27.8887 28.6672C28.0962 28.5301 28.2127 28.35 28.2355 28.1292C28.2684 27.8221 28.114 27.4719 27.8127 27.1674C26.7039 26.0433 25.6028 24.947 24.4383 23.7873V23.7848Z" fill="#0AB8B6"/>
<path d="M40.7052 28.7918C42.667 26.8657 44.6922 24.8357 46.7199 22.7599C47.0616 22.4097 47.0667 22.0113 46.7325 21.6687C44.6188 19.4965 42.6291 17.5045 40.6495 15.5734C40.4723 15.4008 40.2976 15.3374 40.1381 15.3374C39.8926 15.3374 39.6825 15.4871 39.5508 15.6089C39.1559 15.9794 39.1306 16.3448 39.4749 16.7965C39.604 16.9665 39.766 17.1239 39.9381 17.2914L40.0799 17.4309C41.1456 18.4942 42.2114 19.5574 43.3708 20.7121L45.1175 22.4528L44.5833 22.7929C44.4542 22.8741 44.3302 22.9477 44.2112 23.0162C44.0087 23.1329 43.834 23.2319 43.7176 23.3461C42.0342 25.0006 40.7583 26.2796 39.5787 27.5001C39.1585 27.9341 39.1281 28.3553 39.4901 28.7512C39.6597 28.9364 39.8774 29.0405 40.1002 29.0481C40.3229 29.0557 40.528 28.9643 40.7052 28.7918Z" fill="#0AB8B6"/>
<path d="M56.0834 63.9299H56.0885C56.3087 63.9299 56.5315 63.8309 56.7011 63.6609C56.8707 63.4909 56.9669 63.2676 56.9644 63.0519C56.9593 62.5596 56.2809 61.9404 55.4404 61.9125C55.1848 61.9023 54.9595 61.981 54.8 62.1333C54.643 62.283 54.557 62.4911 54.5519 62.7347C54.5469 62.9478 54.6633 63.1914 54.8683 63.4021C55.1822 63.7243 55.6455 63.9274 56.0809 63.9299H56.0834Z" fill="#0AB8B6"/>
<path d="M56.0484 52.5487C56.2762 52.5589 56.504 52.4726 56.6787 52.3102C56.8534 52.1478 56.9546 51.9346 56.9622 51.7113C56.9698 51.5033 56.866 51.2774 56.6736 51.0719C56.3623 50.7445 55.8813 50.5364 55.4155 50.5288C55.4104 50.5288 55.4054 50.5288 55.4003 50.5288C54.9371 50.5288 54.5827 50.8612 54.5548 51.3205C54.5422 51.5489 54.6384 51.79 54.8257 51.9981C55.1143 52.3204 55.5699 52.5234 56.0484 52.5462V52.5487Z" fill="#0AB8B6"/>
<path d="M55.3501 73.2832C54.8717 73.306 54.5527 73.6461 54.5527 74.1308C54.5527 74.3363 54.6793 74.5774 54.8995 74.7931C55.2286 75.1153 55.6944 75.3082 56.107 75.2955C56.3298 75.2904 56.5551 75.1839 56.7222 75.0062C56.8842 74.8337 56.9703 74.6104 56.9627 74.3972C56.9551 74.1917 56.8234 73.9607 56.6007 73.7577C56.2766 73.4608 55.8286 73.2832 55.416 73.2832C55.3932 73.2832 55.3704 73.2832 55.3476 73.2832H55.3501Z" fill="#0AB8B6"/>
</g>
<defs>
<clipPath id="clip0_1_473">
<rect width="90" height="83" fill="white"/>
</clipPath>
</defs>
</svg>
