<svg width="32" height="31" viewBox="0 0 32 31" fill="none" xmlns="http://www.w3.org/2000/svg">
<path d="M0 29.2851C0.198898 28.4706 0.367825 27.7532 0.550375 27.0393C1.29147 24.1484 2.03711 21.2593 2.78094 18.3692C2.94805 17.7197 3.0643 17.6156 3.76816 17.5397C7.42643 17.1435 11.0856 16.7499 14.7439 16.3555C14.9128 16.337 15.0817 16.3167 15.2497 16.2964C15.7256 16.2372 16.0408 15.9134 16.0326 15.4916C16.0254 15.083 15.7157 14.768 15.2552 14.7168C13.8375 14.5597 12.4189 14.4079 11.0002 14.2553C8.51265 13.9879 6.02415 13.7223 3.53657 13.4531C3.1415 13.4107 2.93987 13.2254 2.83089 12.8045C2.01532 9.64799 1.20156 6.49147 0.391438 3.33495C0.28427 2.91931 0.173468 2.5028 0.103536 2.08099C-0.0136231 1.37238 0.19799 0.764373 0.807398 0.334621C1.4159 -0.0951318 2.06345 -0.0889547 2.73099 0.227844C7.3683 2.42779 12.0074 4.62332 16.6457 6.82062C21.3039 9.02851 25.9639 11.2337 30.6194 13.4478C32.2142 14.2058 32.4803 16.1772 31.1398 17.245C30.9581 17.3897 30.7456 17.5053 30.534 17.6059C21.2993 21.9846 12.0637 26.3607 2.82726 30.7359C1.86909 31.1903 0.979958 31.0606 0.457738 30.3291C0.229777 30.0096 0.134415 29.6019 0 29.2851Z" fill="white"/>
</svg>
