<svg width="64" height="64" viewBox="0 0 64 64" fill="none" xmlns="http://www.w3.org/2000/svg">
<g clip-path="url(#clip0_1_16442)">
<path d="M10.6693 6.40915C10.6693 5.61315 10.6587 4.924 10.6711 4.23664C10.7156 1.87181 12.5993 0.0109267 14.9353 0.0109267C17.273 0.0109267 19.1496 1.87002 19.1959 4.2402C19.2101 4.92757 19.1977 5.61671 19.1977 6.35572H27.7314C27.7314 5.73246 27.7278 5.09852 27.7314 4.46279C27.7438 1.92701 29.5617 0.0216112 31.9724 0.0109267C34.417 0.00024224 36.2508 1.9092 36.2633 4.4806C36.2668 5.09852 36.2633 5.71644 36.2633 6.37175H44.8005C44.8005 5.62562 44.7774 4.85812 44.8041 4.0924C44.8753 2.0481 46.4118 0.368857 48.4772 0.0483224C50.3822 -0.247281 52.3657 0.911984 53.0316 2.76218C53.2078 3.25366 53.2773 3.79679 53.3146 4.32211C53.3609 4.98277 53.3253 5.65055 53.3253 6.41093C53.6155 6.41093 53.8719 6.40737 54.1283 6.41093C55.9693 6.44476 57.8316 6.32189 59.6477 6.55517C62.1546 6.87748 63.9742 9.09807 63.9813 11.6321C64.0045 20.8528 63.9938 30.0735 63.9902 39.2942C63.9902 40.067 63.5487 40.5496 62.9041 40.5354C62.2632 40.5211 61.8626 40.0439 61.8608 39.2514C61.8572 33.5637 61.859 27.876 61.859 22.1866C61.859 21.9266 61.859 21.6666 61.859 21.3745H2.13565V22.0779C2.13565 32.7214 2.13565 43.3632 2.13565 54.0067C2.13565 56.3128 3.41935 57.6056 5.71257 57.6056C15.3341 57.6056 24.9557 57.6056 34.5754 57.6056C34.798 57.6056 35.0205 57.5931 35.2413 57.6127C35.8342 57.6661 36.2473 58.0935 36.2597 58.6473C36.2722 59.2261 35.8449 59.6748 35.2199 59.7318C35.065 59.746 34.9084 59.7371 34.7535 59.7371C25.0429 59.7371 15.3341 59.7389 5.62355 59.7371C2.27986 59.7371 0.00445112 57.472 0.00267067 54.1403C-0.000890224 40.0973 -0.000890224 26.0543 0.00267067 12.0132C0.00267067 8.67782 2.27452 6.41805 5.61643 6.41093C7.27758 6.40737 8.93874 6.41093 10.6693 6.41093V6.40915ZM19.1995 8.57097C19.1995 9.31176 19.2066 9.97776 19.1995 10.6438C19.1656 13.0638 17.3015 14.9407 14.9371 14.9407C12.5744 14.9407 10.7032 13.0602 10.6711 10.6473C10.6622 9.9653 10.6711 9.28327 10.6711 8.62796C10.5607 8.58344 10.5233 8.55494 10.4824 8.55494C8.79453 8.5496 7.10488 8.53358 5.41701 8.54604C3.51372 8.55851 2.15345 9.9279 2.14099 11.8386C2.12853 13.6835 2.13743 15.5266 2.13743 17.3714C2.13743 17.9644 2.13743 18.5592 2.13743 19.1646H61.8555C61.8555 16.5683 61.9071 14.0147 61.8359 11.4647C61.7914 9.85133 60.3759 8.59234 58.7432 8.5496C57.7658 8.52467 56.7883 8.54248 55.8108 8.54248C54.9972 8.54248 54.1835 8.54248 53.3324 8.54248C53.3324 9.29574 53.3787 9.96351 53.3182 10.6206C53.2648 11.21 53.1793 11.8226 52.9586 12.364C52.2143 14.1839 50.2362 15.2345 48.3597 14.8784C46.3086 14.4884 44.8611 12.8376 44.8059 10.8005C44.7863 10.0561 44.8023 9.30998 44.8023 8.57987H36.2668C36.2668 9.23163 36.2686 9.84955 36.2668 10.4675C36.2544 13.0406 34.4223 14.9514 31.9795 14.9407C29.5688 14.9318 27.7492 13.0228 27.7349 10.4906C27.7314 9.85489 27.7349 9.21916 27.7349 8.57097H19.2012H19.1995ZM17.0665 7.54348C17.0665 6.49996 17.0736 5.45467 17.0647 4.41115C17.0522 3.10586 16.1585 2.15316 14.9495 2.14426C13.7317 2.13536 12.8112 3.07737 12.8041 4.37375C12.7934 6.43942 12.7934 8.50508 12.8041 10.5707C12.8112 11.8618 13.7388 12.8145 14.9495 12.8056C16.1585 12.7967 17.054 11.8458 17.0647 10.5405C17.0736 9.54148 17.0665 8.5407 17.0665 7.5417V7.54348ZM34.1321 7.48115C34.1321 6.43764 34.1428 5.39234 34.1285 4.34882C34.1125 3.0934 33.2027 2.15673 32.0187 2.14426C30.8009 2.13358 29.875 3.07559 29.8679 4.37019C29.8555 6.43586 29.8572 8.50152 29.8679 10.5672C29.875 11.86 30.7991 12.8127 32.0098 12.8056C33.2187 12.7985 34.1178 11.8493 34.1303 10.544C34.1392 9.52189 34.1321 8.49974 34.1303 7.47937L34.1321 7.48115ZM46.9317 7.47581C46.9317 8.49796 46.9246 9.52011 46.9317 10.5405C46.9424 11.844 47.8398 12.7967 49.0469 12.8056C50.2576 12.8145 51.1852 11.8654 51.1923 10.5707C51.2048 8.50508 51.2048 6.43942 51.1923 4.37375C51.1852 3.08271 50.2541 2.13358 49.0434 2.14248C47.8291 2.15316 46.9424 3.09874 46.9317 4.40759C46.9228 5.42974 46.9317 6.45188 46.9317 7.47225V7.47581Z" fill="black"/>
<path d="M50.1731 63.9998C42.4441 63.9963 36.2767 57.8046 36.2695 50.0441C36.2642 42.4831 42.5171 36.2843 50.1606 36.2754C57.7453 36.2665 63.9982 42.5134 63.9982 50.0993C63.9982 57.7637 57.7916 64.0034 50.1731 63.9998ZM50.1535 61.8701C56.5453 61.879 61.8386 56.6169 61.8635 50.2311C61.8902 43.7296 56.645 38.4087 50.2104 38.4087C43.662 38.4087 38.4185 43.6192 38.4025 50.1438C38.3883 56.599 43.662 61.8612 50.1535 61.8701Z" fill="#0AB8B6"/>
<path d="M12.7959 34.1386C12.0855 34.1386 11.3733 34.1546 10.6629 34.135C9.45751 34.103 8.56373 33.2179 8.5388 32.0159C8.51744 30.951 8.51922 29.8826 8.5388 28.8177C8.56017 27.6015 9.43437 26.7022 10.6379 26.6808C12.0819 26.6559 13.5258 26.6559 14.9698 26.6808C16.1378 26.7022 17.0298 27.5943 17.0582 28.7607C17.0867 29.8488 17.085 30.9386 17.0582 32.0248C17.0315 33.2268 16.1342 34.103 14.9253 34.1332C14.2149 34.151 13.5045 34.1368 12.7923 34.1368L12.7959 34.1386ZM14.8897 31.9732V28.8551H10.7003V31.9732H14.8897Z" fill="black"/>
<path d="M25.588 34.1386C24.8777 34.1386 24.1655 34.1546 23.4551 34.135C22.2515 34.1012 21.3613 33.2144 21.3363 32.0106C21.315 30.9457 21.315 29.8772 21.3363 28.8124C21.3595 27.5712 22.2533 26.6933 23.5067 26.6772C24.9061 26.6612 26.3056 26.6594 27.705 26.6772C28.9442 26.6933 29.8362 27.589 29.8576 28.832C29.8754 29.8755 29.8754 30.9208 29.8576 31.9643C29.8362 33.2446 28.9442 34.1154 27.6516 34.1368C26.9626 34.1475 26.2753 34.1386 25.5863 34.1368L25.588 34.1386ZM27.7014 28.8533H23.5174V31.9714H27.7014V28.8533Z" fill="black"/>
<path d="M38.3975 26.6757C39.1079 26.6757 39.8201 26.6615 40.5305 26.6775C41.7359 26.7078 42.6332 27.5875 42.6599 28.7895C42.6831 29.8775 42.6866 30.9673 42.6581 32.0536C42.6279 33.22 41.7376 34.1086 40.5661 34.1299C39.1222 34.1566 37.6782 34.1566 36.2343 34.1299C35.0663 34.1086 34.1689 33.2146 34.1422 32.0518C34.1155 30.9424 34.112 29.8294 34.144 28.72C34.1779 27.5839 35.0592 26.7185 36.2004 26.6775C36.9322 26.6508 37.6657 26.6722 38.3993 26.6722L38.3975 26.6757ZM40.4842 31.977V28.8589H36.3019V31.977H40.4842Z" fill="black"/>
<path d="M51.2166 34.1388C50.5062 34.1388 49.794 34.153 49.0836 34.1352C47.8444 34.1067 46.9559 33.2164 46.9346 31.9734C46.9168 30.9299 46.9185 29.8846 46.9346 28.8411C46.9542 27.5892 47.8337 26.6953 49.0765 26.6775C50.4973 26.6579 51.9198 26.6561 53.3406 26.6775C54.5406 26.6971 55.4309 27.5963 55.4558 28.8019C55.4772 29.8668 55.4772 30.9352 55.4558 32.0001C55.4309 33.236 54.5317 34.1085 53.2801 34.1335C52.5911 34.1477 51.9038 34.1352 51.2148 34.1352L51.2166 34.1388ZM53.2801 31.9805V28.8393H49.1032V31.9805H53.2801Z" fill="black"/>
<path d="M12.7995 36.2737C13.5099 36.2737 14.2221 36.2577 14.9325 36.2755C16.1379 36.3058 17.0334 37.1873 17.0583 38.3911C17.0815 39.4791 17.0851 40.5689 17.0566 41.6552C17.0263 42.8215 16.1343 43.7084 14.9628 43.7297C13.5188 43.7547 12.0749 43.7564 10.6309 43.7297C9.46295 43.7084 8.56739 42.8126 8.54068 41.6498C8.51397 40.5404 8.51041 39.4274 8.54246 38.318C8.57629 37.1819 9.45939 36.3183 10.6007 36.2773C11.3324 36.2524 12.066 36.272 12.7995 36.272V36.2737ZM10.7128 38.4338V41.5519H14.8951V38.4338H10.7128Z" fill="black"/>
<path d="M25.6003 36.2737C26.3107 36.2737 27.0229 36.2577 27.7333 36.2755C28.9386 36.3058 29.8342 37.1873 29.8591 38.3911C29.8823 39.4791 29.8858 40.5689 29.8573 41.6552C29.8271 42.8215 28.9351 43.7084 27.7635 43.7297C26.3196 43.7547 24.8757 43.7564 23.4317 43.7297C22.2637 43.7084 21.3682 42.8126 21.3415 41.6498C21.3148 40.5404 21.3112 39.4274 21.3432 38.318C21.3771 37.1819 22.2602 36.3183 23.4014 36.2773C24.1332 36.2524 24.8667 36.272 25.6003 36.272V36.2737ZM27.719 38.448H23.5136V41.5519H27.719V38.448Z" fill="black"/>
<path d="M12.7748 53.3369C12.1089 53.3369 11.4413 53.344 10.7754 53.3369C9.4454 53.3191 8.55517 52.443 8.53737 51.127C8.52491 50.1049 8.52313 49.0827 8.53737 48.0624C8.55695 46.7749 9.43828 45.8916 10.7273 45.8774C12.1036 45.8631 13.4817 45.8631 14.858 45.8774C16.1434 45.8898 17.0408 46.7767 17.0622 48.0499C17.08 49.0934 17.08 50.1387 17.0622 51.1822C17.039 52.4287 16.1523 53.3084 14.906 53.3369C14.1956 53.353 13.4852 53.3405 12.7731 53.3405L12.7748 53.3369ZM14.8882 51.1751V48.057H10.7042V51.1751H14.8882Z" fill="black"/>
<path d="M25.6064 45.8721C26.3168 45.8721 27.029 45.8578 27.7394 45.8757C28.943 45.9077 29.835 46.791 29.8599 47.9965C29.8831 49.0614 29.8813 50.1299 29.8599 51.1947C29.835 52.4341 28.9412 53.3174 27.6896 53.3334C26.2901 53.3512 24.8907 53.353 23.4913 53.3334C22.2503 53.3156 21.3583 52.4181 21.3369 51.1787C21.3191 50.1352 21.3209 49.0899 21.3369 48.0464C21.3565 46.7642 22.2449 45.8952 23.5411 45.8757C24.2301 45.865 24.9174 45.8739 25.6064 45.8757V45.8721ZM27.6789 51.1805V48.041H23.5091V51.1805H27.6789Z" fill="black"/>
<path d="M36.2859 38.4055V41.5485C36.439 41.609 36.5868 41.6553 36.7221 41.7248C37.1921 41.9687 37.4093 42.3694 37.2972 42.8805C37.1797 43.4183 36.8075 43.7103 36.2485 43.7335C35.198 43.778 34.1832 42.8484 34.144 41.7373C34.103 40.5833 34.103 39.4258 34.144 38.2719C34.1832 37.1714 35.0716 36.3078 36.1808 36.2828C37.6016 36.2508 39.0242 36.2632 40.4468 36.2775C41.1323 36.2846 41.5809 36.7191 41.5898 37.3228C41.5987 37.9478 41.1323 38.393 40.4094 38.4001C39.058 38.4126 37.7049 38.4037 36.2841 38.4037L36.2859 38.4055Z" fill="black"/>
<path d="M48.0054 53.9693C48.9295 53.0397 49.7859 52.1743 50.6476 51.3106C52.4672 49.4889 54.2868 47.6654 56.1118 45.8491C56.7136 45.2507 57.3261 45.2098 57.7979 45.7066C58.2519 46.1838 58.2056 46.7697 57.6287 47.3484C54.7284 50.2564 51.8245 53.1626 48.9152 56.0616C48.26 56.7134 47.7348 56.7098 47.0778 56.0581C45.6748 54.6655 44.2789 53.2676 42.8866 51.8662C42.3133 51.2892 42.2653 50.7051 42.7228 50.2279C43.1964 49.7329 43.8071 49.7774 44.4107 50.3757C45.5911 51.5457 46.7627 52.7263 48.0036 53.9693H48.0054Z" fill="#0AB8B6"/>
</g>
<defs>
<clipPath id="clip0_1_16442">
<rect width="64" height="64" fill="white"/>
</clipPath>
</defs>
</svg>
