<svg width="64" height="64" viewBox="0 0 64 64" fill="none" xmlns="http://www.w3.org/2000/svg">
<path d="M0.0933333 30.0008C0.253333 28.788 0.386667 27.5618 0.6 26.3623C1.42667 21.5643 3.30667 17.2062 6.16 13.2745C6.6 12.6747 7.16 12.5281 7.65333 12.8746C8.16 13.2212 8.21333 13.7943 7.8 14.4073C7.24 15.2603 6.69333 16.1133 6.12 16.9663C5.93333 17.2461 5.88 17.486 6.2 17.7126C6.21333 17.7126 6.22667 17.7393 6.24 17.7526C8.36 19.8717 8.17333 19.3253 8.04 22.324C7.97333 23.95 8.36 25.0696 9.78667 25.9225C10.6533 26.4423 11.4 27.162 12.1867 27.8151C13.68 29.0546 13.4533 31.4402 11.72 32.2932C11.2 32.5464 11.0533 32.853 11.08 33.3861C11.12 34.1591 11.1333 34.9321 11.08 35.6918C11.04 36.2382 11.2667 36.4915 11.7333 36.718C13.6933 37.6643 15.6267 38.6905 17.6 39.6235C18.68 40.1299 19.1333 40.903 19.1067 42.0891C19.0533 43.8217 19.0933 45.541 19.1067 47.2736C19.1067 47.5402 19.12 47.8467 19.2533 48.0466C20.7333 50.3923 21.4533 52.9113 21.1067 55.6835C21.1067 55.7634 21.12 55.8434 21.1333 55.9234C21.2133 55.95 21.2667 55.9767 21.32 55.9767C22.4133 56.0033 22.4667 56.03 22.8 54.9904C23.6 52.5248 24.8667 50.3257 26.56 48.3665C26.9733 47.8867 27.1867 47.3536 27.1867 46.7272C27.1867 46.4207 27.24 46.1008 27.2267 45.7943C27.2 44.7813 27.5867 44.0217 28.4 43.3819C29.88 42.2224 31.2933 41.0096 32.72 39.7834C32.92 39.6102 33.0667 39.277 33.08 39.0104C33.12 38.0375 33.0933 37.0512 33.0933 35.985C32.4533 35.985 31.84 35.985 31.2267 35.985C30.52 35.985 29.8133 35.9983 29.1067 35.985C28.2667 35.9583 27.64 35.5452 27.28 34.7855C26.92 34.0258 27.12 33.3194 27.72 33.0662C28.3333 32.813 28.8267 33.1195 29.16 33.9858C30.4133 33.9858 31.68 33.9858 32.96 33.9858C34.28 33.9858 35.0933 34.7988 35.1067 36.1316C35.1067 37.1712 35.0933 38.2107 35.1067 39.2503C35.1333 40.0633 34.8133 40.6897 34.1867 41.1962C32.6933 42.4223 31.2133 43.6751 29.7067 44.888C29.3867 45.1412 29.2 45.4077 29.2267 45.8342C29.3467 47.5135 28.8533 48.9796 27.6667 50.2057C26.04 51.8984 25.2933 54.0841 24.4667 56.2166C23.92 57.6426 23.4133 57.9758 21.88 57.9758C21.72 57.9758 21.5467 57.9758 21.3867 57.9758C19.8933 57.9758 19.1067 57.1895 19.0933 55.7101C19.0933 54.6839 19.1067 53.671 19.0933 52.6447C19.0933 52.3648 19.04 52.045 18.8933 51.8184C17.32 49.4461 16.8133 46.8471 17.0933 44.035C17.16 43.3952 17.08 42.7422 17.1067 42.1025C17.1333 41.7026 16.9867 41.516 16.64 41.3428C14.5867 40.3299 12.5467 39.277 10.4933 38.2907C9.52 37.8109 9.06667 37.0912 9.09333 36.0117C9.12 34.9721 9.12 33.9325 9.09333 32.893C9.06667 31.8267 9.52 31.1204 10.48 30.6672C11.3333 30.2674 11.3867 29.681 10.64 29.0945C9.45333 28.1483 8.28 27.1887 7.08 26.2557C6.4 25.7359 6.06667 25.0829 6.09333 24.2166C6.12 23.3369 6.09333 22.4706 6.09333 21.591C6.09333 20.6669 5.71111 19.9161 4.94667 19.3386C-0.6 30.374 1.37333 47.3403 15.28 56.8163C28.92 66.0925 46.3467 62.3074 55.4267 50.7522C54.3333 49.9259 53.2533 49.0862 52.1333 48.2865C51.3867 47.7534 51.0533 47.0737 51.08 46.1541C51.1067 44.7014 51.1067 43.2353 51.08 41.7826C51.08 41.516 50.9733 41.2095 50.8 40.9963C49.7733 39.6768 48.7333 38.384 47.68 37.0912C47.2667 36.5848 47.0667 36.025 47.08 35.3719C47.1067 34.1058 47.0933 32.8263 47.08 31.5602C47.08 30.8938 47.3867 30.414 47.76 29.8809C49.0533 28.015 51.0533 27.7085 53.0533 27.3886C53.3733 27.3353 53.6933 27.2553 54.0533 27.1887C54.0533 26.9754 54.0933 26.8022 54.08 26.6156C54.0133 25.696 54.4933 25.0562 55.1467 24.5364C55.9733 23.8967 56.3067 23.1104 56 22.0175C55.24 22.0441 54.4133 21.8309 53.6667 22.3374C52.6133 23.0437 51.5733 23.0304 50.52 22.3374C48.8133 21.2045 46.9333 20.818 44.8933 20.9913C43.6933 21.0979 42.48 21.0179 41.2667 21.0046C39.92 21.0046 39.2 20.1649 39.0667 18.8188C38.9067 17.1529 39.4267 15.9267 40.92 15.1537C41.88 14.6606 42.2 13.9142 42.12 12.8347C42.08 12.2482 42.4133 11.6218 42.6133 11.0221C42.6933 10.7955 42.8533 10.5823 43.0133 10.3957C43.7067 9.54269 44.1067 8.71637 43.3467 7.63682C43.12 7.31695 43.2267 6.70387 43.3067 6.26406C43.4267 5.66431 43.6667 5.07788 43.8933 4.41149C36.9333 1.53269 29.92 1.25281 22.6667 3.49188C22.88 3.66514 22.9867 3.77176 23.12 3.85173C23.7867 4.29155 24.0933 4.90462 24.08 5.70429C24.08 7.07705 24.08 8.44981 24.08 9.82257C24.08 10.1558 24.1467 10.369 24.52 10.4357C24.88 10.5156 25.2267 10.6622 25.5867 10.7822C26.3867 11.0487 26.9467 11.5685 27.0533 12.4082C27.1733 13.3678 27.2533 14.3807 26.3333 15.0471C24.1867 16.6197 22.0133 18.1658 19.8133 19.6718C19.4667 19.9117 18.9467 19.9783 18.5067 19.9917C17.3867 20.0317 16.2667 20.005 15.08 20.005C15.08 21.1379 15.0667 22.2174 15.0933 23.2836C15.0933 23.4436 15.28 23.6302 15.4267 23.7501C16.0133 24.2166 16.6267 24.6431 17.2133 25.1095C17.7467 25.5227 17.8667 26.1224 17.5333 26.5756C17.1733 27.0687 16.5867 27.122 16 26.6955C15.3067 26.1891 14.6267 25.6826 13.9467 25.1628C13.36 24.723 13.0533 24.1366 13.0667 23.3903C13.0667 22.284 13.0667 21.1778 13.0667 20.085C13.08 18.8588 13.92 18.0325 15.16 18.0058C15.2 18.0058 15.24 18.0058 15.28 18.0058C16.44 18.0058 17.6933 18.2324 18.7467 17.8992C19.7867 17.566 20.64 16.6464 21.5733 15.9933C22.6133 15.2603 23.6533 14.5406 24.6667 13.7676C24.8667 13.6077 25.0267 13.2745 25.0267 13.0212C25.0267 12.8613 24.7067 12.6481 24.4933 12.5681C22.2 11.7818 22.0667 11.6085 22.0667 9.18284C22.0667 8.14327 22.0667 7.10371 22.0667 6.06414C22.0667 5.71762 21.9333 5.53103 21.68 5.30446C20.76 4.45148 19.84 4.3182 18.8267 5.09121C18.7467 5.15785 18.64 5.18451 18.5467 5.22449C17.9467 5.46439 17.4133 5.29113 17.16 4.78467C16.9067 4.26489 17.0933 3.70512 17.68 3.43857C19.08 2.81216 20.4933 2.18576 21.9333 1.66597C24.4 0.799667 26.9467 0.306539 29.56 0.133278C29.72 0.133278 29.88 0.0666389 30.04 0.0266556C31.3733 0.0266556 32.7067 0.0266556 34.04 0.0266556C34.2 0.0666389 34.36 0.11995 34.52 0.133278C36.8533 0.293211 39.16 0.679717 41.3733 1.42607C43.08 1.99917 44.7333 2.74552 46.4 3.43857C46.8933 3.63848 47.1333 4.06497 46.9867 4.61141C46.84 5.1312 46.4533 5.38442 45.8933 5.34444C45.8133 5.34444 45.7467 5.34444 45.6933 5.34444C45.2267 6.26406 45 7.11703 45.64 8.06331C46.0667 8.68971 45.9467 9.42274 45.5467 10.0758C45.12 10.7688 44.6667 11.4352 44.24 12.1283C44.12 12.3282 44.0267 12.5814 44.0267 12.8213C44.0667 15.5535 43.9867 15.3269 41.9333 16.8596C41.88 16.8996 41.8267 16.9396 41.7867 16.9663C40.9333 17.606 40.8267 17.9525 41.1333 19.0321C42.2533 19.0321 43.3867 19.1254 44.4933 19.0187C47.0533 18.7788 49.4 19.272 51.56 20.6847C51.6 20.7114 51.6267 20.738 51.6667 20.738C51.8933 20.738 52.1867 20.8446 52.3467 20.738C53.4533 19.9783 54.6933 20.005 55.9467 20.0317C57.1467 20.0716 57.9733 20.8846 58 22.0841C58 22.5639 58.08 23.0571 57.9867 23.5102C57.8667 24.0566 57.6267 24.5898 57.3467 25.0696C57.16 25.4027 56.8267 25.6693 56.52 25.9092C56.1333 26.2291 56 26.5889 56 27.0954C56.0133 28.1749 55.4 28.908 54.36 29.1479C53.7467 29.2945 53.1467 29.4277 52.52 29.521C51.2933 29.7076 50.0933 29.9475 49.36 31.0937C49.2 31.3336 49.04 31.6268 49.0267 31.9067C48.9867 32.9863 48.9867 34.0658 49.0267 35.1587C49.0267 35.4785 49.1733 35.8517 49.36 36.105C50.36 37.4111 51.44 38.6506 52.4 39.9833C52.7333 40.4365 52.9467 41.0762 52.9733 41.636C53.0533 43.1154 52.9867 44.5948 53.0133 46.0741C53.0133 46.2741 53.08 46.5673 53.2133 46.6739C54.3067 47.5269 55.4267 48.3532 56.5467 49.1928C56.64 49.0729 56.72 49.0062 56.7733 48.913C61.24 42.2224 62.8533 34.9055 61.56 26.9754C60.7733 22.1241 58.8133 17.7526 55.84 13.8342C55.36 13.1945 55.3867 12.6214 55.9067 12.2482C56.4133 11.8751 56.9467 12.0083 57.44 12.6481C60.5867 16.7797 62.6267 21.3911 63.5067 26.509C63.72 27.7618 63.84 29.0146 64 30.2674V33.8925C63.96 34.0525 63.9067 34.2124 63.8933 34.3723C63.5333 39.3303 62.1333 43.9817 59.5467 48.2199C54.4667 56.5631 47.1333 61.7076 37.5067 63.5202C36.3867 63.7334 35.2533 63.8401 34.12 64H30C29.8667 63.96 29.72 63.9067 29.5867 63.9067C22.96 63.3869 17.0533 61.0546 11.9067 56.8696C5.73333 51.8317 1.90667 45.3811 0.493333 37.531C0.28 36.3715 0.16 35.1853 0 34.0258C0 32.693 0 31.3603 0 30.0275L0.0933333 30.0008Z" fill="black"/>
<path d="M53.84 0.0133278C54.2133 0.133278 54.5867 0.2399 54.96 0.386506C56.9333 1.17284 58.1733 3.1187 58.0933 5.26447C58.0133 7.30362 56.6 9.14286 54.6267 9.76926C54.4667 9.82257 54.3067 9.87589 54.1067 9.9292C54.1067 12.0217 54.1067 14.1141 54.1067 16.2199C54.1067 16.4731 54.1067 16.7264 54.1067 16.9663C54.0667 17.5927 53.64 18.0192 53.08 17.9925C52.5467 17.9792 52.1333 17.566 52.12 16.9663C52.1067 15.6601 52.12 14.3407 52.12 13.0346C52.12 12.0217 52.12 10.9954 52.12 9.9292C51.8933 9.86256 51.6933 9.79592 51.48 9.71595C49.3467 8.95627 48.0133 6.94377 48.1333 4.67805C48.2533 2.51895 49.8267 0.653061 51.9733 0.133278C52.1067 0.0932945 52.24 0.0399833 52.3733 0C52.88 0 53.3733 0 53.8667 0L53.84 0.0133278ZM56.0933 4.98459C56.0933 3.3586 54.7333 2.01249 53.1067 2.01249C51.4533 2.01249 50.0933 3.37193 50.0933 5.02457C50.0933 6.65056 51.4533 7.99667 53.08 7.99667C54.7333 7.99667 56.0933 6.63723 56.0933 4.98459Z" fill="#0AB8B6"/>
<path d="M12.0933 11.9284C12.0933 14.2341 12.0933 16.4998 12.08 18.7655C12.08 19.0854 11.96 19.5252 11.7333 19.6985C11.4933 19.8984 10.9867 19.9917 10.7333 19.8717C10.44 19.7384 10.1467 19.2986 10.12 18.9788C10.04 17.9259 10.0933 16.8596 10.0933 15.7934C10.0933 14.5006 10.0933 13.2212 10.0933 11.9417C7 10.7289 5.66667 8.66306 6.21333 5.97085C6.68 3.61183 8.82667 1.93253 11.2667 1.99917C13.6933 2.06581 15.6933 3.87838 16.0533 6.35735C16.3333 8.32986 15.3067 11.0487 12.0933 11.915V11.9284ZM14.0933 7.02374C14.0933 5.39775 12.76 4.03832 11.1333 4.01166C9.48 3.98501 8.09333 5.34444 8.09333 6.99708C8.09333 8.62307 9.42667 9.98251 11.04 10.0092C12.6933 10.0358 14.08 8.67638 14.08 7.02374H14.0933Z" fill="#0AB8B6"/>
<path d="M25.0933 32.9329C25.0933 35.2386 25.12 37.5044 25.0667 39.7701C25.0667 40.1299 24.8533 40.6097 24.5733 40.823C23.9333 41.3161 23.0933 40.743 23.0933 39.8367C23.0933 37.7842 23.0933 35.7184 23.0933 33.666C23.0933 33.4394 23.0933 33.2128 23.0933 32.9329C21.4933 32.5065 20.2533 31.6135 19.5467 30.0675C19.0533 28.9879 18.96 27.8684 19.2667 26.7222C19.8667 24.4298 22.0133 22.8971 24.4133 23.0171C26.7733 23.1504 28.72 24.9629 29.0667 27.3886C29.4267 29.8409 27.9467 31.92 25.1067 32.9329H25.0933ZM27.0933 27.975C27.0933 26.349 25.7333 25.0029 24.1067 25.0029C22.4533 25.0029 21.0933 26.3623 21.1067 28.0283C21.1067 29.6543 22.4667 31.0004 24.0933 31.0004C25.7467 31.0004 27.1067 29.6277 27.0933 27.975Z" fill="#0AB8B6"/>
</svg>
