<svg width="57" height="64" viewBox="0 0 57 64" fill="none" xmlns="http://www.w3.org/2000/svg">
<path d="M27.7507 63.9967C27.2812 63.8331 26.7949 63.7079 26.3455 63.5009C24.1724 62.4942 23.0355 60.1254 23.5788 57.79C23.6157 57.6297 23.6459 57.4695 23.6878 57.2708C22.5274 56.6014 21.3738 55.9353 20.2185 55.2709C16.6183 53.2009 13.0132 51.1376 9.41977 49.0542C9.0559 48.8439 8.84462 48.8389 8.51597 49.1461C6.92299 50.6251 4.71463 50.9356 2.8148 49.9974C0.945148 49.0743 -0.139752 47.1462 0.0145153 45.0244C0.160398 43.0179 1.60917 41.2567 3.66997 40.6457C4.05396 40.5322 4.13948 40.3586 4.13948 39.9947C4.12942 34.6644 4.1311 29.3325 4.1378 24.0022C4.1378 23.68 4.09588 23.4914 3.7186 23.3762C1.58737 22.7252 0.158721 21.0007 0.0161921 18.9724C-0.134721 16.7989 1.00048 14.8525 2.94223 13.9544C4.88063 13.0579 7.0236 13.4469 8.67191 14.9944C8.74569 15.0645 8.8245 15.1296 8.9402 15.2297C13.86 12.4019 18.7747 9.57564 23.6828 6.75443C23.0825 4.32718 23.6341 2.32062 25.6983 0.88163C27.3818 -0.291928 29.6069 -0.295266 31.3005 0.879961C33.368 2.31561 33.918 4.32384 33.3194 6.75109C38.2124 9.56395 43.112 12.3802 48.0536 15.2231C48.2364 15.0645 48.4208 14.9042 48.6053 14.7456C50.1999 13.3768 52.3798 13.1013 54.2276 14.0345C56.0637 14.961 57.1352 16.8774 56.986 18.9724C56.8468 20.9389 55.4282 22.7285 53.4647 23.3261C53.0002 23.468 52.8543 23.6466 52.856 24.1291C52.8744 29.3976 52.8727 34.6661 52.8593 39.9346C52.8593 40.3486 52.9482 40.5372 53.3892 40.6657C55.3913 41.25 56.8334 43.0345 56.9843 45.0261C57.1469 47.1662 56.0352 49.1093 54.127 50.0241C52.2372 50.9306 50.054 50.6017 48.4778 49.1544C48.228 48.9257 48.062 48.7805 47.6897 48.9958C42.9577 51.7352 38.214 54.4563 33.4737 57.1823C33.4217 57.2124 33.3815 57.2625 33.311 57.3276C33.6061 58.3342 33.6782 59.3709 33.3529 60.3842C32.7761 62.1854 31.552 63.3406 29.7193 63.8531C29.5617 63.8965 29.4074 63.9516 29.2515 64H27.7457L27.7507 63.9967ZM32.5565 8.47553C31.6007 8.9947 30.7908 9.49217 29.9272 9.87612C29.5499 10.0447 29.4275 10.2016 29.4376 10.5906C29.4611 11.5689 29.4493 12.5471 29.4393 13.527C29.4342 14.0645 29.2112 14.4585 28.6294 14.542C28.0173 14.6288 27.5864 14.2331 27.5696 13.5303C27.5478 12.5104 27.5763 11.4887 27.5461 10.4704C27.5411 10.2951 27.3986 10.0497 27.246 9.9646C26.3657 9.47715 25.4635 9.02809 24.5698 8.56568C24.6302 8.41043 24.605 8.40709 24.5882 8.41711C19.7909 11.1665 14.9918 13.916 10.2062 16.6838C10.0603 16.7689 9.97983 17.0711 9.9748 17.273C9.95803 18.076 10.0603 18.8873 9.96641 19.6786C9.91443 20.121 10.0016 20.3063 10.3621 20.5032C11.2408 20.9824 12.1278 21.4598 12.9545 22.019C13.2094 22.191 13.4257 22.6384 13.4022 22.9405C13.3821 23.2109 13.0534 23.5715 12.7784 23.675C12.5236 23.7702 12.1245 23.6416 11.8512 23.4964C10.8602 22.9689 9.89766 22.393 9.09447 21.9339C8.18899 22.4447 7.45119 22.9706 6.6329 23.2844C6.10303 23.4864 6.0041 23.7218 6.00745 24.2142C6.02757 26.8385 6.01751 29.461 6.01751 32.0852C6.01751 34.6677 6.02757 37.2486 6.00745 39.8311C6.0041 40.3068 6.11309 40.5172 6.60775 40.7125C7.32878 40.9979 7.95423 41.5121 8.64005 41.896C8.81108 41.9912 9.10453 42.0513 9.25879 41.9695C10.0905 41.5338 10.8937 41.0463 11.7086 40.5806C12.4967 40.1299 13.0182 40.185 13.3335 40.7492C13.637 41.2934 13.424 41.7575 12.6678 42.1915C11.8897 42.6389 11.1201 43.1013 10.3303 43.527C9.98486 43.7123 9.91275 43.8976 9.96473 44.3066C10.0586 45.0595 10.0804 45.8407 9.97983 46.5886C9.91946 47.0443 9.99492 47.2463 10.3789 47.465C13.6085 49.3013 16.8263 51.1576 20.0474 53.0073C21.58 53.887 23.1143 54.7685 24.6536 55.6532C25.3914 54.872 26.2265 54.3511 27.2141 54.0556C27.3701 54.0089 27.5378 53.7084 27.5445 53.5198C27.578 52.5215 27.5596 51.5216 27.5629 50.5216C27.5646 50.0458 27.7239 49.6569 28.2219 49.505C28.8608 49.3097 29.4124 49.7237 29.4326 50.4582C29.4611 51.4782 29.4292 52.4981 29.4577 53.5181C29.4627 53.7001 29.5835 53.9588 29.731 54.0406C30.6281 54.5364 31.547 54.9921 32.5833 55.5263C37.2113 52.8671 42.0254 50.1043 46.8262 47.3198C46.9653 47.2397 47.0173 46.9241 47.0223 46.7171C47.0441 45.8942 46.9855 45.0678 47.0508 44.2498C47.0794 43.8993 47.0341 43.7257 46.7306 43.5587C45.8704 43.0863 45.0219 42.5955 44.1768 42.098C43.5631 41.7375 43.3904 41.2517 43.6687 40.7525C43.9588 40.2317 44.4853 40.1282 45.1275 40.4905C46.0012 40.9812 46.858 41.5021 47.7434 41.9695C47.8976 42.0513 48.1894 41.9929 48.3638 41.8994C49.1083 41.4971 49.8142 41.023 50.5722 40.649C50.8572 40.5088 50.9947 40.4137 50.9947 40.0848C50.9863 34.6928 50.9897 29.2991 50.9796 23.9071C50.9796 23.7518 50.8807 23.4847 50.7784 23.458C49.717 23.1876 48.84 22.6167 48.0821 21.8354C47.0592 22.4213 46.0867 22.9872 45.1057 23.5365C44.492 23.8804 43.9856 23.7835 43.6838 23.2978C43.3753 22.7969 43.5564 22.2778 44.1919 21.9055C45.0018 21.4297 45.8134 20.9573 46.6384 20.5083C46.9938 20.3146 47.0995 20.1343 47.0341 19.6836C46.9251 18.9357 46.9284 18.1511 47.024 17.3999C47.0794 16.9709 47.024 16.7806 46.6501 16.5702C44.1265 15.1413 41.6146 13.6889 39.1011 12.2416C36.8592 10.9529 34.6189 9.66411 32.5531 8.47553H32.5565ZM31.6745 5.05502C31.6694 3.29051 30.2458 1.88324 28.4768 1.89493C26.7379 1.90661 25.3411 3.30554 25.3311 5.04334C25.321 6.80618 26.7379 8.23848 28.4969 8.24349C30.2525 8.24683 31.6795 6.81619 31.6745 5.05669V5.05502ZM51.9505 48.6402C53.7212 48.6369 55.1264 47.2246 55.118 45.4534C55.1096 43.729 53.7011 42.3267 51.9606 42.3101C50.21 42.2934 48.7562 43.7273 48.7495 45.4735C48.7428 47.2129 50.1898 48.6419 51.9505 48.6386V48.6402ZM31.6745 58.9619C31.6812 57.2007 30.2575 55.7717 28.4986 55.7734C26.7664 55.7751 25.3512 57.1757 25.3311 58.9068C25.3109 60.6746 26.7128 62.1069 28.4751 62.1203C30.2425 62.1337 31.6694 60.7247 31.6745 58.9619ZM5.07347 48.6402C6.83412 48.6369 8.27618 47.1946 8.25606 45.4551C8.23761 43.7323 6.82071 42.3251 5.08856 42.3101C3.33125 42.295 1.89087 43.7173 1.88752 45.4718C1.88416 47.2363 3.2994 48.6436 5.07347 48.6402ZM5.03993 15.3716C3.26586 15.3817 1.8741 16.7956 1.88752 18.5701C1.90093 20.2962 3.31616 21.6902 5.05837 21.6968C6.81232 21.7018 8.26109 20.2612 8.25438 18.5201C8.24768 16.7689 6.80897 15.3616 5.03825 15.3716H5.03993ZM55.118 18.5251C55.1146 16.7589 53.7028 15.365 51.922 15.37C50.1865 15.375 48.7713 16.7722 48.7495 18.5C48.7277 20.2378 50.1697 21.6885 51.927 21.6952C53.6894 21.7018 55.1214 20.2812 55.118 18.5251Z" fill="black"/>
<path d="M17.767 26.6899C16.9403 25.7868 16.3685 24.7501 16.1757 23.5181C15.7296 20.6585 17.4383 17.9007 20.2 17.0477C22.9483 16.1996 25.923 17.4617 27.1621 20.0542C27.3952 20.54 27.6753 20.5266 28.1364 20.6034C29.2934 20.7987 29.7243 20.1978 30.2827 19.338C32.0953 16.5419 35.9436 15.9659 38.6031 17.9808C41.2642 19.9974 41.6867 23.8002 39.5303 26.3477C39.4364 26.4578 39.3409 26.5663 39.205 26.7233C39.3878 26.8485 39.5538 26.9586 39.7165 27.0738C42.0003 28.6764 43.2176 30.8733 43.3954 33.6427C43.4423 34.3706 43.1154 34.8247 42.5419 34.8764C41.9466 34.9298 41.576 34.5242 41.519 33.7429C41.3346 31.2405 40.1642 29.3659 37.9139 28.2107C37.6389 28.0704 37.2499 28.1022 36.9195 28.1272C36.113 28.1906 35.3115 28.3342 34.5032 28.3693C34.1478 28.3843 33.9599 28.4344 33.7872 28.7782C33.4921 29.3675 33.1014 29.9101 32.7124 30.5327C32.8331 30.6179 33.0159 30.7414 33.1936 30.8699C35.4121 32.4659 36.6529 34.6043 36.8038 37.3404C36.8508 38.1984 36.5422 38.6241 35.9101 38.6391C35.2863 38.6525 34.9828 38.2552 34.9208 37.3888C34.7447 34.9215 33.5357 33.1169 31.3424 31.9817C31.0691 31.8398 30.6566 31.8131 30.3548 31.8999C29.0888 32.2622 27.8463 32.2572 26.587 31.8799C26.3388 31.8048 25.9984 31.8065 25.7721 31.9166C23.5352 33.0234 22.2809 34.8146 22.0764 37.3087C22.063 37.4739 22.0663 37.6425 22.0361 37.8061C21.9355 38.3637 21.5582 38.6725 21.0401 38.6375C20.5102 38.6024 20.1765 38.2235 20.1849 37.6075C20.2151 35.2119 21.139 33.2037 22.9014 31.5828C23.3273 31.1905 23.8169 30.8649 24.2596 30.5244C23.8706 29.8683 23.4832 29.1939 23.064 28.5395C22.9986 28.4377 22.7924 28.3993 22.6465 28.3809C21.7226 28.2591 20.7986 28.1339 19.8714 28.0487C19.6198 28.0254 19.3281 28.0754 19.105 28.1906C16.9319 29.3141 15.7363 31.1053 15.4965 33.5292C15.4848 33.6528 15.4831 33.778 15.4714 33.9032C15.4127 34.5325 15.0287 34.9115 14.4854 34.8781C13.9421 34.8447 13.5196 34.419 13.6152 33.798C13.7728 32.758 13.9438 31.6963 14.301 30.7147C14.8627 29.1705 15.9459 27.9786 17.3125 27.0538C17.4333 26.972 17.5574 26.8969 17.6764 26.8134C17.7083 26.7917 17.725 26.7466 17.7619 26.6899H17.767ZM28.517 30.2974C30.7053 30.289 32.4626 28.5379 32.4609 26.3694C32.4592 24.2092 30.6868 22.4347 28.5204 22.4197C26.3388 22.4046 24.5228 24.2209 24.5446 26.3977C24.5664 28.5746 26.3304 30.3057 28.517 30.2974ZM25.6245 21.2945C24.9756 19.3013 22.7756 18.2146 20.7601 18.8456C18.6724 19.4983 17.5087 21.6851 18.1493 23.7518C18.7512 25.6916 20.8456 26.9403 22.6431 26.3994C22.7119 24.1925 23.7029 22.4864 25.6245 21.2945ZM34.3708 26.4612C36.7301 26.77 38.5997 25.4061 38.9854 23.1725C39.3224 21.2194 37.9424 19.2011 35.9738 18.7688C33.9667 18.3264 31.8673 19.4783 31.3978 21.3079C33.3127 22.4731 34.292 24.2109 34.3691 26.4612H34.3708Z" fill="#0AB8B6"/>
<path d="M28.5656 45.3683C31.0758 45.3683 33.586 45.3683 36.0962 45.3683C36.9028 45.3683 37.3119 45.6872 37.3102 46.2981C37.3102 46.9058 36.8877 47.2397 36.0945 47.2397C31.0322 47.2413 25.9699 47.243 20.9076 47.2397C19.9552 47.2397 19.4186 46.5803 19.7875 45.8758C20.0105 45.4501 20.3962 45.3616 20.8456 45.3633C23.4178 45.3716 25.9917 45.3683 28.564 45.3683H28.5656Z" fill="black"/>
<path d="M34.9744 43.5537C34.515 43.5537 34.0555 43.5721 33.5978 43.5487C33.0327 43.5187 32.6705 43.1598 32.652 42.664C32.6319 42.1448 32.9991 41.7274 33.5894 41.7057C34.5267 41.6724 35.4691 41.6724 36.4064 41.7091C36.9866 41.7308 37.3086 42.1047 37.3102 42.6239C37.3119 43.1714 36.9698 43.5203 36.3528 43.5504C35.895 43.5738 35.4339 43.5554 34.9744 43.5537Z" fill="black"/>
<path d="M23.8756 41.7074C24.4038 41.7024 24.8448 42.1364 24.833 42.6489C24.8213 43.1397 24.4021 43.5437 23.8974 43.5504C23.3491 43.5571 22.9483 43.1531 22.9584 42.6089C22.9684 42.0914 23.3524 41.7124 23.8756 41.7074Z" fill="black"/>
<path d="M28.0945 42.6439C28.0844 43.1598 27.6317 43.5704 27.1001 43.547C26.5786 43.5237 26.2114 43.133 26.2181 42.6122C26.2265 42.0697 26.6457 41.6807 27.194 41.7074C27.6954 41.7308 28.1028 42.1548 28.0928 42.6439H28.0945Z" fill="black"/>
<path d="M20.6108 41.7074C21.139 41.6991 21.5834 42.1314 21.5733 42.6439C21.5649 43.1347 21.1457 43.542 20.6427 43.5504C20.096 43.5587 19.6903 43.1581 19.697 42.6139C19.7037 42.0947 20.0877 41.7158 20.6108 41.7074Z" fill="black"/>
</svg>
